<?xml version="1.0" encoding="utf-8"?>
<!-- Generator: Adobe Illustrator 25.4.0, SVG Export Plug-In . SVG Version: 6.00 Build 0)  -->
<svg version="1.1" id="Livello_1" xmlns="http://www.w3.org/2000/svg" xmlns:xlink="http://www.w3.org/1999/xlink" x="0px" y="0px"
	 width="484px" height="484px" viewBox="0 0 484 484" style="enable-background:new 0 0 484 484;" xml:space="preserve">
<style type="text/css">
	
		.st0{clip-path:url(#SVGID_00000147925150441142019430000013535452395817335712_);fill:none;stroke:#FDE7DA;stroke-width:12;stroke-linejoin:round;stroke-miterlimit:10;}
</style>
<g>
	<g>
		<defs>
			<rect id="SVGID_1_" x="0.4" y="0.2" width="484" height="484"/>
		</defs>
		<clipPath id="SVGID_00000162335687163792572350000005010936910551670660_">
			<use xlink:href="#SVGID_1_"  style="overflow:visible;"/>
		</clipPath>
		
			<path style="clip-path:url(#SVGID_00000162335687163792572350000005010936910551670660_);fill:none;stroke:#FDE7DA;stroke-width:12;stroke-linejoin:round;stroke-miterlimit:10;" d="
			M242.4,242.2c-24.1-48.2-48.2-96.5-71.8-136.8c-18.1-30.9-36-57.5-53.2-75.3C103.6,15.8,89.3,6.2,75.6,6.2c-7.7,0-16.2,3-24.5,12
			C37.9,32.4,28.2,57.9,21.3,87.8c-10,43.4-14.8,99.3-14.8,154.4s4.8,111,14.8,154.4c6.9,29.9,16.6,55.4,29.8,69.6
			c8.4,9,16.8,12,24.5,12c13.7,0,28-9.6,41.8-23.9c17.3-17.9,35.2-44.4,53.2-75.3C194.2,338.7,218.3,290.4,242.4,242.2
			s48.2-96.5,71.8-136.8c18.1-30.9,36-57.5,53.2-75.3c13.8-14.3,28.1-23.9,41.9-23.9c7.7,0,16.1,3,24.5,12
			c13.1,14.2,22.9,39.7,29.8,69.6c10,43.4,14.8,99.3,14.8,154.4s-4.8,111-14.8,154.4c-6.9,29.9-16.6,55.4-29.8,69.6
			c-8.4,9-16.8,12-24.5,12c-13.7,0-28-9.6-41.9-23.9c-17.3-17.9-35.2-44.4-53.2-75.3C290.7,338.7,266.5,290.4,242.4,242.2z"/>
	</g>
</g>
</svg>
