<?xml version="1.0" encoding="utf-8"?>
<!-- Generator: Adobe Illustrator 25.4.0, SVG Export Plug-In . SVG Version: 6.00 Build 0)  -->
<svg version="1.1" id="Livello_1" xmlns="http://www.w3.org/2000/svg" xmlns:xlink="http://www.w3.org/1999/xlink" x="0px" y="0px"
	 width="484px" height="484px" viewBox="0 0 484 484" style="enable-background:new 0 0 484 484;" xml:space="preserve">
<style type="text/css">
	
		.st0{clip-path:url(#SVGID_00000177461982488076301740000013014874332481952172_);fill:none;stroke:#3F89FF;stroke-width:12;stroke-linejoin:round;stroke-miterlimit:10;}
</style>
<g>
	<defs>
		<rect id="SVGID_1_" x="0.42" y="0.22" width="484" height="484"/>
	</defs>
	<clipPath id="SVGID_00000160191683862578111170000004832013591585819803_">
		<use xlink:href="#SVGID_1_"  style="overflow:visible;"/>
	</clipPath>
	
		<path style="clip-path:url(#SVGID_00000160191683862578111170000004832013591585819803_);fill:none;stroke:#3F89FF;stroke-width:12;stroke-linejoin:round;stroke-miterlimit:10;" d="
		M242.42,242.22c-24.11-48.22-48.25-96.5-71.79-136.77c-18.06-30.9-35.98-57.45-53.24-75.31C103.55,15.82,89.29,6.22,75.55,6.22
		c-7.72,0-16.15,3.03-24.51,12.04C37.88,32.43,28.17,57.91,21.26,87.84C11.25,131.23,6.42,187.1,6.42,242.22
		s4.83,110.99,14.84,154.38c6.91,29.93,16.62,55.41,29.77,69.58c8.36,9.01,16.78,12.04,24.51,12.04c13.74,0,28.01-9.6,41.85-23.92
		c17.26-17.85,35.18-44.4,53.24-75.31C194.18,338.72,218.31,290.44,242.42,242.22s48.25-96.5,71.79-136.77
		c18.06-30.9,35.98-57.45,53.24-75.31c13.84-14.32,28.11-23.92,41.85-23.92c7.72,0,16.15,3.03,24.51,12.04
		c13.15,14.18,22.87,39.65,29.77,69.58c10.01,43.39,14.84,99.26,14.84,154.38s-4.83,110.99-14.84,154.38
		c-6.91,29.93-16.62,55.41-29.77,69.58c-8.36,9.01-16.78,12.04-24.51,12.04c-13.74,0-28.01-9.6-41.85-23.92
		c-17.26-17.85-35.18-44.4-53.24-75.31C290.67,338.72,266.53,290.44,242.42,242.22z"/>
</g>
</svg>
