<?xml version="1.0" encoding="utf-8"?>
<!-- Generator: Adobe Illustrator 26.4.1, SVG Export Plug-In . SVG Version: 6.00 Build 0)  -->
<svg version="1.1" id="a" xmlns="http://www.w3.org/2000/svg" xmlns:xlink="http://www.w3.org/1999/xlink" x="0px" y="0px"
	 viewBox="0 0 307 450" style="enable-background:new 0 0 307 450;" xml:space="preserve">
<style type="text/css">
	.st0{fill:none;stroke:#B5D300;stroke-width:9.38;stroke-miterlimit:10;}
	.st1{fill:none;stroke:#FFFFFF;stroke-width:9.38;stroke-miterlimit:10;}
</style>
<g>
	<line class="st0" x1="6.3" y1="216.1" x2="6.3" y2="234.3"/>
	<line class="st0" x1="25.1" y1="197.8" x2="25.1" y2="249.7"/>
	<line class="st0" x1="43.8" y1="168.2" x2="43.8" y2="281.3"/>
	<line class="st0" x1="62.6" y1="110" x2="62.6" y2="339.5"/>
	<line class="st0" x1="157.3" y1="216.1" x2="157.3" y2="234.3"/>
	<line class="st0" x1="138.5" y1="199.5" x2="138.5" y2="251.4"/>
	<line class="st0" x1="119.8" y1="169.9" x2="119.8" y2="282.9"/>
	<line class="st0" x1="101" y1="111.7" x2="101" y2="341.1"/>
	<line class="st0" x1="177" y1="216.1" x2="177" y2="234.3"/>
	<line class="st0" x1="195.7" y1="199.5" x2="195.7" y2="251.4"/>
	<line class="st0" x1="214.5" y1="169.9" x2="214.5" y2="282.9"/>
	<line class="st0" x1="289.5" y1="216.1" x2="289.5" y2="234.3"/>
	<line class="st0" x1="270.7" y1="199.5" x2="270.7" y2="251.4"/>
	<line class="st0" x1="252" y1="169.9" x2="252" y2="282.9"/>
	<line class="st0" x1="233.2" y1="111.7" x2="233.2" y2="341.1"/>
	<line class="st0" x1="81.3" y1="286.4" x2="81.3" y2="444.7"/>
	<line class="st0" x1="81.3" y1="5.3" x2="81.3" y2="172"/>
</g>
<g>
	<line class="st1" x1="6.3" y1="219.2" x2="6.3" y2="231.2"/>
	<line class="st1" x1="25.1" y1="207.2" x2="25.1" y2="241.5"/>
	<line class="st1" x1="43.8" y1="187.7" x2="43.8" y2="262.3"/>
	<line class="st1" x1="62.6" y1="149.3" x2="62.6" y2="300.8"/>
	<line class="st1" x1="157.3" y1="219.2" x2="157.3" y2="231.2"/>
	<line class="st1" x1="138.5" y1="208.3" x2="138.5" y2="242.6"/>
	<line class="st1" x1="119.8" y1="188.8" x2="119.8" y2="263.5"/>
	<line class="st1" x1="101" y1="150.4" x2="101" y2="301.9"/>
	<line class="st1" x1="81.3" y1="277.8" x2="81.3" y2="413.9"/>
	<line class="st1" x1="81.3" y1="36.2" x2="81.3" y2="179.5"/>
	<line class="st1" x1="177" y1="219.2" x2="177" y2="231.2"/>
	<line class="st1" x1="195.7" y1="208.3" x2="195.7" y2="242.6"/>
	<line class="st1" x1="214.5" y1="188.8" x2="214.5" y2="263.5"/>
	<line class="st1" x1="289.5" y1="219.2" x2="289.5" y2="231.2"/>
	<line class="st1" x1="270.7" y1="208.3" x2="270.7" y2="242.6"/>
	<line class="st1" x1="252" y1="188.8" x2="252" y2="263.5"/>
	<line class="st1" x1="233.2" y1="150.4" x2="233.2" y2="301.9"/>
</g>
</svg>
