<?xml version="1.0" encoding="UTF-8"?>
<svg id="a" data-name="Livello 1" xmlns="http://www.w3.org/2000/svg" viewBox="0 0 242.78 450">
  <defs>
    <style>
      .b, .c {
        stroke-width: 10.8px;
      }

      .b, .c, .d, .e {
        fill: none;
        stroke-miterlimit: 10;
      }

      .b, .e {
        stroke: #fff;
      }

      .c, .d {
        stroke: #b5d300;
      }

      .d, .e {
        stroke-width: 10.01px;
      }
    </style>
  </defs>
  <g>
    <line class="e" x1="74.86" y1="59.09" x2="74.86" y2="390.91"/>
    <line class="b" x1="94.88" y1="418.01" x2="94.88" y2="31.99"/>
    <line class="e" x1="115.9" y1="59.09" x2="115.9" y2="390.91"/>
    <line class="e" x1="196.35" y1="158.21" x2="196.35" y2="291.79"/>
    <line class="b" x1="216.37" y1="302.7" x2="216.37" y2="147.3"/>
    <line class="e" x1="237.39" y1="158.21" x2="237.39" y2="291.79"/>
    <line class="e" x1="135.92" y1="209.24" x2="135.92" y2="240.76"/>
    <line class="e" x1="155.94" y1="248.72" x2="155.94" y2="201.28"/>
    <line class="e" x1="175.96" y1="209.24" x2="175.96" y2="240.76"/>
    <line class="e" x1="14.8" y1="209.24" x2="14.8" y2="240.76"/>
    <line class="e" x1="34.82" y1="248.72" x2="34.82" y2="201.28"/>
    <line class="e" x1="54.84" y1="209.24" x2="54.84" y2="240.76"/>
  </g>
  <g>
    <line class="d" x1="74.86" y1="115.01" x2="74.86" y2="334.99"/>
    <line class="c" x1="94.88" y1="352.95" x2="94.88" y2="97.05"/>
    <line class="d" x1="115.9" y1="115.01" x2="115.9" y2="334.99"/>
    <line class="d" x1="196.35" y1="180.72" x2="196.35" y2="269.28"/>
    <line class="c" x1="216.37" y1="276.51" x2="216.37" y2="173.49"/>
    <line class="d" x1="237.39" y1="180.72" x2="237.39" y2="269.28"/>
    <line class="d" x1="135.92" y1="218.54" x2="135.92" y2="231.71"/>
    <line class="d" x1="155.94" y1="235.03" x2="155.94" y2="215.21"/>
    <line class="d" x1="175.96" y1="218.54" x2="175.96" y2="231.71"/>
    <line class="d" x1="14.8" y1="218.54" x2="14.8" y2="231.71"/>
    <line class="d" x1="34.82" y1="235.03" x2="34.82" y2="215.21"/>
    <line class="d" x1="54.84" y1="218.54" x2="54.84" y2="231.71"/>
  </g>
</svg>