<?xml version="1.0" encoding="UTF-8"?>
<svg id="a" data-name="Livello 1" xmlns="http://www.w3.org/2000/svg" viewBox="0 0 379.81 450">
  <defs>
    <style>
      .b {
        stroke: #fff;
      }

      .b, .c {
        fill: none;
        stroke-miterlimit: 10;
        stroke-width: 10px;
      }

      .c {
        stroke: #ffd101;
      }
    </style>
  </defs>
  <g>
    <line class="c" x1="25" y1="177.8" x2="25" y2="273.86"/>
    <line class="c" x1="5" y1="216.6" x2="5" y2="233.06"/>
    <line class="c" x1="45" y1="111.99" x2="45" y2="339.53"/>
    <line class="c" x1="65" y1="71.18" x2="65" y2="187.87"/>
    <line class="c" x1="85" y1="51.15" x2="85" y2="157.77"/>
    <line class="c" x1="104.49" y1="36.74" x2="104.49" y2="144.98"/>
    <line class="c" x1="145" y1="70.23" x2="145" y2="186.92"/>
    <line class="c" x1="125" y1="50.22" x2="125" y2="156.83"/>
    <line class="c" x1="65" y1="381.86" x2="65" y2="265.16"/>
    <line class="c" x1="85" y1="401.73" x2="85" y2="295.12"/>
    <line class="c" x1="104.77" y1="413.26" x2="104.77" y2="307.91"/>
    <line class="c" x1="145" y1="380.9" x2="145" y2="264.21"/>
    <line class="c" x1="125" y1="400.8" x2="125" y2="294.18"/>
    <line class="c" x1="165" y1="111.12" x2="165" y2="338.66"/>
    <line class="c" x1="185" y1="176.8" x2="185" y2="272.86"/>
    <line class="c" x1="225" y1="203.82" x2="225" y2="247.84"/>
    <line class="c" x1="205" y1="233.06" x2="205" y2="216.6"/>
    <line class="c" x1="245" y1="153" x2="245" y2="298.66"/>
    <line class="c" x1="264.02" y1="137.69" x2="264.02" y2="313.97"/>
    <line class="c" x1="285" y1="120.09" x2="285" y2="331.57"/>
    <line class="c" x1="305.98" y1="137.69" x2="305.98" y2="313.97"/>
    <line class="c" x1="325" y1="153" x2="325" y2="298.66"/>
    <line class="c" x1="345" y1="203.82" x2="345" y2="247.84"/>
  </g>
  <g>
    <line class="b" x1="25" y1="189.58" x2="25" y2="261.66"/>
    <line class="b" x1="5" y1="218.7" x2="5" y2="231.05"/>
    <line class="b" x1="45" y1="140.2" x2="45" y2="310.95"/>
    <line class="b" x1="65" y1="109.57" x2="65" y2="197.14"/>
    <line class="b" x1="85" y1="94.53" x2="85" y2="174.54"/>
    <line class="b" x1="104.49" y1="83.72" x2="104.49" y2="164.95"/>
    <line class="b" x1="145" y1="108.85" x2="145" y2="196.42"/>
    <line class="b" x1="125" y1="93.83" x2="125" y2="173.84"/>
    <line class="b" x1="65" y1="342.71" x2="65" y2="255.14"/>
    <line class="b" x1="85" y1="357.63" x2="85" y2="277.62"/>
    <line class="b" x1="104.77" y1="366.28" x2="104.77" y2="287.22"/>
    <line class="b" x1="145" y1="342" x2="145" y2="254.43"/>
    <line class="b" x1="125" y1="356.93" x2="125" y2="276.92"/>
    <line class="b" x1="165" y1="139.54" x2="165" y2="310.3"/>
    <line class="b" x1="185" y1="188.83" x2="185" y2="260.91"/>
    <line class="b" x1="225" y1="209.1" x2="225" y2="242.14"/>
    <line class="b" x1="205" y1="231.05" x2="205" y2="218.7"/>
    <line class="b" x1="245" y1="170.97" x2="245" y2="280.28"/>
    <line class="b" x1="264.02" y1="159.48" x2="264.02" y2="291.77"/>
    <line class="b" x1="285" y1="245.86" x2="285" y2="304.98"/>
    <line class="b" x1="285" y1="146.27" x2="285" y2="203.82"/>
    <line class="b" x1="305.98" y1="159.48" x2="305.98" y2="291.77"/>
    <line class="b" x1="325" y1="170.97" x2="325" y2="280.28"/>
    <line class="b" x1="345" y1="209.1" x2="345" y2="242.14"/>
  </g>
  <line class="c" x1="365" y1="216.6" x2="365" y2="233.06"/>
  <line class="b" x1="365" y1="218.7" x2="365" y2="231.05"/>
</svg>