<?xml version="1.0" encoding="UTF-8"?>
<svg id="a" data-name="Livello 1" xmlns="http://www.w3.org/2000/svg" viewBox="0 0 303.76 450">
  <defs>
    <style>
      .b {
        stroke: #fff;
      }

      .b, .c {
        fill: none;
        stroke-miterlimit: 10;
        stroke-width: 9.38px;
      }

      .c {
        stroke: #3f89ff;
      }
    </style>
  </defs>
  <g>
    <line class="b" x1="6.35" y1="216.12" x2="6.35" y2="234.28"/>
    <line class="b" x1="25.1" y1="197.78" x2="25.1" y2="249.71"/>
    <line class="b" x1="43.85" y1="168.22" x2="43.85" y2="281.27"/>
    <line class="b" x1="62.6" y1="110.01" x2="62.6" y2="339.47"/>
    <line class="b" x1="157.29" y1="216.12" x2="157.29" y2="234.28"/>
    <line class="b" x1="138.54" y1="199.46" x2="138.54" y2="251.39"/>
    <line class="b" x1="119.79" y1="169.9" x2="119.79" y2="282.94"/>
    <line class="b" x1="101.04" y1="111.69" x2="101.04" y2="341.15"/>
    <line class="b" x1="176.98" y1="216.12" x2="176.98" y2="234.28"/>
    <line class="b" x1="195.73" y1="199.46" x2="195.73" y2="251.39"/>
    <line class="b" x1="214.48" y1="169.9" x2="214.48" y2="282.94"/>
    <line class="b" x1="289.48" y1="216.12" x2="289.48" y2="234.28"/>
    <line class="b" x1="270.73" y1="199.46" x2="270.73" y2="251.39"/>
    <line class="b" x1="251.98" y1="169.9" x2="251.98" y2="282.94"/>
    <line class="b" x1="233.23" y1="111.69" x2="233.23" y2="341.15"/>
    <line class="b" x1="81.35" y1="286.37" x2="81.35" y2="444.74"/>
    <line class="b" x1="81.35" y1="5.31" x2="81.35" y2="172.01"/>
  </g>
  <g>
    <line class="c" x1="6.35" y1="219.21" x2="6.35" y2="231.2"/>
    <line class="c" x1="25.1" y1="207.23" x2="25.1" y2="241.51"/>
    <line class="c" x1="43.85" y1="187.71" x2="43.85" y2="262.34"/>
    <line class="c" x1="62.6" y1="149.29" x2="62.6" y2="300.77"/>
    <line class="c" x1="157.29" y1="219.21" x2="157.29" y2="231.2"/>
    <line class="c" x1="138.54" y1="208.34" x2="138.54" y2="242.62"/>
    <line class="c" x1="119.79" y1="188.82" x2="119.79" y2="263.45"/>
    <line class="c" x1="101.04" y1="150.4" x2="101.04" y2="301.88"/>
    <line class="c" x1="81.35" y1="277.75" x2="81.35" y2="413.87"/>
    <line class="c" x1="81.35" y1="36.19" x2="81.35" y2="179.46"/>
    <line class="c" x1="176.98" y1="219.21" x2="176.98" y2="231.2"/>
    <line class="c" x1="195.73" y1="208.34" x2="195.73" y2="242.62"/>
    <line class="c" x1="214.48" y1="188.82" x2="214.48" y2="263.45"/>
    <line class="c" x1="289.48" y1="219.21" x2="289.48" y2="231.2"/>
    <line class="c" x1="270.73" y1="208.34" x2="270.73" y2="242.62"/>
    <line class="c" x1="251.98" y1="188.82" x2="251.98" y2="263.45"/>
    <line class="c" x1="233.23" y1="150.4" x2="233.23" y2="301.88"/>
  </g>
</svg>