<?xml version="1.0" encoding="utf-8"?>
<!-- Generator: Adobe Illustrator 27.5.0, SVG Export Plug-In . SVG Version: 6.00 Build 0)  -->
<svg version="1.1" id="background" xmlns="http://www.w3.org/2000/svg" xmlns:xlink="http://www.w3.org/1999/xlink" x="0px" y="0px"
	 viewBox="0 0 1920 866" style="enable-background:new 0 0 1920 866;" xml:space="preserve">
<style type="text/css">
	.st0{fill:url(#SVGID_1_);}
	.st1{fill:#FFFF82;}
	.st2{fill:#FF8250;}
	.st3{fill:#FAC8B4;}
	.st4{fill:none;stroke:#000000;stroke-width:2;stroke-linecap:round;stroke-linejoin:round;stroke-miterlimit:10;}
	.st5{stroke:#000000;stroke-width:5;stroke-miterlimit:10;}
</style>
<linearGradient id="SVGID_1_" gradientUnits="userSpaceOnUse" x1="960" y1="297.002" x2="960" y2="0">
	<stop  offset="0.6" style="stop-color:#EC6B77"/>
	<stop  offset="1" style="stop-color:#9664B4"/>
</linearGradient>
<rect class="st0" width="1920" height="297"/>
<ellipse class="st1" cx="1854.31" cy="184.15" rx="46.26" ry="46.27"/>
<g>
	<path class="st2" d="M1920.12,296.14h-753.4l0.75-17.51c276.52-0.32,432.78-92.14,432.78-92.14s25.46,20.29,54.58,19.33
		c51.74-1.71,88.13-34.12,88.13-34.12l40.25,2.56c44.95,27.96,79.45,49.02,136.75,64.87L1920.12,296.14z"/>
</g>
<rect y="297" class="st3" width="1920" height="569"/>
<path class="st4" d="M1920.12,238.56c-56.5-15.69-90.79-36.56-136.91-64.3l-40.25-2.56c0,0-36.39,32.41-88.13,34.12
	c-29.12,0.96-54.58-19.33-54.58-19.33s-154.19,92.14-432.78,92.14"/>
<line class="st4" x1="1920.44" y1="296.37" x2="0.56" y2="296.37"/>
<g>
	<line class="st4" x1="709.88" y1="247.66" x2="709.88" y2="295.37"/>
	<path class="st5" d="M778.7,130.07c-4.85,0.2-9.7,0.45-14.55,0.76c-0.39,0.02-0.65,0.06-0.77,0.11c-0.12,0.05-0.18,0.27-0.18,0.66
		c0,0.02,0.01,0.06,0.02,0.08c0,0.06-0.02,0.09-0.02,0.16c0,0.02,0.01,0.06,0.02,0.08c0,0.06-0.02,0.09-0.02,0.16
		c0,0.02,0.01,0.06,0.02,0.08c0,0.06-0.02,0.09-0.02,0.16c0,0.02,0.01,0.06,0.02,0.08c0,0.06-0.02,0.09-0.02,0.16
		c0,0.02,0.01,0.06,0.02,0.08c0,0.06-0.02,0.09-0.02,0.16c0,0.02,0.01,0.06,0.02,0.08c0,0.06-0.02,0.09-0.02,0.16
		c0,0.02,0.01,0.06,0.02,0.08c0,0.06-0.02,0.09-0.02,0.16c0,0.02,0.01,0.06,0.02,0.08c0,0.06-0.02,0.09-0.02,0.16
		c0,0.02,0.01,0.06,0.02,0.08c0,0.06-0.02,0.09-0.02,0.16c0,0.02,0.01,0.06,0.02,0.08c0,0.06-0.02,0.09-0.02,0.16
		c0,0.02,0.01,0.06,0.02,0.08c0,0.06-0.02,0.09-0.02,0.16c0,0.02,0.01,0.06,0.02,0.08c0,0.06-0.02,0.09-0.02,0.16
		c0,0.02,0.01,0.06,0.02,0.08c0,0.06-0.02,0.09-0.02,0.16c0,0.02,0.01,0.06,0.02,0.08c0,0.06-0.02,0.09-0.02,0.16
		c0,0.02,0.01,0.06,0.02,0.08c0,0.06-0.02,0.09-0.02,0.16c0,0.02,0.01,0.06,0.02,0.08c0,0.06-0.02,0.09-0.02,0.16
		c0,0.02,0.01,0.06,0.02,0.08c0,0.06-0.02,0.09-0.02,0.16c0,0.02,0.01,0.06,0.02,0.08c0,0.06-0.02,0.09-0.02,0.16
		c0,0.02,0.01,0.06,0.02,0.08c0,0.06-0.02,0.09-0.02,0.16c0,0.02,0.01,0.06,0.02,0.08c0,0.06-0.02,0.09-0.02,0.16
		c0,0.02,0.01,0.06,0.02,0.08c0,0.06-0.02,0.09-0.02,0.16c0,0.02,0.01,0.06,0.02,0.08c0,0.06-0.02,0.09-0.02,0.16
		c0,0.02,0.01,0.06,0.02,0.08c0,0.06-0.02,0.09-0.02,0.16c0,0.02,0.01,0.06,0.02,0.08c0,0.06-0.02,0.09-0.02,0.16
		c0,0.02,0.01,0.06,0.02,0.08c0,0.06-0.02,0.09-0.02,0.16c0,0.02,0.01,0.06,0.02,0.08c0,0.06-0.02,0.09-0.02,0.16
		c0,0.02,0.01,0.06,0.02,0.08c0,0.06-0.02,0.09-0.02,0.16c0,0.02,0.01,0.06,0.02,0.08c0,0.06-0.02,0.09-0.02,0.16
		c0,0.02,0.01,0.06,0.02,0.08c0,0.06-0.02,0.09-0.02,0.16c0,0.02,0.01,0.06,0.02,0.08c0,0.06-0.02,0.09-0.02,0.16
		c0,0.02,0.01,0.06,0.02,0.08c0,0.06-0.02,0.09-0.02,0.16c0,0.02,0.01,0.06,0.02,0.08c0,0.06-0.02,0.09-0.02,0.16
		c0,0.02,0.01,0.06,0.02,0.08c0,0.06-0.02,0.09-0.02,0.16c0,0.02,0.01,0.06,0.02,0.08c0,0.06-0.02,0.09-0.02,0.16
		c0,0.02,0.01,0.06,0.02,0.08c0,0.06-0.02,0.09-0.02,0.16c0,0.02,0.01,0.06,0.02,0.08c0,0.06-0.02,0.09-0.02,0.16
		c0,0.02,0.01,0.06,0.02,0.08c0,0.06-0.02,0.09-0.02,0.16c0,0.02,0.01,0.06,0.02,0.08c0,0.06-0.02,0.09-0.02,0.16
		c0,0.02,0.01,0.06,0.02,0.08c0,0.06-0.02,0.09-0.02,0.16c0,0.02,0.01,0.06,0.02,0.08c0,0.06-0.02,0.09-0.02,0.16
		c0,0.02,0.01,0.06,0.02,0.08c0,0.06-0.02,0.09-0.02,0.16c0,0.02,0.01,0.06,0.02,0.08c0,0.06-0.02,0.09-0.02,0.16
		c0,0.02,0.01,0.06,0.02,0.08c0,0.06-0.02,0.09-0.02,0.16c0,0.02,0.01,0.06,0.02,0.08c0,0.06-0.02,0.09-0.02,0.16
		c0,0.02,0.01,0.06,0.02,0.08c0,0.06-0.02,0.09-0.02,0.16c0,0.02,0.01,0.06,0.02,0.08c0,0.06-0.02,0.09-0.02,0.16
		c0,0.02,0.01,0.06,0.02,0.08c0,0.06-0.02,0.09-0.02,0.16c0,0.02,0.01,0.06,0.02,0.08c0,0.06-0.02,0.09-0.02,0.16
		c0,0.02,0.01,0.06,0.02,0.08c0,0.06-0.02,0.09-0.02,0.16c0,0.02,0.01,0.06,0.02,0.08c0,0.06-0.02,0.09-0.02,0.16
		c0,0.02,0.01,0.06,0.02,0.08c0,0.06-0.02,0.09-0.02,0.16c0,0.02,0.01,0.06,0.02,0.08c0,0.06-0.02,0.09-0.02,0.16
		c0,0.02,0.01,0.06,0.02,0.08c0,0.06-0.02,0.09-0.02,0.16c0,0.02,0.01,0.06,0.02,0.08c0,0.06-0.02,0.09-0.02,0.16
		c0,0.02,0.01,0.06,0.02,0.08c0,0.06-0.02,0.09-0.02,0.16c0,0.02,0.01,0.06,0.02,0.08c0,0.06-0.02,0.09-0.02,0.16
		c0,0.02,0.01,0.06,0.02,0.08c0,0.06-0.02,0.09-0.02,0.16c0,0.02,0.01,0.06,0.02,0.08c0,0.06-0.02,0.09-0.02,0.16
		c0,0.02,0.01,0.06,0.02,0.08c0,0.06-0.02,0.09-0.02,0.16c0,0.02,0.01,0.06,0.02,0.08c0,0.06-0.02,0.09-0.02,0.16
		c0,0.02,0.01,0.06,0.02,0.08c0,0.06-0.02,0.09-0.02,0.16c0,0.02,0.01,0.06,0.02,0.08c0,0.06-0.02,0.09-0.02,0.16
		c0,0.02,0.01,0.06,0.02,0.08c0,0.06-0.02,0.09-0.02,0.16c0,0.02,0.01,0.06,0.02,0.08c0,0.06-0.02,0.09-0.02,0.16
		c0,0.02,0.01,0.06,0.02,0.08c0,0.06-0.02,0.09-0.02,0.16c0,0.02,0.01,0.06,0.02,0.08c0,0.06-0.02,0.09-0.02,0.16
		c0,0.02,0.01,0.06,0.02,0.08c0,0.06-0.02,0.09-0.02,0.16c0,0.02,0.01,0.06,0.02,0.08c0,0.06-0.02,0.09-0.02,0.16
		c0,0.02,0.01,0.06,0.02,0.08c0,0.06-0.02,0.09-0.02,0.16c0,0.02,0.01,0.06,0.02,0.08c0,0.06-0.02,0.09-0.02,0.16
		c0,0.02,0.01,0.06,0.02,0.08c0,0.06-0.02,0.09-0.02,0.16c0,0.02,0.01,0.06,0.02,0.08c0,0.06-0.02,0.09-0.02,0.16
		c0,0.02,0.01,0.06,0.02,0.08c0,0.06-0.02,0.09-0.02,0.16c0,0.02,0.01,0.06,0.02,0.08c0,0.06-0.02,0.09-0.02,0.16
		c0,0.02,0.01,0.06,0.02,0.08c0,0.06-0.02,0.09-0.02,0.16c0,0.02,0.01,0.06,0.02,0.08c0,0.06-0.02,0.09-0.02,0.16
		c0,0.02,0.01,0.06,0.02,0.08c0,0.06-0.02,0.09-0.02,0.16c0,0.02,0.01,0.06,0.02,0.08c0,0.06-0.02,0.09-0.02,0.16
		c0,0.02,0.01,0.06,0.02,0.08c0,0.06-0.02,0.09-0.02,0.16c0,0.02,0.01,0.06,0.02,0.08c0,0.06-0.02,0.09-0.02,0.16
		c0,0.02,0.01,0.06,0.02,0.08c0,0.06-0.02,0.09-0.02,0.16c0,0.02,0.01,0.06,0.02,0.08c0,0.06-0.02,0.09-0.02,0.16
		c0,0.02,0.01,0.06,0.02,0.08c0,0.06-0.02,0.09-0.02,0.16c0,0.02,0.01,0.06,0.02,0.08c0,0.06-0.02,0.09-0.02,0.16
		c0,0.02,0.01,0.06,0.02,0.08c0,0.06-0.02,0.09-0.02,0.16c0,0.02,0.01,0.06,0.02,0.08c0,0.06-0.02,0.09-0.02,0.16
		c0,0.02,0.01,0.06,0.02,0.08c0,0.06-0.02,0.09-0.02,0.16c0,0.02,0.01,0.06,0.02,0.08c0,0.06-0.02,0.09-0.02,0.16
		c0,0.02,0.01,0.06,0.02,0.08c0,0.06-0.02,0.09-0.02,0.16c0,0.02,0.01,0.06,0.02,0.08c0,0.06-0.02,0.09-0.02,0.16
		c0,0.02,0.01,0.06,0.02,0.08c0,0.06-0.02,0.09-0.02,0.16c0,0.02,0.01,0.06,0.02,0.08c0,0.06-0.02,0.09-0.02,0.16
		c0,0.02,0.01,0.06,0.02,0.08c0,0.06-0.02,0.09-0.02,0.16c0,0.02,0.01,0.06,0.02,0.08c0,0.06-0.02,0.09-0.02,0.16
		c0,0.02,0.01,0.06,0.02,0.08c0,0.06-0.02,0.09-0.02,0.16c0,0.02,0.01,0.06,0.02,0.08c0,0.06-0.02,0.09-0.02,0.16
		c0,0.02,0.01,0.06,0.02,0.08c0,0.06-0.02,0.09-0.02,0.16c0,0.02,0.01,0.06,0.02,0.08c0,0.06-0.02,0.09-0.02,0.16
		c0,0.02,0.01,0.06,0.02,0.08c0,0.06-0.02,0.09-0.02,0.16c0,0.02,0.01,0.06,0.02,0.08c0,0.06-0.01,0.09-0.02,0.16
		c0,0.16,0.04,0.37,0.12,0.64c0.08,0.27,0.2,0.4,0.36,0.39c0.16,0.15,0.32,0.3,0.47,0.44c0.16,0.15,0.33,0.33,0.53,0.56
		c0.19,0.22,0.41,0.53,0.65,0.91c1.1,1.59,1.79,3.52,2.07,5.79c0.28,2.27,0.41,4.55,0.41,6.84c0,2,0,4,0,6.01
		c-13.4-14.84-26.8-29.25-40.2-43.14c-7.45,0.96-14.9,2.07-22.35,3.37c-1.11,0.19-1.66,0.76-1.66,1.71c0,0.08,0,0.16,0,0.24
		c0,0.08,0,0.16,0,0.24s0,0.16,0,0.24c0,0.08,0,0.16,0,0.24c0,0.08,0,0.16,0,0.24c0,0.08,0,0.16,0,0.24c0,0.08,0,0.16,0,0.24
		s0,0.16,0,0.24c0,0.08,0,0.16,0,0.24c0,0.08,0,0.16,0,0.24c0,0.08,0,0.16,0,0.24c0,0.08,0,0.16,0,0.24s0,0.16,0,0.24
		c0,0.08,0,0.16,0,0.24c0,0.08,0,0.16,0,0.24c0,0.08,0,0.16,0,0.24c0,0.08,0,0.16,0,0.24c0,0.08,0,0.16,0,0.24c0,0.08,0,0.16,0,0.24
		c0,0.08,0,0.16,0,0.24c0,0.08,0,0.16,0,0.24c0,0.08,0,0.16,0,0.24c0,0.08,0,0.16,0,0.24c0,0.08,0,0.16,0,0.24c0,0.08,0,0.16,0,0.24
		c0,0.08,0,0.16,0,0.24c0,0.08,0,0.16,0,0.24c0,0.08,0,0.16,0,0.24c0,0.08,0,0.16,0,0.24c0,0.08,0,0.16,0,0.24c0,0.08,0,0.16,0,0.24
		c0,0.08,0,0.16,0,0.24c0,0.08,0,0.16,0,0.24c0,0.08,0,0.16,0,0.24c0,0.08,0,0.16,0,0.24c0,0.08,0,0.16,0,0.24c0,0.08,0,0.16,0,0.24
		c0,0.08,0,0.16,0,0.24c0,0.08,0,0.16,0,0.24c0,0.08,0,0.16,0,0.24c0,0.08,0,0.16,0,0.24c0,0.08,0,0.16,0,0.24c0,0.08,0,0.16,0,0.24
		c0,0.08,0,0.16,0,0.24c0,0.08,0,0.16,0,0.24c0,0.08,0,0.16,0,0.24s0,0.16,0,0.24c0,0.08,0,0.16,0,0.24c0,0.08,0,0.16,0,0.24
		c0,0.08,0,0.16,0,0.24c0,0.08,0,0.16,0,0.24c0,0.08,0,0.16,0,0.24c0,0.08,0,0.16,0,0.24c0,0.08,0,0.16,0,0.24c0,0.08,0,0.16,0,0.24
		c0,0.08,0,0.16,0,0.24c0,0.08,0,0.16,0,0.24c0,0.08,0,0.16,0,0.24c0,0.08,0,0.16,0,0.24c0,0.08,0,0.16,0,0.24c0,0.08,0,0.16,0,0.24
		c0,0.08,0,0.16,0,0.24c0,0.08,0,0.16,0,0.24c0,0.08,0,0.16,0,0.24c0,0.08,0,0.16,0,0.24c0,0.08,0,0.16,0,0.24c0,0.08,0,0.16,0,0.24
		c0,0.08,0,0.16,0,0.24c0,0.08,0,0.16,0,0.24c0,0.08,0,0.16,0,0.24c0,0.08,0,0.16,0,0.24c0,0.08,0,0.16,0,0.24c0,0.08,0,0.16,0,0.24
		c0,0.08,0,0.16,0,0.24s0,0.16,0,0.24c0,0.08,0,0.16,0,0.24c0,0.08,0,0.16,0,0.24c0,0.08,0,0.16,0,0.24c0,0.08,0,0.16,0,0.24
		c0,0.08,0,0.16,0,0.24c0,0.08,0,0.16,0,0.24c0,0.08,0,0.16,0,0.24c0,0.08,0,0.16,0,0.24c0,0.08,0,0.16,0,0.24c0,0.08,0,0.16,0,0.24
		c0,0.08,0,0.16,0,0.24c0,0.08,0,0.16,0,0.24c0,0.08,0,0.16,0,0.24c0,0.08,0,0.16,0,0.24c0,0.08,0,0.16,0,0.24c0,0.08,0,0.16,0,0.24
		c0,0.08,0,0.16,0,0.24c0,0.08,0,0.16,0,0.24c0,0.08,0,0.16,0,0.24c0,0.08,0,0.16,0,0.24c0,0.08,0,0.16,0,0.24c0,0.08,0,0.16,0,0.24
		c0,0.08,0,0.16,0,0.24c0,0.08,0,0.16,0,0.24c0,0.08,0,0.16,0,0.24c0,22.54,0,45.08,0,67.62c0,0.08,0,0.16,0,0.24
		c0,0.08,0,0.16,0,0.24c0,0.08,0,0.16,0,0.24c0,0.08,0,0.16,0,0.24c0,0.08,0,0.16,0,0.24c0,0.08,0,0.16,0,0.24c0,0.08,0,0.16,0,0.24
		c0,0.08,0,0.16,0,0.24c0,0.08,0,0.16,0,0.24c0,0.08,0,0.16,0,0.24c0,0.08,0,0.16,0,0.24c0,0.08,0,0.16,0,0.24c0,0.08,0,0.16,0,0.24
		c0,0.08,0,0.16,0,0.24c0,0.08,0,0.16,0,0.24c0,0.08,0,0.16,0,0.24c0,0.08,0,0.16,0,0.24c0,0.08,0,0.16,0,0.24c0,0.08,0,0.16,0,0.24
		c0,0.08,0,0.16,0,0.24c0,0.08,0,0.16,0,0.24c0,0.08,0,0.16,0,0.24c0,0.08,0,0.16,0,0.24c0,0.08,0,0.16,0,0.24c0,0.08,0,0.16,0,0.24
		c0,0.08,0,0.16,0,0.24c0,0.08,0,0.16,0,0.24c0,0.08,0,0.16,0,0.24c0,0.08,0,0.16,0,0.24c0,0.08,0,0.16,0,0.24c0,0.08,0,0.16,0,0.24
		c0,0.08,0,0.16,0,0.24c0,0.08,0,0.16,0,0.24c0,0.08,0,0.16,0,0.24c0,0.08,0,0.16,0,0.24c0,0.08,0,0.16,0,0.24c0,0.08,0,0.16,0,0.24
		c0,0.08,0,0.16,0,0.24c0,0.08,0,0.16,0,0.24c0,0.08,0,0.16,0,0.24c0,0.08,0,0.16,0,0.24c0,0.08,0,0.16,0,0.24c0,0.08,0,0.16,0,0.24
		c0,0.08,0,0.16,0,0.24c0,0.08,0,0.16,0,0.24c0,0.08,0,0.16,0,0.24c0,0.08,0,0.16,0,0.24c0,0.08,0,0.16,0,0.24c0,0.08,0,0.16,0,0.24
		c0,0.08,0,0.16,0,0.24c0,0.08,0,0.16,0,0.24c0,0.08,0,0.16,0,0.24c0,0.08,0,0.16,0,0.24c0,0.08,0,0.16,0,0.24c0,0.08,0,0.16,0,0.24
		c0,0.08,0,0.16,0,0.24c0,0.08,0,0.16,0,0.24c0,0.08,0,0.16,0,0.24c0,0.08,0,0.16,0,0.24c0,0.08,0,0.16,0,0.24c0,0.08,0,0.16,0,0.24
		c0,0.08,0,0.16,0,0.24c0,0.08,0,0.16,0,0.24c0,0.08,0,0.16,0,0.24c0,0.08,0,0.16,0,0.24c0,0.08,0,0.16,0,0.24c0,0.08,0,0.16,0,0.24
		c0,0.08,0,0.16,0,0.24c0,0.08,0,0.16,0,0.24c0,0.08,0,0.16,0,0.24c0,0.08,0,0.16,0,0.24c0,0.08,0,0.16,0,0.24c0,0.08,0,0.16,0,0.24
		c0,0.08,0,0.16,0,0.24c0,0.08,0,0.16,0,0.24c0,0.08,0,0.16,0,0.24c0,0.08,0,0.16,0,0.24c0,0.08,0,0.16,0,0.24c0,0.08,0,0.16,0,0.24
		c0,0.08,0,0.16,0,0.24c0,0.08,0,0.16,0,0.24c0,0.08,0,0.16,0,0.24c0,0.08,0,0.16,0,0.24c0,0.08,0,0.16,0,0.24c0,0.08,0,0.16,0,0.24
		c0,0.08,0,0.16,0,0.24c0,0.08,0,0.16,0,0.24s0,0.16,0,0.24c0,0.08,0,0.16,0,0.24c0,0.08,0,0.16,0,0.24c0,0.08,0,0.16,0,0.24
		c0,0.08,0,0.16,0,0.24c0,0.08,0,0.16,0,0.24c0,0.08,0,0.16,0,0.24c0,0.08,0,0.16,0,0.24c0,0.08,0,0.16,0,0.24c0,0.08,0,0.16,0,0.24
		c0,0.08,0,0.16,0,0.24c0,0.08,0,0.16,0,0.24c0,0.08,0,0.16,0,0.24c0,0.24,0.06,0.46,0.18,0.68c0.12,0.22,0.45,0.27,1,0.18
		c5.01-0.88,10.01-1.67,15.02-2.39c0.63-0.09,0.95-0.45,0.95-1.08c0-0.03-0.02-0.05-0.02-0.08c0.01-0.06,0.02-0.1,0.02-0.16
		c0-0.03-0.02-0.05-0.02-0.08c0.01-0.06,0.02-0.1,0.02-0.16c0-0.03-0.02-0.05-0.02-0.08c0.01-0.06,0.02-0.1,0.02-0.16
		c0-0.03-0.02-0.05-0.02-0.08c0.01-0.06,0.02-0.1,0.02-0.16c0-0.03-0.02-0.05-0.02-0.08c0.01-0.06,0.02-0.1,0.02-0.16
		c0-0.03-0.02-0.05-0.02-0.08c0.01-0.06,0.02-0.1,0.02-0.16c0-0.03-0.02-0.05-0.02-0.08c0.01-0.06,0.02-0.1,0.02-0.16
		c0-0.03-0.02-0.05-0.02-0.08c0.01-0.06,0.02-0.1,0.02-0.16c0-0.03-0.02-0.05-0.02-0.08c0.01-0.06,0.02-0.1,0.02-0.16
		c0-0.03-0.02-0.05-0.02-0.08c0.01-0.06,0.02-0.1,0.02-0.16c0-0.03-0.02-0.05-0.02-0.08c0.01-0.06,0.02-0.1,0.02-0.16
		c0-0.03-0.02-0.05-0.02-0.08c0.01-0.06,0.02-0.1,0.02-0.16c0-0.03-0.02-0.05-0.02-0.08c0.01-0.06,0.02-0.1,0.02-0.16
		c0-0.03-0.02-0.05-0.02-0.08c0.01-0.06,0.02-0.1,0.02-0.16c0-0.03-0.02-0.05-0.02-0.08c0.01-0.06,0.02-0.1,0.02-0.16
		c0-0.03-0.02-0.05-0.02-0.08c0.01-0.06,0.02-0.1,0.02-0.16c0-0.03-0.02-0.05-0.02-0.08c0.01-0.06,0.02-0.1,0.02-0.16
		c0-0.03-0.02-0.05-0.02-0.08c0.01-0.06,0.02-0.1,0.02-0.16c0-0.03-0.02-0.05-0.02-0.08c0.01-0.06,0.02-0.1,0.02-0.16
		c0-0.03-0.02-0.05-0.02-0.08c0.01-0.06,0.02-0.1,0.02-0.16c0-0.03-0.02-0.05-0.02-0.08c0.01-0.06,0.02-0.1,0.02-0.16
		c0-0.03-0.02-0.05-0.02-0.08c0.01-0.06,0.02-0.1,0.02-0.16c0-0.03-0.02-0.05-0.02-0.08c0.01-0.06,0.02-0.1,0.02-0.16
		c0-0.03-0.02-0.05-0.02-0.08c0.01-0.06,0.02-0.1,0.02-0.16c0-0.03-0.02-0.05-0.02-0.08c0.01-0.06,0.02-0.1,0.02-0.16
		c0-0.03-0.02-0.05-0.02-0.08c0.01-0.06,0.02-0.1,0.02-0.16c0-0.03-0.02-0.05-0.02-0.08c0.01-0.06,0.02-0.1,0.02-0.16
		c0-0.03-0.02-0.05-0.02-0.08c0.01-0.06,0.02-0.1,0.02-0.16c0-0.03-0.02-0.05-0.02-0.08c0.01-0.06,0.02-0.1,0.02-0.16
		c0-0.03-0.02-0.05-0.02-0.08c0.01-0.06,0.02-0.1,0.02-0.16c0-0.03-0.02-0.05-0.02-0.08c0.01-0.06,0.02-0.1,0.02-0.16
		c0-0.03-0.02-0.05-0.02-0.08c0.01-0.06,0.02-0.1,0.02-0.16c0-0.03-0.02-0.05-0.02-0.08c0.01-0.06,0.02-0.1,0.02-0.16
		c0-0.03-0.02-0.05-0.02-0.08c0.01-0.06,0.02-0.1,0.02-0.16c0-0.03-0.02-0.05-0.02-0.08c0.01-0.06,0.02-0.1,0.02-0.16
		c0-0.03-0.02-0.05-0.02-0.08c0.01-0.06,0.02-0.1,0.02-0.16c0-0.03-0.02-0.05-0.02-0.08c0.01-0.06,0.02-0.1,0.02-0.16
		c0-0.03-0.02-0.05-0.02-0.08c0.01-0.06,0.02-0.1,0.02-0.16c0-0.03-0.02-0.05-0.02-0.08c0.01-0.06,0.02-0.1,0.02-0.16
		c0-0.03-0.02-0.05-0.02-0.08c0.01-0.06,0.02-0.1,0.02-0.16c0-0.03-0.02-0.05-0.02-0.08c0.01-0.06,0.02-0.1,0.02-0.16
		c0-0.03-0.02-0.05-0.02-0.08c0.01-0.06,0.02-0.1,0.02-0.16c0-0.03-0.02-0.05-0.02-0.08c0.01-0.06,0.02-0.1,0.02-0.16
		c0-0.03-0.02-0.05-0.02-0.08c0.01-0.06,0.02-0.1,0.02-0.16c0-0.03-0.02-0.05-0.02-0.08c0.01-0.06,0.02-0.1,0.02-0.16
		c0-0.03-0.02-0.05-0.02-0.08c0.01-0.06,0.02-0.1,0.02-0.16c0-0.03-0.02-0.05-0.02-0.08c0.01-0.06,0.02-0.1,0.02-0.16
		c0-0.03-0.02-0.05-0.02-0.08c0.01-0.06,0.02-0.1,0.02-0.16c0-0.03-0.02-0.05-0.02-0.08c0.01-0.06,0.02-0.1,0.02-0.16
		c0-0.03-0.02-0.05-0.02-0.08c0.01-0.06,0.02-0.1,0.02-0.16c0-0.03-0.02-0.05-0.02-0.08c0.01-0.06,0.02-0.1,0.02-0.16
		c0-0.03-0.02-0.05-0.02-0.08c0.01-0.06,0.02-0.1,0.02-0.16c0-0.03-0.02-0.05-0.02-0.08c0.01-0.06,0.02-0.1,0.02-0.16
		c0-0.03-0.02-0.05-0.02-0.08c0.01-0.06,0.02-0.1,0.02-0.16c0-0.03-0.02-0.05-0.02-0.08c0.01-0.06,0.02-0.1,0.02-0.16
		c0-0.03-0.02-0.05-0.02-0.08c0.01-0.06,0.02-0.1,0.02-0.16c0-0.03-0.02-0.05-0.02-0.08c0.01-0.06,0.02-0.1,0.02-0.16
		c0-0.03-0.02-0.05-0.02-0.08c0.01-0.06,0.02-0.1,0.02-0.16c0-0.03-0.02-0.05-0.02-0.08c0.01-0.06,0.02-0.1,0.02-0.16
		c0-0.03-0.02-0.05-0.02-0.08c0.01-0.06,0.02-0.1,0.02-0.16c0-0.03-0.02-0.05-0.02-0.08c0.01-0.06,0.02-0.1,0.02-0.16
		c0-0.03-0.02-0.05-0.02-0.08c0.01-0.06,0.02-0.1,0.02-0.16c0-0.03-0.02-0.05-0.02-0.08c0.01-0.06,0.02-0.1,0.02-0.16
		c0-0.03-0.02-0.05-0.02-0.08c0.01-0.06,0.02-0.1,0.02-0.16c0-0.03-0.02-0.05-0.02-0.08c0.01-0.06,0.02-0.1,0.02-0.16
		c0-0.03-0.02-0.05-0.02-0.08c0.01-0.06,0.02-0.1,0.02-0.16c0-0.03-0.02-0.05-0.02-0.08c0.01-0.06,0.02-0.1,0.02-0.16
		c0-0.03-0.02-0.05-0.02-0.08c0.01-0.06,0.02-0.1,0.02-0.16c0-0.03-0.02-0.05-0.02-0.08c0.01-0.06,0.02-0.1,0.02-0.16
		c0-0.03-0.02-0.05-0.02-0.08c0.01-0.06,0.02-0.1,0.02-0.16c0-0.03-0.02-0.05-0.02-0.08c0.01-0.06,0.02-0.1,0.02-0.16
		c0-0.03-0.02-0.05-0.02-0.08c0.01-0.06,0.02-0.1,0.02-0.16c0-0.03-0.02-0.05-0.02-0.08c0.01-0.06,0.02-0.1,0.02-0.16
		c0-0.03-0.02-0.05-0.02-0.08c0.01-0.06,0.02-0.1,0.02-0.16c0-0.03-0.02-0.05-0.02-0.08c0.01-0.06,0.02-0.1,0.02-0.16
		c0-0.03-0.02-0.05-0.02-0.08c0.01-0.06,0.02-0.1,0.02-0.16c0-0.03-0.02-0.05-0.02-0.08c0.01-0.06,0.02-0.1,0.02-0.16
		c0-0.03-0.02-0.05-0.02-0.08c0.01-0.06,0.02-0.1,0.02-0.16c0-0.03-0.02-0.05-0.02-0.08c0.01-0.06,0.02-0.1,0.02-0.16
		c0-0.03-0.02-0.05-0.02-0.08c0.01-0.06,0.02-0.1,0.02-0.16c0-0.03-0.02-0.05-0.02-0.08c0.01-0.06,0.02-0.1,0.02-0.16
		c0-0.03-0.02-0.05-0.02-0.08c0.01-0.06,0.02-0.1,0.02-0.16c0-0.03-0.02-0.05-0.02-0.08c0.01-0.06,0.02-0.1,0.02-0.16
		c0-0.03-0.02-0.05-0.02-0.08c0.01-0.06,0.02-0.1,0.02-0.16c0-0.03-0.02-0.05-0.02-0.08c0.01-0.06,0.02-0.1,0.02-0.16
		c0-0.03-0.02-0.05-0.02-0.08c0.01-0.06,0.02-0.1,0.02-0.16c0-0.03-0.02-0.05-0.02-0.08c0.01-0.06,0.02-0.1,0.02-0.16
		c0-0.03-0.02-0.05-0.02-0.08c0.01-0.06,0.02-0.1,0.02-0.16c0-0.03-0.02-0.05-0.02-0.08c0.01-0.06,0.02-0.1,0.02-0.16
		c0-0.03-0.02-0.05-0.02-0.08c0.01-0.06,0.02-0.1,0.02-0.16c0-0.03-0.02-0.05-0.02-0.08c0.01-0.06,0.02-0.1,0.02-0.16
		c0-0.03-0.02-0.05-0.02-0.08c0.01-0.06,0.02-0.1,0.02-0.16c0-0.03-0.02-0.05-0.02-0.08c0.01-0.06,0.02-0.1,0.02-0.16
		c0-0.03-0.02-0.05-0.02-0.08c0.01-0.06,0.02-0.1,0.02-0.16c0-0.03-0.02-0.05-0.02-0.08c0.01-0.06,0.02-0.1,0.02-0.16
		c0-0.03-0.02-0.05-0.02-0.08c0.01-0.06,0.02-0.1,0.02-0.16c0-0.03-0.02-0.05-0.02-0.08c0.01-0.06,0.02-0.1,0.02-0.16
		c0-0.03-0.02-0.05-0.02-0.08c0.01-0.06,0.02-0.1,0.02-0.16c0-0.03-0.02-0.05-0.02-0.08c0.01-0.06,0.02-0.1,0.02-0.16
		c0-0.03-0.02-0.05-0.02-0.08c0.01-0.06,0.02-0.1,0.02-0.16c0-0.39-0.2-0.68-0.59-0.86c-0.16,0.02-0.29-0.09-0.47-0.29
		c-0.14-0.15-0.31-0.31-0.47-0.52c-0.16-0.21-0.36-0.5-0.59-0.86c-1.1-1.41-1.79-3.14-2.07-5.19c-0.27-2.05-0.41-4.1-0.41-6.15
		c0-6.22,0-12.44,0-18.66c16.91,16.92,33.82,34.7,50.73,53.18c4.1-0.24,8.2-0.44,12.3-0.61c0.55-0.02,0.89-0.15,1-0.39
		c0.12-0.24,0.18-0.48,0.18-0.72c0-0.08,0-0.16,0-0.24c0-0.08,0-0.16,0-0.24c0-0.08,0-0.16,0-0.24c0-0.08,0-0.16,0-0.24
		s0-0.16,0-0.24c0-0.08,0-0.16,0-0.24c0-0.08,0-0.16,0-0.24c0-0.08,0-0.16,0-0.24c0-0.08,0-0.16,0-0.24c0-0.08,0-0.16,0-0.24
		c0-0.08,0-0.16,0-0.24c0-0.08,0-0.16,0-0.24c0-0.08,0-0.16,0-0.24c0-0.08,0-0.16,0-0.24c0-0.08,0-0.16,0-0.24c0-0.08,0-0.16,0-0.24
		c0-0.08,0-0.16,0-0.24c0-0.08,0-0.16,0-0.24c0-0.08,0-0.16,0-0.24c0-0.08,0-0.16,0-0.24c0-0.08,0-0.16,0-0.24c0-0.08,0-0.16,0-0.24
		c0-0.08,0-0.16,0-0.24c0-0.08,0-0.16,0-0.24c0-0.08,0-0.16,0-0.24c0-0.08,0-0.16,0-0.24c0-0.08,0-0.16,0-0.24c0-0.08,0-0.16,0-0.24
		c0-0.08,0-0.16,0-0.24c0-0.08,0-0.16,0-0.24c0-0.08,0-0.16,0-0.24c0-0.08,0-0.16,0-0.24s0-0.16,0-0.24c0-0.08,0-0.16,0-0.24
		c0-0.08,0-0.16,0-0.24c0-0.08,0-0.16,0-0.24c0-0.08,0-0.16,0-0.24c0-0.08,0-0.16,0-0.24c0-0.08,0-0.16,0-0.24c0-0.08,0-0.16,0-0.24
		c0-0.08,0-0.16,0-0.24c0-0.08,0-0.16,0-0.24c0-0.08,0-0.16,0-0.24c0-0.08,0-0.16,0-0.24c0-0.08,0-0.16,0-0.24c0-0.08,0-0.16,0-0.24
		c0-0.08,0-0.16,0-0.24c0-0.08,0-0.16,0-0.24c0-0.08,0-0.16,0-0.24c0-0.08,0-0.16,0-0.24c0-0.08,0-0.16,0-0.24c0-0.08,0-0.16,0-0.24
		c0-0.08,0-0.16,0-0.24c0-0.08,0-0.16,0-0.24c0-0.08,0-0.16,0-0.24c0-0.08,0-0.16,0-0.24c0-0.08,0-0.16,0-0.24c0-0.08,0-0.16,0-0.24
		c0-0.08,0-0.16,0-0.24c0-0.08,0-0.16,0-0.24c0-0.08,0-0.16,0-0.24c0-0.08,0-0.16,0-0.24c0-0.08,0-0.16,0-0.24c0-0.08,0-0.16,0-0.24
		c0-0.08,0-0.16,0-0.24c0-0.08,0-0.16,0-0.24c0-0.08,0-0.16,0-0.24c0-0.08,0-0.16,0-0.24c0-0.08,0-0.16,0-0.24c0-0.08,0-0.16,0-0.24
		c0-0.08,0-0.16,0-0.24s0-0.16,0-0.24c0-0.08,0-0.16,0-0.24c0-0.08,0-0.16,0-0.24c0-0.08,0-0.16,0-0.24c0-0.08,0-0.16,0-0.24
		c0-0.08,0-0.16,0-0.24c0-0.08,0-0.16,0-0.24c0-0.08,0-0.16,0-0.24c0-0.08,0-0.16,0-0.24c0-0.08,0-0.16,0-0.24c0-0.08,0-0.16,0-0.24
		c0-0.08,0-0.16,0-0.24c0-0.08,0-0.16,0-0.24c0-0.08,0-0.16,0-0.24c0-0.08,0-0.16,0-0.24c0-0.08,0-0.16,0-0.24c0-0.08,0-0.16,0-0.24
		c0-0.08,0-0.16,0-0.24c0-0.08,0-0.16,0-0.24c0-0.08,0-0.16,0-0.24c0-0.08,0-0.16,0-0.24c0-0.08,0-0.16,0-0.24c0-0.08,0-0.16,0-0.24
		c0-0.08,0-0.16,0-0.24c0-0.08,0-0.16,0-0.24c0-0.08,0-0.16,0-0.24c0-0.08,0-0.16,0-0.24c0-0.08,0-0.16,0-0.24c0-0.08,0-0.16,0-0.24
		c0-22.54,0-45.08,0-67.62c0-0.08,0-0.16,0-0.24c0-0.08,0-0.16,0-0.24c0-0.08,0-0.16,0-0.24c0-0.08,0-0.16,0-0.24
		c0-0.08,0-0.16,0-0.24c0-0.08,0-0.16,0-0.24c0-0.08,0-0.16,0-0.24c0-0.08,0-0.16,0-0.24c0-0.08,0-0.16,0-0.24c0-0.08,0-0.16,0-0.24
		c0-0.08,0-0.16,0-0.24c0-0.08,0-0.16,0-0.24c0-0.08,0-0.16,0-0.24c0-0.08,0-0.16,0-0.24c0-0.08,0-0.16,0-0.24c0-0.08,0-0.16,0-0.24
		c0-0.08,0-0.16,0-0.24c0-0.08,0-0.16,0-0.24c0-0.08,0-0.16,0-0.24c0-0.08,0-0.16,0-0.24c0-0.08,0-0.16,0-0.24c0-0.08,0-0.16,0-0.24
		c0-0.08,0-0.16,0-0.24c0-0.08,0-0.16,0-0.24c0-0.08,0-0.16,0-0.24c0-0.08,0-0.16,0-0.24c0-0.08,0-0.16,0-0.24c0-0.08,0-0.16,0-0.24
		c0-0.08,0-0.16,0-0.24c0-0.08,0-0.16,0-0.24c0-0.08,0-0.16,0-0.24c0-0.08,0-0.16,0-0.24c0-0.08,0-0.16,0-0.24c0-0.08,0-0.16,0-0.24
		c0-0.08,0-0.16,0-0.24s0-0.16,0-0.24c0-0.08,0-0.16,0-0.24c0-0.08,0-0.16,0-0.24c0-0.08,0-0.16,0-0.24c0-0.08,0-0.16,0-0.24
		s0-0.16,0-0.24c0-0.08,0-0.16,0-0.24c0-0.08,0-0.16,0-0.24c0-0.08,0-0.16,0-0.24c0-0.08,0-0.16,0-0.24s0-0.16,0-0.24
		c0-0.08,0-0.16,0-0.24c0-0.08,0-0.16,0-0.24c0-0.08,0-0.16,0-0.24c0-0.08,0-0.16,0-0.24c0-0.08,0-0.16,0-0.24c0-0.08,0-0.16,0-0.24
		c0-0.08,0-0.16,0-0.24c0-0.08,0-0.16,0-0.24c0-0.08,0-0.16,0-0.24c0-0.08,0-0.16,0-0.24c0-0.08,0-0.16,0-0.24c0-0.08,0-0.16,0-0.24
		c0-0.08,0-0.16,0-0.24c0-0.08,0-0.16,0-0.24c0-0.08,0-0.16,0-0.24c0-0.08,0-0.16,0-0.24c0-0.08,0-0.16,0-0.24c0-0.08,0-0.16,0-0.24
		c0-0.08,0-0.16,0-0.24c0-0.08,0-0.16,0-0.24c0-0.08,0-0.16,0-0.24c0-0.08,0-0.16,0-0.24c0-0.08,0-0.16,0-0.24c0-0.08,0-0.16,0-0.24
		c0-0.08,0-0.16,0-0.24c0-0.08,0-0.16,0-0.24c0-0.08,0-0.16,0-0.24c0-0.08,0-0.16,0-0.24c0-0.08,0-0.16,0-0.24c0-0.08,0-0.16,0-0.24
		c0-0.08,0-0.16,0-0.24c0-0.08,0-0.16,0-0.24c0-0.08,0-0.16,0-0.24s0-0.16,0-0.24c0-0.08,0-0.16,0-0.24c0-0.08,0-0.16,0-0.24
		c0-0.08,0-0.16,0-0.24c0-0.08,0-0.16,0-0.24s0-0.16,0-0.24c0-0.08,0-0.16,0-0.24c0-0.08,0-0.16,0-0.24c0-0.08,0-0.16,0-0.24
		c0-0.08,0-0.16,0-0.24c0-0.08,0-0.16,0-0.24c0-0.08,0-0.16,0-0.24c0-0.08,0-0.16,0-0.24c0-0.08,0-0.16,0-0.24c0-0.08,0-0.16,0-0.24
		c0-0.08,0-0.16,0-0.24c0-0.08,0-0.16,0-0.24c0-0.08,0-0.16,0-0.24c0-0.08,0-0.16,0-0.24c0-0.08,0-0.16,0-0.24c0-0.08,0-0.16,0-0.24
		C780.36,130.47,779.8,130.02,778.7,130.07z"/>
	<path class="st1" d="M716.15,171.6c0,14.31,0,28.62,0,42.93c0,2.05,0.14,4.1,0.41,6.15c0.27,2.05,0.96,3.78,2.07,5.19
		c0.24,0.36,0.43,0.65,0.59,0.86c0.16,0.21,0.31,0.39,0.47,0.52c0.16,0.21,0.31,0.31,0.47,0.29c0.4,0.18,0.59,0.47,0.59,0.86
		c0,0.63-0.31,0.99-0.95,1.08c-5.01,0.72-10.01,1.51-15.02,2.39c-0.55,0.1-0.89,0.04-1-0.18c-0.12-0.22-0.18-0.44-0.18-0.68
		c0-30.63,0-61.26,0-91.89c0-0.95,0.55-1.52,1.66-1.71c7.45-1.29,14.9-2.41,22.35-3.37c13.4,13.89,26.8,28.3,40.2,43.14
		c0-10.09,0-20.18,0-30.27c0-2.29-0.14-4.56-0.41-6.83c-0.28-2.27-0.97-4.2-2.07-5.79c-0.24-0.38-0.46-0.68-0.65-0.91
		c-0.2-0.22-0.37-0.41-0.53-0.56c-0.16-0.15-0.32-0.3-0.47-0.44c-0.16,0.01-0.28-0.12-0.36-0.39c-0.08-0.27-0.12-0.48-0.12-0.64
		c0-0.39,0.06-0.61,0.18-0.66c0.12-0.05,0.37-0.08,0.77-0.11c4.85-0.31,9.7-0.56,14.55-0.76c1.1-0.04,1.66,0.41,1.66,1.35
		c0,30.63,0,61.26,0,91.89c0,0.24-0.06,0.47-0.18,0.72c-0.12,0.24-0.46,0.37-1,0.39c-4.1,0.16-8.2,0.37-12.3,0.61
		C749.97,206.31,733.06,188.52,716.15,171.6z"/>
</g>
<g>
	<line class="st4" x1="855.54" y1="247.66" x2="855.54" y2="295.37"/>
	<path class="st5" d="M873.54,224.42c-11.9-31.19-23.81-62.23-35.71-93.08c-0.16-0.24-0.32-0.48-0.47-0.73
		c-0.16-0.16-0.34-0.35-0.53-0.55c-0.19-0.2-0.5-0.31-0.89-0.32c-4.61-0.15-9.22-0.27-13.84-0.35c-0.63-0.01-1.14,0.18-1.54,0.56
		c-0.24,0.23-0.35,0.43-0.35,0.59c-11.67,30.4-23.33,61.03-35,91.95c-0.16,0.48-0.23,0.8-0.24,0.95c0,0.05,0.01,0.08,0.02,0.12
		c0,0.04-0.02,0.09-0.02,0.12c0,0.05,0.01,0.08,0.02,0.12c0,0.04-0.02,0.09-0.02,0.12c0,0.05,0.01,0.08,0.02,0.12
		c0,0.04-0.02,0.09-0.02,0.12c0,0.05,0.01,0.08,0.02,0.12c0,0.04-0.02,0.09-0.02,0.12c0,0.05,0.01,0.08,0.02,0.12
		c0,0.04-0.02,0.09-0.02,0.12c0,0.05,0.01,0.08,0.02,0.12c0,0.04-0.02,0.09-0.02,0.12c0,0.05,0.01,0.08,0.02,0.12
		c0,0.04-0.02,0.09-0.02,0.12c0,0.05,0.01,0.08,0.02,0.12c0,0.04-0.02,0.09-0.02,0.12c0,0.05,0.01,0.08,0.02,0.12
		c0,0.04-0.02,0.09-0.02,0.12c0,0.05,0.01,0.08,0.02,0.12c0,0.04-0.02,0.09-0.02,0.12c0,0.05,0.01,0.08,0.02,0.12
		c0,0.04-0.02,0.09-0.02,0.12c0,0.05,0.01,0.08,0.02,0.12c0,0.04-0.02,0.09-0.02,0.12c0,0.05,0.01,0.08,0.02,0.12
		c0,0.04-0.02,0.09-0.02,0.12c0,0.05,0.01,0.08,0.02,0.12c0,0.04-0.02,0.09-0.02,0.12c0,0.05,0.01,0.08,0.02,0.12
		c0,0.04-0.02,0.09-0.02,0.12c0,0.05,0.01,0.08,0.02,0.12c0,0.04-0.02,0.09-0.02,0.12c0,0.05,0.01,0.08,0.02,0.12
		c0,0.04-0.02,0.09-0.02,0.12c0,0.05,0.01,0.08,0.02,0.12c0,0.04-0.02,0.09-0.02,0.12c0,0.05,0.01,0.08,0.02,0.12
		c0,0.04-0.02,0.09-0.02,0.12c0,0.05,0.01,0.08,0.02,0.12c0,0.04-0.02,0.09-0.02,0.12c0,0.05,0.01,0.08,0.02,0.12
		c0,0.04-0.02,0.09-0.02,0.12c0,0.05,0.01,0.08,0.02,0.12c0,0.04-0.02,0.09-0.02,0.12c0,0.05,0.01,0.08,0.02,0.12
		c0,0.04-0.02,0.09-0.02,0.12c0,0.05,0.01,0.08,0.02,0.12c0,0.04-0.02,0.09-0.02,0.12c0,0.05,0.01,0.08,0.02,0.12
		c0,0.04-0.02,0.09-0.02,0.12c0,0.05,0.01,0.08,0.02,0.12c0,0.04-0.02,0.09-0.02,0.12c0,0.05,0.01,0.08,0.02,0.12
		c0,0.04-0.02,0.09-0.02,0.12c0,0.05,0.01,0.08,0.02,0.12c0,0.04-0.02,0.09-0.02,0.12c0,0.05,0.01,0.08,0.02,0.12
		c0,0.04-0.02,0.09-0.02,0.12c0,0.05,0.01,0.08,0.02,0.12c0,0.04-0.02,0.09-0.02,0.12c0,0.05,0.01,0.08,0.02,0.12
		c0,0.04-0.02,0.09-0.02,0.12c0,0.05,0.01,0.08,0.02,0.12c0,0.04-0.02,0.09-0.02,0.12c0,0.05,0.01,0.08,0.02,0.12
		c0,0.04-0.02,0.09-0.02,0.12c0,0.05,0.01,0.08,0.02,0.12c0,0.04-0.02,0.09-0.02,0.12c0,0.05,0.01,0.08,0.02,0.12
		c0,0.04-0.02,0.09-0.02,0.12c0,0.05,0.01,0.08,0.02,0.12c0,0.04-0.02,0.09-0.02,0.12c0,0.05,0.01,0.08,0.02,0.12
		c0,0.04-0.02,0.09-0.02,0.12c0,0.05,0.01,0.08,0.02,0.12c0,0.04-0.02,0.09-0.02,0.12c0,0.05,0.01,0.08,0.02,0.12
		c0,0.04-0.02,0.09-0.02,0.12c0,0.05,0.01,0.08,0.02,0.12c0,0.04-0.02,0.09-0.02,0.12c0,0.05,0.01,0.08,0.02,0.12
		c0,0.04-0.02,0.09-0.02,0.12c0,0.05,0.01,0.08,0.02,0.12c0,0.04-0.02,0.09-0.02,0.12c0,0.05,0.01,0.08,0.02,0.12
		c0,0.04-0.02,0.09-0.02,0.12c0,0.05,0.01,0.08,0.02,0.12c0,0.04-0.02,0.09-0.02,0.12c0,0.05,0.01,0.08,0.02,0.12
		c0,0.04-0.02,0.09-0.02,0.12c0,0.05,0.01,0.08,0.02,0.12c0,0.04-0.02,0.09-0.02,0.12c0,0.05,0.01,0.08,0.02,0.12
		c0,0.04-0.02,0.09-0.02,0.12c0,0.05,0.01,0.08,0.02,0.12c0,0.04-0.02,0.09-0.02,0.12c0,0.05,0.01,0.08,0.02,0.12
		c0,0.04-0.02,0.09-0.02,0.12c0,0.05,0.01,0.08,0.02,0.12c0,0.04-0.02,0.09-0.02,0.12c0,0.05,0.01,0.08,0.02,0.12
		c0,0.04-0.02,0.09-0.02,0.12c0,0.05,0.01,0.08,0.02,0.12c0,0.04-0.02,0.09-0.02,0.12c0,0.05,0.01,0.08,0.02,0.12
		c0,0.04-0.02,0.09-0.02,0.12c0,0.05,0.01,0.08,0.02,0.12c0,0.04-0.02,0.09-0.02,0.12c0,0.05,0.01,0.08,0.02,0.12
		c0,0.04-0.02,0.09-0.02,0.12c0,0.05,0.01,0.08,0.02,0.12c0,0.04-0.02,0.09-0.02,0.12c0,0.05,0.01,0.08,0.02,0.12
		c0,0.04-0.02,0.09-0.02,0.12c0,0.05,0.01,0.08,0.02,0.12c0,0.04-0.02,0.09-0.02,0.12c0,0.05,0.01,0.08,0.02,0.12
		c0,0.04-0.02,0.09-0.02,0.12c0,0.05,0.01,0.08,0.02,0.12c0,0.04-0.02,0.09-0.02,0.12c0,0.05,0.01,0.08,0.02,0.12
		c0,0.04-0.02,0.09-0.02,0.12c0,0.05,0.01,0.08,0.02,0.12c0,0.04-0.02,0.09-0.02,0.12c0,0.05,0.01,0.08,0.02,0.12
		c0,0.04-0.02,0.09-0.02,0.12c0,0.05,0.01,0.08,0.02,0.12c0,0.04-0.02,0.09-0.02,0.12c0,0.05,0.01,0.08,0.02,0.12
		c0,0.04-0.02,0.09-0.02,0.12c0,0.05,0.01,0.08,0.02,0.12c0,0.04-0.02,0.09-0.02,0.12c0,0.05,0.01,0.08,0.02,0.12
		c0,0.04-0.02,0.09-0.02,0.12c0,0.05,0.01,0.08,0.02,0.12c0,0.04-0.02,0.09-0.02,0.12c0,0.05,0.01,0.08,0.02,0.12
		c0,0.04-0.02,0.09-0.02,0.12c0,0.05,0.01,0.08,0.02,0.12c0,0.04-0.02,0.09-0.02,0.12c0,0.05,0.01,0.08,0.02,0.12
		c0,0.04-0.02,0.09-0.02,0.12c0,0.05,0.01,0.08,0.02,0.12c0,0.04-0.02,0.09-0.02,0.12c0,0.05,0.01,0.08,0.02,0.12
		c0,0.04-0.02,0.09-0.02,0.12c0,0.05,0.01,0.08,0.02,0.12c0,0.04-0.02,0.09-0.02,0.12c0,0.05,0.01,0.08,0.02,0.12
		c0,0.04-0.02,0.09-0.02,0.12c0,0.05,0.01,0.08,0.02,0.12c0,0.04-0.02,0.09-0.02,0.12c0,0.05,0.01,0.08,0.02,0.12
		c0,0.04-0.02,0.09-0.02,0.12c0,0.05,0.01,0.08,0.02,0.12c0,0.04-0.02,0.09-0.02,0.12c0,0.05,0.01,0.08,0.02,0.12
		c0,0.04-0.02,0.09-0.02,0.12c0,0.05,0.01,0.08,0.02,0.12c0,0.04-0.02,0.09-0.02,0.12c0,0.05,0.01,0.08,0.02,0.12
		c0,0.04-0.02,0.09-0.02,0.12c0,0.05,0.01,0.08,0.02,0.12c0,0.04-0.02,0.09-0.02,0.12c0,0.05,0.01,0.08,0.02,0.12
		c0,0.04-0.02,0.09-0.02,0.12c0,0.05,0.01,0.08,0.02,0.12c0,0.04-0.02,0.09-0.02,0.12c0,0.05,0.01,0.08,0.02,0.12
		c0,0.04-0.02,0.09-0.02,0.12c0,0.05,0.01,0.08,0.02,0.12c0,0.04-0.02,0.09-0.02,0.12c0,0.05,0.01,0.08,0.02,0.12
		c0,0.04-0.02,0.09-0.02,0.12c0,0.05,0.01,0.08,0.02,0.12c0,0.04-0.02,0.09-0.02,0.12c0,0.05,0.01,0.08,0.02,0.12
		c0,0.04-0.02,0.09-0.02,0.12c0,0.05,0.01,0.08,0.02,0.12c0,0.04-0.02,0.09-0.02,0.12c0,0.05,0.01,0.08,0.02,0.12
		c0,0.04-0.02,0.09-0.02,0.12c0,0.05,0.01,0.08,0.02,0.12c0,0.04-0.02,0.09-0.02,0.12c0,0.05,0.01,0.08,0.02,0.12
		c0,0.04-0.02,0.09-0.02,0.12c0,0.05,0.01,0.08,0.02,0.12c0,0.04-0.02,0.09-0.02,0.12c0,0.05,0.01,0.08,0.02,0.12
		c0,0.04-0.02,0.09-0.02,0.12c0,0.05,0.01,0.08,0.02,0.12c0,0.04-0.02,0.09-0.02,0.12c0,0.05,0.01,0.08,0.02,0.12
		c0,0.04-0.02,0.09-0.02,0.12c0,0.05,0.01,0.08,0.02,0.12c0,0.04-0.02,0.09-0.02,0.12c0,0.05,0.01,0.08,0.02,0.12
		c0,0.04-0.02,0.09-0.02,0.12c0,0.05,0.01,0.08,0.02,0.12c0,0.04-0.02,0.09-0.02,0.12c0,0.47,0.28,0.7,0.83,0.69
		c5.32-0.15,10.64-0.23,15.96-0.26c0.39,0,0.73-0.06,1.01-0.18c0.27-0.12,0.41-0.38,0.41-0.77c0-0.07-0.01-0.11-0.01-0.17
		c0-0.03,0.01-0.04,0.01-0.07c0-0.07-0.01-0.11-0.02-0.17c0-0.03,0.02-0.04,0.02-0.07c0-0.07-0.01-0.11-0.02-0.17
		c0-0.03,0.02-0.04,0.02-0.07c0-0.07-0.01-0.11-0.02-0.17c0-0.03,0.02-0.04,0.02-0.07c0-0.07-0.01-0.11-0.02-0.17
		c0-0.03,0.02-0.04,0.02-0.07c0-0.07-0.01-0.11-0.02-0.17c0-0.03,0.02-0.04,0.02-0.07c0-0.07-0.01-0.11-0.02-0.17
		c0-0.03,0.02-0.04,0.02-0.07c0-0.07-0.01-0.11-0.02-0.17c0-0.03,0.02-0.04,0.02-0.07c0-0.07-0.01-0.11-0.02-0.17
		c0-0.03,0.02-0.04,0.02-0.07c0-0.07-0.01-0.11-0.02-0.17c0-0.03,0.02-0.04,0.02-0.07c0-0.07-0.01-0.11-0.02-0.17
		c0-0.03,0.02-0.04,0.02-0.07c0-0.07-0.01-0.11-0.02-0.17c0-0.03,0.02-0.04,0.02-0.07c0-0.07-0.01-0.11-0.02-0.17
		c0-0.03,0.02-0.04,0.02-0.07c0-0.07-0.01-0.11-0.02-0.17c0-0.03,0.02-0.04,0.02-0.07c0-0.07-0.01-0.11-0.02-0.17
		c0-0.03,0.02-0.04,0.02-0.07c0-0.07-0.01-0.11-0.02-0.17c0-0.03,0.02-0.04,0.02-0.07c0-0.07-0.01-0.11-0.02-0.17
		c0-0.03,0.02-0.04,0.02-0.07c0-0.07-0.01-0.11-0.02-0.17c0-0.03,0.02-0.04,0.02-0.07c0-0.07-0.01-0.11-0.02-0.17
		c0-0.03,0.02-0.04,0.02-0.07c0-0.07-0.01-0.11-0.02-0.17c0-0.03,0.02-0.04,0.02-0.07c0-0.07-0.01-0.11-0.02-0.17
		c0-0.03,0.02-0.04,0.02-0.07c0-0.07-0.01-0.11-0.02-0.17c0-0.03,0.02-0.04,0.02-0.07c0-0.07-0.01-0.11-0.02-0.17
		c0-0.03,0.02-0.04,0.02-0.07c0-0.07-0.01-0.11-0.02-0.17c0-0.03,0.02-0.04,0.02-0.07c0-0.07-0.01-0.11-0.02-0.17
		c0-0.03,0.02-0.04,0.02-0.07c0-0.07-0.01-0.11-0.02-0.17c0-0.03,0.02-0.04,0.02-0.07c0-0.07-0.01-0.11-0.02-0.17
		c0-0.03,0.02-0.04,0.02-0.07c0-0.07-0.01-0.11-0.02-0.17c0-0.03,0.02-0.04,0.02-0.07c0-0.07-0.01-0.11-0.02-0.17
		c0-0.03,0.02-0.04,0.02-0.07c0-0.07-0.01-0.11-0.02-0.17c0-0.03,0.02-0.04,0.02-0.07c0-0.07-0.01-0.11-0.02-0.17
		c0-0.03,0.02-0.04,0.02-0.07c0-0.07-0.01-0.11-0.02-0.17c0-0.03,0.02-0.04,0.02-0.07c0-0.07-0.01-0.11-0.02-0.17
		c0-0.03,0.02-0.04,0.02-0.07c0-0.07-0.01-0.11-0.02-0.17c0-0.03,0.02-0.04,0.02-0.07c0-0.07-0.01-0.11-0.02-0.17
		c0-0.03,0.02-0.04,0.02-0.07c0-0.07-0.01-0.11-0.02-0.17c0-0.03,0.02-0.04,0.02-0.07c0-0.07-0.01-0.11-0.02-0.17
		c0-0.03,0.02-0.04,0.02-0.07c0-0.07-0.01-0.11-0.02-0.17c0-0.03,0.02-0.04,0.02-0.07c0-0.07-0.01-0.11-0.02-0.17
		c0-0.03,0.02-0.04,0.02-0.07c0-0.07-0.01-0.11-0.02-0.17c0-0.03,0.02-0.04,0.02-0.07c0-0.07-0.01-0.11-0.02-0.17
		c0-0.03,0.02-0.04,0.02-0.07c0-0.07-0.01-0.11-0.02-0.17c0-0.03,0.02-0.04,0.02-0.07c0-0.07-0.01-0.11-0.02-0.17
		c0-0.03,0.02-0.04,0.02-0.07c0-0.07-0.01-0.11-0.02-0.17c0-0.03,0.02-0.04,0.02-0.07c0-0.07-0.01-0.11-0.02-0.17
		c0-0.03,0.02-0.04,0.02-0.07c0-0.07-0.01-0.11-0.02-0.17c0-0.03,0.02-0.04,0.02-0.07c0-0.05-0.01-0.07-0.01-0.12
		c0.6-1.56,1.19-3.13,1.79-4.69c9.58-0.02,19.16,0.14,28.73,0.43c0.36,0.96,0.72,1.93,1.08,2.89c0,0.04-0.02,0.08-0.02,0.12
		c0,0.04,0.02,0.06,0.02,0.09c0,0.05-0.02,0.1-0.02,0.15c0,0.04,0.02,0.06,0.02,0.09c0,0.05-0.02,0.1-0.02,0.15
		c0,0.04,0.02,0.06,0.02,0.09c0,0.05-0.02,0.1-0.02,0.15c0,0.04,0.02,0.06,0.02,0.09c0,0.05-0.02,0.1-0.02,0.15
		c0,0.04,0.02,0.06,0.02,0.09c0,0.05-0.02,0.1-0.02,0.15c0,0.04,0.02,0.06,0.02,0.09c0,0.05-0.02,0.1-0.02,0.15
		c0,0.04,0.02,0.06,0.02,0.09c0,0.05-0.02,0.1-0.02,0.15c0,0.04,0.02,0.06,0.02,0.09c0,0.05-0.02,0.1-0.02,0.15
		c0,0.04,0.02,0.06,0.02,0.09c0,0.05-0.02,0.1-0.02,0.15c0,0.04,0.02,0.06,0.02,0.09c0,0.05-0.02,0.1-0.02,0.15
		c0,0.04,0.02,0.06,0.02,0.09c0,0.05-0.02,0.1-0.02,0.15c0,0.04,0.02,0.06,0.02,0.09c0,0.05-0.02,0.1-0.02,0.15
		c0,0.04,0.02,0.06,0.02,0.09c0,0.05-0.02,0.1-0.02,0.15c0,0.04,0.02,0.06,0.02,0.09c0,0.05-0.02,0.1-0.02,0.15
		c0,0.04,0.02,0.06,0.02,0.09c0,0.05-0.02,0.1-0.02,0.15c0,0.04,0.02,0.06,0.02,0.09c0,0.05-0.02,0.1-0.02,0.15
		c0,0.04,0.02,0.06,0.02,0.09c0,0.05-0.02,0.1-0.02,0.15c0,0.04,0.02,0.06,0.02,0.09c0,0.05-0.02,0.1-0.02,0.15
		c0,0.04,0.02,0.06,0.02,0.09c0,0.05-0.02,0.1-0.02,0.15c0,0.04,0.02,0.06,0.02,0.09c0,0.05-0.02,0.1-0.02,0.15
		c0,0.04,0.02,0.06,0.02,0.09c0,0.05-0.02,0.1-0.02,0.15c0,0.04,0.02,0.06,0.02,0.09c0,0.05-0.02,0.1-0.02,0.15
		c0,0.04,0.02,0.06,0.02,0.09c0,0.05-0.02,0.1-0.02,0.15c0,0.04,0.02,0.06,0.02,0.09c0,0.05-0.02,0.1-0.02,0.15
		c0,0.04,0.02,0.06,0.02,0.09c0,0.05-0.02,0.1-0.02,0.15c0,0.04,0.02,0.06,0.02,0.09c0,0.05-0.02,0.1-0.02,0.15
		c0,0.04,0.02,0.06,0.02,0.09c0,0.05-0.02,0.1-0.02,0.15c0,0.04,0.02,0.06,0.02,0.09c0,0.05-0.02,0.1-0.02,0.15
		c0,0.04,0.02,0.06,0.02,0.09c0,0.05-0.02,0.1-0.02,0.15c0,0.04,0.02,0.06,0.02,0.09c0,0.05-0.02,0.1-0.02,0.15
		c0,0.04,0.02,0.06,0.02,0.09c0,0.05-0.02,0.1-0.02,0.15c0,0.04,0.02,0.06,0.02,0.09c0,0.05-0.02,0.1-0.02,0.15
		c0,0.04,0.02,0.06,0.02,0.09c0,0.05-0.02,0.1-0.02,0.15c0,0.04,0.02,0.06,0.02,0.09c0,0.05-0.02,0.1-0.02,0.15
		c0,0.04,0.02,0.06,0.02,0.09c0,0.05-0.02,0.1-0.02,0.15c0,0.04,0.02,0.06,0.02,0.09c0,0.05-0.02,0.1-0.02,0.15
		c0,0.04,0.02,0.06,0.02,0.09c0,0.05-0.02,0.1-0.02,0.15c0,0.04,0.02,0.06,0.02,0.09c0,0.05-0.02,0.1-0.02,0.15
		c0,0.04,0.02,0.06,0.02,0.09c0,0.05-0.02,0.1-0.02,0.15c0,0.04,0.02,0.06,0.02,0.09c0,0.05-0.02,0.1-0.02,0.15
		c0,0.04,0.02,0.06,0.02,0.09c0,0.05-0.02,0.1-0.02,0.15c0,0.04,0.02,0.06,0.02,0.09c0,0.05-0.02,0.1-0.02,0.15
		c0,0.04,0.02,0.06,0.02,0.09c0,0.05-0.02,0.1-0.02,0.15c0,0.04,0.02,0.06,0.02,0.09c0,0.05-0.02,0.1-0.02,0.15
		c0,0.04,0.02,0.06,0.02,0.09c0,0.05-0.02,0.1-0.02,0.15c0,0.04,0.02,0.06,0.02,0.09c0,0.05-0.02,0.1-0.02,0.15
		c0,0.04,0.02,0.06,0.02,0.09c0,0.05-0.02,0.1-0.02,0.15c0,0.04,0.02,0.06,0.02,0.09c0,0.05-0.02,0.1-0.02,0.15
		c0,0.04,0.02,0.06,0.02,0.09c0,0.05-0.02,0.1-0.02,0.15c0,0.04,0.02,0.06,0.02,0.09c0,0.05-0.02,0.1-0.02,0.15
		c0,0.04,0.02,0.06,0.02,0.09c0,0.05-0.02,0.1-0.02,0.15c0,0.04,0.02,0.06,0.02,0.09c0,0.05-0.02,0.1-0.02,0.15
		c0,0.04,0.02,0.06,0.02,0.09c0,0.05-0.02,0.1-0.02,0.15c0,0.04,0.02,0.06,0.02,0.09c0,0.05-0.02,0.1-0.02,0.15
		c0,0.4,0.18,0.64,0.53,0.73c0.35,0.09,0.73,0.14,1.12,0.15c12.1,0.4,24.2,1.02,36.3,1.78c0.71,0.04,1.07-0.25,1.06-0.88
		c0-0.04-0.01-0.08-0.02-0.12c0-0.04,0.02-0.07,0.02-0.12c0-0.04-0.01-0.08-0.02-0.12c0-0.04,0.02-0.07,0.02-0.12
		c0-0.04-0.01-0.08-0.02-0.12c0-0.04,0.02-0.07,0.02-0.12c0-0.04-0.01-0.08-0.02-0.12c0-0.04,0.02-0.07,0.02-0.12
		c0-0.04-0.01-0.08-0.02-0.12c0-0.04,0.02-0.07,0.02-0.12c0-0.04-0.01-0.08-0.02-0.12c0-0.04,0.02-0.07,0.02-0.12
		c0-0.04-0.01-0.08-0.02-0.12c0-0.04,0.02-0.07,0.02-0.12c0-0.04-0.01-0.08-0.02-0.12c0-0.04,0.02-0.07,0.02-0.12
		c0-0.04-0.01-0.08-0.02-0.12c0-0.04,0.02-0.07,0.02-0.12c0-0.04-0.01-0.08-0.02-0.12c0-0.04,0.02-0.07,0.02-0.12
		c0-0.04-0.01-0.08-0.02-0.12c0-0.04,0.02-0.07,0.02-0.12c0-0.04-0.01-0.08-0.02-0.12c0-0.04,0.02-0.07,0.02-0.12
		c0-0.04-0.01-0.08-0.02-0.12c0-0.04,0.02-0.07,0.02-0.12c0-0.04-0.01-0.08-0.02-0.12c0-0.04,0.02-0.07,0.02-0.12
		c0-0.04-0.01-0.08-0.02-0.12c0-0.04,0.02-0.07,0.02-0.12c0-0.04-0.01-0.08-0.02-0.12c0-0.04,0.02-0.07,0.02-0.12
		c0-0.04-0.01-0.08-0.02-0.12c0-0.04,0.02-0.07,0.02-0.12c0-0.04-0.01-0.08-0.02-0.12c0-0.04,0.02-0.07,0.02-0.12
		c0-0.04-0.01-0.08-0.02-0.12c0-0.04,0.02-0.07,0.02-0.12c0-0.04-0.01-0.08-0.02-0.12c0-0.04,0.02-0.07,0.02-0.12
		c0-0.04-0.01-0.08-0.02-0.12c0-0.04,0.02-0.07,0.02-0.12c0-0.04-0.01-0.08-0.02-0.12c0-0.04,0.02-0.07,0.02-0.12
		c0-0.04-0.01-0.08-0.02-0.12c0-0.04,0.02-0.07,0.02-0.12c0-0.04-0.01-0.08-0.02-0.12c0-0.04,0.02-0.07,0.02-0.12
		c0-0.04-0.01-0.08-0.02-0.12c0-0.04,0.02-0.07,0.02-0.12c0-0.04-0.01-0.08-0.02-0.12c0-0.04,0.02-0.07,0.02-0.12
		c0-0.04-0.01-0.08-0.02-0.12c0-0.04,0.02-0.07,0.02-0.12c0-0.04-0.01-0.08-0.02-0.12c0-0.04,0.02-0.07,0.02-0.12
		c0-0.04-0.01-0.08-0.02-0.12c0-0.04,0.02-0.07,0.02-0.12c0-0.04-0.01-0.08-0.02-0.12c0-0.04,0.02-0.07,0.02-0.12
		c0-0.04-0.01-0.08-0.02-0.12c0-0.04,0.02-0.07,0.02-0.12c0-0.04-0.01-0.08-0.02-0.12c0-0.04,0.02-0.07,0.02-0.12
		c0-0.04-0.01-0.08-0.02-0.12c0-0.04,0.02-0.07,0.02-0.12c0-0.04-0.01-0.08-0.02-0.12c0-0.04,0.02-0.07,0.02-0.12
		c0-0.04-0.01-0.08-0.02-0.12c0-0.04,0.02-0.07,0.02-0.12c0-0.04-0.01-0.08-0.02-0.12c0-0.04,0.02-0.07,0.02-0.12
		c0-0.04-0.01-0.08-0.02-0.12c0-0.04,0.02-0.07,0.02-0.12c0-0.04-0.01-0.08-0.02-0.12c0-0.04,0.02-0.07,0.02-0.12
		c0-0.04-0.01-0.08-0.02-0.12c0-0.04,0.02-0.07,0.02-0.12c0-0.04-0.01-0.08-0.02-0.12c0-0.04,0.02-0.07,0.02-0.12
		c0-0.04-0.01-0.08-0.02-0.12c0-0.04,0.02-0.07,0.02-0.12c0-0.04-0.01-0.08-0.02-0.12c0-0.04,0.02-0.07,0.02-0.12
		c0-0.04-0.01-0.08-0.02-0.12c0-0.04,0.02-0.07,0.02-0.12c0-0.04-0.01-0.08-0.02-0.12c0-0.04,0.02-0.07,0.02-0.12
		c0-0.04-0.01-0.08-0.02-0.12c0-0.04,0.02-0.07,0.02-0.12c0-0.04-0.01-0.08-0.02-0.12c0-0.04,0.02-0.07,0.02-0.12
		c0-0.04-0.01-0.08-0.02-0.12c0-0.04,0.02-0.07,0.02-0.12c0-0.04-0.01-0.08-0.02-0.12c0-0.04,0.02-0.07,0.02-0.12
		c0-0.04-0.01-0.08-0.02-0.12c0-0.04,0.02-0.07,0.02-0.12c0-0.04-0.01-0.08-0.02-0.12c0-0.04,0.02-0.07,0.02-0.12
		c0-0.04-0.01-0.08-0.02-0.12c0-0.04,0.02-0.07,0.02-0.12c0-0.04-0.01-0.08-0.02-0.12c0-0.04,0.02-0.07,0.02-0.12
		c0-0.04-0.01-0.08-0.02-0.12c0-0.04,0.02-0.07,0.02-0.12c0-0.04-0.01-0.08-0.02-0.12c0-0.04,0.02-0.07,0.02-0.12
		c0-0.04-0.01-0.08-0.02-0.12c0-0.04,0.02-0.07,0.02-0.12c0-0.04-0.01-0.08-0.02-0.12c0-0.04,0.02-0.07,0.02-0.12
		c0-0.04-0.01-0.08-0.02-0.12c0-0.04,0.02-0.07,0.02-0.12c0-0.04-0.01-0.08-0.02-0.12c0-0.04,0.02-0.07,0.02-0.12
		c0-0.04-0.01-0.08-0.02-0.12c0-0.04,0.02-0.07,0.02-0.12c0-0.04-0.01-0.08-0.02-0.12c0-0.04,0.02-0.07,0.02-0.12
		c0-0.04-0.01-0.08-0.02-0.12c0-0.04,0.02-0.07,0.02-0.12c0-0.04-0.01-0.08-0.02-0.12c0-0.04,0.02-0.07,0.02-0.12
		c0-0.04-0.01-0.08-0.02-0.12c0-0.04,0.02-0.07,0.02-0.12c0-0.04-0.01-0.08-0.02-0.12c0-0.04,0.02-0.07,0.02-0.12
		c0-0.04-0.01-0.08-0.02-0.12c0-0.04,0.02-0.07,0.02-0.12c0-0.04-0.01-0.08-0.02-0.12c0-0.04,0.02-0.07,0.02-0.12
		c0-0.04-0.01-0.08-0.02-0.12c0-0.04,0.02-0.07,0.02-0.12c0-0.04-0.01-0.08-0.02-0.12c0-0.04,0.02-0.07,0.02-0.12
		c0-0.04-0.01-0.08-0.02-0.12c0-0.04,0.02-0.07,0.02-0.12c0-0.04-0.01-0.08-0.02-0.12c0-0.04,0.02-0.07,0.02-0.12
		c0-0.04-0.01-0.08-0.02-0.12c0-0.04,0.02-0.07,0.02-0.12c0-0.04-0.01-0.08-0.02-0.12c0-0.04,0.02-0.07,0.02-0.12
		c0-0.04-0.01-0.08-0.02-0.12c0-0.04,0.02-0.07,0.02-0.12c0-0.04-0.01-0.08-0.02-0.12c0-0.04,0.02-0.07,0.02-0.12
		c0-0.04-0.01-0.08-0.02-0.12c0-0.04,0.02-0.07,0.02-0.12c0-0.04-0.01-0.08-0.02-0.12c0-0.04,0.02-0.07,0.02-0.12
		c0-0.04-0.01-0.08-0.02-0.12c0-0.04,0.02-0.07,0.02-0.12c0-0.04-0.01-0.08-0.02-0.12c0-0.04,0.02-0.07,0.02-0.12
		c0-0.04-0.01-0.08-0.02-0.12c0-0.04,0.02-0.07,0.02-0.12c0-0.04-0.01-0.08-0.02-0.12c0-0.04,0.02-0.07,0.02-0.12
		c0-0.04-0.01-0.08-0.02-0.12c0-0.04,0.02-0.07,0.02-0.12c0-0.04-0.01-0.08-0.02-0.12c0-0.04,0.02-0.07,0.02-0.12
		c0-0.04-0.01-0.08-0.02-0.12c0-0.04,0.02-0.07,0.02-0.12c0-0.04-0.01-0.08-0.02-0.12c0-0.04,0.02-0.07,0.02-0.12
		c0-0.04-0.01-0.08-0.02-0.12c0-0.04,0.02-0.07,0.02-0.12c0-0.04-0.01-0.08-0.02-0.12c0-0.04,0.02-0.07,0.02-0.12
		c0-0.04-0.01-0.08-0.02-0.12c0-0.04,0.02-0.07,0.02-0.12c0-0.04-0.01-0.08-0.02-0.12c0-0.04,0.02-0.07,0.02-0.12
		c0-0.04-0.01-0.08-0.02-0.12c0-0.04,0.02-0.07,0.02-0.12c0-0.04-0.01-0.08-0.02-0.12c0-0.04,0.02-0.07,0.02-0.12
		c0-0.04-0.01-0.08-0.02-0.12c0-0.04,0.02-0.07,0.02-0.12c0-0.04-0.01-0.08-0.02-0.12c0-0.04,0.02-0.07,0.02-0.12
		c0-0.04-0.01-0.08-0.02-0.12c0-0.04,0.02-0.07,0.02-0.12c0-0.04-0.01-0.08-0.02-0.12c0-0.04,0.02-0.07,0.02-0.12
		c0-0.04-0.01-0.08-0.02-0.12c0-0.04,0.02-0.07,0.02-0.12c0-0.04-0.01-0.08-0.02-0.12c0-0.04,0.02-0.07,0.02-0.12
		c0-0.04-0.01-0.08-0.02-0.12c0-0.04,0.02-0.07,0.02-0.12c0-0.04-0.01-0.08-0.02-0.12c0-0.04,0.02-0.07,0.02-0.12
		c0-0.04-0.01-0.08-0.02-0.12c0-0.04,0.02-0.07,0.02-0.12c0-0.04-0.01-0.08-0.02-0.12c0-0.04,0.02-0.07,0.02-0.12
		C873.78,225.02,873.7,224.74,873.54,224.42z M819.51,194.03c-0.08,0-0.17,0-0.25,0c0.04-0.11,0.08-0.22,0.13-0.33
		C819.43,193.8,819.47,193.92,819.51,194.03z"/>
	<path class="st1" d="M809.92,193.69c6.27,0.03,12.53,0.12,18.8,0.28c-3.11-8.28-6.23-16.54-9.34-24.79
		C816.23,177.33,813.08,185.5,809.92,193.69z M785.8,223.88c-0.55,0.01-0.83-0.21-0.83-0.69c0-0.16,0.08-0.48,0.24-0.95
		c11.67-30.92,23.33-61.55,35-91.95c0-0.16,0.12-0.35,0.35-0.59c0.4-0.39,0.9-0.58,1.54-0.56c4.61,0.08,9.22,0.2,13.84,0.35
		c0.39,0.01,0.69,0.12,0.89,0.32c0.2,0.2,0.37,0.39,0.53,0.55c0.16,0.24,0.32,0.48,0.47,0.73c11.9,30.84,23.81,61.89,35.71,93.08
		c0.16,0.33,0.24,0.61,0.24,0.84c0,0.63-0.35,0.92-1.06,0.88c-12.1-0.76-24.2-1.38-36.3-1.78c-0.39-0.01-0.77-0.06-1.12-0.15
		c-0.36-0.09-0.53-0.33-0.53-0.73c0-0.55,0.16-0.98,0.47-1.28c0.16-0.15,0.31-0.35,0.47-0.58c0.16-0.15,0.3-0.35,0.41-0.58
		c0.12-0.23,0.25-0.47,0.41-0.7c0.32-0.54,0.51-0.99,0.59-1.34c0.08-0.35,0.12-0.76,0.12-1.24c0-0.32,0-0.63,0-0.95
		c-1.18-3.15-2.36-6.31-3.55-9.46c-9.58-0.29-19.16-0.45-28.73-0.43c-1.14,3-2.29,6-3.43,9c-0.23,0.63-0.35,1.46-0.36,2.49
		c0,0.4,0.08,0.77,0.24,1.12c0.16,0.35,0.32,0.69,0.47,1c0.24,0.31,0.48,0.67,0.71,1.06c0.15,0.24,0.29,0.41,0.41,0.53
		c0.12,0.12,0.18,0.37,0.18,0.77c0,0.4-0.14,0.65-0.41,0.77c-0.28,0.12-0.61,0.18-1.01,0.18
		C796.44,223.65,791.12,223.73,785.8,223.88z"/>
</g>
<g>
	<path class="st5" d="M961.58,159.26c-1.26-3.58-3.19-6.78-5.79-9.62c-3.63-3.95-8.36-7.09-14.19-9.42
		c-5.83-2.33-12.46-3.82-19.87-4.46c-13.95-1.2-27.91-2.34-41.86-3.31c-1.1-0.08-1.66,0.36-1.66,1.3c0,0.08,0,0.16,0,0.24
		c0,0.08,0,0.16,0,0.24c0,0.08,0,0.16,0,0.24c0,0.08,0,0.16,0,0.24c0,0.08,0,0.16,0,0.24c0,0.08,0,0.16,0,0.24c0,0.08,0,0.16,0,0.24
		c0,0.08,0,0.16,0,0.24c0,0.08,0,0.16,0,0.24c0,0.08,0,0.16,0,0.24c0,0.08,0,0.16,0,0.24c0,0.08,0,0.16,0,0.24c0,0.08,0,0.16,0,0.24
		c0,0.08,0,0.16,0,0.24c0,0.08,0,0.16,0,0.24c0,0.08,0,0.16,0,0.24c0,0.08,0,0.16,0,0.24c0,0.08,0,0.16,0,0.24c0,0.08,0,0.16,0,0.24
		c0,0.08,0,0.16,0,0.24c0,0.08,0,0.16,0,0.24c0,0.08,0,0.16,0,0.24c0,0.08,0,0.16,0,0.24c0,0.08,0,0.16,0,0.24c0,0.08,0,0.16,0,0.24
		c0,0.08,0,0.16,0,0.24c0,0.08,0,0.16,0,0.24c0,0.08,0,0.16,0,0.24s0,0.16,0,0.24c0,0.08,0,0.16,0,0.24c0,0.08,0,0.16,0,0.24
		c0,0.08,0,0.16,0,0.24c0,0.08,0,0.16,0,0.24s0,0.16,0,0.24c0,0.08,0,0.16,0,0.24c0,0.08,0,0.16,0,0.24c0,0.08,0,0.16,0,0.24
		c0,0.08,0,0.16,0,0.24s0,0.16,0,0.24c0,0.08,0,0.16,0,0.24c0,0.08,0,0.16,0,0.24c0,0.08,0,0.16,0,0.24c0,0.08,0,0.16,0,0.24
		c0,0.08,0,0.16,0,0.24c0,0.08,0,0.16,0,0.24c0,0.08,0,0.16,0,0.24c0,0.08,0,0.16,0,0.24c0,0.08,0,0.16,0,0.24c0,0.08,0,0.16,0,0.24
		c0,0.08,0,0.16,0,0.24c0,0.08,0,0.16,0,0.24c0,0.08,0,0.16,0,0.24c0,0.08,0,0.16,0,0.24c0,0.08,0,0.16,0,0.24c0,0.08,0,0.16,0,0.24
		c0,0.08,0,0.16,0,0.24c0,0.08,0,0.16,0,0.24c0,0.08,0,0.16,0,0.24c0,0.08,0,0.16,0,0.24c0,0.08,0,0.16,0,0.24c0,0.08,0,0.16,0,0.24
		s0,0.16,0,0.24c0,0.08,0,0.16,0,0.24c0,0.08,0,0.16,0,0.24c0,0.08,0,0.16,0,0.24c0,0.08,0,0.16,0,0.24c0,0.08,0,0.16,0,0.24
		c0,0.08,0,0.16,0,0.24c0,0.08,0,0.16,0,0.24c0,0.08,0,0.16,0,0.24c0,0.08,0,0.16,0,0.24c0,0.08,0,0.16,0,0.24c0,0.08,0,0.16,0,0.24
		c0,0.08,0,0.16,0,0.24c0,0.08,0,0.16,0,0.24c0,0.08,0,0.16,0,0.24c0,0.08,0,0.16,0,0.24c0,0.08,0,0.16,0,0.24c0,0.08,0,0.16,0,0.24
		c0,0.08,0,0.16,0,0.24c0,0.08,0,0.16,0,0.24c0,0.08,0,0.16,0,0.24c0,0.08,0,0.16,0,0.24c0,0.08,0,0.16,0,0.24c0,0.08,0,0.16,0,0.24
		c0,0.08,0,0.16,0,0.24c0,0.08,0,0.16,0,0.24c0,0.08,0,0.16,0,0.24c0,0.08,0,0.16,0,0.24c0,0.08,0,0.16,0,0.24c0,0.08,0,0.16,0,0.24
		c0,0.08,0,0.16,0,0.24c0,0.08,0,0.16,0,0.24c0,0.08,0,0.16,0,0.24c0,0.08,0,0.16,0,0.24c0,0.08,0,0.16,0,0.24c0,0.08,0,0.16,0,0.24
		c0,0.08,0,0.16,0,0.24c0,0.08,0,0.16,0,0.24c0,0.08,0,0.16,0,0.24c0,22.54,0,45.08,0,67.62c0,0.08,0,0.16,0,0.24
		c0,0.08,0,0.16,0,0.24c0,0.08,0,0.16,0,0.24c0,0.08,0,0.16,0,0.24c0,0.08,0,0.16,0,0.24c0,0.08,0,0.16,0,0.24c0,0.08,0,0.16,0,0.24
		c0,0.08,0,0.16,0,0.24c0,0.08,0,0.16,0,0.24c0,0.08,0,0.16,0,0.24c0,0.08,0,0.16,0,0.24c0,0.08,0,0.16,0,0.24c0,0.08,0,0.16,0,0.24
		c0,0.08,0,0.16,0,0.24c0,0.08,0,0.16,0,0.24c0,0.08,0,0.16,0,0.24c0,0.08,0,0.16,0,0.24c0,0.08,0,0.16,0,0.24c0,0.08,0,0.16,0,0.24
		c0,0.08,0,0.16,0,0.24c0,0.08,0,0.16,0,0.24c0,0.08,0,0.16,0,0.24c0,0.08,0,0.16,0,0.24c0,0.08,0,0.16,0,0.24c0,0.08,0,0.16,0,0.24
		c0,0.08,0,0.16,0,0.24c0,0.08,0,0.16,0,0.24c0,0.08,0,0.16,0,0.24c0,0.08,0,0.16,0,0.24c0,0.08,0,0.16,0,0.24c0,0.08,0,0.16,0,0.24
		c0,0.08,0,0.16,0,0.24c0,0.08,0,0.16,0,0.24c0,0.08,0,0.16,0,0.24c0,0.08,0,0.16,0,0.24c0,0.08,0,0.16,0,0.24c0,0.08,0,0.16,0,0.24
		c0,0.08,0,0.16,0,0.24c0,0.08,0,0.16,0,0.24c0,0.08,0,0.16,0,0.24c0,0.08,0,0.16,0,0.24c0,0.08,0,0.16,0,0.24c0,0.08,0,0.16,0,0.24
		c0,0.08,0,0.16,0,0.24c0,0.08,0,0.16,0,0.24c0,0.08,0,0.16,0,0.24c0,0.08,0,0.16,0,0.24c0,0.08,0,0.16,0,0.24c0,0.08,0,0.16,0,0.24
		c0,0.08,0,0.16,0,0.24c0,0.08,0,0.16,0,0.24c0,0.08,0,0.16,0,0.24c0,0.08,0,0.16,0,0.24c0,0.08,0,0.16,0,0.24c0,0.08,0,0.16,0,0.24
		c0,0.08,0,0.16,0,0.24c0,0.08,0,0.16,0,0.24c0,0.08,0,0.16,0,0.24c0,0.08,0,0.16,0,0.24c0,0.08,0,0.16,0,0.24c0,0.08,0,0.16,0,0.24
		c0,0.08,0,0.16,0,0.24c0,0.08,0,0.16,0,0.24c0,0.08,0,0.16,0,0.24c0,0.08,0,0.16,0,0.24c0,0.08,0,0.16,0,0.24c0,0.08,0,0.16,0,0.24
		c0,0.08,0,0.16,0,0.24c0,0.08,0,0.16,0,0.24c0,0.08,0,0.16,0,0.24c0,0.08,0,0.16,0,0.24c0,0.08,0,0.16,0,0.24c0,0.08,0,0.16,0,0.24
		c0,0.08,0,0.16,0,0.24s0,0.16,0,0.24c0,0.08,0,0.16,0,0.24c0,0.08,0,0.16,0,0.24c0,0.08,0,0.16,0,0.24c0,0.08,0,0.16,0,0.24
		c0,0.08,0,0.16,0,0.24c0,0.08,0,0.16,0,0.24c0,0.08,0,0.16,0,0.24c0,0.08,0,0.16,0,0.24c0,0.08,0,0.16,0,0.24c0,0.08,0,0.16,0,0.24
		c0,0.08,0,0.16,0,0.24c0,0.08,0,0.16,0,0.24c0,0.08,0,0.16,0,0.24c0,0.08,0,0.16,0,0.24c0,0.08,0,0.16,0,0.24c0,0.08,0,0.16,0,0.24
		c0,0.08,0,0.16,0,0.24c0,0.08,0,0.16,0,0.24c0,0.08,0,0.16,0,0.24c0,0.08,0,0.16,0,0.24c0,0.08,0,0.16,0,0.24c0,0.08,0,0.16,0,0.24
		c0,0.08,0,0.16,0,0.24c0,0.08,0,0.16,0,0.24c0,0.08,0,0.16,0,0.24c0,0.24,0.06,0.48,0.18,0.72c0.12,0.24,0.45,0.39,1.01,0.42
		c11.47,0.79,22.94,1.7,34.41,2.66c0.63,0.05,0.95-0.08,0.95-0.39c0-0.08,0-0.16,0-0.24c0-0.08,0-0.16,0-0.24c0-0.04,0-0.07,0-0.11
		c0-0.05,0-0.09,0-0.14c0-0.04,0-0.07,0-0.11c0-0.05,0-0.09,0-0.14c0-0.04,0-0.07,0-0.11c0-0.05,0-0.09,0-0.14c0-0.04,0-0.07,0-0.11
		c0-0.05,0-0.09,0-0.14c0-0.04,0-0.07,0-0.11c0-0.05,0-0.09,0-0.14c0-0.04,0-0.07,0-0.11c0-0.05,0-0.09,0-0.14c0-0.04,0-0.07,0-0.11
		c0-0.05,0-0.09,0-0.14c0-0.04,0-0.07,0-0.11c0-0.05,0-0.09,0-0.14c0-0.04,0-0.07,0-0.11c0-0.05,0-0.09,0-0.14c0-0.04,0-0.07,0-0.11
		c0-0.05,0-0.09,0-0.14c0-0.04,0-0.07,0-0.11c0-0.05,0-0.09,0-0.14c0-0.04,0-0.07,0-0.11c0-0.05,0-0.09,0-0.14c0-0.04,0-0.07,0-0.11
		c0-0.05,0-0.09,0-0.14c0-0.04,0-0.07,0-0.11c0-0.05,0-0.09,0-0.14c0-0.04,0-0.07,0-0.11c0-0.05,0-0.09,0-0.14c0-0.04,0-0.07,0-0.11
		c0-0.05,0-0.09,0-0.14c0-0.04,0-0.07,0-0.11c0-0.05,0-0.09,0-0.14c0-0.04,0-0.07,0-0.11c0-0.05,0-0.09,0-0.14c0-0.04,0-0.07,0-0.11
		c0-0.05,0-0.09,0-0.14c0-0.04,0-0.07,0-0.11c0-0.05,0-0.09,0-0.14c0-0.04,0-0.07,0-0.11c0-0.05,0-0.09,0-0.14c0-0.04,0-0.07,0-0.11
		c0-0.05,0-0.09,0-0.14c0-0.04,0-0.07,0-0.11c0-0.05,0-0.09,0-0.14c0-0.04,0-0.07,0-0.11c0-0.05,0-0.09,0-0.14c0-0.04,0-0.07,0-0.11
		c0-0.05,0-0.09,0-0.14c0-0.04,0-0.07,0-0.11c0-0.05,0-0.09,0-0.14c0-0.04,0-0.07,0-0.11c0-0.05,0-0.09,0-0.14c0-0.04,0-0.07,0-0.11
		c0-0.05,0-0.09,0-0.14c0-0.04,0-0.07,0-0.11c0-0.05,0-0.09,0-0.14c0-0.04,0-0.07,0-0.11c0-0.05,0-0.09,0-0.14c0-0.04,0-0.07,0-0.11
		c0-0.05,0-0.09,0-0.14c0-0.04,0-0.07,0-0.11c0-0.05,0-0.09,0-0.14c0-0.04,0-0.07,0-0.11c0-0.05,0-0.09,0-0.14c0-0.04,0-0.07,0-0.11
		c0-0.05,0-0.09,0-0.14c0-0.04,0-0.07,0-0.11c0-0.05,0-0.09,0-0.14c0-0.04,0-0.07,0-0.11c0-0.05,0-0.09,0-0.14c0-0.04,0-0.07,0-0.11
		c0-0.05,0-0.09,0-0.14c0-0.04,0-0.07,0-0.11c0-0.05,0-0.09,0-0.14c0-0.04,0-0.07,0-0.11c0-0.05,0-0.09,0-0.14c0-0.04,0-0.07,0-0.11
		c0-0.05,0-0.09,0-0.14c0-0.04,0-0.07,0-0.11c0-0.05,0-0.09,0-0.14c0-0.04,0-0.07,0-0.11c0-0.05,0-0.09,0-0.14c0-0.04,0-0.07,0-0.11
		c0-0.05,0-0.09,0-0.14c0-0.04,0-0.07,0-0.11c0-0.05,0-0.09,0-0.14c0-0.04,0-0.07,0-0.11c0-0.05,0-0.09,0-0.14c0-0.04,0-0.07,0-0.11
		c0-0.05,0-0.09,0-0.14c0-0.04,0-0.07,0-0.11c0-0.05,0-0.09,0-0.14c0-0.04,0-0.07,0-0.11c0-0.05,0-0.09,0-0.14c0-0.04,0-0.07,0-0.11
		c0-0.05,0-0.09,0-0.14c0-0.04,0-0.07,0-0.11c0-0.05,0-0.09,0-0.14c0-0.04,0-0.07,0-0.11c0-0.05,0-0.09,0-0.14c0-0.04,0-0.07,0-0.11
		c0-0.05,0-0.09,0-0.14c0-0.04,0-0.07,0-0.11c0-0.05,0-0.09,0-0.14c0-0.04,0-0.07,0-0.11c0-0.05,0-0.09,0-0.14c0-0.04,0-0.07,0-0.11
		c0-0.05,0-0.09,0-0.14c0-0.04,0-0.07,0-0.11c0-0.05,0-0.09,0-0.14c0-0.04,0-0.07,0-0.11c0-0.05,0-0.09,0-0.14c0-0.04,0-0.07,0-0.11
		c0-0.05,0-0.09,0-0.14c0-0.04,0-0.07,0-0.11c0-0.05,0-0.09,0-0.14c0-0.04,0-0.07,0-0.11c0-0.05,0-0.09,0-0.14c0-0.04,0-0.07,0-0.11
		c0-0.05,0-0.09,0-0.14c0-0.04,0-0.07,0-0.11c0-0.05,0-0.09,0-0.14c0-0.04,0-0.07,0-0.11c0-0.05,0-0.09,0-0.14c0-0.04,0-0.07,0-0.11
		c0-0.05,0-0.09,0-0.14c0-0.04,0-0.07,0-0.11c0-0.05,0-0.09,0-0.14c0-0.04,0-0.07,0-0.11c0-0.05,0-0.09,0-0.14c0-0.04,0-0.07,0-0.11
		c0-0.05,0-0.09,0-0.14c0-0.04,0-0.07,0-0.11c0-0.05,0-0.09,0-0.14c0-0.04,0-0.07,0-0.11c0-0.05,0-0.09,0-0.14c0-0.04,0-0.07,0-0.11
		c0-0.05,0-0.09,0-0.14c0-0.04,0-0.07,0-0.11c0-0.05,0-0.09,0-0.14c0-0.04,0-0.07,0-0.11c0-0.05,0-0.09,0-0.14c0-0.04,0-0.07,0-0.11
		c0-0.05,0-0.09,0-0.14c0-0.04,0-0.07,0-0.11c0-0.05,0-0.09,0-0.14c0-0.04,0-0.07,0-0.11c0-0.05,0-0.09,0-0.14c0-0.04,0-0.07,0-0.11
		c0-0.05,0-0.09,0-0.14c0-0.04,0-0.07,0-0.11c0-0.05,0-0.09,0-0.14c0-0.04,0-0.07,0-0.11c0-0.05,0-0.09,0-0.14c0-0.04,0-0.07,0-0.11
		c0-0.05,0-0.09,0-0.14c0-0.04,0-0.07,0-0.11c0-0.05,0-0.09,0-0.14c0-0.04,0-0.07,0-0.11c0-0.05,0-0.09,0-0.14c0-0.04,0-0.07,0-0.11
		c0-0.05,0-0.09,0-0.14c0-0.04,0-0.07,0-0.11c0-0.05,0-0.09,0-0.14c0-0.04,0-0.07,0-0.11c0-0.05,0-0.09,0-0.14c0-0.04,0-0.07,0-0.11
		c0-0.05,0-0.09,0-0.14c0-0.04,0-0.07,0-0.11c0-0.05,0-0.09,0-0.14c0-0.04,0-0.07,0-0.11c0-0.05,0-0.09,0-0.14c0-0.04,0-0.07,0-0.11
		c0-0.05,0-0.09,0-0.14c0-0.04,0-0.07,0-0.11c0-0.05,0-0.09,0-0.14c0-0.04,0-0.07,0-0.11c0-0.05,0-0.09,0-0.14c0-0.04,0-0.07,0-0.11
		c0-0.05,0-0.09,0-0.14c0-0.04,0-0.07,0-0.11c0-0.05,0-0.09,0-0.14c0-0.04,0-0.07,0-0.11c0-0.05,0-0.09,0-0.14c0-0.04,0-0.07,0-0.11
		c0-0.05,0-0.09,0-0.14c0-0.04,0-0.07,0-0.11c0-0.05,0-0.09,0-0.14c0-0.04,0-0.07,0-0.11c0-0.05,0-0.09,0-0.14c0-0.04,0-0.07,0-0.11
		c0-0.05,0-0.09,0-0.14c0-0.04,0-0.07,0-0.11c0-0.05,0-0.09,0-0.14c0-0.04,0-0.07,0-0.11c0-0.08,0-0.16,0-0.24c0-0.08,0-0.16,0-0.24
		c0-0.16-0.08-0.32-0.24-0.49c-0.08-0.09-0.16-0.17-0.24-0.26c-0.16-0.09-0.31-0.26-0.47-0.51c-0.31-0.34-0.71-0.89-1.18-1.64
		c-0.79-1.19-1.36-2.54-1.73-4.02c2.03,0.17,4.07,0.34,6.1,0.51c7.1,0.6,13.5,0.57,19.22-0.11c5.71-0.68,10.58-2.1,14.6-4.26
		c4.02-2.17,7.14-5.1,9.34-8.81c2.2-3.71,3.31-8.28,3.31-13.72c0-0.03,0-0.06,0-0.1c0-0.05,0-0.1,0-0.15c0-0.03,0-0.06,0-0.1
		c0-0.05,0-0.1,0-0.15c0-0.03,0-0.06,0-0.1c0-0.05,0-0.1,0-0.15c0-0.03,0-0.06,0-0.1c0-0.05,0-0.1,0-0.15c0-0.03,0-0.06,0-0.1
		c0-0.05,0-0.1,0-0.15c0-0.03,0-0.06,0-0.1c0-0.05,0-0.1,0-0.15c0-0.03,0-0.06,0-0.1c0-0.05,0-0.1,0-0.15c0-0.03,0-0.06,0-0.1
		c0-0.05,0-0.1,0-0.15c0-0.03,0-0.06,0-0.1c0-0.05,0-0.1,0-0.15c0-0.03,0-0.06,0-0.1c0-0.05,0-0.1,0-0.15c0-0.03,0-0.06,0-0.1
		c0-0.05,0-0.1,0-0.15c0-0.03,0-0.06,0-0.1c0-0.05,0-0.1,0-0.15c0-0.03,0-0.06,0-0.1c0-0.05,0-0.1,0-0.15c0-0.03,0-0.06,0-0.1
		c0-0.05,0-0.1,0-0.15c0-0.03,0-0.06,0-0.1c0-0.05,0-0.1,0-0.15c0-0.03,0-0.06,0-0.1c0-0.05,0-0.1,0-0.15c0-0.03,0-0.06,0-0.1
		c0-0.05,0-0.1,0-0.15c0-0.03,0-0.06,0-0.1c0-0.05,0-0.1,0-0.15c0-0.03,0-0.06,0-0.1c0-0.05,0-0.1,0-0.15c0-0.03,0-0.06,0-0.1
		c0-0.05,0-0.1,0-0.15c0-0.03,0-0.06,0-0.1c0-0.05,0-0.1,0-0.15c0-0.03,0-0.06,0-0.1c0-0.05,0-0.1,0-0.15c0-0.03,0-0.06,0-0.1
		c0-0.05,0-0.1,0-0.15c0-0.03,0-0.06,0-0.1c0-0.05,0-0.1,0-0.15c0-0.03,0-0.06,0-0.1c0-0.05,0-0.1,0-0.15c0-0.03,0-0.06,0-0.1
		c0-0.05,0-0.1,0-0.15c0-0.03,0-0.06,0-0.1c0-0.05,0-0.1,0-0.15c0-0.03,0-0.06,0-0.1c0-0.05,0-0.1,0-0.15c0-0.03,0-0.06,0-0.1
		c0-0.05,0-0.1,0-0.15c0-0.03,0-0.06,0-0.1c0-0.05,0-0.1,0-0.15c0-0.03,0-0.06,0-0.1c0-0.05,0-0.1,0-0.15c0-0.03,0-0.06,0-0.1
		c0-0.05,0-0.1,0-0.15c0-0.03,0-0.06,0-0.1c0-0.05,0-0.1,0-0.15c0-0.03,0-0.06,0-0.1c0-0.05,0-0.1,0-0.15c0-0.03,0-0.06,0-0.1
		c0-0.05,0-0.1,0-0.15c0-0.03,0-0.06,0-0.1c0-0.05,0-0.1,0-0.15c0-0.03,0-0.06,0-0.1c0-0.05,0-0.1,0-0.15c0-0.03,0-0.06,0-0.1
		c0-0.05,0-0.1,0-0.15c0-0.03,0-0.06,0-0.1c0-0.05,0-0.1,0-0.15c0-0.03,0-0.06,0-0.1c0-0.05,0-0.1,0-0.15c0-0.03,0-0.06,0-0.1
		c0-0.05,0-0.1,0-0.15c0-0.03,0-0.06,0-0.1c0-0.05,0-0.1,0-0.15c0-0.03,0-0.06,0-0.1c0-0.05,0-0.1,0-0.15c0-0.03,0-0.06,0-0.1
		c0-0.05,0-0.1,0-0.15c0-0.03,0-0.06,0-0.1c0-0.05,0-0.1,0-0.15c0-0.03,0-0.06,0-0.1c0-0.05,0-0.1,0-0.15c0-0.03,0-0.06,0-0.1
		c0-0.05,0-0.1,0-0.15c0-0.03,0-0.06,0-0.1c0-0.05,0-0.1,0-0.15c0-0.03,0-0.06,0-0.1c0-0.05,0-0.1,0-0.15c0-0.03,0-0.06,0-0.1
		c0-0.05,0-0.1,0-0.15c0-0.03,0-0.06,0-0.1c0-0.05,0-0.1,0-0.15c0-0.03,0-0.06,0-0.1c0-0.05,0-0.1,0-0.15c0-0.03,0-0.06,0-0.1
		c0-0.05,0-0.1,0-0.15c0-0.03,0-0.06,0-0.1c0-0.05,0-0.1,0-0.15c0-0.03,0-0.06,0-0.1c0-0.05,0-0.1,0-0.15c0-0.03,0-0.06,0-0.1
		c0-0.05,0-0.1,0-0.15c0-0.03,0-0.06,0-0.1c0-0.05,0-0.1,0-0.15c0-0.03,0-0.06,0-0.1c0-0.05,0-0.1,0-0.15c0-0.03,0-0.06,0-0.1
		c0-0.05,0-0.1,0-0.15c0-0.03,0-0.06,0-0.1c0-0.05,0-0.1,0-0.15c0-0.03,0-0.06,0-0.1c0-0.05,0-0.1,0-0.15c0-0.03,0-0.06,0-0.1
		c0-0.05,0-0.1,0-0.15c0-0.03,0-0.06,0-0.1c0-0.05,0-0.1,0-0.15c0-0.03,0-0.06,0-0.1c0-0.05,0-0.1,0-0.15c0-0.03,0-0.06,0-0.1
		c0-0.05,0-0.1,0-0.15c0-0.03,0-0.06,0-0.1c0-0.05,0-0.1,0-0.15c0-0.03,0-0.06,0-0.1c0-0.05,0-0.1,0-0.15c0-0.03,0-0.06,0-0.1
		c0-0.05,0-0.1,0-0.15c0-0.03,0-0.06,0-0.1c0-0.05,0-0.1,0-0.15c0-0.03,0-0.06,0-0.1c0-0.05,0-0.1,0-0.15c0-0.03,0-0.06,0-0.1
		c0-0.05,0-0.1,0-0.15c0-0.03,0-0.06,0-0.1c0-0.05,0-0.1,0-0.15c0-0.03,0-0.06,0-0.1c0-0.05,0-0.1,0-0.15c0-0.03,0-0.06,0-0.1
		c0-0.05,0-0.1,0-0.15c0-0.03,0-0.06,0-0.1c0-0.05,0-0.1,0-0.15c0-0.03,0-0.06,0-0.1c0-0.05,0-0.1,0-0.15c0-0.03,0-0.06,0-0.1
		c0-0.05,0-0.1,0-0.15c0-0.03,0-0.06,0-0.1c0-0.05,0-0.1,0-0.15c0-0.03,0-0.06,0-0.1c0-0.05,0-0.1,0-0.15c0-0.03,0-0.06,0-0.1
		c0-0.05,0-0.1,0-0.15c0-0.03,0-0.06,0-0.1c0-0.05,0-0.1,0-0.15c0-0.03,0-0.06,0-0.1c0-0.05,0-0.1,0-0.15c0-0.03,0-0.06,0-0.1
		c0-0.05,0-0.1,0-0.15c0-0.03,0-0.06,0-0.1c0-0.05,0-0.1,0-0.15c0-0.03,0-0.06,0-0.1c0-0.05,0-0.1,0-0.15c0-0.03,0-0.06,0-0.1
		c0-0.05,0-0.1,0-0.15c0-0.03,0-0.06,0-0.1c0-0.05,0-0.1,0-0.15c0-0.03,0-0.06,0-0.1c0-0.05,0-0.1,0-0.15c0-0.03,0-0.06,0-0.1
		c0-0.05,0-0.1,0-0.15c0-0.03,0-0.06,0-0.1c0-0.05,0-0.1,0-0.15c0-0.03,0-0.06,0-0.1c0-0.05,0-0.1,0-0.15c0-0.03,0-0.06,0-0.1
		c0-0.05,0-0.1,0-0.15c0-0.03,0-0.06,0-0.1c0-0.05,0-0.1,0-0.15c0-0.03,0-0.06,0-0.1c0-0.05,0-0.1,0-0.15c0-0.03,0-0.06,0-0.1
		c0-0.05,0-0.1,0-0.15c0-0.03,0-0.06,0-0.1c0-0.05,0-0.1,0-0.15c0-0.03,0-0.06,0-0.1c0-0.05,0-0.1,0-0.15c0-0.03,0-0.06,0-0.1
		c0-0.05,0-0.1,0-0.15c0-0.03,0-0.06,0-0.1c0-0.05,0-0.1,0-0.15c0-0.03,0-0.06,0-0.1c0-0.05,0-0.1,0-0.15
		C963.48,166.71,962.84,162.84,961.58,159.26z M912.75,170.15c2.13,0.18,4.2,0.63,6.21,1.35c2.01,0.72,3.8,1.92,5.38,3.6
		c1.17,1.24,2.16,2.77,2.98,4.58c-0.87,1.73-1.92,3.09-3.16,4.07c-1.62,1.28-3.43,2.07-5.44,2.37c-2.01,0.3-4.08,0.4-6.21,0.3
		c-0.79-0.07-1.58-0.13-2.37-0.2c0-5.43,0-10.86,0-16.29C911.01,170,911.88,170.08,912.75,170.15z"/>
	<path class="st1" d="M910.14,185.98c0.79,0.07,1.58,0.13,2.37,0.2c2.13,0.1,4.2,0,6.21-0.3c2.01-0.3,3.82-1.09,5.44-2.37
		c1.62-1.28,2.92-3.2,3.9-5.75c0.98-2.55,1.48-5.96,1.48-10.22c0-4.18-0.47-7.63-1.42-10.35c-0.95-2.72-2.21-4.92-3.78-6.6
		c-1.58-1.67-3.37-2.87-5.38-3.6c-2.01-0.72-4.08-1.17-6.21-1.35c-0.87-0.07-1.74-0.14-2.6-0.22
		C910.14,158.94,910.14,172.46,910.14,185.98z M914.52,227.74c0.15,0.17,0.24,0.34,0.24,0.49c0,0.2,0,0.39,0,0.59
		c0,0.32-0.32,0.45-0.95,0.39c-11.47-0.96-22.94-1.87-34.41-2.66c-0.55-0.04-0.89-0.18-1.01-0.42c-0.12-0.24-0.17-0.49-0.18-0.72
		c0-30.63,0-61.26,0-91.89c0-0.95,0.55-1.38,1.66-1.3c13.95,0.97,27.91,2.11,41.86,3.31c7.4,0.64,14.03,2.13,19.87,4.46
		c5.83,2.33,10.56,5.47,14.19,9.42c2.6,2.83,4.54,6.04,5.79,9.62c1.26,3.58,1.89,7.46,1.89,11.64c0,5.44-1.11,10.01-3.31,13.72
		c-2.2,3.71-5.32,6.65-9.34,8.81c-4.02,2.17-8.89,3.59-14.6,4.26c-5.72,0.68-12.12,0.71-19.22,0.11c-2.29-0.19-4.57-0.39-6.86-0.58
		c0,5.24,0,10.49,0,15.73c0,2.29,0.14,4.55,0.41,6.77c0.28,2.23,0.96,4.18,2.07,5.85c0.47,0.75,0.87,1.3,1.18,1.64
		c0.16,0.25,0.32,0.42,0.47,0.51C914.36,227.57,914.44,227.65,914.52,227.74z"/>
</g>
<g>
	<line class="st4" x1="1014.76" y1="247.66" x2="1014.76" y2="295.37"/>
	<path class="st5" d="M1060.62,173.9c-2.41-5.87-5.74-11.08-9.99-15.63c-4.26-4.55-9.32-8.24-15.19-11.09
		c-5.87-2.84-12.28-4.5-19.22-4.97c-6.94-0.47-13.34,0.31-19.22,2.38c-5.87,2.07-10.94,5.1-15.2,9.12
		c-4.25,4.02-7.59,8.82-9.99,14.41c-2.41,5.59-3.61,11.69-3.61,18.31c0,0.04,0,0.08,0,0.13c0,0.04,0,0.08,0,0.12
		c0,0.04,0,0.08,0,0.13c0,0.04,0,0.08,0,0.12c0,0.04,0,0.08,0,0.13c0,0.04,0,0.08,0,0.12c0,0.04,0,0.08,0,0.13c0,0.04,0,0.08,0,0.12
		c0,0.04,0,0.08,0,0.13c0,0.04,0,0.08,0,0.12c0,0.04,0,0.08,0,0.13c0,0.04,0,0.08,0,0.12c0,0.04,0,0.08,0,0.13c0,0.04,0,0.08,0,0.12
		c0,0.04,0,0.08,0,0.13c0,0.04,0,0.08,0,0.12c0,0.04,0,0.08,0,0.13c0,0.04,0,0.08,0,0.12c0,0.04,0,0.08,0,0.13c0,0.04,0,0.08,0,0.12
		c0,0.04,0,0.08,0,0.13c0,0.04,0,0.08,0,0.12c0,0.04,0,0.08,0,0.13c0,0.04,0,0.08,0,0.12c0,0.04,0,0.08,0,0.13c0,0.04,0,0.08,0,0.12
		c0,0.04,0,0.08,0,0.13c0,0.04,0,0.08,0,0.12c0,0.04,0,0.08,0,0.13c0,0.04,0,0.08,0,0.12c0,0.04,0,0.08,0,0.13c0,0.04,0,0.08,0,0.12
		c0,0.04,0,0.08,0,0.13c0,0.04,0,0.08,0,0.12c0,0.04,0,0.08,0,0.13c0,0.04,0,0.08,0,0.12c0,0.04,0,0.08,0,0.13c0,0.04,0,0.08,0,0.12
		c0,0.04,0,0.08,0,0.13c0,0.04,0,0.08,0,0.12c0,0.04,0,0.08,0,0.13c0,0.04,0,0.08,0,0.12c0,0.04,0,0.08,0,0.13c0,0.04,0,0.08,0,0.12
		c0,0.04,0,0.08,0,0.13c0,0.04,0,0.08,0,0.12c0,0.04,0,0.08,0,0.13c0,0.04,0,0.08,0,0.12c0,0.04,0,0.08,0,0.13c0,0.04,0,0.08,0,0.12
		c0,0.04,0,0.08,0,0.13c0,0.04,0,0.08,0,0.12c0,0.04,0,0.08,0,0.13c0,0.04,0,0.08,0,0.12c0,0.04,0,0.08,0,0.13c0,0.04,0,0.08,0,0.12
		c0,0.04,0,0.08,0,0.13c0,0.04,0,0.08,0,0.12c0,0.04,0,0.08,0,0.13c0,0.04,0,0.08,0,0.12c0,0.04,0,0.08,0,0.13c0,0.04,0,0.08,0,0.12
		c0,0.04,0,0.08,0,0.13c0,0.04,0,0.08,0,0.12c0,0.04,0,0.08,0,0.13c0,0.04,0,0.08,0,0.12c0,0.04,0,0.08,0,0.13c0,0.04,0,0.08,0,0.12
		c0,0.04,0,0.08,0,0.13c0,0.04,0,0.08,0,0.12c0,0.04,0,0.08,0,0.13c0,0.04,0,0.08,0,0.12c0,0.04,0,0.08,0,0.13c0,0.04,0,0.08,0,0.12
		c0,0.04,0,0.08,0,0.13c0,0.04,0,0.08,0,0.12c0,0.04,0,0.08,0,0.13c0,0.04,0,0.08,0,0.12c0,0.04,0,0.08,0,0.13c0,0.04,0,0.08,0,0.12
		c0,0.04,0,0.08,0,0.13c0,0.04,0,0.08,0,0.12c0,0.04,0,0.08,0,0.13c0,0.04,0,0.08,0,0.12c0,0.04,0,0.08,0,0.13c0,0.04,0,0.08,0,0.12
		c0,0.04,0,0.08,0,0.13c0,0.04,0,0.08,0,0.12c0,0.04,0,0.08,0,0.13c0,0.04,0,0.08,0,0.12c0,0.04,0,0.08,0,0.13c0,0.04,0,0.08,0,0.12
		c0,0.04,0,0.08,0,0.13c0,0.04,0,0.08,0,0.12c0,0.04,0,0.08,0,0.13c0,0.04,0,0.08,0,0.12c0,0.04,0,0.08,0,0.13c0,0.04,0,0.08,0,0.12
		c0,0.04,0,0.08,0,0.13c0,0.04,0,0.08,0,0.12c0,0.04,0,0.08,0,0.13c0,0.04,0,0.08,0,0.12c0,0.04,0,0.08,0,0.13c0,0.04,0,0.08,0,0.12
		c0,0.04,0,0.08,0,0.13c0,0.04,0,0.08,0,0.12c0,0.04,0,0.08,0,0.13c0,0.04,0,0.08,0,0.12c0,0.04,0,0.08,0,0.13c0,0.04,0,0.08,0,0.12
		c0,0.04,0,0.08,0,0.13c0,0.04,0,0.08,0,0.12c0,0.04,0,0.08,0,0.13c0,0.04,0,0.08,0,0.12c0,0.04,0,0.08,0,0.13c0,0.04,0,0.08,0,0.12
		c0,0.04,0,0.08,0,0.13c0,0.04,0,0.08,0,0.12c0,0.04,0,0.08,0,0.13c0,0.04,0,0.08,0,0.12c0,0.04,0,0.08,0,0.13c0,0.04,0,0.08,0,0.12
		c0,0.04,0,0.08,0,0.13c0,0.04,0,0.08,0,0.12c0,0.04,0,0.08,0,0.13c0,0.04,0,0.08,0,0.12c0,0.04,0,0.08,0,0.13c0,0.04,0,0.08,0,0.12
		c0,0.04,0,0.08,0,0.13c0,0.04,0,0.08,0,0.12c0,0.04,0,0.08,0,0.13c0,0.04,0,0.08,0,0.12c0,0.04,0,0.08,0,0.13c0,0.04,0,0.08,0,0.12
		c0,0.04,0,0.08,0,0.13c0,0.04,0,0.08,0,0.12c0,0.04,0,0.08,0,0.13c0,0.04,0,0.08,0,0.12c0,0.04,0,0.08,0,0.13c0,0.04,0,0.08,0,0.12
		c0,0.04,0,0.08,0,0.13c0,0.04,0,0.08,0,0.12c0,0.04,0,0.08,0,0.13c0,0.04,0,0.08,0,0.12c0,0.04,0,0.08,0,0.13c0,0.04,0,0.08,0,0.12
		c0,0.04,0,0.08,0,0.13c0,0.04,0,0.08,0,0.12c0,0.04,0,0.08,0,0.13c0,0.04,0,0.08,0,0.12c0,0.04,0,0.08,0,0.13c0,0.04,0,0.08,0,0.12
		c0,0.04,0,0.08,0,0.13c0,0.04,0,0.08,0,0.12c0,0.04,0,0.08,0,0.13c0,0.04,0,0.08,0,0.12c0,0.04,0,0.08,0,0.13c0,0.04,0,0.08,0,0.12
		c0,0.04,0,0.08,0,0.13c0,0.04,0,0.08,0,0.12c0,0.04,0,0.08,0,0.13c0,0.04,0,0.08,0,0.12c0,0.04,0,0.08,0,0.13c0,0.04,0,0.08,0,0.12
		c0,0.04,0,0.08,0,0.13c0,0.04,0,0.08,0,0.12c0,0.04,0,0.08,0,0.13c0,0.04,0,0.08,0,0.12c0,0.04,0,0.08,0,0.13c0,0.04,0,0.08,0,0.12
		c0,0.04,0,0.08,0,0.13c0,0.04,0,0.08,0,0.12c0,0.04,0,0.08,0,0.13c0,0.04,0,0.08,0,0.12c0,0.04,0,0.08,0,0.13c0,0.04,0,0.08,0,0.12
		c0,0.04,0,0.08,0,0.13c0,0.04,0,0.08,0,0.12c0,0.04,0,0.08,0,0.13c0,0.04,0,0.08,0,0.12c0,0.04,0,0.08,0,0.13c0,0.04,0,0.08,0,0.12
		c0,0.04,0,0.08,0,0.13c0,0.04,0,0.08,0,0.12c0,0.04,0,0.08,0,0.13c0,0.04,0,0.08,0,0.12c0,0.04,0,0.08,0,0.13c0,0.04,0,0.08,0,0.12
		c0,0.04,0,0.08,0,0.13c0,0.04,0,0.08,0,0.12c0,0.04,0,0.08,0,0.13c0,0.04,0,0.08,0,0.12c0,0.04,0,0.08,0,0.13c0,0.04,0,0.08,0,0.12
		c0,0.04,0,0.08,0,0.13c0,0.04,0,0.08,0,0.12c0,0.04,0,0.08,0,0.13c0,0.04,0,0.08,0,0.12c0,0.04,0,0.08,0,0.13c0,0.04,0,0.08,0,0.12
		c0,6.62,1.08,13.02,3.25,19.2c2.17,6.18,5.3,11.75,9.4,16.7c4.1,4.95,9.14,9.04,15.14,12.23c5.99,3.19,12.81,5.06,20.46,5.58
		c7.33,0.5,13.94-0.47,19.81-2.87c5.87-2.4,10.88-5.84,15.02-10.28c4.14-4.44,7.33-9.63,9.58-15.55c2.25-5.92,3.37-12.2,3.37-18.82
		c0-0.04,0-0.08,0-0.12c0-0.04,0-0.08,0-0.13c0-0.04,0-0.08,0-0.12c0-0.04,0-0.08,0-0.13c0-0.04,0-0.08,0-0.12c0-0.04,0-0.08,0-0.13
		c0-0.04,0-0.08,0-0.12c0-0.04,0-0.08,0-0.13c0-0.04,0-0.08,0-0.12c0-0.04,0-0.08,0-0.13c0-0.04,0-0.08,0-0.12c0-0.04,0-0.08,0-0.13
		c0-0.04,0-0.08,0-0.12c0-0.04,0-0.08,0-0.13c0-0.04,0-0.08,0-0.12c0-0.04,0-0.08,0-0.13c0-0.04,0-0.08,0-0.12c0-0.04,0-0.08,0-0.13
		c0-0.04,0-0.08,0-0.12c0-0.04,0-0.08,0-0.13c0-0.04,0-0.08,0-0.12c0-0.04,0-0.08,0-0.13c0-0.04,0-0.08,0-0.12c0-0.04,0-0.08,0-0.13
		c0-0.04,0-0.08,0-0.12c0-0.04,0-0.08,0-0.13c0-0.04,0-0.08,0-0.12c0-0.04,0-0.08,0-0.13c0-0.04,0-0.08,0-0.12c0-0.04,0-0.08,0-0.13
		c0-0.04,0-0.08,0-0.12c0-0.04,0-0.08,0-0.13c0-0.04,0-0.08,0-0.12c0-0.04,0-0.08,0-0.13c0-0.04,0-0.08,0-0.12c0-0.04,0-0.08,0-0.13
		c0-0.04,0-0.08,0-0.12c0-0.04,0-0.08,0-0.13c0-0.04,0-0.08,0-0.12c0-0.04,0-0.08,0-0.13c0-0.04,0-0.08,0-0.12c0-0.04,0-0.08,0-0.13
		c0-0.04,0-0.08,0-0.12c0-0.04,0-0.08,0-0.13c0-0.04,0-0.08,0-0.12c0-0.04,0-0.08,0-0.13c0-0.04,0-0.08,0-0.12c0-0.04,0-0.08,0-0.13
		c0-0.04,0-0.08,0-0.12c0-0.04,0-0.08,0-0.13c0-0.04,0-0.08,0-0.12c0-0.04,0-0.08,0-0.13c0-0.04,0-0.08,0-0.12c0-0.04,0-0.08,0-0.13
		c0-0.04,0-0.08,0-0.12c0-0.04,0-0.08,0-0.13c0-0.04,0-0.08,0-0.12c0-0.04,0-0.08,0-0.13c0-0.04,0-0.08,0-0.12c0-0.04,0-0.08,0-0.13
		c0-0.04,0-0.08,0-0.12c0-0.04,0-0.08,0-0.13c0-0.04,0-0.08,0-0.12c0-0.04,0-0.08,0-0.13c0-0.04,0-0.08,0-0.12c0-0.04,0-0.08,0-0.13
		c0-0.04,0-0.08,0-0.12c0-0.04,0-0.08,0-0.13c0-0.04,0-0.08,0-0.12c0-0.04,0-0.08,0-0.13c0-0.04,0-0.08,0-0.12c0-0.04,0-0.08,0-0.13
		c0-0.04,0-0.08,0-0.12c0-0.04,0-0.08,0-0.13c0-0.04,0-0.08,0-0.12c0-0.04,0-0.08,0-0.13c0-0.04,0-0.08,0-0.12c0-0.04,0-0.08,0-0.13
		c0-0.04,0-0.08,0-0.12c0-0.04,0-0.08,0-0.13c0-0.04,0-0.08,0-0.12c0-0.04,0-0.08,0-0.13c0-0.04,0-0.08,0-0.12c0-0.04,0-0.08,0-0.13
		c0-0.04,0-0.08,0-0.12c0-0.04,0-0.08,0-0.13c0-0.04,0-0.08,0-0.12c0-0.04,0-0.08,0-0.13c0-0.04,0-0.08,0-0.12c0-0.04,0-0.08,0-0.13
		c0-0.04,0-0.08,0-0.12c0-0.04,0-0.08,0-0.13c0-0.04,0-0.08,0-0.12c0-0.04,0-0.08,0-0.13c0-0.04,0-0.08,0-0.12c0-0.04,0-0.08,0-0.13
		c0-0.04,0-0.08,0-0.12c0-0.04,0-0.08,0-0.13c0-0.04,0-0.08,0-0.12c0-0.04,0-0.08,0-0.13c0-0.04,0-0.08,0-0.12c0-0.04,0-0.08,0-0.13
		c0-0.04,0-0.08,0-0.12c0-0.04,0-0.08,0-0.13c0-0.04,0-0.08,0-0.12c0-0.04,0-0.08,0-0.13c0-0.04,0-0.08,0-0.12c0-0.04,0-0.08,0-0.13
		c0-0.04,0-0.08,0-0.12c0-0.04,0-0.08,0-0.13c0-0.04,0-0.08,0-0.12c0-0.04,0-0.08,0-0.13c0-0.04,0-0.08,0-0.12c0-0.04,0-0.08,0-0.13
		c0-0.04,0-0.08,0-0.12c0-0.04,0-0.08,0-0.13c0-0.04,0-0.08,0-0.12c0-0.04,0-0.08,0-0.13c0-0.04,0-0.08,0-0.12c0-0.04,0-0.08,0-0.13
		c0-0.04,0-0.08,0-0.12c0-0.04,0-0.08,0-0.13c0-0.04,0-0.08,0-0.12c0-0.04,0-0.08,0-0.13c0-0.04,0-0.08,0-0.12c0-0.04,0-0.08,0-0.13
		c0-0.04,0-0.08,0-0.12c0-0.04,0-0.08,0-0.13c0-0.04,0-0.08,0-0.12c0-0.04,0-0.08,0-0.13c0-0.04,0-0.08,0-0.12c0-0.04,0-0.08,0-0.13
		c0-0.04,0-0.08,0-0.12c0-0.04,0-0.08,0-0.13c0-0.04,0-0.08,0-0.12c0-0.04,0-0.08,0-0.13c0-0.04,0-0.08,0-0.12c0-0.04,0-0.08,0-0.13
		c0-0.04,0-0.08,0-0.12c0-0.04,0-0.08,0-0.13c0-0.04,0-0.08,0-0.12c0-0.04,0-0.08,0-0.13c0-0.04,0-0.08,0-0.12c0-0.04,0-0.08,0-0.13
		c0-0.04,0-0.08,0-0.12c0-0.04,0-0.08,0-0.13c0-0.04,0-0.08,0-0.12c0-0.04,0-0.08,0-0.13c0-0.04,0-0.08,0-0.12c0-0.04,0-0.08,0-0.13
		c0-0.04,0-0.08,0-0.12c0-0.04,0-0.08,0-0.13c0-0.04,0-0.08,0-0.12c0-0.04,0-0.08,0-0.13c0-0.04,0-0.08,0-0.12c0-0.04,0-0.08,0-0.13
		c0-0.04,0-0.08,0-0.12c0-0.04,0-0.08,0-0.13c0-0.04,0-0.08,0-0.12c0-0.04,0-0.08,0-0.13c0-0.04,0-0.08,0-0.12c0-0.04,0-0.08,0-0.13
		c0-0.04,0-0.08,0-0.12c0-0.04,0-0.08,0-0.13c0-0.04,0-0.08,0-0.12c0-0.04,0-0.08,0-0.13c0-0.04,0-0.08,0-0.12c0-0.04,0-0.08,0-0.13
		c0-0.04,0-0.08,0-0.12c0-0.04,0-0.08,0-0.13c0-0.04,0-0.08,0-0.12c0-0.04,0-0.08,0-0.13c0-0.04,0-0.08,0-0.12c0-0.04,0-0.08,0-0.13
		c0-0.04,0-0.08,0-0.12c0-0.04,0-0.08,0-0.13c0-0.04,0-0.08,0-0.12c0-0.04,0-0.08,0-0.13c0-0.04,0-0.08,0-0.12c0-0.04,0-0.08,0-0.13
		c0-0.04,0-0.08,0-0.12c0-0.04,0-0.08,0-0.13c0-0.04,0-0.08,0-0.12c0-0.04,0-0.08,0-0.13c0-0.04,0-0.08,0-0.12c0-0.04,0-0.08,0-0.13
		c0-0.04,0-0.08,0-0.12c0-0.04,0-0.08,0-0.13c0-0.04,0-0.08,0-0.12c0-0.04,0-0.08,0-0.13c0-0.04,0-0.08,0-0.12c0-0.04,0-0.08,0-0.13
		c0-0.04,0-0.08,0-0.12c0-0.04,0-0.08,0-0.13c0-0.04,0-0.08,0-0.12c0-0.04,0-0.08,0-0.13c0-0.04,0-0.08,0-0.12c0-0.04,0-0.08,0-0.13
		c0-0.04,0-0.08,0-0.12c0-0.04,0-0.08,0-0.13C1064.22,186.01,1063.02,179.77,1060.62,173.9z M1016.09,177.12
		c4.1,0.28,7.31,3.52,9.64,9.73c1.51,4.04,2.52,9.48,3.05,16.29c-0.53,6.83-1.54,12.47-3.05,16.86c-2.33,6.76-5.54,10-9.64,9.72
		c-4.1-0.28-7.27-3.7-9.52-10.25c-1.48-4.3-2.45-10.14-2.96-17.46c0.51-6.68,1.49-12.06,2.96-16.09
		C1008.82,179.77,1012,176.84,1016.09,177.12z"/>
	<path class="st1" d="M1003.21,189.06c0,13.56,1.12,23.62,3.37,30.17c2.25,6.55,5.42,9.97,9.52,10.25c4.1,0.28,7.31-2.97,9.64-9.72
		c2.32-6.75,3.49-16.4,3.49-28.94c0-12.77-1.17-22.26-3.49-28.47c-2.32-6.21-5.54-9.45-9.64-9.73c-4.1-0.28-7.27,2.65-9.52,8.79
		C1004.33,167.54,1003.21,176.76,1003.21,189.06z M968.21,186.2c0-6.62,1.2-12.73,3.61-18.31c2.4-5.59,5.74-10.39,9.99-14.41
		c4.26-4.02,9.32-7.05,15.2-9.12c5.87-2.07,12.28-2.85,19.22-2.38c6.94,0.47,13.34,2.12,19.22,4.97
		c5.87,2.85,10.94,6.53,15.19,11.09c4.26,4.55,7.59,9.76,9.99,15.63c2.4,5.87,3.61,12.11,3.61,18.74c0,6.62-1.12,12.9-3.37,18.82
		c-2.25,5.92-5.44,11.11-9.58,15.55c-4.14,4.44-9.14,7.87-15.02,10.28c-5.87,2.4-12.48,3.36-19.81,2.87
		c-7.64-0.52-14.47-2.39-20.46-5.58c-5.99-3.19-11.04-7.27-15.14-12.23c-4.1-4.96-7.23-10.53-9.4-16.7
		C969.29,199.22,968.21,192.82,968.21,186.2z"/>
</g>
<g>
	<path class="st5" d="M1144.64,222.16c-0.24,0.02-0.47,0.04-0.71,0.06c-0.24,0.02-0.51,0.2-0.83,0.54
		c-0.16,0.17-0.34,0.36-0.53,0.58c-0.2,0.21-0.65,0.55-1.36,1c-1.42,0.91-2.84,1.55-4.26,1.93c-1.42,0.38-3.15,0.64-5.2,0.78
		c-9.97,0.66-19.95,1.07-29.92,1.28c0-13.55,0-27.1,0-40.65c0-2.29,0.12-4.59,0.36-6.93c0.24-2.33,0.95-4.41,2.13-6.26
		c0.47-0.72,0.83-1.2,1.07-1.45c0.24-0.24,0.43-0.44,0.59-0.61c0.31-0.32,0.48-0.64,0.47-0.96c0-0.08-0.01-0.12-0.01-0.19
		c0-0.02,0.01-0.03,0.01-0.05c0-0.08-0.01-0.12-0.01-0.19c0-0.02,0.01-0.04,0.01-0.05c0-0.08-0.01-0.12-0.01-0.19
		c0-0.02,0.01-0.04,0.01-0.05c0-0.08-0.01-0.12-0.01-0.19c0-0.02,0.01-0.04,0.01-0.05c0-0.08-0.01-0.12-0.01-0.19
		c0-0.02,0.01-0.04,0.01-0.05c0-0.08-0.01-0.12-0.01-0.19c0-0.02,0.01-0.04,0.01-0.05c0-0.08-0.01-0.12-0.01-0.19
		c0-0.02,0.01-0.04,0.01-0.05c0-0.08-0.01-0.12-0.01-0.19c0-0.02,0.01-0.04,0.01-0.05c0-0.08-0.01-0.12-0.01-0.19
		c0-0.02,0.01-0.04,0.01-0.05c0-0.08-0.01-0.12-0.01-0.19c0-0.02,0.01-0.04,0.01-0.05c0-0.08-0.01-0.12-0.01-0.19
		c0-0.02,0.01-0.04,0.01-0.05c0-0.08-0.01-0.12-0.01-0.19c0-0.02,0.01-0.04,0.01-0.05c0-0.08-0.01-0.12-0.01-0.19
		c0-0.02,0.01-0.04,0.01-0.05c0-0.08-0.01-0.12-0.01-0.19c0-0.02,0.01-0.04,0.01-0.05c0-0.08-0.01-0.12-0.01-0.19
		c0-0.02,0.01-0.04,0.01-0.05c0-0.08-0.01-0.12-0.01-0.19c0-0.02,0.01-0.04,0.01-0.05c0-0.08-0.01-0.12-0.01-0.19
		c0-0.02,0.01-0.04,0.01-0.05c0-0.08-0.01-0.12-0.01-0.19c0-0.02,0.01-0.04,0.01-0.05c0-0.08-0.01-0.12-0.01-0.19
		c0-0.02,0.01-0.04,0.01-0.05c0-0.08-0.01-0.12-0.01-0.19c0-0.02,0.01-0.04,0.01-0.05c0-0.08-0.01-0.12-0.01-0.19
		c0-0.02,0.01-0.04,0.01-0.05c0-0.08-0.01-0.12-0.01-0.19c0-0.02,0.01-0.04,0.01-0.05c0-0.08-0.01-0.12-0.01-0.19
		c0-0.02,0.01-0.04,0.01-0.05c0-0.08-0.01-0.12-0.01-0.19c0-0.02,0.01-0.04,0.01-0.05c0-0.08-0.01-0.12-0.01-0.19
		c0-0.02,0.01-0.04,0.01-0.05c0-0.08-0.01-0.12-0.01-0.19c0-0.02,0.01-0.04,0.01-0.05c0-0.08-0.01-0.12-0.01-0.19
		c0-0.02,0.01-0.04,0.01-0.05c0-0.08-0.01-0.12-0.01-0.19c0-0.02,0.01-0.04,0.01-0.05c0-0.08-0.01-0.12-0.01-0.19
		c0-0.02,0.01-0.04,0.01-0.05c0-0.08-0.01-0.12-0.01-0.19c0-0.02,0.01-0.04,0.01-0.05c0-0.08-0.01-0.12-0.01-0.19
		c0-0.02,0.01-0.04,0.01-0.05c0-0.08-0.01-0.12-0.01-0.19c0-0.02,0.01-0.04,0.01-0.05c0-0.08-0.01-0.12-0.01-0.19
		c0-0.02,0.01-0.04,0.01-0.05c0-0.08-0.01-0.12-0.01-0.19c0-0.02,0.01-0.04,0.01-0.05c0-0.08-0.01-0.12-0.01-0.19
		c0-0.02,0.01-0.04,0.01-0.05c0-0.08-0.01-0.12-0.01-0.19c0-0.02,0.01-0.04,0.01-0.05c0-0.08-0.01-0.12-0.01-0.19
		c0-0.02,0.01-0.04,0.01-0.05c0-0.08-0.01-0.12-0.01-0.19c0-0.02,0.01-0.04,0.01-0.05c0-0.08-0.01-0.12-0.01-0.19
		c0-0.02,0.01-0.04,0.01-0.05c0-0.08-0.01-0.12-0.01-0.19c0-0.02,0.01-0.04,0.01-0.05c0-0.08-0.01-0.12-0.01-0.19
		c0-0.02,0.01-0.04,0.01-0.05c0-0.08-0.01-0.12-0.01-0.19c0-0.02,0.01-0.04,0.01-0.05c0-0.08-0.01-0.12-0.01-0.19
		c0-0.02,0.01-0.04,0.01-0.05c0-0.08-0.01-0.12-0.01-0.19c0-0.02,0.01-0.04,0.01-0.05c0-0.08-0.01-0.12-0.01-0.19
		c0-0.02,0.01-0.04,0.01-0.05c0-0.08-0.01-0.12-0.01-0.19c0-0.02,0.01-0.04,0.01-0.05c0-0.08-0.01-0.12-0.01-0.19
		c0-0.02,0.01-0.04,0.01-0.05c0-0.08-0.01-0.12-0.01-0.19c0-0.02,0.01-0.04,0.01-0.05c0-0.08-0.01-0.12-0.01-0.19
		c0-0.02,0.01-0.04,0.01-0.05c0-0.08-0.01-0.12-0.01-0.19c0-0.02,0.01-0.04,0.01-0.05c0-0.08-0.01-0.12-0.01-0.19
		c0-0.02,0.01-0.04,0.01-0.05c0-0.08-0.01-0.12-0.01-0.19c0-0.02,0.01-0.04,0.01-0.05c0-0.08-0.01-0.12-0.01-0.19
		c0-0.02,0.01-0.04,0.01-0.05c0-0.08-0.01-0.12-0.01-0.19c0-0.02,0.01-0.04,0.01-0.05c0-0.08-0.01-0.12-0.01-0.19
		c0-0.02,0.01-0.04,0.01-0.05c0-0.08-0.01-0.12-0.01-0.19c0-0.02,0.01-0.04,0.01-0.05c0-0.08-0.01-0.12-0.01-0.19
		c0-0.02,0.01-0.04,0.01-0.05c0-0.08-0.01-0.12-0.01-0.19c0-0.02,0.01-0.04,0.01-0.05c0-0.08-0.01-0.12-0.01-0.19
		c0-0.02,0.01-0.04,0.01-0.05c0-0.08-0.01-0.12-0.01-0.19c0-0.02,0.01-0.04,0.01-0.05c0-0.08-0.01-0.12-0.01-0.19
		c0-0.02,0.01-0.04,0.01-0.05c0-0.08-0.01-0.12-0.01-0.19c0-0.02,0.01-0.04,0.01-0.05c0-0.08-0.01-0.12-0.01-0.19
		c0-0.02,0.01-0.04,0.01-0.05c0-0.08-0.01-0.12-0.01-0.19c0-0.02,0.01-0.04,0.01-0.05c0-0.08-0.01-0.12-0.01-0.19
		c0-0.02,0.01-0.04,0.01-0.05c0-0.08-0.01-0.12-0.01-0.19c0-0.02,0.01-0.04,0.01-0.05c0-0.08-0.01-0.12-0.01-0.19
		c0-0.02,0.01-0.04,0.01-0.05c0-0.08-0.01-0.12-0.01-0.19c0-0.02,0.01-0.04,0.01-0.05c0-0.08-0.01-0.12-0.01-0.19
		c0-0.02,0.01-0.04,0.01-0.05c0-0.08-0.01-0.12-0.01-0.19c0-0.02,0.01-0.04,0.01-0.05c0-0.08-0.01-0.12-0.01-0.19
		c0-0.02,0.01-0.04,0.01-0.05c0-0.08-0.01-0.12-0.01-0.19c0-0.02,0.01-0.04,0.01-0.05c0-0.08-0.01-0.12-0.01-0.19
		c0-0.02,0.01-0.04,0.01-0.05c0-0.08-0.01-0.12-0.01-0.19c0-0.02,0.01-0.04,0.01-0.05c0-0.08-0.01-0.12-0.01-0.19
		c0-0.02,0.01-0.04,0.01-0.05c0-0.08-0.01-0.12-0.01-0.19c0-0.02,0.01-0.04,0.01-0.05c0-0.08-0.01-0.12-0.01-0.19
		c0-0.02,0.01-0.04,0.01-0.05c0-0.08-0.01-0.12-0.01-0.19c0-0.02,0.01-0.04,0.01-0.05c0-0.08-0.01-0.12-0.01-0.19
		c0-0.02,0.01-0.04,0.01-0.05c0-0.08-0.01-0.12-0.01-0.19c0-0.02,0.01-0.04,0.01-0.05c0-0.08-0.01-0.12-0.01-0.19
		c0-0.02,0.01-0.04,0.01-0.05c0-0.08-0.01-0.12-0.01-0.19c0-0.02,0.01-0.04,0.01-0.05c0-0.08-0.01-0.12-0.01-0.19
		c0-0.02,0.01-0.04,0.01-0.05c0-0.08-0.01-0.12-0.01-0.19c0-0.02,0.01-0.04,0.01-0.05c0-0.08-0.01-0.12-0.01-0.19
		c0-0.02,0.01-0.04,0.01-0.05c0-0.08-0.01-0.12-0.01-0.19c0-0.02,0.01-0.04,0.01-0.05c0-0.08-0.01-0.12-0.01-0.19
		c0-0.02,0.01-0.04,0.01-0.05c0-0.08-0.01-0.12-0.01-0.19c0-0.02,0.01-0.04,0.01-0.05c0-0.08-0.01-0.12-0.01-0.19
		c0-0.02,0.01-0.04,0.01-0.05c0-0.08-0.01-0.12-0.01-0.19c0-0.02,0.01-0.04,0.01-0.05c0-0.08-0.01-0.12-0.01-0.19
		c0-0.02,0.01-0.04,0.01-0.05c0-0.08-0.01-0.12-0.01-0.19c0-0.02,0.01-0.04,0.01-0.05c0-0.08-0.01-0.12-0.01-0.19
		c0-0.02,0.01-0.04,0.01-0.05c0-0.08-0.01-0.12-0.01-0.19c0-0.02,0.01-0.04,0.01-0.05c0-0.08-0.01-0.12-0.01-0.19
		c0-0.02,0.01-0.04,0.01-0.05c0-0.08-0.01-0.12-0.01-0.19c0-0.02,0.01-0.04,0.01-0.05c0-0.08-0.01-0.12-0.01-0.19
		c0-0.02,0.01-0.04,0.01-0.05c0-0.08-0.01-0.12-0.01-0.19c0-0.02,0.01-0.04,0.01-0.05c0-0.08-0.01-0.12-0.01-0.19
		c0-0.02,0.01-0.04,0.01-0.05c0-0.08-0.01-0.12-0.01-0.19c0-0.02,0.01-0.04,0.01-0.05c0-0.55-0.06-0.87-0.18-0.94
		c-0.12-0.07-0.37-0.11-0.77-0.1c-11.71,0.31-23.41,0.32-35.12,0.11c-1.1-0.02-1.65,0.44-1.65,1.39c0,0.08,0,0.16,0,0.24
		c0,0.08,0,0.16,0,0.24c0,0.08,0,0.16,0,0.24c0,0.08,0,0.16,0,0.24c0,0.08,0,0.16,0,0.24c0,0.08,0,0.16,0,0.24c0,0.08,0,0.16,0,0.24
		c0,0.08,0,0.16,0,0.24c0,0.08,0,0.16,0,0.24c0,0.08,0,0.16,0,0.24c0,0.08,0,0.16,0,0.24c0,0.08,0,0.16,0,0.24c0,0.08,0,0.16,0,0.24
		c0,0.08,0,0.16,0,0.24c0,0.08,0,0.16,0,0.24c0,0.08,0,0.16,0,0.24c0,0.08,0,0.16,0,0.24c0,0.08,0,0.16,0,0.24c0,0.08,0,0.16,0,0.24
		c0,0.08,0,0.16,0,0.24c0,0.08,0,0.16,0,0.24c0,0.08,0,0.16,0,0.24c0,0.08,0,0.16,0,0.24c0,0.08,0,0.16,0,0.24c0,0.08,0,0.16,0,0.24
		c0,0.08,0,0.16,0,0.24c0,0.08,0,0.16,0,0.24c0,0.08,0,0.16,0,0.24s0,0.16,0,0.24c0,0.08,0,0.16,0,0.24c0,0.08,0,0.16,0,0.24
		c0,0.08,0,0.16,0,0.24c0,0.08,0,0.16,0,0.24s0,0.16,0,0.24c0,0.08,0,0.16,0,0.24c0,0.08,0,0.16,0,0.24c0,0.08,0,0.16,0,0.24
		c0,0.08,0,0.16,0,0.24s0,0.16,0,0.24c0,0.08,0,0.16,0,0.24c0,0.08,0,0.16,0,0.24c0,0.08,0,0.16,0,0.24c0,0.08,0,0.16,0,0.24
		s0,0.16,0,0.24c0,0.08,0,0.16,0,0.24c0,0.08,0,0.16,0,0.24c0,0.08,0,0.16,0,0.24c0,0.08,0,0.16,0,0.24c0,0.08,0,0.16,0,0.24
		c0,0.08,0,0.16,0,0.24c0,0.08,0,0.16,0,0.24c0,0.08,0,0.16,0,0.24c0,0.08,0,0.16,0,0.24c0,0.08,0,0.16,0,0.24c0,0.08,0,0.16,0,0.24
		c0,0.08,0,0.16,0,0.24c0,0.08,0,0.16,0,0.24c0,0.08,0,0.16,0,0.24c0,0.08,0,0.16,0,0.24c0,0.08,0,0.16,0,0.24c0,0.08,0,0.16,0,0.24
		c0,0.08,0,0.16,0,0.24c0,0.08,0,0.16,0,0.24c0,0.08,0,0.16,0,0.24c0,0.08,0,0.16,0,0.24c0,0.08,0,0.16,0,0.24c0,0.08,0,0.16,0,0.24
		c0,0.08,0,0.16,0,0.24c0,0.08,0,0.16,0,0.24c0,0.08,0,0.16,0,0.24c0,0.08,0,0.16,0,0.24c0,0.08,0,0.16,0,0.24c0,0.08,0,0.16,0,0.24
		c0,0.08,0,0.16,0,0.24c0,0.08,0,0.16,0,0.24c0,0.08,0,0.16,0,0.24c0,0.08,0,0.16,0,0.24s0,0.16,0,0.24c0,0.08,0,0.16,0,0.24
		c0,0.08,0,0.16,0,0.24c0,0.08,0,0.16,0,0.24c0,0.08,0,0.16,0,0.24s0,0.16,0,0.24c0,0.08,0,0.16,0,0.24c0,0.08,0,0.16,0,0.24
		c0,0.08,0,0.16,0,0.24c0,0.08,0,0.16,0,0.24c0,0.08,0,0.16,0,0.24c0,0.08,0,0.16,0,0.24c0,0.08,0,0.16,0,0.24c0,0.08,0,0.16,0,0.24
		c0,0.08,0,0.16,0,0.24c0,0.08,0,0.16,0,0.24c0,0.08,0,0.16,0,0.24c0,0.08,0,0.16,0,0.24c0,0.08,0,0.16,0,0.24c0,0.08,0,0.16,0,0.24
		c0,0.08,0,0.16,0,0.24c0,0.08,0,0.16,0,0.24c0,0.08,0,0.16,0,0.24c0,22.54,0,45.08,0,67.62c0,0.08,0,0.16,0,0.24
		c0,0.08,0,0.16,0,0.24c0,0.08,0,0.16,0,0.24c0,0.08,0,0.16,0,0.24c0,0.08,0,0.16,0,0.24c0,0.08,0,0.16,0,0.24c0,0.08,0,0.16,0,0.24
		s0,0.16,0,0.24c0,0.08,0,0.16,0,0.24c0,0.08,0,0.16,0,0.24c0,0.08,0,0.16,0,0.24c0,0.08,0,0.16,0,0.24c0,0.08,0,0.16,0,0.24
		c0,0.08,0,0.16,0,0.24c0,0.08,0,0.16,0,0.24c0,0.08,0,0.16,0,0.24c0,0.08,0,0.16,0,0.24c0,0.08,0,0.16,0,0.24c0,0.08,0,0.16,0,0.24
		c0,0.08,0,0.16,0,0.24c0,0.08,0,0.16,0,0.24c0,0.08,0,0.16,0,0.24c0,0.08,0,0.16,0,0.24c0,0.08,0,0.16,0,0.24c0,0.08,0,0.16,0,0.24
		c0,0.08,0,0.16,0,0.24c0,0.08,0,0.16,0,0.24c0,0.08,0,0.16,0,0.24c0,0.08,0,0.16,0,0.24c0,0.08,0,0.16,0,0.24c0,0.08,0,0.16,0,0.24
		c0,0.08,0,0.16,0,0.24c0,0.08,0,0.16,0,0.24c0,0.08,0,0.16,0,0.24c0,0.08,0,0.16,0,0.24c0,0.08,0,0.16,0,0.24c0,0.08,0,0.16,0,0.24
		c0,0.08,0,0.16,0,0.24c0,0.08,0,0.16,0,0.24c0,0.08,0,0.16,0,0.24c0,0.08,0,0.16,0,0.24c0,0.08,0,0.16,0,0.24c0,0.08,0,0.16,0,0.24
		c0,0.08,0,0.16,0,0.24c0,0.08,0,0.16,0,0.24c0,0.08,0,0.16,0,0.24s0,0.16,0,0.24c0,0.08,0,0.16,0,0.24c0,0.08,0,0.16,0,0.24
		c0,0.08,0,0.16,0,0.24c0,0.08,0,0.16,0,0.24c0,0.08,0,0.16,0,0.24c0,0.08,0,0.16,0,0.24c0,0.08,0,0.16,0,0.24c0,0.08,0,0.16,0,0.24
		c0,0.08,0,0.16,0,0.24c0,0.08,0,0.16,0,0.24c0,0.08,0,0.16,0,0.24c0,0.08,0,0.16,0,0.24c0,0.08,0,0.16,0,0.24c0,0.08,0,0.16,0,0.24
		c0,0.08,0,0.16,0,0.24c0,0.08,0,0.16,0,0.24c0,0.08,0,0.16,0,0.24c0,0.08,0,0.16,0,0.24c0,0.08,0,0.16,0,0.24c0,0.08,0,0.16,0,0.24
		c0,0.08,0,0.16,0,0.24c0,0.08,0,0.16,0,0.24c0,0.08,0,0.16,0,0.24c0,0.08,0,0.16,0,0.24c0,0.08,0,0.16,0,0.24c0,0.08,0,0.16,0,0.24
		c0,0.08,0,0.16,0,0.24s0,0.16,0,0.24c0,0.08,0,0.16,0,0.24c0,0.08,0,0.16,0,0.24c0,0.08,0,0.16,0,0.24c0,0.08,0,0.16,0,0.24
		c0,0.08,0,0.16,0,0.24c0,0.08,0,0.16,0,0.24c0,0.08,0,0.16,0,0.24c0,0.08,0,0.16,0,0.24c0,0.08,0,0.16,0,0.24c0,0.08,0,0.16,0,0.24
		c0,0.08,0,0.16,0,0.24c0,0.08,0,0.16,0,0.24c0,0.08,0,0.16,0,0.24c0,0.08,0,0.16,0,0.24c0,0.08,0,0.16,0,0.24c0,0.08,0,0.16,0,0.24
		c0,0.08,0,0.16,0,0.24c0,0.08,0,0.16,0,0.24c0,0.08,0,0.16,0,0.24c0,0.08,0,0.16,0,0.24c0,0.08,0,0.16,0,0.24c0,0.08,0,0.16,0,0.24
		c0,0.08,0,0.16,0,0.24c0,0.08,0,0.16,0,0.24c0,0.08,0,0.16,0,0.24c0,0.24,0.06,0.47,0.18,0.71c0.12,0.24,0.45,0.36,1.01,0.37
		c24.75,0.46,49.51-0.09,74.26-2.25c0.55-0.2,0.89-0.53,1-0.98c0.12-0.44,0.18-0.71,0.18-0.78c0-0.08,0-0.16,0-0.24
		c0-0.08,0-0.16,0-0.24c0-0.08,0-0.16,0-0.24c0-0.08,0-0.16,0-0.24c0-0.08,0-0.16,0-0.24c0-0.08,0-0.16,0-0.24c0-0.08,0-0.16,0-0.24
		c0-0.08,0-0.16,0-0.24c0-0.08,0-0.16,0-0.24c0-0.08,0-0.16,0-0.24c0-0.08,0-0.16,0-0.24c0-0.08,0-0.16,0-0.24c0-0.08,0-0.16,0-0.24
		c0-0.08,0-0.16,0-0.24c0-0.08,0-0.16,0-0.24c0-0.08,0-0.16,0-0.24c0-0.08,0-0.16,0-0.24s0-0.16,0-0.24c0-0.08,0-0.16,0-0.24
		c0-0.08,0-0.16,0-0.24c0-0.08,0-0.16,0-0.24c0-0.08,0-0.16,0-0.24c0-0.08,0-0.16,0-0.24c0-0.08,0-0.16,0-0.24c0-0.08,0-0.16,0-0.24
		c0-0.08,0-0.16,0-0.24c0-0.08,0-0.16,0-0.24c0-0.08,0-0.16,0-0.24c0-0.08,0-0.16,0-0.24c0-0.08,0-0.16,0-0.24c0-0.08,0-0.16,0-0.24
		c0-0.08,0-0.16,0-0.24s0-0.16,0-0.24c0-0.08,0-0.16,0-0.24c0-0.08,0-0.16,0-0.24c0-0.08,0-0.16,0-0.24c0-0.08,0-0.16,0-0.24
		c0-0.08,0-0.16,0-0.24c0-0.08,0-0.16,0-0.24c0-0.08,0-0.16,0-0.24c0-0.08,0-0.16,0-0.24c0-0.08,0-0.16,0-0.24c0-0.08,0-0.16,0-0.24
		c0-0.08,0-0.16,0-0.24c0-0.08,0-0.16,0-0.24c0-0.08,0-0.16,0-0.24c0-0.08,0-0.16,0-0.24c0-0.08,0-0.16,0-0.24c0-0.08,0-0.16,0-0.24
		c0-0.08,0-0.16,0-0.24c0-0.08,0-0.16,0-0.24c0-0.08,0-0.16,0-0.24c0-0.08,0-0.16,0-0.24c0-0.08,0-0.16,0-0.24c0-0.05,0-0.09,0-0.14
		c0-0.03,0-0.07,0-0.1c0-0.05,0-0.09,0-0.14c0-0.03,0-0.07,0-0.1c0-0.05,0-0.09,0-0.14c0-0.03,0-0.07,0-0.1c0-0.05,0-0.09,0-0.14
		c0-0.03,0-0.07,0-0.1c0-0.05,0-0.09,0-0.14c0-0.03,0-0.07,0-0.1c0-0.05,0-0.09,0-0.14c0-0.03,0-0.07,0-0.1c0-0.05,0-0.09,0-0.14
		c0-0.03,0-0.07,0-0.1c0-0.05,0-0.09,0-0.14c0-0.03,0-0.07,0-0.1c0-0.05,0-0.09,0-0.14c0-0.03,0-0.07,0-0.1c0-0.05,0-0.09,0-0.14
		c0-0.03,0-0.07,0-0.1c0-0.05,0-0.09,0-0.14c0-0.03,0-0.07,0-0.1c0-0.05,0-0.09,0-0.14c0-0.03,0-0.07,0-0.1c0-0.05,0-0.09,0-0.14
		c0-0.03,0-0.07,0-0.1c0-0.05,0-0.09,0-0.14c0-0.03,0-0.07,0-0.1c0-0.05,0-0.09,0-0.14c0-0.03,0-0.07,0-0.1c0-0.05,0-0.09,0-0.14
		c0-0.03,0-0.07,0-0.1c0-0.05,0-0.09,0-0.14c0-0.03,0-0.07,0-0.1c0-0.05,0-0.09,0-0.14c0-0.03,0-0.07,0-0.1c0-0.05,0-0.09,0-0.14
		c0-0.03,0-0.07,0-0.1c0-0.05,0-0.09,0-0.14c0-0.03,0-0.07,0-0.1c0-0.05,0-0.09,0-0.14c0-0.03,0-0.07,0-0.1c0-0.05,0-0.09,0-0.14
		c0-0.03,0-0.07,0-0.1c0-0.05,0-0.09,0-0.14c0-0.03,0-0.07,0-0.1c0-0.05,0-0.09,0-0.14c0-0.03,0-0.07,0-0.1c0-0.05,0-0.09,0-0.14
		c0-0.03,0-0.07,0-0.1c0-0.05,0-0.09,0-0.14c0-0.03,0-0.07,0-0.1c0-0.05,0-0.09,0-0.14c0-0.03,0-0.07,0-0.1c0-0.05,0-0.09,0-0.14
		c0-0.03,0-0.07,0-0.1c0-0.05,0-0.09,0-0.14c0-0.03,0-0.07,0-0.1c0-0.05,0-0.09,0-0.14c0-0.03,0-0.07,0-0.1c0-0.05,0-0.09,0-0.14
		c0-0.03,0-0.07,0-0.1c0-0.05,0-0.09,0-0.14c0-0.03,0-0.07,0-0.1c0-0.05,0-0.09,0-0.14c0-0.03,0-0.07,0-0.1c0-0.05,0-0.09,0-0.14
		c0-0.03,0-0.07,0-0.1c0-0.05,0-0.09,0-0.14c0-0.03,0-0.07,0-0.1c0-0.05,0-0.09,0-0.14c0-0.03,0-0.07,0-0.1c0-0.05,0-0.09,0-0.14
		c0-0.03,0-0.07,0-0.1c0-0.05,0-0.09,0-0.14c0-0.03,0-0.07,0-0.1c0-0.05,0-0.09,0-0.14c0-0.03,0-0.07,0-0.1c0-0.05,0-0.09,0-0.14
		c0-0.03,0-0.07,0-0.1c0-0.05,0-0.09,0-0.14c0-0.03,0-0.07,0-0.1c0-0.05,0-0.09,0-0.14c0-0.03,0-0.07,0-0.1c0-0.05,0-0.09,0-0.14
		c0-0.03,0-0.07,0-0.1c0-0.05,0-0.09,0-0.14c0-0.03,0-0.07,0-0.1c0-0.05,0-0.09,0-0.14c0-0.03,0-0.07,0-0.1c0-0.05,0-0.09,0-0.14
		c0-0.03,0-0.07,0-0.1c0-0.05,0-0.09,0-0.14c0-0.08,0-0.16,0-0.24c0-0.08,0-0.16,0-0.24c0-0.08,0-0.16,0-0.24c0-0.08,0-0.16,0-0.24
		c0-0.08,0-0.16,0-0.24c0-0.08,0-0.16,0-0.24c0-0.08,0-0.16,0-0.24c0-0.08,0-0.16,0-0.24c0-0.08,0-0.16,0-0.24c0-0.08,0-0.16,0-0.24
		c0-0.08,0-0.16,0-0.24c0-0.08,0-0.16,0-0.24c0-0.08,0-0.16,0-0.24c0-0.08,0-0.16,0-0.24c0-0.08,0-0.16,0-0.24c0-0.08,0-0.16,0-0.24
		c0-0.08,0-0.16,0-0.24c0-0.08,0-0.16,0-0.24c0-0.08,0-0.16,0-0.24c0-0.08,0-0.16,0-0.24s0-0.16,0-0.24c0-0.08,0-0.16,0-0.24
		c0-0.08,0-0.16,0-0.24c0-0.08,0-0.16,0-0.24c0-0.08,0-0.16,0-0.24s0-0.16,0-0.24c0-0.08,0-0.16,0-0.24c0-0.08,0-0.16,0-0.24
		c0-0.08,0-0.16,0-0.24c0-0.08,0-0.16,0-0.24c0-0.08,0-0.16,0-0.24c0-0.08,0-0.16,0-0.24c0-0.08,0-0.16,0-0.24c0-0.08,0-0.16,0-0.24
		c0-0.08,0-0.16,0-0.24c0-0.08,0-0.16,0-0.24c0-0.08,0-0.16,0-0.24c0-0.08,0-0.16,0-0.24c0-0.08,0-0.16,0-0.24c0-0.08,0-0.16,0-0.24
		c0-0.08,0-0.16,0-0.24c0-0.08,0-0.16,0-0.24c0-0.08,0-0.16,0-0.24c0-0.08,0-0.16,0-0.24c0-0.08,0-0.16,0-0.24c0-0.08,0-0.16,0-0.24
		c0-0.08,0-0.16,0-0.24c0-0.08,0-0.16,0-0.24s0-0.16,0-0.24c0-0.08,0-0.16,0-0.24c0-0.08,0-0.16,0-0.24c0-0.08,0-0.16,0-0.24
		c0-0.08,0-0.16,0-0.24c0-0.08,0-0.16,0-0.24c0-0.16-0.02-0.41-0.06-0.76C1145.25,222.29,1145.03,222.13,1144.64,222.16z"/>
	<path class="st1" d="M1145.17,237.19c-0.12,0.44-0.46,0.77-1,0.97c-24.75,2.15-49.51,2.7-74.26,2.25
		c-0.55-0.01-0.89-0.13-1.01-0.37c-0.12-0.24-0.18-0.48-0.18-0.71c0-30.63,0-61.26,0-91.89c0-0.95,0.55-1.41,1.65-1.39
		c11.71,0.21,23.41,0.19,35.12-0.11c0.39-0.01,0.65,0.02,0.77,0.1c0.12,0.08,0.18,0.39,0.18,0.94c0,0.32-0.16,0.64-0.47,0.96
		c-0.16,0.16-0.35,0.36-0.59,0.61c-0.24,0.24-0.59,0.72-1.07,1.45c-1.18,1.84-1.89,3.93-2.13,6.26c-0.24,2.33-0.35,4.64-0.36,6.93
		c0,21.64,0,43.28,0,64.92c9.97-0.21,19.94-0.62,29.92-1.28c2.05-0.14,3.79-0.4,5.2-0.78c1.42-0.38,2.84-1.02,4.26-1.93
		c0.71-0.45,1.16-0.78,1.36-1c0.2-0.21,0.38-0.4,0.53-0.58c0.32-0.34,0.59-0.52,0.83-0.54c0.24-0.02,0.47-0.04,0.71-0.06
		c0.39-0.03,0.61,0.12,0.65,0.47c0.04,0.35,0.06,0.61,0.06,0.76c0,4.41,0,8.83,0,13.24
		C1145.35,236.48,1145.29,236.75,1145.17,237.19z"/>
</g>
<g>
	<line class="st4" x1="1166.68" y1="255" x2="1166.68" y2="295.37"/>
	<path class="st5" d="M1187.27,230.59c-0.08-0.07-0.16-0.13-0.24-0.2c-0.15-0.05-0.32-0.18-0.47-0.39c-0.31-0.26-0.71-0.7-1.18-1.33
		c-1.18-1.53-1.89-3.44-2.13-5.73c-0.23-2.29-0.36-4.61-0.36-6.98c0-17.18,0-34.36,0-51.53c0-0.08,0-0.16,0-0.24
		c0-0.08,0-0.16,0-0.24c0-0.08,0-0.16,0-0.24c0-0.08,0-0.16,0-0.24c0-0.08,0-0.16,0-0.24c0-0.08,0-0.16,0-0.24c0-0.08,0-0.16,0-0.24
		c0-0.08,0-0.16,0-0.24c0-0.08,0-0.16,0-0.24c0-0.08,0-0.16,0-0.24c0-0.08,0-0.16,0-0.24c0-0.08,0-0.16,0-0.24c0-0.08,0-0.16,0-0.24
		c0-0.08,0-0.16,0-0.24c0-0.08,0-0.16,0-0.24c0-0.08,0-0.16,0-0.24c0-0.08,0-0.16,0-0.24c0-0.08,0-0.16,0-0.24c0-0.08,0-0.16,0-0.24
		c0-0.08,0-0.16,0-0.24c0-0.08,0-0.16,0-0.24c0-0.08,0-0.16,0-0.24c0-0.08,0-0.16,0-0.24c0-0.08,0-0.16,0-0.24c0-0.08,0-0.16,0-0.24
		c0-0.08,0-0.16,0-0.24c0-0.08,0-0.16,0-0.24c0-0.08,0-0.16,0-0.24c0-0.08,0-0.16,0-0.24c0-0.08,0-0.16,0-0.24c0-0.08,0-0.16,0-0.24
		s0-0.16,0-0.24c0-0.08,0-0.16,0-0.24c0-0.08,0-0.16,0-0.24c0-0.08,0-0.16,0-0.24c0-0.08,0-0.16,0-0.24s0-0.16,0-0.24
		c0-0.08,0-0.16,0-0.24c0-0.08,0-0.16,0-0.24c0-0.08,0-0.16,0-0.24c0-0.08,0-0.16,0-0.24c0-0.08,0-0.16,0-0.24c0-0.08,0-0.16,0-0.24
		c0-0.08,0-0.16,0-0.24c0-0.08,0-0.16,0-0.24c0-0.08,0-0.16,0-0.24c0-0.08,0-0.16,0-0.24c0-0.08,0-0.16,0-0.24c0-0.08,0-0.16,0-0.24
		c0-0.08,0-0.16,0-0.24c0-0.08,0-0.16,0-0.24c0-0.08,0-0.16,0-0.24c0-0.08,0-0.16,0-0.24c0-0.08,0-0.16,0-0.24c0-0.08,0-0.16,0-0.24
		c0-0.08,0-0.16,0-0.24c0-0.08,0-0.16,0-0.24c0-0.08,0-0.16,0-0.24c0-0.08,0-0.16,0-0.24c0-0.08,0-0.16,0-0.24c0-0.08,0-0.16,0-0.24
		c0-0.08,0-0.16,0-0.24c0-0.08,0-0.16,0-0.24c0-0.08,0-0.16,0-0.24c0-0.08,0-0.16,0-0.24c0-0.08,0-0.16,0-0.24c0-0.08,0-0.16,0-0.24
		c0-0.08,0-0.16,0-0.24c0-0.08,0-0.16,0-0.24c0-0.08,0-0.16,0-0.24c0-0.08,0-0.16,0-0.24c0-0.08,0-0.16,0-0.24c0-0.08,0-0.16,0-0.24
		c0-0.08,0-0.16,0-0.24c0-0.08,0-0.16,0-0.24s0-0.16,0-0.24c0-0.08,0-0.16,0-0.24c0-0.08,0-0.16,0-0.24c0-0.08,0-0.16,0-0.24
		c0-0.08,0-0.16,0-0.24s0-0.16,0-0.24c0-0.08,0-0.16,0-0.24c0-0.08,0-0.16,0-0.24c0-0.08,0-0.16,0-0.24c0-0.08,0-0.16,0-0.24
		s0-0.16,0-0.24c0-0.08,0-0.16,0-0.24c0-0.08,0-0.16,0-0.24c0-0.08,0-0.16,0-0.24c0-0.08,0-0.16,0-0.24c0-0.08,0-0.16,0-0.24
		c0-0.08,0-0.16,0-0.24c0-0.08,0-0.16,0-0.24c0-0.08,0-0.16,0-0.24c0-0.08,0-0.16,0-0.24c0-0.08,0-0.16,0-0.24c0-0.08,0-0.16,0-0.24
		c0-0.08,0-0.16,0-0.24c0-0.08,0-0.16,0-0.24c0-0.08,0-0.16,0-0.24c0-0.95-0.55-1.33-1.65-1.14c-9.93,1.63-19.87,2.95-29.8,4
		c-1.1,0.12-1.66,0.65-1.65,1.59c0,0.08,0,0.16,0,0.24c0,0.08,0,0.16,0,0.24c0,0.08,0,0.16,0,0.24c0,0.08,0,0.16,0,0.24
		c0,0.08,0,0.16,0,0.24c0,0.08,0,0.16,0,0.24s0,0.16,0,0.24c0,0.08,0,0.16,0,0.24c0,0.08,0,0.16,0,0.24c0,0.08,0,0.16,0,0.24
		c0,0.08,0,0.16,0,0.24s0,0.16,0,0.24c0,0.08,0,0.16,0,0.24c0,0.08,0,0.16,0,0.24c0,0.08,0,0.16,0,0.24c0,0.08,0,0.16,0,0.24
		s0,0.16,0,0.24c0,0.08,0,0.16,0,0.24c0,0.08,0,0.16,0,0.24c0,0.08,0,0.16,0,0.24c0,0.08,0,0.16,0,0.24s0,0.16,0,0.24
		c0,0.08,0,0.16,0,0.24c0,0.08,0,0.16,0,0.24c0,0.08,0,0.16,0,0.24c0,0.08,0,0.16,0,0.24c0,0.08,0,0.16,0,0.24c0,0.08,0,0.16,0,0.24
		c0,0.08,0,0.16,0,0.24c0,0.08,0,0.16,0,0.24c0,0.08,0,0.16,0,0.24c0,0.08,0,0.16,0,0.24c0,0.08,0,0.16,0,0.24c0,0.08,0,0.16,0,0.24
		c0,0.08,0,0.16,0,0.24c0,0.08,0,0.16,0,0.24c0,0.08,0,0.16,0,0.24c0,0.08,0,0.16,0,0.24c0,0.08,0,0.16,0,0.24c0,0.08,0,0.16,0,0.24
		c0,0.08,0,0.16,0,0.24c0,0.08,0,0.16,0,0.24c0,0.08,0,0.16,0,0.24c0,0.08,0,0.16,0,0.24c0,0.08,0,0.16,0,0.24c0,0.08,0,0.16,0,0.24
		c0,0.08,0,0.16,0,0.24c0,0.08,0,0.16,0,0.24c0,0.08,0,0.16,0,0.24c0,0.08,0,0.16,0,0.24c0,0.08,0,0.16,0,0.24c0,0.08,0,0.16,0,0.24
		c0,0.08,0,0.16,0,0.24c0,0.08,0,0.16,0,0.24c0,0.08,0,0.16,0,0.24s0,0.16,0,0.24c0,0.08,0,0.16,0,0.24c0,0.08,0,0.16,0,0.24
		c0,0.08,0,0.16,0,0.24c0,0.08,0,0.16,0,0.24s0,0.16,0,0.24c0,0.08,0,0.16,0,0.24c0,0.08,0,0.16,0,0.24c0,0.08,0,0.16,0,0.24
		c0,0.08,0,0.16,0,0.24c0,0.08,0,0.16,0,0.24c0,0.08,0,0.16,0,0.24c0,0.08,0,0.16,0,0.24c0,0.08,0,0.16,0,0.24c0,0.08,0,0.16,0,0.24
		c0,0.08,0,0.16,0,0.24c0,0.08,0,0.16,0,0.24c0,0.08,0,0.16,0,0.24c0,0.08,0,0.16,0,0.24c0,0.08,0,0.16,0,0.24c0,0.08,0,0.16,0,0.24
		c0,0.08,0,0.16,0,0.24c0,0.08,0,0.16,0,0.24c0,0.08,0,0.16,0,0.24c0,0.08,0,0.16,0,0.24c0,0.08,0,0.16,0,0.24c0,0.08,0,0.16,0,0.24
		c0,0.08,0,0.16,0,0.24s0,0.16,0,0.24c0,0.08,0,0.16,0,0.24c0,0.08,0,0.16,0,0.24c0,0.08,0,0.16,0,0.24c0,0.08,0,0.16,0,0.24
		c0,0.08,0,0.16,0,0.24c0,0.08,0,0.16,0,0.24c0,0.08,0,0.16,0,0.24c0,0.08,0,0.16,0,0.24c0,0.08,0,0.16,0,0.24c0,0.08,0,0.16,0,0.24
		c0,0.08,0,0.16,0,0.24c0,0.08,0,0.16,0,0.24c0,0.08,0,0.16,0,0.24c0,0.08,0,0.16,0,0.24c0,0.08,0,0.16,0,0.24c0,0.08,0,0.16,0,0.24
		c0,22.54,0,45.08,0,67.62c0,0.08,0,0.16,0,0.24c0,0.08,0,0.16,0,0.24c0,0.08,0,0.16,0,0.24c0,0.08,0,0.16,0,0.24
		c0,0.08,0,0.16,0,0.24c0,0.08,0,0.16,0,0.24c0,0.08,0,0.16,0,0.24c0,0.08,0,0.16,0,0.24c0,0.08,0,0.16,0,0.24c0,0.08,0,0.16,0,0.24
		c0,0.08,0,0.16,0,0.24c0,0.08,0,0.16,0,0.24c0,0.08,0,0.16,0,0.24c0,0.08,0,0.16,0,0.24c0,0.08,0,0.16,0,0.24c0,0.08,0,0.16,0,0.24
		c0,0.08,0,0.16,0,0.24c0,0.08,0,0.16,0,0.24s0,0.16,0,0.24c0,0.08,0,0.16,0,0.24c0,0.08,0,0.16,0,0.24c0,0.08,0,0.16,0,0.24
		c0,0.08,0,0.16,0,0.24c0,0.08,0,0.16,0,0.24c0,0.08,0,0.16,0,0.24c0,0.08,0,0.16,0,0.24c0,0.08,0,0.16,0,0.24c0,0.08,0,0.16,0,0.24
		c0,0.08,0,0.16,0,0.24c0,0.08,0,0.16,0,0.24c0,0.08,0,0.16,0,0.24c0,0.08,0,0.16,0,0.24c0,0.08,0,0.16,0,0.24c0,0.08,0,0.16,0,0.24
		c0,0.08,0,0.16,0,0.24c0,0.08,0,0.16,0,0.24c0,0.08,0,0.16,0,0.24c0,0.08,0,0.16,0,0.24c0,0.08,0,0.16,0,0.24c0,0.08,0,0.16,0,0.24
		c0,0.08,0,0.16,0,0.24c0,0.08,0,0.16,0,0.24c0,0.08,0,0.16,0,0.24c0,0.08,0,0.16,0,0.24c0,0.08,0,0.16,0,0.24c0,0.08,0,0.16,0,0.24
		c0,0.08,0,0.16,0,0.24c0,0.08,0,0.16,0,0.24c0,0.08,0,0.16,0,0.24c0,0.08,0,0.16,0,0.24c0,0.08,0,0.16,0,0.24c0,0.08,0,0.16,0,0.24
		c0,0.08,0,0.16,0,0.24c0,0.08,0,0.16,0,0.24c0,0.08,0,0.16,0,0.24c0,0.08,0,0.16,0,0.24c0,0.08,0,0.16,0,0.24s0,0.16,0,0.24
		c0,0.08,0,0.16,0,0.24c0,0.08,0,0.16,0,0.24c0,0.08,0,0.16,0,0.24c0,0.08,0,0.16,0,0.24c0,0.08,0,0.16,0,0.24c0,0.08,0,0.16,0,0.24
		c0,0.08,0,0.16,0,0.24c0,0.08,0,0.16,0,0.24c0,0.08,0,0.16,0,0.24c0,0.08,0,0.16,0,0.24c0,0.08,0,0.16,0,0.24c0,0.08,0,0.16,0,0.24
		c0,0.08,0,0.16,0,0.24c0,0.08,0,0.16,0,0.24c0,0.08,0,0.16,0,0.24c0,0.08,0,0.16,0,0.24c0,0.08,0,0.16,0,0.24c0,0.08,0,0.16,0,0.24
		c0,0.08,0,0.16,0,0.24c0,0.08,0,0.16,0,0.24c0,0.08,0,0.16,0,0.24c0,0.08,0,0.16,0,0.24c0,0.08,0,0.16,0,0.24c0,0.08,0,0.16,0,0.24
		c0,0.08,0,0.16,0,0.24c0,0.08,0,0.16,0,0.24c0,0.08,0,0.16,0,0.24s0,0.16,0,0.24c0,0.08,0,0.16,0,0.24c0,0.08,0,0.16,0,0.24
		c0,0.08,0,0.16,0,0.24c0,0.08,0,0.16,0,0.24c0,0.08,0,0.16,0,0.24c0,0.08,0,0.16,0,0.24c0,0.08,0,0.16,0,0.24c0,0.08,0,0.16,0,0.24
		c0,0.08,0,0.16,0,0.24c0,0.08,0,0.16,0,0.24c0,0.08,0,0.16,0,0.24c0,0.08,0,0.16,0,0.24c0,0.08,0,0.16,0,0.24c0,0.08,0,0.16,0,0.24
		c0,0.24,0.06,0.47,0.18,0.69c0.12,0.22,0.45,0.31,1.01,0.25c11.86-1.24,23.73-2.87,35.59-4.95c0.39-0.07,0.65-0.13,0.77-0.19
		c0.12-0.06,0.18-0.29,0.18-0.68c0-0.08,0-0.16,0-0.24c0-0.08,0-0.16,0-0.24c0-0.04,0-0.07,0-0.11c0-0.05,0-0.09,0-0.14
		c0-0.04,0-0.07,0-0.11c0-0.05,0-0.09,0-0.14c0-0.04,0-0.07,0-0.11c0-0.05,0-0.09,0-0.14c0-0.04,0-0.07,0-0.11c0-0.05,0-0.09,0-0.14
		c0-0.04,0-0.07,0-0.11c0-0.05,0-0.09,0-0.14c0-0.04,0-0.07,0-0.11c0-0.05,0-0.09,0-0.14c0-0.04,0-0.07,0-0.11c0-0.05,0-0.09,0-0.14
		c0-0.04,0-0.07,0-0.11c0-0.05,0-0.09,0-0.14c0-0.04,0-0.07,0-0.11c0-0.05,0-0.09,0-0.14c0-0.04,0-0.07,0-0.11c0-0.05,0-0.09,0-0.14
		c0-0.04,0-0.07,0-0.11c0-0.05,0-0.09,0-0.14c0-0.04,0-0.07,0-0.11c0-0.05,0-0.09,0-0.14c0-0.04,0-0.07,0-0.11c0-0.05,0-0.09,0-0.14
		c0-0.04,0-0.07,0-0.11c0-0.05,0-0.09,0-0.14c0-0.04,0-0.07,0-0.11c0-0.05,0-0.09,0-0.14c0-0.04,0-0.07,0-0.11c0-0.05,0-0.09,0-0.14
		c0-0.04,0-0.07,0-0.11c0-0.05,0-0.09,0-0.14c0-0.04,0-0.07,0-0.11c0-0.05,0-0.09,0-0.14c0-0.04,0-0.07,0-0.11c0-0.05,0-0.09,0-0.14
		c0-0.04,0-0.07,0-0.11c0-0.05,0-0.09,0-0.14c0-0.04,0-0.07,0-0.11c0-0.05,0-0.09,0-0.14c0-0.04,0-0.07,0-0.11c0-0.05,0-0.09,0-0.14
		c0-0.04,0-0.07,0-0.11c0-0.05,0-0.09,0-0.14c0-0.04,0-0.07,0-0.11c0-0.05,0-0.09,0-0.14c0-0.04,0-0.07,0-0.11c0-0.05,0-0.09,0-0.14
		c0-0.04,0-0.07,0-0.11c0-0.05,0-0.09,0-0.14c0-0.04,0-0.07,0-0.11c0-0.05,0-0.09,0-0.14c0-0.04,0-0.07,0-0.11c0-0.05,0-0.09,0-0.14
		c0-0.04,0-0.07,0-0.11c0-0.05,0-0.09,0-0.14c0-0.04,0-0.07,0-0.11c0-0.05,0-0.09,0-0.14c0-0.04,0-0.07,0-0.11c0-0.05,0-0.09,0-0.14
		c0-0.04,0-0.07,0-0.11c0-0.05,0-0.09,0-0.14c0-0.04,0-0.07,0-0.11c0-0.05,0-0.09,0-0.14c0-0.04,0-0.07,0-0.11c0-0.05,0-0.09,0-0.14
		c0-0.04,0-0.07,0-0.11c0-0.05,0-0.09,0-0.14c0-0.04,0-0.07,0-0.11c0-0.05,0-0.09,0-0.14c0-0.04,0-0.07,0-0.11c0-0.05,0-0.09,0-0.14
		c0-0.04,0-0.07,0-0.11c0-0.05,0-0.09,0-0.14c0-0.04,0-0.07,0-0.11c0-0.05,0-0.09,0-0.14c0-0.04,0-0.07,0-0.11c0-0.05,0-0.09,0-0.14
		c0-0.04,0-0.07,0-0.11c0-0.05,0-0.09,0-0.14c0-0.04,0-0.07,0-0.11c0-0.05,0-0.09,0-0.14c0-0.04,0-0.07,0-0.11c0-0.05,0-0.09,0-0.14
		c0-0.04,0-0.07,0-0.11c0-0.05,0-0.09,0-0.14c0-0.04,0-0.07,0-0.11c0-0.05,0-0.09,0-0.14c0-0.04,0-0.07,0-0.11c0-0.05,0-0.09,0-0.14
		c0-0.04,0-0.07,0-0.11c0-0.05,0-0.09,0-0.14c0-0.04,0-0.07,0-0.11c0-0.05,0-0.09,0-0.14c0-0.04,0-0.07,0-0.11c0-0.05,0-0.09,0-0.14
		c0-0.04,0-0.07,0-0.11c0-0.05,0-0.09,0-0.14c0-0.04,0-0.07,0-0.11c0-0.05,0-0.09,0-0.14c0-0.04,0-0.07,0-0.11c0-0.05,0-0.09,0-0.14
		c0-0.04,0-0.07,0-0.11c0-0.05,0-0.09,0-0.14c0-0.04,0-0.07,0-0.11c0-0.05,0-0.09,0-0.14c0-0.04,0-0.07,0-0.11c0-0.05,0-0.09,0-0.14
		c0-0.04,0-0.07,0-0.11c0-0.05,0-0.09,0-0.14c0-0.04,0-0.07,0-0.11c0-0.05,0-0.09,0-0.14c0-0.04,0-0.07,0-0.11c0-0.05,0-0.09,0-0.14
		c0-0.04,0-0.07,0-0.11c0-0.05,0-0.09,0-0.14c0-0.04,0-0.07,0-0.11c0-0.05,0-0.09,0-0.14c0-0.04,0-0.07,0-0.11c0-0.05,0-0.09,0-0.14
		c0-0.04,0-0.07,0-0.11c0-0.05,0-0.09,0-0.14c0-0.04,0-0.07,0-0.11c0-0.05,0-0.09,0-0.14c0-0.04,0-0.07,0-0.11c0-0.05,0-0.09,0-0.14
		c0-0.04,0-0.07,0-0.11c0-0.05,0-0.09,0-0.14c0-0.04,0-0.07,0-0.11c0-0.05,0-0.09,0-0.14c0-0.04,0-0.07,0-0.11c0-0.05,0-0.09,0-0.14
		c0-0.04,0-0.07,0-0.11c0-0.05,0-0.09,0-0.14c0-0.04,0-0.07,0-0.11c0-0.05,0-0.09,0-0.14c0-0.04,0-0.07,0-0.11c0-0.05,0-0.09,0-0.14
		c0-0.04,0-0.07,0-0.11c0-0.05,0-0.09,0-0.14c0-0.04,0-0.07,0-0.11c0-0.05,0-0.09,0-0.14c0-0.04,0-0.07,0-0.11c0-0.05,0-0.09,0-0.14
		c0-0.04,0-0.07,0-0.11c0-0.05,0-0.09,0-0.14c0-0.04,0-0.07,0-0.11c0-0.05,0-0.09,0-0.14c0-0.04,0-0.07,0-0.11c0-0.05,0-0.09,0-0.14
		c0-0.04,0-0.07,0-0.11c0-0.05,0-0.09,0-0.14c0-0.04,0-0.07,0-0.11c0-0.05,0-0.09,0-0.14c0-0.04,0-0.07,0-0.11c0-0.05,0-0.09,0-0.14
		c0-0.04,0-0.07,0-0.11c0-0.05,0-0.09,0-0.14c0-0.04,0-0.07,0-0.11c0-0.05,0-0.09,0-0.14c0-0.04,0-0.07,0-0.11c0-0.05,0-0.09,0-0.14
		c0-0.04,0-0.07,0-0.11c0-0.05,0-0.09,0-0.14c0-0.04,0-0.07,0-0.11c0-0.05,0-0.09,0-0.14c0-0.04,0-0.07,0-0.11c0-0.05,0-0.09,0-0.14
		c0-0.04,0-0.07,0-0.11c0-0.05,0-0.09,0-0.14c0-0.04,0-0.07,0-0.11c0-0.05,0-0.09,0-0.14c0-0.04,0-0.07,0-0.11c0-0.05,0-0.09,0-0.14
		c0-0.04,0-0.07,0-0.11c0-0.05,0-0.09,0-0.14c0-0.04,0-0.07,0-0.11c0-0.05,0-0.09,0-0.14c0-0.04,0-0.07,0-0.11c0-0.05,0-0.09,0-0.14
		c0-0.04,0-0.07,0-0.11c0-0.05,0-0.09,0-0.14c0-0.04,0-0.07,0-0.11c0-0.05,0-0.09,0-0.14c0-0.04,0-0.07,0-0.11c0-0.05,0-0.09,0-0.14
		c0-0.04,0-0.07,0-0.11c0-0.05,0-0.09,0-0.14c0-0.04,0-0.07,0-0.11c0-0.05,0-0.09,0-0.14c0-0.04,0-0.07,0-0.11c0-0.05,0-0.09,0-0.14
		c0-0.04,0-0.07,0-0.11c0-0.05,0-0.09,0-0.14c0-0.04,0-0.07,0-0.11c0-0.08,0-0.16,0-0.24c0-0.08,0-0.16,0-0.24
		C1187.51,230.86,1187.43,230.72,1187.27,230.59z"/>
	<path class="st1" d="M1182.9,215.73c0,2.37,0.12,4.69,0.36,6.98c0.24,2.29,0.95,4.2,2.13,5.73c0.47,0.63,0.87,1.07,1.18,1.33
		c0.15,0.21,0.32,0.34,0.47,0.39c0.08,0.07,0.16,0.13,0.24,0.2c0.16,0.13,0.24,0.27,0.24,0.43c0,0.2,0,0.39,0,0.59
		c0,0.4-0.06,0.62-0.18,0.68c-0.11,0.06-0.38,0.13-0.77,0.19c-11.86,2.08-23.73,3.71-35.59,4.95c-0.55,0.06-0.89-0.03-1.01-0.25
		c-0.12-0.22-0.18-0.46-0.18-0.69c0-30.63,0-61.26,0-91.89c0-0.95,0.55-1.47,1.65-1.59c9.93-1.05,19.87-2.37,29.8-4
		c1.1-0.18,1.65,0.2,1.65,1.14C1182.9,165.19,1182.9,190.46,1182.9,215.73z"/>
</g>
</svg>
