<?xml version="1.0" encoding="utf-8"?>
<!-- Generator: Adobe Illustrator 27.5.0, SVG Export Plug-In . SVG Version: 6.00 Build 0)  -->
<svg version="1.1" id="typo" xmlns="http://www.w3.org/2000/svg" xmlns:xlink="http://www.w3.org/1999/xlink" x="0px" y="0px"
	 viewBox="0 0 1920 866" style="enable-background:new 0 0 1920 866;" xml:space="preserve">
<style type="text/css">
	.st0{fill:#FFFF82;}
</style>
<g>
	<g>
		<path class="st0" d="M515.36,147.19c-14.65,0-19.31-23.39-25.2-52.99c-2.81-14.13-8.02-40.28-13.03-42.95
			c-5.01,2.67-10.21,28.82-13.03,42.95c-5.89,29.61-10.55,52.99-25.2,52.99c-14.65,0-19.3-23.39-25.2-52.99
			c-2.81-14.13-8.02-40.27-13.03-42.95c-5.01,2.68-10.21,28.82-13.02,42.95c-5.89,29.61-10.55,52.99-25.19,52.99
			c-14.65,0-19.3-23.39-25.2-52.99c-2.81-14.13-8.02-40.27-13.03-42.95c-5.01,2.68-10.21,28.82-13.02,42.95
			c-5.89,29.61-10.55,52.99-25.19,52.99s-19.3-23.39-25.19-52.99c-2.81-14.13-8.02-40.27-13.02-42.95
			c-5,2.68-10.21,28.82-13.02,42.94l-12.17-2.42c5.89-29.6,10.55-52.98,25.19-52.98c14.65,0,19.3,23.39,25.19,52.99
			c2.81,14.13,8.01,40.27,13.02,42.95c5.01-2.68,10.21-28.82,13.02-42.95c5.89-29.61,10.55-52.99,25.19-52.99
			c14.65,0,19.3,23.39,25.2,52.99c2.81,14.13,8.02,40.27,13.03,42.95c5.01-2.68,10.21-28.82,13.02-42.95
			c5.89-29.61,10.55-52.99,25.19-52.99c14.65,0,19.3,23.39,25.2,52.99c2.81,14.13,8.02,40.28,13.03,42.95
			c5.01-2.67,10.21-28.82,13.03-42.95c5.89-29.61,10.55-52.99,25.2-52.99c14.65,0,19.31,23.39,25.2,52.99
			c2.81,14.13,8.02,40.28,13.03,42.95c5.01-2.67,10.22-28.82,13.03-42.95l12.17,2.42C534.66,123.8,530.01,147.19,515.36,147.19z"/>
	</g>
	<g>
		<path d="M40.56,50.84V39.82h77.43v11.02H85.52v93.22H73.02V50.84H40.56z"/>
		<path d="M209.27,39.82v69.24c0,11.47-3.57,20.55-10.72,27.25c-7,6.55-16.38,9.83-27.84,9.83c-11.47,0-20.85-3.28-28-9.83
			c-7-6.7-10.57-15.78-10.57-27.25V39.82h12.51v69.99c0,7.3,2.23,13.25,6.85,18.17c4.62,4.77,11.02,7.15,19.21,7.15
			c8.19,0,14.59-2.38,19.21-7.15c4.62-4.91,6.85-10.87,6.85-18.17V39.82H209.27z"/>
	</g>
</g>
<g>
	<path d="M72.1,179.15c1.32,0,2.6-0.11,3.85-0.33c1.25-0.22,2.37-0.59,3.38-1.1c1.01-0.51,1.87-1.17,2.58-1.98
		c0.71-0.81,1.18-1.8,1.4-2.97h5.12v38.5h-6.88V184.1H72.1V179.15z"/>
	<path d="M110.79,212.04c-1.94,0-3.75-0.27-5.42-0.83c-1.67-0.55-3.11-1.35-4.32-2.39c-1.21-1.05-2.15-2.32-2.83-3.82
		c-0.68-1.5-1.02-3.19-1.02-5.06c0-2.42,0.63-4.46,1.9-6.1s2.98-2.75,5.14-3.3v-0.11c-1.76-0.66-3.11-1.68-4.04-3.05
		s-1.4-3-1.4-4.87c0-3.3,1.04-5.88,3.11-7.73c2.07-1.85,5.03-2.78,8.88-2.78s6.81,0.93,8.88,2.78c2.07,1.85,3.11,4.43,3.11,7.73
		c0,1.87-0.47,3.49-1.4,4.87s-2.28,2.39-4.04,3.05v0.11c2.16,0.55,3.88,1.65,5.14,3.3s1.9,3.69,1.9,6.1c0,1.87-0.34,3.56-1.02,5.06
		c-0.68,1.5-1.62,2.78-2.83,3.82c-1.21,1.04-2.65,1.84-4.32,2.39C114.54,211.76,112.73,212.04,110.79,212.04z M110.79,207.09
		c2.09,0,3.83-0.62,5.23-1.87c1.39-1.25,2.09-3.01,2.09-5.28c0-2.13-0.7-3.79-2.09-4.98c-1.39-1.19-3.14-1.79-5.23-1.79
		s-3.83,0.6-5.23,1.79c-1.39,1.19-2.09,2.85-2.09,4.98c0,2.27,0.7,4.03,2.09,5.28C106.96,206.47,108.7,207.09,110.79,207.09z
		 M110.79,176.95c-1.69,0-3.12,0.5-4.29,1.51c-1.17,1.01-1.76,2.47-1.76,4.37c0,1.83,0.57,3.24,1.7,4.21
		c1.14,0.97,2.58,1.46,4.35,1.46c1.76,0,3.21-0.49,4.34-1.46c1.14-0.97,1.71-2.37,1.71-4.21c0-1.91-0.59-3.36-1.76-4.37
		C113.91,177.45,112.48,176.95,110.79,176.95z"/>
	<path d="M131.47,193.34h40.7v5.94h-40.7V193.34z"/>
	<path d="M203.39,211.27H177.1c0.04-3.19,0.81-5.98,2.31-8.36c1.5-2.38,3.56-4.46,6.16-6.22c1.25-0.92,2.55-1.81,3.9-2.67
		c1.36-0.86,2.6-1.79,3.74-2.78c1.14-0.99,2.07-2.06,2.81-3.22c0.73-1.16,1.12-2.48,1.16-3.99c0-0.7-0.08-1.44-0.25-2.23
		c-0.17-0.79-0.49-1.52-0.96-2.2c-0.48-0.68-1.14-1.25-1.98-1.71c-0.84-0.46-1.94-0.69-3.3-0.69c-1.25,0-2.28,0.25-3.11,0.74
		c-0.83,0.5-1.48,1.17-1.98,2.04c-0.5,0.86-0.86,1.88-1.1,3.05c-0.24,1.17-0.38,2.44-0.41,3.79h-6.27c0-2.13,0.28-4.1,0.85-5.91
		c0.57-1.81,1.42-3.38,2.56-4.7c1.14-1.32,2.52-2.36,4.15-3.11c1.63-0.75,3.53-1.13,5.69-1.13c2.35,0,4.31,0.39,5.88,1.15
		c1.58,0.77,2.85,1.74,3.82,2.92c0.97,1.17,1.66,2.45,2.06,3.82c0.4,1.38,0.61,2.69,0.61,3.93c0,1.54-0.24,2.93-0.72,4.18
		c-0.48,1.25-1.12,2.39-1.92,3.44c-0.81,1.04-1.72,2.01-2.75,2.89c-1.03,0.88-2.09,1.71-3.19,2.48c-1.1,0.77-2.2,1.5-3.3,2.2
		c-1.1,0.7-2.12,1.39-3.05,2.09c-0.94,0.7-1.75,1.42-2.45,2.17c-0.7,0.75-1.17,1.55-1.43,2.39h18.75V211.27z"/>
	<path d="M233.17,211.27h-26.29c0.04-3.19,0.81-5.98,2.31-8.36c1.5-2.38,3.56-4.46,6.16-6.22c1.25-0.92,2.55-1.81,3.9-2.67
		c1.36-0.86,2.6-1.79,3.74-2.78c1.14-0.99,2.07-2.06,2.81-3.22c0.73-1.16,1.12-2.48,1.16-3.99c0-0.7-0.08-1.44-0.25-2.23
		c-0.17-0.79-0.49-1.52-0.96-2.2c-0.48-0.68-1.14-1.25-1.98-1.71c-0.84-0.46-1.94-0.69-3.3-0.69c-1.25,0-2.28,0.25-3.11,0.74
		c-0.83,0.5-1.48,1.17-1.98,2.04c-0.5,0.86-0.86,1.88-1.1,3.05c-0.24,1.17-0.38,2.44-0.41,3.79h-6.27c0-2.13,0.28-4.1,0.85-5.91
		c0.57-1.81,1.42-3.38,2.56-4.7c1.14-1.32,2.52-2.36,4.15-3.11c1.63-0.75,3.53-1.13,5.69-1.13c2.35,0,4.31,0.39,5.88,1.15
		c1.58,0.77,2.85,1.74,3.82,2.92c0.97,1.17,1.66,2.45,2.06,3.82c0.4,1.38,0.61,2.69,0.61,3.93c0,1.54-0.24,2.93-0.72,4.18
		c-0.48,1.25-1.12,2.39-1.92,3.44c-0.81,1.04-1.72,2.01-2.75,2.89c-1.03,0.88-2.09,1.71-3.19,2.48c-1.1,0.77-2.2,1.5-3.3,2.2
		c-1.1,0.7-2.12,1.39-3.05,2.09c-0.94,0.7-1.75,1.42-2.45,2.17c-0.7,0.75-1.17,1.55-1.43,2.39h18.75V211.27z"/>
	<path d="M271.5,171.06c2.93,0,5.56,0.55,7.89,1.65c2.33,1.1,4.3,2.58,5.91,4.46c1.61,1.87,2.85,4.05,3.71,6.54
		c0.86,2.49,1.29,5.13,1.29,7.92c0,2.82-0.43,5.48-1.29,7.97c-0.86,2.49-2.1,4.68-3.71,6.54c-1.61,1.87-3.58,3.35-5.91,4.43
		c-2.33,1.08-4.96,1.62-7.89,1.62c-2.93,0-5.56-0.54-7.89-1.62c-2.33-1.08-4.3-2.56-5.91-4.43c-1.61-1.87-2.85-4.05-3.71-6.54
		c-0.86-2.49-1.29-5.15-1.29-7.97c0-2.79,0.43-5.43,1.29-7.92c0.86-2.49,2.1-4.67,3.71-6.54c1.61-1.87,3.58-3.35,5.91-4.46
		C265.94,171.61,268.57,171.06,271.5,171.06z M271.5,176.67c-2.09,0-3.9,0.42-5.42,1.27c-1.52,0.84-2.76,1.97-3.71,3.38
		c-0.95,1.41-1.66,3.02-2.12,4.81c-0.46,1.8-0.69,3.63-0.69,5.5c0,1.87,0.23,3.7,0.69,5.5c0.46,1.8,1.16,3.4,2.12,4.81
		c0.95,1.41,2.19,2.54,3.71,3.38c1.52,0.84,3.33,1.27,5.42,1.27c2.09,0,3.9-0.42,5.42-1.27c1.52-0.84,2.76-1.97,3.71-3.38
		c0.95-1.41,1.66-3.02,2.12-4.81c0.46-1.8,0.69-3.63,0.69-5.5c0-1.87-0.23-3.7-0.69-5.5c-0.46-1.8-1.16-3.4-2.12-4.81
		c-0.95-1.41-2.19-2.54-3.71-3.38C275.4,177.1,273.59,176.67,271.5,176.67z"/>
	<path d="M291.01,172h31.79v5.94h-12.48v33.33h-6.88v-33.33h-12.43V172z"/>
	<path d="M324.68,172h31.79v5.94h-12.48v33.33h-6.88v-33.33h-12.43V172z"/>
	<path d="M375.95,171.06c2.93,0,5.56,0.55,7.89,1.65c2.33,1.1,4.3,2.58,5.91,4.46c1.61,1.87,2.85,4.05,3.71,6.54
		c0.86,2.49,1.29,5.13,1.29,7.92c0,2.82-0.43,5.48-1.29,7.97c-0.86,2.49-2.1,4.68-3.71,6.54c-1.61,1.87-3.58,3.35-5.91,4.43
		c-2.33,1.08-4.96,1.62-7.89,1.62c-2.93,0-5.56-0.54-7.89-1.62c-2.33-1.08-4.3-2.56-5.91-4.43c-1.61-1.87-2.85-4.05-3.71-6.54
		c-0.86-2.49-1.29-5.15-1.29-7.97c0-2.79,0.43-5.43,1.29-7.92c0.86-2.49,2.1-4.67,3.71-6.54c1.61-1.87,3.58-3.35,5.91-4.46
		C370.39,171.61,373.02,171.06,375.95,171.06z M375.95,176.67c-2.09,0-3.9,0.42-5.42,1.27c-1.52,0.84-2.76,1.97-3.71,3.38
		c-0.95,1.41-1.66,3.02-2.12,4.81c-0.46,1.8-0.69,3.63-0.69,5.5c0,1.87,0.23,3.7,0.69,5.5c0.46,1.8,1.16,3.4,2.12,4.81
		c0.95,1.41,2.19,2.54,3.71,3.38c1.52,0.84,3.33,1.27,5.42,1.27c2.09,0,3.9-0.42,5.42-1.27c1.52-0.84,2.76-1.97,3.71-3.38
		c0.95-1.41,1.66-3.02,2.12-4.81c0.46-1.8,0.69-3.63,0.69-5.5c0-1.87-0.23-3.7-0.69-5.5c-0.46-1.8-1.16-3.4-2.12-4.81
		c-0.95-1.41-2.19-2.54-3.71-3.38C379.85,177.1,378.04,176.67,375.95,176.67z"/>
	<path d="M400.28,172h19.08c3.52,0,6.34,0.81,8.47,2.42c2.13,1.61,3.19,4.05,3.19,7.31c0,1.98-0.49,3.68-1.46,5.09
		c-0.97,1.41-2.36,2.5-4.15,3.27v0.11c2.42,0.51,4.25,1.66,5.5,3.44c1.25,1.78,1.87,4.01,1.87,6.68c0,1.54-0.27,2.98-0.83,4.32
		c-0.55,1.34-1.41,2.49-2.58,3.46c-1.17,0.97-2.68,1.74-4.51,2.31c-1.83,0.57-4.02,0.85-6.54,0.85h-18.04V172z M407.15,188.44h11.22
		c1.65,0,3.02-0.47,4.12-1.4s1.65-2.28,1.65-4.04c0-1.98-0.49-3.37-1.48-4.18c-0.99-0.81-2.42-1.21-4.29-1.21h-11.22V188.44z
		 M407.15,205.66h12.15c2.09,0,3.71-0.54,4.87-1.62c1.15-1.08,1.73-2.61,1.73-4.59c0-1.94-0.58-3.44-1.73-4.48
		c-1.16-1.04-2.78-1.57-4.87-1.57h-12.15V205.66z"/>
	<path d="M438.39,172h18.75c4.33,0,7.57,0.94,9.73,2.81c2.16,1.87,3.25,4.47,3.25,7.81c0,1.87-0.27,3.42-0.83,4.65
		c-0.55,1.23-1.19,2.22-1.92,2.97c-0.73,0.75-1.46,1.29-2.17,1.62c-0.72,0.33-1.24,0.55-1.57,0.66v0.11
		c0.59,0.07,1.22,0.26,1.9,0.55c0.68,0.29,1.31,0.76,1.9,1.4c0.59,0.64,1.07,1.48,1.46,2.5c0.38,1.03,0.58,2.31,0.58,3.85
		c0,2.31,0.17,4.41,0.52,6.3c0.35,1.89,0.89,3.24,1.62,4.04h-7.37c-0.51-0.84-0.82-1.78-0.91-2.81c-0.09-1.03-0.14-2.02-0.14-2.97
		c0-1.8-0.11-3.35-0.33-4.65c-0.22-1.3-0.62-2.38-1.21-3.25c-0.59-0.86-1.38-1.49-2.39-1.9c-1.01-0.4-2.3-0.6-3.88-0.6h-10.12v16.17
		h-6.88V172z M445.26,189.87h11.27c2.2,0,3.87-0.52,5-1.57c1.14-1.04,1.71-2.61,1.71-4.7c0-1.25-0.18-2.26-0.55-3.05
		c-0.37-0.79-0.87-1.4-1.51-1.84c-0.64-0.44-1.38-0.73-2.2-0.88c-0.82-0.15-1.68-0.22-2.56-0.22h-11.17V189.87z"/>
	<path d="M476.62,172h28.27v5.94h-21.4v10.29h19.8v5.61h-19.8v11.5h21.78v5.94h-28.65V172z"/>
	<path d="M550.82,211.27h-26.29c0.04-3.19,0.81-5.98,2.31-8.36c1.5-2.38,3.56-4.46,6.16-6.22c1.25-0.92,2.55-1.81,3.9-2.67
		c1.36-0.86,2.6-1.79,3.74-2.78c1.14-0.99,2.07-2.06,2.81-3.22c0.73-1.16,1.12-2.48,1.16-3.99c0-0.7-0.08-1.44-0.25-2.23
		c-0.17-0.79-0.49-1.52-0.96-2.2c-0.48-0.68-1.14-1.25-1.98-1.71c-0.84-0.46-1.94-0.69-3.3-0.69c-1.25,0-2.28,0.25-3.11,0.74
		c-0.83,0.5-1.48,1.17-1.98,2.04c-0.5,0.86-0.86,1.88-1.1,3.05c-0.24,1.17-0.38,2.44-0.41,3.79h-6.27c0-2.13,0.28-4.1,0.85-5.91
		c0.57-1.81,1.42-3.38,2.56-4.7c1.14-1.32,2.52-2.36,4.15-3.11c1.63-0.75,3.53-1.13,5.69-1.13c2.35,0,4.31,0.39,5.88,1.15
		c1.58,0.77,2.85,1.74,3.82,2.92c0.97,1.17,1.66,2.45,2.06,3.82c0.4,1.38,0.61,2.69,0.61,3.93c0,1.54-0.24,2.93-0.72,4.18
		c-0.48,1.25-1.12,2.39-1.92,3.44c-0.81,1.04-1.72,2.01-2.75,2.89c-1.03,0.88-2.09,1.71-3.19,2.48c-1.1,0.77-2.2,1.5-3.3,2.2
		c-1.1,0.7-2.12,1.39-3.05,2.09c-0.94,0.7-1.75,1.42-2.45,2.17c-0.7,0.75-1.17,1.55-1.43,2.39h18.75V211.27z"/>
	<path d="M567.72,172c2.75,0,5,0.63,6.74,1.9c1.74,1.27,3.1,2.88,4.07,4.84c0.97,1.96,1.63,4.12,1.98,6.46
		c0.35,2.35,0.52,4.62,0.52,6.82s-0.17,4.47-0.52,6.82c-0.35,2.35-1.01,4.5-1.98,6.46c-0.97,1.96-2.33,3.57-4.07,4.84
		c-1.74,1.27-3.99,1.9-6.74,1.9s-5-0.63-6.74-1.9c-1.74-1.27-3.1-2.88-4.07-4.84c-0.97-1.96-1.63-4.12-1.98-6.46
		c-0.35-2.35-0.52-4.62-0.52-6.82s0.17-4.47,0.52-6.82c0.35-2.35,1.01-4.5,1.98-6.46c0.97-1.96,2.33-3.57,4.07-4.84
		C562.72,172.63,564.97,172,567.72,172z M567.72,206.81c1.36,0,2.49-0.39,3.41-1.18c0.92-0.79,1.64-1.85,2.17-3.19
		c0.53-1.34,0.91-2.91,1.13-4.7c0.22-1.8,0.33-3.7,0.33-5.72c0-2.02-0.11-3.91-0.33-5.69c-0.22-1.78-0.6-3.35-1.13-4.7
		c-0.53-1.36-1.26-2.43-2.17-3.22c-0.92-0.79-2.05-1.18-3.41-1.18c-1.39,0-2.54,0.39-3.44,1.18c-0.9,0.79-1.61,1.86-2.15,3.22
		c-0.53,1.36-0.91,2.92-1.13,4.7c-0.22,1.78-0.33,3.68-0.33,5.69c0,2.02,0.11,3.92,0.33,5.72c0.22,1.8,0.6,3.36,1.13,4.7
		c0.53,1.34,1.25,2.4,2.15,3.19C565.18,206.42,566.32,206.81,567.72,206.81z"/>
	<path d="M610.42,211.27h-26.29c0.04-3.19,0.81-5.98,2.31-8.36c1.5-2.38,3.56-4.46,6.16-6.22c1.25-0.92,2.55-1.81,3.9-2.67
		c1.36-0.86,2.6-1.79,3.74-2.78c1.14-0.99,2.07-2.06,2.81-3.22c0.73-1.16,1.12-2.48,1.16-3.99c0-0.7-0.08-1.44-0.25-2.23
		c-0.17-0.79-0.49-1.52-0.96-2.2c-0.48-0.68-1.14-1.25-1.98-1.71c-0.84-0.46-1.94-0.69-3.3-0.69c-1.25,0-2.28,0.25-3.11,0.74
		c-0.83,0.5-1.48,1.17-1.98,2.04c-0.5,0.86-0.86,1.88-1.1,3.05c-0.24,1.17-0.38,2.44-0.41,3.79h-6.27c0-2.13,0.28-4.1,0.85-5.91
		c0.57-1.81,1.42-3.38,2.56-4.7c1.14-1.32,2.52-2.36,4.15-3.11c1.63-0.75,3.53-1.13,5.69-1.13c2.35,0,4.31,0.39,5.88,1.15
		c1.58,0.77,2.85,1.74,3.82,2.92c0.97,1.17,1.66,2.45,2.06,3.82c0.4,1.38,0.61,2.69,0.61,3.93c0,1.54-0.24,2.93-0.72,4.18
		c-0.48,1.25-1.12,2.39-1.92,3.44c-0.81,1.04-1.72,2.01-2.75,2.89c-1.03,0.88-2.09,1.71-3.19,2.48c-1.1,0.77-2.2,1.5-3.3,2.2
		c-1.1,0.7-2.12,1.39-3.05,2.09c-0.94,0.7-1.75,1.42-2.45,2.17c-0.7,0.75-1.17,1.55-1.43,2.39h18.75V211.27z"/>
	<path d="M624.23,188.72c1.03,0.04,2.05-0.04,3.08-0.22c1.03-0.18,1.94-0.5,2.75-0.96c0.81-0.46,1.46-1.09,1.95-1.9
		c0.5-0.81,0.74-1.8,0.74-2.97c0-1.65-0.56-2.97-1.68-3.96c-1.12-0.99-2.56-1.48-4.32-1.48c-1.1,0-2.05,0.22-2.86,0.66
		c-0.81,0.44-1.48,1.04-2.01,1.79c-0.53,0.75-0.93,1.6-1.18,2.53c-0.26,0.94-0.37,1.9-0.33,2.89h-6.27c0.07-1.87,0.42-3.6,1.04-5.2
		c0.62-1.6,1.48-2.98,2.56-4.15c1.08-1.17,2.39-2.09,3.93-2.75c1.54-0.66,3.28-0.99,5.23-0.99c1.5,0,2.98,0.22,4.43,0.66
		c1.45,0.44,2.75,1.08,3.91,1.92c1.15,0.84,2.08,1.92,2.78,3.22c0.7,1.3,1.04,2.8,1.04,4.48c0,1.94-0.44,3.64-1.32,5.09
		c-0.88,1.45-2.26,2.5-4.12,3.16v0.11c2.2,0.44,3.91,1.53,5.14,3.27c1.23,1.74,1.84,3.86,1.84,6.35c0,1.83-0.37,3.47-1.1,4.92
		c-0.73,1.45-1.72,2.68-2.97,3.69c-1.25,1.01-2.7,1.79-4.35,2.34c-1.65,0.55-3.39,0.83-5.23,0.83c-2.24,0-4.19-0.32-5.86-0.96
		c-1.67-0.64-3.06-1.55-4.18-2.72c-1.12-1.17-1.97-2.58-2.56-4.23c-0.59-1.65-0.9-3.48-0.94-5.5h6.27c-0.07,2.35,0.5,4.3,1.73,5.86
		c1.23,1.56,3.07,2.34,5.53,2.34c2.09,0,3.84-0.6,5.25-1.79c1.41-1.19,2.12-2.89,2.12-5.09c0-1.5-0.29-2.69-0.88-3.57
		c-0.59-0.88-1.36-1.55-2.31-2.01c-0.95-0.46-2.03-0.74-3.22-0.85c-1.19-0.11-2.41-0.15-3.66-0.11V188.72z"/>
	<path d="M73.37,227h6.88v39.27h-6.88V227z"/>
	<path d="M87.78,227h6.88v39.27h-6.88V227z"/>
	<path d="M102.19,227h6.88v39.27h-6.88V227z"/>
	<path d="M132.77,227h28.27v5.94h-21.4v10.29h19.8v5.61h-19.8v11.5h21.78v5.94h-28.65V227z"/>
	<path d="M166.67,227h16.28c3.01,0,5.61,0.51,7.81,1.54c2.2,1.03,4,2.43,5.39,4.21c1.39,1.78,2.43,3.86,3.11,6.24
		c0.68,2.38,1.02,4.93,1.02,7.65c0,2.71-0.34,5.26-1.02,7.64c-0.68,2.38-1.71,4.46-3.11,6.24c-1.39,1.78-3.19,3.18-5.39,4.21
		c-2.2,1.03-4.8,1.54-7.81,1.54h-16.28V227z M173.55,260.66h6.76c2.68,0,4.87-0.36,6.57-1.07c1.71-0.71,3.04-1.71,4.02-2.97
		c0.97-1.27,1.63-2.75,1.98-4.46c0.35-1.71,0.52-3.55,0.52-5.53c0-1.98-0.17-3.82-0.52-5.53c-0.35-1.71-1.01-3.19-1.98-4.46
		c-0.97-1.26-2.31-2.25-4.02-2.97c-1.71-0.72-3.9-1.07-6.57-1.07h-6.76V260.66z"/>
	<path d="M205.8,227h6.88v39.27h-6.88V227z"/>
	<path d="M218.48,227h29.87v5.23l-22.88,28.1h23.43v5.94h-32.17v-5.61l22.88-27.72h-21.12V227z"/>
	<path d="M253.2,227h6.88v39.27h-6.88V227z"/>
	<path d="M284.48,226.06c2.93,0,5.56,0.55,7.89,1.65c2.33,1.1,4.3,2.58,5.91,4.46c1.61,1.87,2.85,4.05,3.71,6.54
		c0.86,2.49,1.29,5.13,1.29,7.92c0,2.82-0.43,5.48-1.29,7.97c-0.86,2.49-2.1,4.68-3.71,6.54c-1.61,1.87-3.58,3.35-5.91,4.43
		c-2.33,1.08-4.96,1.62-7.89,1.62c-2.93,0-5.56-0.54-7.89-1.62c-2.33-1.08-4.3-2.56-5.91-4.43c-1.61-1.87-2.85-4.05-3.71-6.54
		c-0.86-2.49-1.29-5.15-1.29-7.97c0-2.79,0.43-5.43,1.29-7.92c0.86-2.49,2.1-4.67,3.71-6.54c1.61-1.87,3.58-3.35,5.91-4.46
		C278.92,226.61,281.55,226.06,284.48,226.06z M284.48,231.67c-2.09,0-3.9,0.42-5.42,1.27c-1.52,0.84-2.76,1.97-3.71,3.38
		c-0.95,1.41-1.66,3.02-2.12,4.81c-0.46,1.8-0.69,3.63-0.69,5.5c0,1.87,0.23,3.7,0.69,5.5c0.46,1.8,1.16,3.4,2.12,4.81
		c0.95,1.41,2.19,2.54,3.71,3.38c1.52,0.84,3.33,1.27,5.42,1.27c2.09,0,3.9-0.42,5.42-1.27c1.52-0.84,2.76-1.97,3.71-3.38
		c0.95-1.41,1.66-3.02,2.12-4.81c0.46-1.8,0.69-3.63,0.69-5.5c0-1.87-0.23-3.7-0.69-5.5c-0.46-1.8-1.16-3.4-2.12-4.81
		c-0.95-1.41-2.19-2.54-3.71-3.38C288.38,232.1,286.57,231.67,284.48,231.67z"/>
	<path d="M308.68,227h7.26l17.93,28.93h0.11V227h6.54v39.27h-7.26l-17.88-28.88h-0.17v28.88h-6.55V227z"/>
	<path d="M347.98,227h28.27v5.94h-21.4v10.29h19.8v5.61h-19.8v11.5h21.78v5.94h-28.65V227z"/>
</g>
</svg>
