<?xml version="1.0" encoding="utf-8"?>
<!-- Generator: Adobe Illustrator 27.5.0, SVG Export Plug-In . SVG Version: 6.00 Build 0)  -->
<svg version="1.1" id="woman" xmlns="http://www.w3.org/2000/svg" xmlns:xlink="http://www.w3.org/1999/xlink" x="0px" y="0px"
	 viewBox="0 0 1920 866" style="enable-background:new 0 0 1920 866;" xml:space="preserve">
<style type="text/css">
	.st0{fill:#FFFF82;stroke:#FFFFC8;stroke-miterlimit:10;}
	.st1{fill:#FFFFC8;}
	.st2{fill:none;stroke:#000000;stroke-width:2;stroke-linecap:round;stroke-linejoin:round;stroke-miterlimit:10;}
	.st3{fill:#FFFFC8;stroke:#FFFFC8;stroke-miterlimit:10;}
	.st4{fill:#FFFF82;stroke:#FFFF82;stroke-miterlimit:10;}
	.st5{stroke:#100C08;stroke-miterlimit:10;}
	.st6{fill:#FABE46;}
	.st7{fill:#FABE46;stroke:#FABE46;stroke-width:0.75;stroke-miterlimit:10;}
	.st8{fill:#F0645A;stroke:#F0645A;stroke-miterlimit:10;}
	.st9{fill:#46FF82;stroke:#46FF82;stroke-width:0.75;stroke-miterlimit:10;}
	.st10{fill:#FFDC96;stroke:#FFDC96;stroke-width:0.75;stroke-miterlimit:10;}
	.st11{fill:#100C08;}
	.st12{fill:#E6E6DC;stroke:#E6E6DC;stroke-width:0.75;stroke-miterlimit:10;}
	.st13{fill:#3C8CFF;stroke:#3C8CFF;stroke-width:0.75;stroke-miterlimit:10;}
	.st14{fill:#9664B4;stroke:#9664B4;stroke-width:0.75;stroke-miterlimit:10;}
	.st15{fill:#F0645A;}
	.st16{fill:#FFDC00;stroke:#FFDC00;stroke-width:0.75;stroke-miterlimit:10;}
	.st17{fill:#FF323C;stroke:#FF323C;stroke-width:0.75;stroke-miterlimit:10;}
	.st18{fill:#00BEDC;stroke:#00BEDC;stroke-width:0.75;stroke-miterlimit:10;}
	.st19{fill:#9664B4;stroke:#9664B4;stroke-linecap:round;stroke-linejoin:round;stroke-miterlimit:10;}
	.st20{fill:#9664B4;stroke:#9664B4;stroke-width:2;stroke-linecap:round;stroke-linejoin:round;stroke-miterlimit:10;}
	.st21{fill:#966E46;stroke:#966E46;stroke-width:0.75;stroke-miterlimit:10;}
	.st22{fill:#FF8250;stroke:#FF8250;stroke-width:0.75;stroke-miterlimit:10;}
	.st23{fill:#3C8CFF;stroke:#3C8CFF;stroke-miterlimit:10;}
	.st24{fill:#8CDCE1;stroke:#8CDCE1;stroke-width:0.75;stroke-miterlimit:10;}
	.st25{fill:#8CDCE1;stroke:#8CDCE1;stroke-miterlimit:10;}
	.st26{fill:#FFDC00;stroke:#FFDC00;stroke-miterlimit:10;}
	.st27{stroke:#100C08;stroke-width:0.75;stroke-miterlimit:10;}
	.st28{fill:#966E46;stroke:#966E46;stroke-width:2;stroke-miterlimit:10;}
	.st29{fill:#FAC8B4;}
	.st30{fill:#00BEDC;stroke:#00BEDC;stroke-width:2;stroke-linecap:round;stroke-linejoin:round;stroke-miterlimit:10;}
</style>
<path class="st0" d="M1757.18,475.19c1.73-4.6,14.81-2.25,20.53,1.01c5.72,3.26,15.16,9.97,12.95,14.84s-16.61-0.71-19.95-2.34
	C1767.37,487.06,1755.35,480.06,1757.18,475.19z"/>
<path class="st0" d="M1719.52,452.29c0.8-6.3,13.94-6.29,19.84-5.25c5.91,1.04,17.09,3.64,16.67,10.28
	c-0.53,4.92-13.4,5.27-19.65,3.9C1733.44,460.57,1718.89,457.22,1719.52,452.29z"/>
<path class="st1" d="M1719.6,450.33c0,0,8.23-41.03,24.76-38.59c16.53,2.44,12.49,43.76,12.49,43.76s-5.08-7.22-16.92-8.34
	C1724.96,445.1,1719.6,450.33,1719.6,450.33z"/>
<path class="st2" d="M1739.09,447.44c0,0-7.14,34.16-5.31,70.21"/>
<path class="st1" d="M1757.18,475.85c0,0,2.5-6.3,20.53,1.01c0,0,15.7,7.43,13.05,13.98c0,0,14.56-38.21,2.22-46.5
	C1778.71,434.76,1757.18,475.85,1757.18,475.85z"/>
<path class="st2" d="M1777.42,476.72c0,0-9.88,15.34-14.84,31.52"/>
<path class="st3" d="M1685.6,534.09l-0.93-29.7c0,0,15.23-10.89,38.96-10.89c23.73,0,52.01,9.42,64.41,62.95
	c0,0-13.47,6.09-13.47,13.37c0,7.27,8.13,6.79,10.59,6.2l-1.35,39.69c0,0-31.85,6.88-61.15-6.53l-0.59-11.91l-28.21-32.41
	C1693.87,564.86,1706.53,546.63,1685.6,534.09z"/>
<path class="st4" d="M1749.72,596.1l-0.96-14.98c0,0,16.68,10.47,36,5.57v12.63C1784.75,599.32,1771.3,603.5,1749.72,596.1z"/>
<ellipse class="st5" cx="1766.16" cy="542.16" rx="9.29" ry="13.32"/>
<path class="st5" d="M1787.84,558.69c0,0-11.67,5.33-11.67,11.48s9.22,3.95,9.22,3.95L1787.84,558.69z"/>
<path class="st5" d="M1747.91,581.55c0,0-8.9-4.6-10.99-0.01c-1.79,3.92,0.78,10.04,10.9,13.92
	C1748,592.84,1747.91,581.55,1747.91,581.55z"/>
<path class="st2" d="M1683.77,503.85c16.58-10.28,39.83-15.54,63.63-6.94c34.78,12.56,41.71,60.11,41.71,60.11l-2.9,17.91
	l-1.45,41.55c0,0-31.89,7.13-63.17-6.46"/>
<path class="st2" d="M1744.18,513.33c0,0,7,43.11-31.4,43.11"/>
<path class="st2" d="M1748.77,551.26c0,0,3.01,35.43-36.57,35.43"/>
<path class="st2" d="M1756.15,542.16c0-7.89,4.48-14.29,10.01-14.29s10.01,6.4,10.01,14.29s-4.48,14.29-10.01,14.29
	S1756.15,550.05,1756.15,542.16z"/>
<path class="st2" d="M1789.11,557.02c0,0-16.19,6.78-13.21,15.1c1.71,4.79,10.31,2.8,10.31,2.8"/>
<path class="st2" d="M1785.84,585.59c0,0-10.48,3.47-24.68,0.12c-9.41-2.22-20.92-11.02-24.71-4.9c-3.49,5.62,2.86,14,20.57,18.36
	c17.38,4.28,28.31,0.98,28.31,0.98"/>
<line class="st2" x1="1776.96" y1="587.06" x2="1776.96" y2="601.32"/>
<line class="st2" x1="1767.29" y1="587.06" x2="1767.29" y2="600.99"/>
<line class="st2" x1="1757.86" y1="584.76" x2="1757.86" y2="599.32"/>
<line class="st2" x1="1748.75" y1="581.11" x2="1748.75" y2="596.43"/>
<polygon class="st6" points="1621.35,648.38 1606.42,642.31 1581.56,657.77 1606.54,657.21 "/>
<g>
	<polygon class="st7" points="1333.22,635.42 1333.22,656.72 1354.52,656.72 	"/>
	<polygon class="st7" points="1333.22,488.03 1333.22,509.33 1354.52,488.03 	"/>
	<polygon class="st7" points="1336.12,485.97 1354.52,485.97 1347.89,479.34 	"/>
	<polygon class="st7" points="1584.05,488.03 1605.35,509.34 1605.35,488.03 	"/>
	<polygon class="st7" points="1591.68,485.97 1606.11,485.97 1606.12,485.97 1614.48,481.26 	"/>
	<polygon class="st7" points="1607.42,487.6 1607.42,506.89 1618.59,481.32 	"/>
	<polygon class="st7" points="1650.33,457.35 1650.33,461.08 1656.97,457.35 	"/>
	<polygon class="st7" points="1650.48,463.36 1659.86,483.22 1659.86,458.08 	"/>
	<polygon class="st7" points="1659.86,606.17 1651.49,626.87 1659.86,621.37 	"/>
</g>
<g>
	<path class="st8" d="M1333.22,553.33V537.1v-24.84l24.21-24.23h223.69l24.22,24.23v129.89l-24.21,14.57h-223.72l-24.2-24.22v-42.45
		V553.33z"/>
	<polygon class="st8" points="1349.76,478.29 1357.42,485.97 1581.46,485.97 1620.39,477.93 1633.48,470.57 1363.49,470.57 	"/>
	<polygon class="st8" points="1367.15,468.5 1386.97,457.35 1648.27,457.35 1648.27,462.25 1637.15,468.5 	"/>
	<polygon class="st8" points="1607.42,512.02 1607.42,642.16 1620.93,646.96 1636.37,636.81 1636.37,471.3 1621.57,479.64 	"/>
	<path class="st8" d="M1638.43,470.14v165.3l10.02-6.59l11.41-28.18v-11.43c0-0.01,0-0.02,0-0.04v-58.43v-42.72l-11.18-23.68
		L1638.43,470.14z"/>
</g>
<g>
	<circle class="st9" cx="1552.95" cy="553.18" r="5.06"/>
	<circle class="st9" cx="1552.95" cy="577.04" r="5.06"/>
	<circle class="st9" cx="1552.95" cy="600.91" r="5.06"/>
	<path class="st9" d="M1552.95,619.7c-2.79,0-5.06,2.28-5.06,5.07c0,2.78,2.27,5.06,5.06,5.06c2.79,0,5.06-2.28,5.06-5.06
		C1558.01,621.98,1555.74,619.7,1552.95,619.7z"/>
	<path class="st9" d="M1557.95,548.12c1.31,1.29,2.12,3.08,2.12,5.06c0,1.98-0.81,3.77-2.12,5.06h16.49c2.79,0,5.06-2.27,5.06-5.06
		c0-2.79-2.27-5.06-5.06-5.06H1557.95z"/>
	<path class="st9" d="M1557.95,571.98c1.31,1.29,2.12,3.08,2.12,5.06c0,1.98-0.81,3.77-2.12,5.06h16.49c2.79,0,5.06-2.27,5.06-5.06
		c0-2.79-2.27-5.06-5.06-5.06H1557.95z"/>
	<path class="st9" d="M1557.95,595.85c1.31,1.29,2.12,3.08,2.12,5.06c0,1.98-0.81,3.77-2.12,5.06h16.49c2.79,0,5.06-2.27,5.06-5.06
		c0-2.79-2.27-5.06-5.06-5.06H1557.95z"/>
	<path class="st9" d="M1557.95,619.7c1.31,1.3,2.12,3.09,2.12,5.07c0,1.98-0.81,3.77-2.12,5.06h16.49c2.79,0,5.06-2.28,5.06-5.06
		c0-2.79-2.27-5.07-5.06-5.07H1557.95z"/>
</g>
<ellipse cx="1423.7" cy="573.63" rx="61.95" ry="61.96"/>
<g>
	<path class="st10" d="M1355.51,571.35c-0.04,0.79-0.05,1.54-0.05,2.27s0.01,1.47,0.05,2.27l2.27-2.27L1355.51,571.35z"/>
	<path class="st10" d="M1355.71,568.22v0.01l3.73,3.73l7.89-7.89l-7.89-7.88l-2.03,2.03
		C1356.59,561.44,1356.01,564.81,1355.71,568.22z"/>
	<path class="st10" d="M1359.45,575.29l-3.73,3.73c0.29,3.42,0.87,6.76,1.71,10v0.01l2.04,2.03l7.88-7.88l-7.88-7.89H1359.45z"/>
	<path class="st10" d="M1359.19,552.58l0.26,0.27h0.01l7.88-7.89l-3.04-3.04C1362.25,545.31,1360.53,548.89,1359.19,552.58z"/>
	<path class="st10" d="M1359.46,594.4l-0.27,0.27c1.34,3.7,3.06,7.27,5.11,10.66l3.04-3.04L1359.46,594.4z"/>
	<polygon class="st10" points="1361.12,554.52 1369,562.41 1369.01,562.41 1376.89,554.52 1369,546.64 	"/>
	<polygon class="st10" points="1361.12,573.62 1369.01,581.51 1376.89,573.63 1376.89,573.62 1369.01,565.74 1369,565.74 	"/>
	<polygon class="st10" points="1361.12,592.73 1369.01,600.62 1376.89,592.74 1376.89,592.73 1369.01,584.85 1369,584.85 	"/>
	<path class="st10" d="M1365.6,539.89l3.4,3.42h0.01l7.88-7.89l-4.3-4.3C1370.02,533.79,1367.68,536.72,1365.6,539.89z"/>
	<path class="st10" d="M1369.01,603.95l-3.42,3.42c2.08,3.16,4.43,6.1,7,8.78l4.3-4.3L1369.01,603.95z"/>
	<polygon class="st10" points="1370.67,544.96 1378.55,552.86 1378.56,552.86 1386.44,544.98 1386.44,544.96 1378.56,537.07 	"/>
	<polygon class="st10" points="1370.67,564.07 1378.55,571.96 1378.56,571.96 1386.44,564.08 1386.44,564.07 1378.55,556.19 	"/>
	<polygon class="st10" points="1370.67,583.17 1378.56,591.07 1386.44,583.19 1378.56,575.29 1378.55,575.29 	"/>
	<polygon class="st10" points="1370.67,602.29 1378.56,610.17 1386.44,602.29 1378.56,594.4 	"/>
	<path class="st10" d="M1374.26,529.44l4.3,4.3l7.88-7.88l-3.4-3.42h-0.01C1379.87,524.53,1376.94,526.87,1374.26,529.44z"/>
	<path class="st10" d="M1378.56,613.51l-4.3,4.3c2.67,2.57,5.61,4.91,8.76,7.01h0.01l3.4-3.4v-0.01L1378.56,613.51z"/>
	<polygon class="st10" points="1388.12,603.95 1380.22,611.84 1388.12,619.72 1395.99,611.84 	"/>
	<polygon class="st10" points="1380.22,592.73 1380.22,592.74 1388.12,600.62 1395.99,592.74 1388.12,584.85 	"/>
	<polygon class="st10" points="1380.22,573.62 1380.22,573.63 1388.12,581.51 1395.99,573.63 1388.12,565.74 	"/>
	<polygon class="st10" points="1380.22,535.41 1388.12,543.29 1395.99,535.41 1388.12,527.52 	"/>
	<polygon class="st10" points="1380.22,554.52 1388.12,562.4 1395.99,554.53 1395.99,554.52 1388.12,546.64 1388.1,546.64 	"/>
	<path class="st10" d="M1385.08,521.15l3.04,3.04l7.88-7.88l-0.26-0.27C1392.04,517.38,1388.46,519.1,1385.08,521.15z"/>
	<path class="st10" d="M1388.1,623.07l-3.03,3.03c3.38,2.05,6.96,3.77,10.66,5.12l0.26-0.26v-0.01l-7.88-7.88H1388.1z"/>
	<polygon class="st10" points="1389.78,525.86 1397.67,533.74 1405.55,525.86 1397.67,517.97 	"/>
	<polygon class="st10" points="1389.78,583.19 1397.67,591.07 1405.55,583.19 1397.67,575.29 	"/>
	<polygon class="st10" points="1389.78,602.29 1397.67,610.17 1405.55,602.29 1397.67,594.4 	"/>
	<polygon class="st10" points="1397.67,537.07 1389.79,544.96 1397.67,552.84 1405.55,544.96 	"/>
	<polygon class="st10" points="1397.67,613.51 1389.79,621.4 1397.67,629.28 1405.55,621.4 	"/>
	<polygon class="st10" points="1389.79,564.07 1397.67,571.96 1405.55,564.08 1405.55,564.07 1397.67,556.19 	"/>
	<path class="st10" d="M1399.33,516.31l7.89,7.88l7.89-7.88l-3.75-3.75c-3.4,0.29-6.77,0.87-10,1.71L1399.33,516.31z"/>
	<polygon class="st10" points="1399.33,535.41 1407.22,543.29 1415.11,535.41 1407.22,527.52 	"/>
	<polygon class="st10" points="1399.33,573.63 1407.22,581.51 1415.11,573.63 1415.11,573.62 1407.22,565.74 	"/>
	<polygon class="st10" points="1399.33,592.74 1407.22,600.62 1415.11,592.74 1415.11,592.73 1407.22,584.85 	"/>
	<polygon class="st10" points="1399.33,611.84 1407.22,619.72 1415.11,611.84 1407.22,603.95 	"/>
	<path class="st10" d="M1407.22,623.07l-7.88,7.88l2.03,2.03c3.23,0.84,6.6,1.41,10,1.71h0.01l3.73-3.73L1407.22,623.07z"/>
	<polygon class="st10" points="1399.34,554.52 1407.22,562.4 1415.11,554.52 1407.22,546.64 	"/>
	<polygon class="st10" points="1416.77,594.4 1408.89,602.29 1416.77,610.17 1424.66,602.29 	"/>
	<polygon class="st10" points="1416.77,517.97 1408.89,525.86 1416.77,533.74 1424.66,525.86 	"/>
	<polygon class="st10" points="1416.77,537.07 1408.89,544.96 1416.77,552.86 1424.66,544.96 	"/>
	<polygon class="st10" points="1408.89,564.07 1416.77,571.96 1416.78,571.96 1424.66,564.07 1416.77,556.19 	"/>
	<polygon class="st10" points="1408.89,583.17 1416.77,591.07 1416.78,591.07 1424.66,583.19 1424.66,583.17 1416.77,575.29 	"/>
	<polygon class="st10" points="1416.77,613.51 1408.89,621.4 1416.77,629.29 1424.66,621.4 	"/>
	<path class="st10" d="M1414.5,512.36l2.27,2.27l2.27-2.27C1417.45,512.29,1416.09,512.29,1414.5,512.36z"/>
	<path class="st10" d="M1416.77,632.62l-2.27,2.27c1.58,0.06,2.96,0.06,4.55,0L1416.77,632.62z"/>
	<path class="st10" d="M1422.18,512.56l-3.73,3.75l7.88,7.88l7.89-7.88l-2.04-2.04C1428.94,513.43,1425.59,512.85,1422.18,512.56z"
		/>
	<polygon class="st10" points="1426.32,527.52 1418.44,535.41 1426.32,543.3 1434.22,535.41 	"/>
	<polygon class="st10" points="1426.32,603.95 1418.44,611.84 1426.32,619.72 1434.22,611.84 	"/>
	<polygon class="st10" points="1418.44,554.52 1426.32,562.41 1434.22,554.52 1426.32,546.64 	"/>
	<polygon class="st10" points="1418.44,573.62 1426.32,581.51 1426.34,581.51 1434.22,573.63 1426.32,565.74 	"/>
	<polygon class="st10" points="1418.44,592.73 1426.32,600.62 1434.22,592.74 1434.22,592.73 1426.32,584.85 	"/>
	<path class="st10" d="M1426.32,623.06l-7.88,7.89l3.73,3.73c3.42-0.29,6.77-0.87,10.01-1.71l2.03-2.03L1426.32,623.06z"/>
	<polygon class="st10" points="1435.88,594.4 1428,602.29 1435.88,610.17 1443.77,602.29 	"/>
	<polygon class="st10" points="1435.88,517.97 1428,525.86 1435.88,533.74 1443.77,525.86 	"/>
	<polygon class="st10" points="1435.88,537.07 1428,544.96 1435.88,552.86 1443.77,544.96 	"/>
	<polygon class="st10" points="1428,564.07 1435.88,571.96 1443.77,564.07 1435.88,556.19 	"/>
	<polygon class="st10" points="1428,583.17 1435.88,591.07 1443.77,583.19 1435.88,575.29 	"/>
	<polygon class="st10" points="1435.88,613.51 1428,621.4 1435.88,629.29 1443.77,621.4 	"/>
	<polygon class="st10" points="1437.55,535.41 1445.43,543.3 1445.44,543.3 1453.32,535.41 1445.44,527.52 	"/>
	<polygon class="st10" points="1437.55,554.52 1445.43,562.41 1445.44,562.41 1453.32,554.52 1445.43,546.64 	"/>
	<polygon class="st10" points="1437.55,573.62 1445.44,581.51 1453.32,573.63 1453.32,573.62 1445.44,565.74 1445.43,565.74 	"/>
	<polygon class="st10" points="1437.55,592.73 1445.44,600.62 1453.32,592.74 1453.32,592.73 1445.44,584.85 1445.43,584.85 	"/>
	<path class="st10" d="M1437.55,630.95l0.27,0.27c3.7-1.35,7.27-3.07,10.66-5.12l-3.04-3.04L1437.55,630.95z"/>
	<path class="st10" d="M1437.55,516.31l0.24,0.24l7.66,7.64l3.04-3.04c-3.39-2.05-6.96-3.77-10.66-5.11L1437.55,516.31z"/>
	<polygon class="st10" points="1437.55,611.84 1445.44,619.72 1453.32,611.84 1445.44,603.95 	"/>
	<polygon class="st10" points="1447.1,544.96 1454.98,552.86 1454.99,552.86 1462.87,544.96 1454.99,537.07 	"/>
	<polygon class="st10" points="1447.1,564.07 1454.98,571.96 1454.99,571.96 1462.87,564.07 1454.98,556.19 	"/>
	<polygon class="st10" points="1447.1,583.17 1454.99,591.07 1462.87,583.19 1454.99,575.29 1454.98,575.29 	"/>
	<path class="st10" d="M1447.11,621.39l-0.01,0.01l3.42,3.42c3.16-2.08,6.1-4.44,8.77-7.01l-4.3-4.3L1447.11,621.39z"/>
	<path class="st10" d="M1447.1,525.86l7.89,7.88l4.3-4.3c-2.67-2.57-5.62-4.91-8.77-7L1447.1,525.86z"/>
	<polygon class="st10" points="1447.1,602.29 1454.99,610.17 1462.87,602.29 1454.99,594.4 	"/>
	<polygon class="st10" points="1456.65,573.62 1456.65,573.63 1464.54,581.51 1472.42,573.63 1464.54,565.74 	"/>
	<polygon class="st10" points="1456.65,592.73 1456.65,592.74 1464.54,600.62 1472.42,592.74 1464.54,584.85 	"/>
	<path class="st10" d="M1456.65,535.41l7.89,7.88l3.04-3.03l0.38-0.39c-2.1-3.16-4.44-6.09-7.01-8.76L1456.65,535.41z"/>
	<polygon class="st10" points="1456.65,554.52 1464.54,562.4 1472.42,554.53 1472.42,554.52 1464.54,546.64 1464.53,546.64 	"/>
	<path class="st10" d="M1456.65,611.84l4.3,4.3c2.57-2.67,4.92-5.62,7.01-8.78l-3.42-3.42L1456.65,611.84z"/>
	<path class="st10" d="M1466.2,583.19l7.89,7.88l2.03-2.03c0.84-3.24,1.41-6.6,1.71-10.01l-3.73-3.73L1466.2,583.19z"/>
	<path class="st10" d="M1466.2,602.29l3.04,3.04c2.05-3.39,3.77-6.96,5.12-10.66l-0.27-0.27L1466.2,602.29z"/>
	<path class="st10" d="M1469.24,541.92l-3.03,3.04l7.88,7.88l0.27-0.26C1473.01,548.89,1471.29,545.31,1469.24,541.92z"/>
	<path class="st10" d="M1466.22,564.07l7.88,7.89l3.73-3.73c-0.29-3.42-0.87-6.78-1.71-10.01l-2.03-2.03L1466.22,564.07z"/>
	<path class="st10" d="M1475.76,573.62v0.01l2.29,2.27c0.04-0.8,0.05-1.55,0.05-2.29s-0.01-1.48-0.05-2.27L1475.76,573.62z"/>
</g>
<rect x="1332.19" y="487" class="st2" width="274.19" height="170.75"/>
<polyline class="st2" points="1332.19,511.82 1357.01,487 1348.07,478.06 "/>
<line class="st2" x1="1332.19" y1="632.93" x2="1357.01" y2="657.75"/>
<line class="st2" x1="1606.38" y1="511.82" x2="1620.76" y2="478.91"/>
<line class="st2" x1="1660.89" y1="456.32" x2="1606.38" y2="487"/>
<line class="st2" x1="1649.3" y1="629.54" x2="1660.89" y2="600.88"/>
<polyline class="st2" points="1660.89,487.8 1649.3,463.27 1649.3,456.32 "/>
<polyline class="st2" points="1620.76,478.91 1581.56,487 1606.38,511.82 "/>
<circle class="st2" cx="1552.94" cy="624.77" r="6.09"/>
<path class="st2" d="M1552.94,618.68h21.49c3.37,0,6.09,2.73,6.09,6.09s-2.73,6.09-6.09,6.09h-21.49"/>
<circle class="st2" cx="1552.94" cy="600.91" r="6.09"/>
<path class="st2" d="M1552.94,594.81h21.49c3.37,0,6.09,2.73,6.09,6.09c0,3.37-2.73,6.09-6.09,6.09h-21.49"/>
<circle class="st2" cx="1552.94" cy="577.04" r="6.09"/>
<path class="st2" d="M1552.94,570.95h21.49c3.37,0,6.09,2.73,6.09,6.09s-2.73,6.09-6.09,6.09h-21.49"/>
<circle class="st2" cx="1552.94" cy="553.18" r="6.09"/>
<path class="st2" d="M1552.94,547.08h21.49c3.37,0,6.09,2.73,6.09,6.09c0,3.37-2.73,6.09-6.09,6.09h-21.49"/>
<polyline class="st2" points="1332.19,487 1386.7,456.32 1660.89,456.32 1660.89,621.92 1606.38,657.75 "/>
<polyline class="st2" points="1637.4,637.35 1637.4,469.54 1363.21,469.54 "/>
<g>
	<g>
		<path class="st11" d="M1552,622.77c-6.56,0.03-12.19,2.86-16.09,8.12c-4.23,5.7-6.14,13-7.61,19.84
			c-4.02,18.71-5.08,37.93-10.61,56.33c-2.8,9.34-6.69,18.96-12.94,26.56c-6.75,8.2-16.16,13.59-26.19,16.77
			c-10.95,3.46-22.53,4.54-33.97,4.3c-5.59-0.12-11.23-0.48-16.76-1.36c-5.71-0.91-11.66-2.19-16.83-4.87
			c-4.47-2.32-9.06-6.22-10.75-11.12c-1.23-3.56-0.7-7.47,1.82-10.36c3.38-3.86,8.99-5.19,13.91-5.55
			c6.17-0.45,12.36,0.95,17.81,3.86c4.74,2.53,9.06,6.01,11.32,11c1.76,3.88,2.09,8.41,1.11,12.54c-1.08,4.56-3.62,7.01-7.05,10.29
			c-4.4,4.2-9.35,7.79-14.82,10.46c-7.58,3.69-16.13,5.37-24.51,5.74c-6.66,0.29-13.33-0.81-19.12-3.8
			c-11.25-5.8-18.04-17.17-23.2-28.57c-5.48-12.11-9.32-25.21-14.68-37.53c-4.17-9.58-9.93-20.39-20.44-24.05
			c-2.35-0.82-4.87-1.18-7.35-1.19c-2.41-0.01-2.42,3.74,0,3.75c0.66,0,1.32,0.03,1.98,0.09c0.15,0.01,1.06,0.12,0.62,0.06
			c0.31,0.04,0.62,0.1,0.93,0.15c1.21,0.23,2.38,0.58,3.53,1.01c0.07,0.03,0.54,0.22,0.11,0.04c0.14,0.06,0.28,0.12,0.41,0.18
			c0.25,0.12,0.5,0.23,0.74,0.36c0.56,0.28,1.1,0.59,1.64,0.92c1.26,0.78,1.69,1.13,2.67,1.99c0.95,0.84,1.84,1.75,2.68,2.7
			c0.98,1.12,1.35,1.6,2.17,2.77c1.67,2.36,3.1,4.87,4.41,7.44c6.01,11.82,9.71,24.95,14.83,37.38c5.06,12.3,11.43,25,22.51,32.94
			c5.5,3.95,11.96,6.2,18.67,6.9c3.84,0.4,7.66,0.22,11.49-0.19c4.33-0.47,8.64-1.16,12.82-2.39c5.09-1.49,9.98-3.71,14.45-6.56
			c5.53-3.52,10.88-8.01,14.99-13.14c2.4-2.99,3.43-6.98,3.71-10.74c0.36-4.89-0.85-9.93-3.52-14.05
			c-3.19-4.94-8.27-8.53-13.58-10.89c-5.84-2.6-12.28-3.83-18.66-3.11c-5.41,0.61-11.3,2.17-15.1,6.34
			c-3.01,3.31-4.27,7.66-3.51,12.06c0.92,5.35,4.79,9.71,8.98,12.89c4.83,3.67,10.68,5.57,16.54,6.87
			c11.53,2.56,23.74,3.05,35.49,2.17c11.46-0.86,22.97-3.28,33.28-8.49c4.87-2.46,9.43-5.6,13.37-9.39c3.87-3.73,7-8.11,9.6-12.8
			c9.94-17.86,12.64-38.63,15.62-58.53c1.29-8.57,2.5-17.28,5.13-25.56c1.03-3.26,2.21-6.21,4.06-9.11
			c1.49-2.33,3.43-4.41,5.83-5.77c1.27-0.72,2.13-1.06,3.66-1.44c1.53-0.38,2.67-0.49,4.36-0.5
			C1554.41,626.51,1554.41,622.76,1552,622.77L1552,622.77z"/>
	</g>
</g>
<g>
	<g>
		<path class="st11" d="M1552,599.06c-5.06,0-10.19,0.35-14.59,3.13c-7.12,4.51-10.46,13.16-12.49,20.96
			c-1.72,6.6-2.1,13.46-3.87,20.03c-1.73,6.4-4.61,12.43-8.35,17.89c-3.72,5.43-8.38,10.37-13.7,14.25
			c-5.97,4.34-12.82,7.2-19.48,10.28c-7.19,3.33-14.41,7.08-19.95,12.89c-3.14,3.3-5.7,7.3-6.72,11.79
			c-1.17,5.12-0.38,10.58,1.84,15.31c5.09,10.84,17.97,16.5,29.39,13.17c5.58-1.62,10.32-5.33,13-10.52
			c2.67-5.16,3.25-11.21,1.81-16.83c-2.31-9-9.61-15.41-17.76-19.23c-9.46-4.44-20.12-6.16-30.52-6.17
			c-10.99-0.02-22.12,1.9-32.26,6.2c-10.76,4.57-20.7,11.92-28.24,20.85c-6.02,7.14-10.38,15.29-14.3,23.72
			c-2.97,6.38-5.8,13.46-10.71,18.44c-4.78,4.85-12.03,6.98-19,6.3c-5.2-0.51-9.87-4.04-13.12-8.37c-4.2-5.59-6.98-12.17-9.43-18.65
			c-2.82-7.45-5.2-15.06-7.9-22.55c-2.53-7.01-5.26-14.1-9.22-20.44c-3.36-5.37-7.77-10.24-13.79-12.59
			c-2.83-1.11-5.94-1.49-8.96-1.32c-2.4,0.14-2.41,3.89,0,3.75c5.79-0.34,10.68,1.77,14.72,5.86c4.51,4.57,7.59,10.71,10.15,16.74
			c5.93,13.92,9.34,28.88,16.05,42.49c2.79,5.68,6.33,11.26,11.5,15.05c5.51,4.04,12.25,4.47,18.79,3.19
			c6.98-1.36,12.5-5.47,16.49-11.27c4.25-6.19,6.9-13.37,10.22-20.07c4.24-8.55,9.43-16.52,16.36-23.15
			c8.12-7.77,18.12-13.86,28.9-17.08c10.24-3.06,21.12-3.99,31.75-2.97c9.38,0.9,19.11,3.4,26.91,8.89
			c7.53,5.29,12.22,14.27,9.77,23.55c-1.32,5-4.64,9.23-9.31,11.5c-5.36,2.6-12.01,2.62-17.39,0.09
			c-8.95-4.22-14.76-14.48-11.74-24.28c2.43-7.9,9.8-13.29,16.71-17.13c9.78-5.43,20.6-8.79,29.46-15.82
			c10.16-8.06,17.85-19.47,21.43-31.95c1.85-6.45,2.21-13.2,3.81-19.71c1.14-4.64,2.63-9.28,5.1-13.4c1.56-2.6,3.67-5.01,6.03-6.49
			c2.07-1.29,3.92-1.89,6.53-2.3c0.11-0.02,0.46-0.06,0.03-0.01c0.15-0.02,0.3-0.04,0.45-0.05c0.27-0.03,0.54-0.06,0.82-0.08
			c0.54-0.04,1.08-0.07,1.61-0.09c1.06-0.04,2.12-0.04,3.18-0.04C1554.41,602.81,1554.41,599.06,1552,599.06L1552,599.06z"/>
	</g>
</g>
<g>
	<g>
		<path class="st11" d="M1552,551.3c-14.82,0.03-29.12,5.3-38.67,17c-6.29,7.71-10.21,17.05-12.65,26.64
			c-1.51,5.93-2.09,12-3.39,17.97c-1.08,4.96-2.68,9.82-4.92,14.39c-7.92,16.13-22.9,26.56-39.49,32.46
			c-18.09,6.44-37.96,9.13-57.09,8.2c-9.24-0.45-18.45-1.9-27.71-1.91c-9.07-0.01-17.98,1.92-26.03,6.19
			c-7.5,3.98-13.42,10.28-17.21,17.85c-3.58,7.14-5.42,14.97-6.75,22.8c-1.23,7.2-1.94,14.53-3.7,21.64
			c-1.28,5.17-3.31,10.85-8.04,13.55c-4.73,2.7-11.47,2.4-16.5,0.54c-5.27-1.94-9.54-6.06-12.94-10.45
			c-8.43-10.87-13.31-24.15-19.76-36.19c-5.6-10.45-13.18-22.59-25.66-25.28c-2.94-0.64-5.96-0.72-8.94-0.34
			c-2.36,0.3-2.39,4.06,0,3.75c5.78-0.74,11.22,0.46,16,3.8c4.89,3.41,8.53,8.43,11.63,13.44c7.3,11.82,12.12,24.98,19.44,36.8
			c6.44,10.39,15.67,20.05,28.84,19.57c6.24-0.23,11.76-2.38,15.32-7.7c3.52-5.24,4.71-11.89,5.73-18.01
			c2.49-14.96,3.46-31.93,13.76-44.01c5.82-6.82,14.09-11.02,22.76-12.98c8.38-1.9,17-1.19,25.47-0.42
			c10.81,0.98,21.57,1.72,32.42,0.9c9.32-0.71,18.66-2.25,27.74-4.49c16.54-4.07,33.06-11.23,44.66-24.12
			c6.43-7.14,11.01-15.74,13.6-24.98c1.6-5.71,2.13-11.6,3.33-17.39c1.14-5.51,2.68-10.98,4.87-16.17
			c3.32-7.86,8.23-15.24,15.07-20.45c5.64-4.3,12.3-6.92,19.26-8.1c3.15-0.54,6.35-0.74,9.55-0.75
			C1554.41,555.05,1554.41,551.3,1552,551.3L1552,551.3z"/>
	</g>
</g>
<g>
	<g>
		<path class="st11" d="M1552.05,575.69c-10.15,0.34-20.26,2.88-28.32,9.28c-5.96,4.73-10.11,11.28-12.7,18.37
			c-2,5.48-3.02,11.25-3.59,17.04c-1.19,12.13-1.01,26.08-10.44,35.2c-4.82,4.66-11.1,7.42-17.35,9.59
			c-7.07,2.45-14.35,4.25-21.7,5.63c-14.86,2.78-29.96,3.84-44.96,5.64c-7.44,0.89-14.86,1.95-22.2,3.46
			c-6.71,1.38-13.59,2.92-19.75,6.02c-5.66,2.85-10.52,7.3-12.61,13.41c-1.86,5.46-1.25,11.96,2.86,16.26
			c4.09,4.28,10.85,5.47,16.16,2.92c5.42-2.6,8.52-8.83,7.64-14.7c-0.86-5.8-5.14-11-10.63-13.01c-3.56-1.31-7.9-1.29-11.61-0.74
			c-13.13,1.94-19.04,14.67-22.71,25.96c-2.1,6.48-3.72,13.1-5.79,19.58c-1.77,5.56-3.96,11.49-7.42,15.96
			c-3.43,4.42-7.97,6.97-13.46,7.21c-1.64,0.07-3.31,0-4.94-0.25c-0.44-0.07-0.86-0.17-1.28-0.29c-0.54-0.16,0.1,0.08-0.25-0.09
			c-0.21-0.1-0.42-0.21-0.63-0.33c-0.19-0.11-0.38-0.24-0.56-0.36c-0.44-0.29,0.12,0.13-0.28-0.21c-0.42-0.35-0.81-0.72-1.18-1.12
			c-0.87-0.93-1.17-1.35-1.91-2.5c-3.44-5.28-5.5-11.35-7.55-17.27c-2.63-7.59-4.98-15.27-7.64-22.84
			c-2.57-7.29-5.36-14.6-9.2-21.32c-3.08-5.4-7.1-10.95-12.77-13.84c-2.53-1.29-5.28-1.99-8.13-2.01c-2.41-0.02-2.42,3.73,0,3.75
			c2.47,0.02,4.84,0.67,7.01,1.92c2.37,1.36,4.28,3.19,6.11,5.36c4.32,5.15,7.31,11.61,9.85,17.84
			c5.69,13.96,9.19,28.73,15.12,42.59c1.97,4.59,4.34,9.77,8.52,12.77c2.07,1.49,4.49,1.78,6.98,1.93c3.04,0.19,6.2-0.11,9.08-1.13
			c11.63-4.09,15.97-17.31,19.16-28.02c1.88-6.32,3.49-12.72,5.67-18.95c1.88-5.34,4.29-10.9,8.12-14.97
			c3.8-4.03,8.73-5.97,14.35-5.93c4.77,0.04,9.11,1.34,12,5.42c3.31,4.66,3.21,10.83-1.17,14.79c-4.16,3.75-11.11,2.97-14.56-1.39
			c-3.49-4.42-2.5-10.9,0.3-15.38c3.3-5.28,9.38-8.26,15.11-10.14c6.75-2.21,13.84-3.56,20.84-4.72
			c28.54-4.73,58.7-3.93,85.85-15.09c5.86-2.41,11.57-5.64,15.8-10.46c4.16-4.75,6.49-10.69,7.72-16.82
			c1.7-8.45,1.58-17.55,3.04-25.61c1.14-6.31,3.16-12.49,6.63-17.92c4.26-6.66,10.67-11.56,18.14-14.11
			c4.92-1.68,10.06-2.42,15.24-2.6C1554.46,579.36,1554.47,575.61,1552.05,575.69L1552.05,575.69z"/>
	</g>
</g>
<g>
	
		<rect x="1381.36" y="547.76" transform="matrix(0.7071 -0.7071 0.7071 0.7071 14.4486 1143.9171)" class="st2" width="13.51" height="13.51"/>
	
		<rect x="1390.91" y="538.21" transform="matrix(0.7071 -0.7071 0.7071 0.7071 24.0021 1147.8741)" class="st2" width="13.51" height="13.51"/>
	
		<rect x="1400.47" y="528.65" transform="matrix(0.7071 -0.7071 0.7071 0.7071 33.5555 1151.8312)" class="st2" width="13.51" height="13.51"/>
	
		<rect x="1410.02" y="519.1" transform="matrix(0.7071 -0.7071 0.7071 0.7071 43.1474 1155.8719)" class="st2" width="13.51" height="13.51"/>
	
		<rect x="1390.91" y="557.32" transform="matrix(0.7071 -0.7071 0.7071 0.7071 10.527 1153.5551)" class="st2" width="13.51" height="13.51"/>
	
		<rect x="1419.57" y="528.65" transform="matrix(0.7071 -0.7071 0.7071 0.7071 39.1538 1165.3467)" class="st2" width="13.51" height="13.51"/>
	
		<rect x="1381.36" y="566.87" transform="matrix(0.7071 -0.7071 0.7071 0.7071 0.9376 1149.5134)" class="st2" width="13.51" height="13.51"/>
	
		<rect x="1381.36" y="585.98" transform="matrix(0.7071 -0.7071 0.7071 0.7071 -12.5735 1155.1096)" class="st2" width="13.51" height="13.51"/>
	
		<rect x="1390.91" y="595.53" transform="matrix(0.7071 -0.7071 0.7071 0.7071 -16.4967 1164.7491)" class="st2" width="13.51" height="13.51"/>
	
		<rect x="1390.91" y="576.42" transform="matrix(0.7071 -0.7071 0.7071 0.7071 -2.9827 1159.1573)" class="st2" width="13.51" height="13.51"/>
	<path class="st2" d="M1357.82,594.36c-0.54-1.55-1.03-3.12-1.46-4.72l3.09,3.09L1357.82,594.36z"/>
	
		<rect x="1457.79" y="585.98" transform="matrix(0.7071 -0.7071 0.7071 0.7071 9.81 1209.1505)" class="st2" width="13.51" height="13.51"/>
	
		<rect x="1448.23" y="576.42" transform="matrix(0.7071 -0.7071 0.7071 0.7071 13.8052 1199.6852)" class="st2" width="13.51" height="13.51"/>
	
		<rect x="1457.79" y="566.87" transform="matrix(0.7071 -0.7071 0.7071 0.7071 23.3211 1203.5542)" class="st2" width="13.51" height="13.51"/>
	
		<rect x="1429.13" y="519.1" transform="matrix(0.7071 -0.7071 0.7071 0.7071 48.7442 1169.3831)" class="st2" width="13.51" height="13.51"/>
	
		<rect x="1438.68" y="605.09" transform="matrix(0.7071 -0.7071 0.7071 0.7071 -9.2969 1201.2365)" class="st2" width="13.51" height="13.51"/>
	
		<rect x="1448.23" y="595.53" transform="matrix(0.7071 -0.7071 0.7071 0.7071 0.2566 1205.1935)" class="st2" width="13.51" height="13.51"/>
	
		<rect x="1400.47" y="585.98" transform="matrix(0.7071 -0.7071 0.7071 0.7071 -6.9776 1168.6199)" class="st2" width="13.51" height="13.51"/>
	
		<rect x="1448.23" y="538.21" transform="matrix(0.7071 -0.7071 0.7071 0.7071 40.829 1188.4912)" class="st2" width="13.51" height="13.51"/>
	
		<rect x="1448.23" y="557.32" transform="matrix(0.7071 -0.7071 0.7071 0.7071 27.3171 1194.0881)" class="st2" width="13.51" height="13.51"/>
	
		<rect x="1457.79" y="547.76" transform="matrix(0.7071 -0.7071 0.7071 0.7071 36.8297 1197.9526)" class="st2" width="13.51" height="13.51"/>
	
		<rect x="1429.13" y="576.42" transform="matrix(0.7071 -0.7071 0.7071 0.7071 8.2085 1186.1742)" class="st2" width="13.51" height="13.51"/>
	
		<rect x="1400.47" y="547.76" transform="matrix(0.7071 -0.7071 0.7071 0.7071 20.0445 1157.4274)" class="st2" width="13.51" height="13.51"/>
	<path class="st2" d="M1416.77,511.13c1.67,0,3.32,0.09,4.96,0.21l-4.96,4.96l-4.96-4.96
		C1413.45,511.21,1415.1,511.13,1416.77,511.13z"/>
	
		<rect x="1419.57" y="566.87" transform="matrix(0.7071 -0.7071 0.7071 0.7071 12.1293 1176.5338)" class="st2" width="13.51" height="13.51"/>
	
		<rect x="1400.47" y="566.87" transform="matrix(0.7071 -0.7071 0.7071 0.7071 6.5334 1163.0236)" class="st2" width="13.51" height="13.51"/>
	
		<rect x="1410.02" y="595.53" transform="matrix(0.7071 -0.7071 0.7071 0.7071 -10.9022 1178.2548)" class="st2" width="13.51" height="13.51"/>
	
		<rect x="1410.02" y="576.42" transform="matrix(0.7071 -0.7071 0.7071 0.7071 2.6096 1172.6578)" class="st2" width="13.51" height="13.51"/>
	<path class="st2" d="M1416.77,636.12c-1.67,0-3.32-0.09-4.96-0.21l4.96-4.96l4.96,4.96
		C1420.09,636.03,1418.44,636.12,1416.77,636.12z"/>
	<path class="st2" d="M1388.11,525.85l-4.92-4.92c4-2.55,8.3-4.66,12.84-6.26l1.63,1.63L1388.11,525.85z"/>
	<path class="st2" d="M1397.67,516.3l-1.63-1.63c1.55-0.54,3.12-1.03,4.72-1.46L1397.67,516.3z"/>
	<path class="st2" d="M1378.56,535.41l-5.97-5.97c3.21-3.21,6.77-6.05,10.61-8.5l4.92,4.92L1378.56,535.41z"/>
	
		<rect x="1410.02" y="557.32" transform="matrix(0.7071 -0.7071 0.7071 0.7071 16.1214 1167.0608)" class="st2" width="13.51" height="13.51"/>
	
		<rect x="1410.02" y="538.21" transform="matrix(0.7071 -0.7071 0.7071 0.7071 29.6356 1161.469)" class="st2" width="13.51" height="13.51"/>
	
		<rect x="1429.13" y="614.64" transform="matrix(0.7071 -0.7071 0.7071 0.7071 -18.8173 1197.3628)" class="st2" width="13.51" height="13.51"/>
	
		<rect x="1438.68" y="566.87" transform="matrix(0.7071 -0.7071 0.7071 0.7071 17.7229 1190.0387)" class="st2" width="13.51" height="13.51"/>
	
		<rect x="1419.57" y="585.98" transform="matrix(0.7071 -0.7071 0.7071 0.7071 -1.3839 1182.1246)" class="st2" width="13.51" height="13.51"/>
	
		<rect x="1429.13" y="595.53" transform="matrix(0.7071 -0.7071 0.7071 0.7071 -5.3033 1191.7712)" class="st2" width="13.51" height="13.51"/>
	
		<rect x="1438.68" y="585.98" transform="matrix(0.7071 -0.7071 0.7071 0.7071 4.2142 1195.6403)" class="st2" width="13.51" height="13.51"/>
	
		<rect x="1429.13" y="538.21" transform="matrix(0.7071 -0.7071 0.7071 0.7071 35.2323 1174.9801)" class="st2" width="13.51" height="13.51"/>
	
		<rect x="1419.57" y="547.76" transform="matrix(0.7071 -0.7071 0.7071 0.7071 25.6427 1170.9429)" class="st2" width="13.51" height="13.51"/>
	
		<rect x="1438.68" y="547.76" transform="matrix(0.7071 -0.7071 0.7071 0.7071 31.2363 1184.4479)" class="st2" width="13.51" height="13.51"/>
	
		<rect x="1429.13" y="557.32" transform="matrix(0.7071 -0.7071 0.7071 0.7071 21.7204 1180.5771)" class="st2" width="13.51" height="13.51"/>
	
		<rect x="1438.68" y="528.65" transform="matrix(0.7071 -0.7071 0.7071 0.7071 44.7866 1178.9371)" class="st2" width="13.51" height="13.51"/>
	<path class="st2" d="M1474.1,592.73l1.63,1.63c-1.6,4.55-3.71,8.85-6.26,12.84l-4.92-4.92L1474.1,592.73z"/>
	<path class="st2" d="M1464.54,602.29l4.92,4.92c-2.45,3.84-5.3,7.4-8.5,10.61l-5.97-5.97L1464.54,602.29z"/>
	<path class="st2" d="M1454.99,611.84l5.97,5.97c-3.21,3.21-6.77,6.05-10.61,8.5l-4.92-4.92L1454.99,611.84z"/>
	<path class="st2" d="M1477.18,589.64c-0.42,1.6-0.91,3.17-1.46,4.72l-1.63-1.63L1477.18,589.64z"/>
	<path class="st2" d="M1437.51,632.58c-1.55,0.54-3.12,1.03-4.72,1.46l3.09-3.09L1437.51,632.58z"/>
	<path class="st2" d="M1454.99,535.41l5.97-5.97c3.21,3.21,6.05,6.77,8.5,10.61l-4.92,4.92L1454.99,535.41z"/>
	<path class="st2" d="M1464.54,544.96l4.92-4.92c2.55,4,4.66,8.3,6.26,12.84l-1.63,1.63L1464.54,544.96z"/>
	<path class="st2" d="M1475.73,552.89c0.54,1.55,1.03,3.12,1.46,4.72l-3.09-3.09L1475.73,552.89z"/>
	<path class="st2" d="M1479.05,568.67c0.13,1.64,0.21,3.29,0.21,4.96c0,1.67-0.08,3.32-0.21,4.96l-4.96-4.96L1479.05,568.67z"/>
	<path class="st2" d="M1464.54,583.18l9.55-9.55l4.96,4.96c-0.3,3.79-0.92,7.49-1.87,11.06l-3.09,3.09L1464.54,583.18z"/>
	<path class="st2" d="M1464.54,564.07l9.55-9.55l3.09,3.09c0.94,3.57,1.57,7.27,1.87,11.06l-4.96,4.96L1464.54,564.07z"/>
	<path class="st2" d="M1445.43,621.4l4.92,4.92c-4,2.55-8.3,4.66-12.84,6.26l-1.63-1.63L1445.43,621.4z"/>
	<path class="st2" d="M1400.76,634.04c-1.6-0.42-3.17-0.91-4.72-1.46l1.63-1.63L1400.76,634.04z"/>
	<path class="st2" d="M1397.67,630.95l-1.63,1.63c-4.55-1.6-8.85-3.71-12.84-6.26l4.92-4.92L1397.67,630.95z"/>
	<path class="st2" d="M1388.11,621.4l-4.92,4.92c-3.84-2.45-7.4-5.3-10.61-8.5l5.97-5.97L1388.11,621.4z"/>
	<path class="st2" d="M1378.56,611.84l-5.97,5.97c-3.21-3.21-6.05-6.77-8.5-10.61l4.92-4.92L1378.56,611.84z"/>
	<path class="st2" d="M1369.01,602.29l-4.92,4.92c-2.55-4-4.66-8.3-6.26-12.84l1.63-1.63L1369.01,602.29z"/>
	<path class="st2" d="M1416.77,630.95l9.55-9.55l9.55,9.55l-3.09,3.09c-3.57,0.94-7.27,1.57-11.06,1.87L1416.77,630.95z"/>
	<path class="st2" d="M1369.01,564.07l-9.55,9.55l-4.96-4.96c0.3-3.79,0.92-7.49,1.87-11.06l3.09-3.09L1369.01,564.07z"/>
	<path class="st2" d="M1354.5,578.58c-0.13-1.64-0.21-3.29-0.21-4.96c0-1.67,0.08-3.32,0.21-4.96l4.96,4.96L1354.5,578.58z"/>
	<path class="st2" d="M1369.01,583.18l-9.55,9.55l-3.09-3.09c-0.94-3.57-1.57-7.27-1.87-11.06l4.96-4.96L1369.01,583.18z"/>
	<path class="st2" d="M1407.22,621.4l9.55,9.55l-4.96,4.96c-3.79-0.3-7.49-0.92-11.06-1.87l-3.09-3.09L1407.22,621.4z"/>
	<path class="st2" d="M1356.36,557.61c0.42-1.6,0.91-3.17,1.46-4.72l1.63,1.63L1356.36,557.61z"/>
	
		<rect x="1362.25" y="547.76" transform="matrix(0.7071 -0.7071 0.7071 0.7071 8.8528 1130.407)" class="st2" width="13.51" height="13.51"/>
	
		<rect x="1371.81" y="576.42" transform="matrix(0.7071 -0.7071 0.7071 0.7071 -8.5815 1145.6411)" class="st2" width="13.51" height="13.51"/>
	
		<rect x="1371.81" y="595.53" transform="matrix(0.7071 -0.7071 0.7071 0.7071 -22.0934 1151.2382)" class="st2" width="13.51" height="13.51"/>
	
		<rect x="1371.81" y="557.32" transform="matrix(0.7071 -0.7071 0.7071 0.7071 4.9325 1140.0492)" class="st2" width="13.51" height="13.51"/>
	
		<rect x="1362.25" y="566.87" transform="matrix(0.7071 -0.7071 0.7071 0.7071 -4.6583 1136.0032)" class="st2" width="13.51" height="13.51"/>
	
		<rect x="1362.25" y="585.98" transform="matrix(0.7071 -0.7071 0.7071 0.7071 -18.1693 1141.5994)" class="st2" width="13.51" height="13.51"/>
	
		<rect x="1410.02" y="614.64" transform="matrix(0.7071 -0.7071 0.7071 0.7071 -24.4118 1183.8572)" class="st2" width="13.51" height="13.51"/>
	
		<rect x="1400.47" y="605.09" transform="matrix(0.7071 -0.7071 0.7071 0.7071 -20.4886 1174.2161)" class="st2" width="13.51" height="13.51"/>
	
		<rect x="1390.91" y="614.64" transform="matrix(0.7071 -0.7071 0.7071 0.7071 -30.0086 1170.3462)" class="st2" width="13.51" height="13.51"/>
	
		<rect x="1381.36" y="605.09" transform="matrix(0.7071 -0.7071 0.7071 0.7071 -26.051 1160.7921)" class="st2" width="13.51" height="13.51"/>
	<path class="st2" d="M1426.33,525.85l-9.55-9.55l4.96-4.96c3.79,0.3,7.49,0.92,11.06,1.87l3.09,3.09L1426.33,525.85z"/>
	<path class="st2" d="M1359.45,554.52l-1.63-1.63c1.6-4.55,3.71-8.85,6.26-12.84l4.92,4.92L1359.45,554.52z"/>
	
		<rect x="1419.57" y="605.09" transform="matrix(0.7071 -0.7071 0.7071 0.7071 -14.8927 1187.7262)" class="st2" width="13.51" height="13.51"/>
	<path class="st2" d="M1445.43,525.85l4.92-4.92c3.84,2.45,7.4,5.3,10.61,8.5l-5.97,5.97L1445.43,525.85z"/>
	<path class="st2" d="M1435.88,516.3l1.63-1.63c4.55,1.6,8.85,3.71,12.84,6.26l-4.92,4.92L1435.88,516.3z"/>
	<path class="st2" d="M1432.79,513.21c1.6,0.42,3.17,0.91,4.72,1.46l-1.63,1.63L1432.79,513.21z"/>
	<path class="st2" d="M1416.77,516.3l-9.55,9.55l-9.55-9.55l3.09-3.09c3.57-0.94,7.27-1.57,11.06-1.87L1416.77,516.3z"/>
	
		<rect x="1390.91" y="519.1" transform="matrix(0.7071 -0.7071 0.7071 0.7071 37.5131 1142.278)" class="st2" width="13.51" height="13.51"/>
	<path class="st2" d="M1369.01,544.96l-4.92-4.92c2.45-3.84,5.3-7.4,8.5-10.61l5.97,5.97L1369.01,544.96z"/>
	
		<rect x="1381.36" y="528.65" transform="matrix(0.7071 -0.7071 0.7071 0.7071 27.9597 1138.3209)" class="st2" width="13.51" height="13.51"/>
	
		<rect x="1371.81" y="538.21" transform="matrix(0.7071 -0.7071 0.7071 0.7071 18.4062 1134.3639)" class="st2" width="13.51" height="13.51"/>
</g>
<g>
	<g>
		<g>
			<path class="st11" d="M1503.04,538.37c2.23-8.14,4.47-16.28,6.7-24.43c0.32-1.17,0.64-2.33,0.96-3.5
				c0.43-1.57-1.79-3.13-2.92-1.7c-1.79,2.24-4.93,6.36-8.34,4.82c-2.51-1.13-2.28-4.54-1.28-6.58c2.39-4.85,8.78-6.27,13.71-5.55
				c3.48,0.51,7.32,2.85,8.72,6.24c1.9,4.64-1.24,10.63-5.43,12.86c-1.85,0.98-3.83,1.29-5.87,1.23c-0.38-0.01-0.77-0.04-1.15-0.07
				c-0.3-0.02-0.38-0.05-0.22-0.02c-0.13-0.02-0.27-0.04-0.4-0.06c-0.27-0.05-0.55-0.1-0.82-0.17c-2.17-0.6-3.1,2.78-0.93,3.38
				c3.47,0.95,7.47,0.52,10.69-1.02c5.81-2.77,9.84-10.75,7.52-16.98c-4.37-11.74-24.54-12.24-29.29-0.6
				c-1.48,3.64-0.76,8.55,3.1,10.43c5.04,2.45,9.55-1.78,12.46-5.42c-0.97-0.57-1.95-1.14-2.92-1.7c-2.23,8.14-4.47,16.28-6.7,24.43
				c-0.32,1.17-0.64,2.33-0.96,3.5C1499.07,539.62,1502.45,540.55,1503.04,538.37L1503.04,538.37z"/>
		</g>
	</g>
	<g>
		<g>
			<path class="st11" d="M1554.55,529.75c3.78,0.65,7.92-1.53,9.67-4.96c0.79-1.54,1.06-3.41,0.11-4.95
				c-1.04-1.7-3.17-2.63-5.11-2.22c-3.68,0.77-6.02,5.25-6.78,8.6c-0.79,3.5-0.56,8.5,2.96,10.54c1.64,0.95,3.94,0.81,5.72,0.38
				c2.03-0.49,3.85-1.63,5.42-2.97c3.08-2.63,5.66-6.23,6.06-10.33c0.2-2.05-0.04-4.79-1.91-6.06c-1.74-1.19-4.42-0.39-5.12,1.63
				c-0.71,2.03,0.64,4.16,1.85,5.69c1.27,1.6,2.78,2.5,4.41,3.66c0.2,0.14,0.3,0.47,0.26,0.15c0.04,0.31-0.34,0.74-0.51,1.02
				c-0.73,1.21-1.31,2.5-1.18,3.95c0.19,2.2,2.03,3.94,4.28,3.78c3.44-0.23,5.5-3.94,6.14-6.96c0.46-2.2-2.91-3.14-3.38-0.93
				c-0.29,1.37-0.88,3.03-1.99,3.94c-0.38,0.31-1.15,0.76-1.49,0.22c-0.3-0.47,0.08-1.25,0.29-1.66c0.43-0.82,1-1.52,1.23-2.44
				c0.75-3.01-2.14-3.95-3.98-5.48c-1.27-1.05-1.95-2.32-2.62-3.75c-0.07-0.16-0.02,0.18-0.13,0.13c0.27,0.12-0.03-0.18-0.01-0.07
				c0.07,0.37,0.31,0.76,0.38,1.17c0.46,2.99-1.07,5.53-2.92,7.7c-1.72,2.02-3.97,4.03-6.72,4.36c-0.66,0.08-1.36,0.07-2-0.06
				c-0.34-0.07-0.29-0.06-0.52-0.25c-0.75-0.63-1.13-1.67-1.3-2.65c-0.49-2.71,0.41-5.67,1.97-7.89c0.55-0.78,1.59-2.14,2.68-2.02
				c1,0.11,1.25,0.88,1.07,1.53c-0.59,2.21-3.64,4.21-5.9,3.82C1553.28,525.99,1552.34,529.36,1554.55,529.75L1554.55,529.75z"/>
		</g>
	</g>
	<g>
		<g>
			<path class="st11" d="M1520.52,523.84c-1.83,2.33-3.15,5.13-3.61,8.07c-0.4,2.52-0.17,5.6,2.33,6.97
				c4.2,2.29,7.67-2.93,9.14-6.12c0.98-2.12,1.71-4.34,2.02-6.66c0.24-1.78,0.29-3.85-0.76-5.41c-1.53-2.27-4.88-2.08-6.91-0.62
				c-2.57,1.84-3.61,5.76-1.26,8.22c2.76,2.89,7.6,1.41,10.51-0.46c2.51-1.62,4.35-3.98,5.81-6.55c-1.01-0.59-2.01-1.18-3.02-1.77
				c-1.43,3.18-2.79,6.43-3.7,9.8c-0.7,2.63-1.74,7.18,1.25,8.85c2.67,1.49,5.04-0.89,6.47-2.91c1.89-2.68,3.17-5.82,4.37-8.85
				c0.8-2.04,1.55-4.1,2.19-6.19c-1.12-0.31-2.25-0.62-3.37-0.93c-0.55,2.11-0.98,4.26-1.34,6.42c-0.51,3.1-1.21,6.81-0.23,9.89
				c1,3.15,4.4,3.61,6.59,1.29c2.32-2.46,3.29-6.21,4.09-9.4c0.64-2.55,1.13-5.15,1.47-7.75c-1.17,0-2.33,0-3.5,0
				c-0.01,0.09-0.07,0.63-0.01,0.16c-0.03,0.21-0.06,0.42-0.1,0.63c-0.08,0.52-0.16,1.04-0.22,1.56c-0.13,1.13-0.14,2.27,0.11,3.4
				c0.66,3.01,3.34,4.3,6.21,4.38c2.25,0.06,2.25-3.44,0-3.5c-0.85-0.02-1.81-0.14-2.36-0.73c-0.33-0.35-0.51-1.08-0.54-1.62
				c-0.09-1.63,0.29-2.63,0.4-4.27c0.06-0.95-0.85-1.74-1.75-1.75c-1.05-0.01-1.63,0.82-1.75,1.75c0.13-0.95,0.03-0.21,0,0
				c-0.06,0.4-0.12,0.8-0.19,1.19c-0.21,1.26-0.45,2.52-0.72,3.77c-0.62,2.83-1.31,5.82-2.72,8.37c-0.27,0.49-0.64,1.06-0.85,1.28
				c-0.07,0.08-0.57,0.52-0.29,0.32c-0.1,0.07-0.2,0.14-0.31,0.2c-0.34,0.17,0.02,0-0.09,0.04c-0.31,0.11-0.11-0.08,0,0.02
				c-0.04-0.04-0.2,0.03-0.26,0c0.18,0.1,0.2,0.1,0.4,0.16c-0.04-0.01-0.16-0.15-0.17-0.17c0.22,0.37,0.07,0.08,0.02-0.01
				c-0.05-0.09-0.17-0.37-0.03-0.03c-0.06-0.14-0.11-0.29-0.14-0.44c-0.15-0.61-0.16-0.68-0.2-1.33c-0.04-0.72-0.03-1.45,0.01-2.17
				c0.08-1.44,0.26-2.88,0.49-4.3c0.35-2.15,0.79-4.3,1.34-6.42c0.57-2.19-2.71-3.08-3.37-0.93c-1.22,3.96-2.69,7.92-4.63,11.58
				c-0.55,1.04-1.27,2.29-1.91,3.07c-0.29,0.35-0.61,0.71-0.97,0.99c0.26-0.21-0.15,0.1-0.25,0.15c-0.3,0.15,0.02,0.02,0.06-0.01
				c-0.07,0.05-0.26,0.1-0.36,0.1c0.66,0.02-0.34-0.05,0.18-0.03c-0.18-0.01-0.07-0.03-0.07-0.02c0.01,0.11-0.16-0.42-0.18-0.6
				c-0.15-1.33,0.19-2.71,0.52-3.99c0.82-3.18,2.07-6.24,3.41-9.23c0.9-2.01-1.88-3.77-3.02-1.77c-1.94,3.4-4.8,6.51-8.95,6.89
				c-2.15,0.2-2.83-1.92-1.31-3.3c0.72-0.66,1.32-0.56,2.19-0.55c-0.18,0-0.24-0.11-0.06-0.02c0.36,0.18-0.24-0.25,0.04,0.03
				c-0.08-0.08,0.19,0.34,0.11,0.14c0.39,0.96,0.3,2.11,0.11,3.23c-0.25,1.53-0.71,3.05-1.3,4.49c-0.57,1.38-1.38,2.9-2.28,3.98
				c-0.34,0.41-0.96,1-1.14,1.12c-0.08,0.05-0.74,0.44-0.42,0.27c-0.1,0.05-0.24,0.09-0.35,0.11c-0.03,0,0.21,0.05-0.17,0.01
				c-0.34-0.04,0,0,0.05,0.01c-0.18-0.05-0.31-0.08-0.47-0.18c-0.12-0.08-0.25-0.24-0.36-0.46c-0.34-0.7-0.27-1.7-0.17-2.45
				c0.29-2.28,1.29-4.72,2.71-6.52c0.59-0.75,0.72-1.74,0-2.47C1522.4,523.23,1521.1,523.1,1520.52,523.84L1520.52,523.84z"/>
		</g>
	</g>
</g>
<g>
	<path class="st9" d="M1199.7,720.77v16.49c0,0.25,0.02,0.51,0.06,0.74c0.35,2.44,2.47,4.32,5.01,4.32c2.34,0,4.32-1.6,4.89-3.76
		c0.11-0.41,0.18-0.86,0.18-1.3v-16.49c-1.29,1.31-3.08,2.12-5.06,2.12C1202.79,722.9,1200.99,722.08,1199.7,720.77z"/>
	<path class="st9" d="M1204.77,710.71c-2.79,0-5.07,2.27-5.07,5.06c0,2.79,2.28,5.06,5.07,5.06c2.78,0,5.06-2.27,5.06-5.06
		C1209.83,712.98,1207.55,710.71,1204.77,710.71z"/>
	<path class="st9" d="M1228.72,721.8v16.49c0,0.37,0.04,0.72,0.11,1.07c0.02,0.06,0.04,0.12,0.05,0.2c0.57,2.19,2.55,3.79,4.9,3.79
		c2.15,0,4-1.35,4.73-3.25c0.02-0.07,0.04-0.14,0.07-0.22c0.18-0.51,0.27-1.04,0.27-1.6V721.8c-1.29,1.31-3.09,2.12-5.07,2.12
		S1230.01,723.11,1228.72,721.8z"/>
	<path class="st9" d="M1233.78,711.74c-2.78,0-5.06,2.27-5.06,5.06s2.28,5.06,5.06,5.06c2.79,0,5.07-2.27,5.07-5.06
		S1236.57,711.74,1233.78,711.74z"/>
	<path class="st9" d="M1255.67,723.86v16.49c0,0.21,0.01,0.41,0.04,0.61c0.3,2.51,2.44,4.45,5.02,4.45c2.38,0,4.39-1.65,4.93-3.87
		c0-0.01,0-0.02,0.01-0.04c0.09-0.37,0.13-0.76,0.13-1.15v-16.49c-1.29,1.31-3.09,2.12-5.07,2.12S1256.96,725.17,1255.67,723.86z"/>
	<path class="st9" d="M1260.73,713.8c-2.78,0-5.06,2.27-5.06,5.06c0,2.79,2.28,5.06,5.06,5.06c2.79,0,5.07-2.27,5.07-5.06
		C1265.81,716.07,1263.53,713.8,1260.73,713.8z"/>
	<path class="st9" d="M1284.69,724.9v16.49c0,0.35,0.03,0.69,0.1,1.02c0.01,0.02,0.02,0.05,0.02,0.08c0.51,2.27,2.54,3.96,4.94,3.96
		c2.22,0,4.1-1.42,4.79-3.4c0.01-0.06,0.03-0.12,0.06-0.19c0.14-0.47,0.22-0.96,0.22-1.47V724.9c-1.29,1.31-3.09,2.12-5.07,2.12
		S1285.98,726.21,1284.69,724.9z"/>
	<path class="st9" d="M1289.75,714.83c-2.78,0-5.06,2.27-5.06,5.06s2.28,5.06,5.06,5.06c2.79,0,5.07-2.27,5.07-5.06
		S1292.55,714.83,1289.75,714.83z"/>
</g>
<g>
	<path class="st12" d="M1205.72,822.41l-144.77-12.93l0.03-13.6l100.18-50.24l136.7,7.57l36.17-6.06l-0.1,28.83L1205.72,822.41z"/>
	<path class="st12" d="M1191.8,739.93l6.5,0.32c0.92,2.13,3.12,4.22,6.38,4.11c2.87-0.09,4.85-1.2,6.15-3.42l16.83,0.88
		c1,1.92,3.26,3.67,6.06,3.6c2.62-0.06,4.45-1.08,5.93-2.98l14.65,0.78c1.02,2.77,3.91,4.32,6.47,4.24c3.04-0.09,4.96-1.59,6.2-3.58
		l16.51,0.84c1.23,2.38,3.55,3.64,6.14,3.76l0.09,2.2l-28.99-1.61l-26.99-1.48l-28.98-1.61l-35.11-1.94L1191.8,739.93z"/>
	<path class="st12" d="M1289.6,748.49l0.09,2.2l12.8,0.7l23.44-4.42l-30.29-1.55C1294.57,747.07,1292.47,748.49,1289.6,748.49z"/>
</g>
<path class="st13" d="M1091.41,790.23l22.43,1.75c0.08-0.06,37-19.97,37-19.97s-20.79-1.25-20.81-1.26L1091.41,790.23z"/>
<path class="st9" d="M1117.48,792.33l25.23,1.75c0.04-0.03,36.02-20.04,36.02-20.04l-24.11-1.68L1117.48,792.33z"/>
<polygon class="st14" points="1163.62,753.47 1133.6,768.78 1153.99,770.39 1183.15,754.48 "/>
<path class="st15" d="M1146.49,794.29c0,0,27.33,2.13,27.4,2.1l35.39-20.32l-26.91-1.82L1146.49,794.29z"/>
<polygon class="st16" points="1186.83,754.79 1157.64,770.67 1182.1,772.21 1210.69,756.09 "/>
<polygon class="st7" points="1177.33,796.6 1203.19,798.57 1239.21,778.24 1213,776.21 "/>
<polygon class="st17" points="1185.81,772.42 1212.51,774.39 1241.24,757.78 1214.26,756.3 "/>
<polygon class="st18" points="1215.8,774.67 1242.22,776.49 1271.87,759.67 1244.61,758.13 "/>
<path d="M1205.8,824c0,0,62.61-5.69,95.4-18.9c32.79-13.21,34.32-28.2,34.32-28.2L1205.8,824z"/>
<polygon class="st2" points="1060.12,810.55 1205.94,823 1334.55,776.62 1334.55,746.38 1302.54,752.43 1205.58,807.71 
	1060.12,795.58 "/>
<line class="st2" x1="1205.58" y1="807.71" x2="1205.58" y2="823"/>
<line class="st2" x1="1302.54" y1="752.43" x2="1160.99" y2="744.6"/>
<polygon class="st2" points="1203.45,799.53 1275.34,758.86 1163.48,752.43 1087.6,791.17 "/>
<line class="st2" x1="1241.63" y1="777.35" x2="1129.97" y2="769.63"/>
<line class="st2" x1="1143.55" y1="794.91" x2="1213.91" y2="755.42"/>
<line class="st2" x1="1114.54" y1="792.81" x2="1186.7" y2="753.75"/>
<line class="st2" x1="1174.43" y1="797.19" x2="1243.94" y2="757.41"/>
<circle class="st2" cx="1204.77" cy="715.77" r="6.09"/>
<path class="st2" d="M1210.86,715.77v21.5c0,3.37-2.73,6.09-6.09,6.09c-3.37,0-6.09-2.73-6.09-6.09v-21.5"/>
<circle class="st2" cx="1233.78" cy="716.8" r="6.09"/>
<path class="st2" d="M1239.88,716.8v21.5c0,3.37-2.73,6.09-6.09,6.09s-6.09-2.73-6.09-6.09v-21.5"/>
<circle class="st2" cx="1260.74" cy="718.86" r="6.09"/>
<path class="st2" d="M1266.83,718.86v21.5c0,3.37-2.73,6.09-6.09,6.09c-3.37,0-6.09-2.73-6.09-6.09v-21.5"/>
<circle class="st2" cx="1289.76" cy="719.9" r="6.09"/>
<path class="st2" d="M1295.85,719.9v21.5c0,3.37-2.73,6.09-6.09,6.09s-6.09-2.73-6.09-6.09v-21.5"/>
<line class="st2" x1="1295.54" y1="744.34" x2="1334.55" y2="746.38"/>
<line class="st2" x1="1266.66" y1="742.82" x2="1283.8" y2="743.72"/>
<line class="st2" x1="1239.51" y1="741.4" x2="1254.7" y2="742.2"/>
<line class="st2" x1="1210.86" y1="739.9" x2="1227.87" y2="740.79"/>
<polyline class="st2" points="1060.12,795.58 1160.99,744.6 1191.73,738.89 1198.67,739.26 "/>
<g>
	<g>
		<path class="st11" d="M1315.05,680.16c-5.58,0.03-10.88,2.02-15.17,5.58c-5.28,4.37-8.48,10.84-10.17,17.38
			c-1.33,5.13-1.81,10.46-1.83,15.75c-0.01,2.41,3.74,2.42,3.75,0c0.03-12.31,3.21-28.25,15.86-33.47c2.52-1.04,4.93-1.47,7.55-1.49
			C1317.46,683.9,1317.46,680.15,1315.05,680.16L1315.05,680.16z"/>
	</g>
</g>
<g>
	<g>
		<path class="st11" d="M1283.66,677.61c-3.97,0.27-7.89,1.3-11.25,3.48c-3.02,1.95-5.46,4.65-7.32,7.71
			c-3.69,6.09-5.14,13.33-5.81,20.33c-0.31,3.23-0.41,6.48-0.42,9.73c0,2.41,3.75,2.42,3.75,0c0-5.76,0.32-11.54,1.57-17.17
			c1.35-6.12,3.82-12.46,8.87-16.47c3.02-2.41,6.8-3.6,10.62-3.87C1286.06,681.2,1286.08,677.45,1283.66,677.61L1283.66,677.61z"/>
	</g>
</g>
<g>
	<g>
		<path class="st11" d="M1257.13,676.31c-4.45,0.03-8.67,1.39-12.18,4.14c-3.18,2.49-5.57,5.88-7.32,9.49
			c-3.3,6.8-4.8,14.39-5.45,21.88c-0.15,1.66-0.27,3.33-0.27,4.99c0,2.41,3.75,2.42,3.75,0c0-1.22,0.07-2.44,0.16-3.65
			c0.23-3.19,0.53-5.57,1.11-8.65c1.36-7.15,3.7-14.82,8.97-19.93c3.03-2.95,6.92-4.49,11.24-4.51
			C1259.55,680.05,1259.55,676.3,1257.13,676.31L1257.13,676.31z"/>
	</g>
</g>
<g>
	<g>
		<path class="st11" d="M1222.06,676.42c-15.87,2.22-19.19,21.67-19.29,34.78c-0.01,1.52,0,3.06,0.12,4.57
			c0.19,2.39,3.94,2.41,3.75,0c-0.3-3.83-0.14-7.74,0.25-11.55c0.64-6.31,2.24-13.8,6.46-18.83c2.54-3.03,5.75-4.8,9.7-5.36
			c1-0.14,1.56-1.42,1.31-2.31C1224.06,676.65,1223.07,676.28,1222.06,676.42L1222.06,676.42z"/>
	</g>
</g>
<path class="st15" d="M1533.68,214.37c0,0,14.46,3.25,25.58,9.23c0,0,6.49,65.4-31.82,146.81l-7.38,2.49c0,0,1.74-3.22-6.03-4.88
	l-1.03-3.22l2.73-6.28l2.85-1.32l5.7,2.4c0,0,2.31-0.45,2.77-1.94s0.04-3.14-1.12-3.64s-5.5-1.86-5.5-1.86l-1.12-3.26l2.64-5.99
	l3.9-1.23l5.2,1.91c0,0,2.24-0.33,2.86-1.91s0.29-2.58-0.76-3.05s-5.15-2-5.15-2l-1.81-4.44c0,0,5.25-11.74,3.2-19.75
	c-2.05-8.01-8.44-10.97-11.07-12.26s-21.8-10.02-21.8-10.02l0.91-5.06c0,0,5.79,2.82,7.97-0.52c1.34-2.05-1.67-8.44-1.24-12.45
	c0.43-4.01,4.58-13.83,0.52-23.76c0,0,9.21-8.59-2.81-20.04c-12.02-11.45-33.2-5.2-37.64-0.57c0,0-11.45-2.34-19.46,9.02
	c-8.01,11.35-7.2,24.47-7.2,24.47s-0.05,9.59,6.82,14.12c0,0-4.63,4.48-6.25,7.16c0,0-11.69,3.72-22.28,11.07
	c0,0-5.8-47.92,2.88-71.51c0,0,7.1-3.8,17.58-6.53c0,0,3.09,8.43,12.68,8.18c13.89-0.37,26.68-12.51,34.17-12.26
	c12.63,0.42,21.17,10.32,35.01,10.85C1529.13,222.73,1533.68,214.37,1533.68,214.37z"/>
<g>
	<path class="st19" d="M1512.29,310.19c1.12,2.36,0.66,5.94-1.35,10.32c-5.68,12.41-26.12,50.9-28.89,56.09
		c-5.01-0.25-8.75-0.07-13.25-0.66c0.01-3.78-0.11-9.98-0.39-12.99c1.48-1.47,6.97-7.38,9.07-16c2.83-11.61-1.95-29.23-3.53-35.01
		l-0.22-0.79c-0.76-2.88-0.63-4.86-0.33-6.06c0.27-0.46,0.6-0.51,0.81-0.48c0.85,0.07,2.02,1.11,2.64,2.98
		c2.73,8.23,6.14,19.01,6.17,19.11c0.12,0.38,0.45,0.66,0.85,0.71c0.05,0.01,0.09,0.01,0.14,0.01c0.34,0,0.67-0.18,0.87-0.46
		c0.29-0.46,7.13-11.32,3.64-27.72c1.4-0.47,2.69-1.16,3.84-2.04c0.57-0.43,1.08-0.89,1.54-1.37l5.87,2.66l1.22,5.02
		c0.07,0.32,0.29,0.58,0.59,0.7l7.61,3.33c0.05,0.02,0.1,0.04,0.15,0.06C1509.42,307.6,1511.3,308.1,1512.29,310.19z"/>
	<path class="st19" d="M1466.29,362.53c0.3,3.05,0.63,9.63,0.63,13.47c-18.22-1.24-31.69-6.08-34.26-6.98
		c-9.44-22.82-13.07-53.56-16.18-74.46c7.97-6.19,16.67-9.89,19.98-10.67c-1.41,3.19-2.55,7.35-2.82,12.73
		c-0.7,13.62,8.16,30.7,8.55,31.42c0.19,0.35,0.54,0.56,0.91,0.56c0.15,0,0.31-0.04,0.45-0.1c2.98-1.44,5.2-5.65,7.56-10.11
		c1.25-2.37,2.55-4.83,3.89-6.64c2.25-3.02,4.38-4.47,5.73-5.15c-0.62,4.57-1.95,17.17,0.27,28.68c0.72,3.75,1.47,7,2.21,10.14
		C1464.48,351.02,1465.66,356.12,1466.29,362.53z"/>
</g>
<g>
	<path class="st19" d="M1417.82,429.28c-0.08,8.48,1.34,17.46,5.81,25.31c0.22,0.38,0.44,0.76,0.68,1.13
		c0.02,0.04,0.04,0.07,0.06,0.11c3.2,5.15,7.57,9.44,13.08,12.83c4.59,2.85,9.97,5.06,16.12,6.66
		c-16.05-15.63-16.71-36.44-16.61-41.65C1433.41,433.95,1422.95,434.27,1417.82,429.28z"/>
	<path class="st19" d="M1419.8,412.19c-0.88,4.12-1.62,8.87-1.88,13.88c3.99,7.3,19.84,5.47,20,5.45c0.31-0.03,0.62,0.07,0.85,0.29
		s0.34,0.52,0.31,0.82c-0.02,0.27-4.17,29.26,18.62,43.64c3.53,0.73,7.28,1.27,11.26,1.62c3.16,0.28,6.28,0.52,9.35,0.7
		c-7.67-3.31-14.19-9.22-19.15-17.4c-5.49-9.06-8.8-20.7-9.09-31.93c-0.14-5.4,0.49-10.36,1.48-14.68c-0.82-0.12-1.63-0.25-2.4-0.38
		c-15.41-2.64-24.47-7.35-27.56-9.2C1420.95,407.24,1420.34,409.65,1419.8,412.19z"/>
	<path class="st19" d="M1426.8,390.33c-0.83,1.88-2.76,6.47-4.62,12.61c2.46,1.51,12.38,6.94,29.86,9.54
		c1.83-6.94,4.45-11.99,5.77-14.28C1440.71,396.18,1429.98,391.78,1426.8,390.33z"/>
	<path class="st20" d="M1453.61,414.88c-0.99,4.23-1.63,9.08-1.49,14.33c0.28,10.88,3.48,22.14,8.79,30.91
		c4.4,7.26,12.45,16.43,25.83,18.9c2.69,0.11,5.35,0.18,7.96,0.21c-19.94-16.95-20.69-44.31-20.69-44.59
		c-0.01-0.31,0.12-0.61,0.36-0.8c0.23-0.2,0.55-0.29,0.85-0.23c0.27,0.04,27.01,4.67,55.48-4.25c0.3-0.1,0.62-0.05,0.88,0.11
		c0.26,0.18,0.42,0.44,0.45,0.75c0.04,0.32,3.46,31.05,13.56,45.39c10.79-1.49,32.87-5.85,32.87-5.85
		c24.4-6,51.12-16.49,51.12-16.49s-1.91,3.41-1.5,26.94c1.04,16.62,5.19,70.1,5.19,70.1l26.89,2.21l8.94-35.07
		c0.11-2.28,1.78-59.85,0.54-80.53c-1.22-20.19-6.58-29.83-18.5-33.31c-10.31-3.01-21.33,2.39-34.09,8.66
		c-16.48,8.09-35.18,17.27-57.28,9.93c-13.38-4.44-20.34-11.32-23.94-17.68c-26.21,8.76-47.75,11.48-64.38,11.48
		C1464.69,416,1458.74,415.56,1453.61,414.88z"/>
	<path class="st19" d="M1460.08,398.44c-0.93,1.53-3.9,6.77-5.93,14.33c18.72,2.45,45.56,1.59,80.7-10.11
		c-2.52-5.27-2.82-9.96-2.79-12.3c-21.75,6.64-40.65,8.87-56.24,8.87C1470.12,399.23,1464.86,398.93,1460.08,398.44z"/>
	<path class="st19" d="M1476.14,435.81c-0.18,6.49,3.2,36.22,21.83,43.4c0.01,0.01,0.02,0.02,0.03,0.03
		c-1.71,0.39,28.45,0.14,45.33-3.28c-8.93-13.48-12.46-38.38-13.19-44.29C1505.18,439.2,1481.78,436.62,1476.14,435.81z"/>
	<path class="st19" d="M1534.16,389.39c-0.11,1.31-0.36,6.86,2.94,13.2c3.23,6.21,9.84,13.17,23.3,17.65
		c21.3,7.08,39.59-1.9,55.73-9.82c12.6-6.18,24.49-12.02,35.57-8.78c12.75,3.71,18.72,14.24,19.98,35.16
		c1.25,20.73-0.41,78.28-0.53,80.73l9.39,34.79l14.9-1.81h0.01l3.16-94.31c0.02-0.19,2.23-19.45-2.3-39.27
		c-6.02-26.32-20.45-41.06-42.9-43.81c-7.84-0.96-15.77-1.7-23.58-2.22c-7.11,8.34-14.96,13.62-23.82,13.62
		c-12.67,0-21.54-5.86-27.73-13.62c-19.47,1.35-31.73,3.92-34.1,4.45C1538.66,384.12,1535.1,388.33,1534.16,389.39z"/>
</g>
<path class="st21" d="M1503.56,249.11c0.59,1.43,2.44,6.49,1.92,11.58l-4.33-5.99c-0.33-0.45-0.98-0.57-1.43-0.23
	c-0.28,0.2-0.43,0.52-0.43,0.84l-2.97-0.24c0.03-0.25,0.04-0.51,0.05-0.77c0.1-2.98,0.67-4.77,1.72-5.49
	C1499.12,248.1,1500.91,248.21,1503.56,249.11z"/>
<path class="st21" d="M1499.47,255.91l5.51,7.62c-0.21,0.93-0.42,1.79-0.64,2.65c-1.11,4.43-2.07,8.26,0.12,15.24
	c0.32,0.99,0.52,2.33-0.33,3.06c-1.1,0.96-3.66,0.77-6.23-0.45c-0.31-0.15-0.67-0.13-0.97,0.04s-0.48,0.49-0.51,0.84
	c0,0.04-0.12,2.15-1.07,4.67c-0.53,1.4-1.31,2.92-2.47,4.28c-0.02,0.02-0.03,0.04-0.04,0.06c-0.52,0.59-1.09,1.14-1.75,1.64
	c-1.18,0.9-2.52,1.55-4.02,1.95c-2.78,0.76-6.11,0.71-9.96-0.16c-0.39-0.09-0.79,0.04-1.04,0.35l-3.61,4.51
	c-0.05,0.05-0.64,0.76-1.04,2.24c-0.01,0.02-0.01,0.04-0.01,0.06c-0.39,1.54-0.56,3.89,0.32,7.19l0.22,0.79
	c4.13,15.19,5.31,26.62,3.52,33.98c-1.58,6.47-5.29,11.41-7.36,13.78c-0.67-5.56-1.75-10.22-2.92-15.27
	c-0.72-3.12-1.47-6.36-2.19-10.07c-2.6-13.4-0.13-28.89-0.01-29.67c0.01-0.02,0.01-0.03,0.01-0.03c0.01-0.06,0.01-0.11,0.01-0.18
	c0-0.05,0-0.09-0.01-0.14c0-0.01,0-0.02,0-0.03c0-0.02-0.01-0.04-0.02-0.06c-0.02-0.12-0.07-0.24-0.13-0.33
	c0,0-8.41-12.61-12.99-19.53c-0.86-2.6-1.6-4.81-2.13-6.38c2.21,0.95,4.53,1.39,6.79,1.39c4.38,0,8.57-1.69,11.3-4.83
	c1.99,1.25,7.27,3.98,12.97,2.29c6.33-1.88,7.65-5.77,8.7-8.91c0.3-0.88,0.58-1.71,0.94-2.38c1.03-1.9,2.37-3,3.67-4.08
	c1.9-1.58,3.86-3.2,4.21-6.94l2.97,0.24C1499.28,255.52,1499.34,255.73,1499.47,255.91z M1500.45,270.53
	c0.26-0.29,0.33-0.7,0.19-1.06l-2.57-6.55c-0.21-0.53-0.8-0.79-1.34-0.59c-0.53,0.22-0.79,0.81-0.58,1.34l1.82,4.67l-3.88-1
	c-0.55-0.14-1.11,0.19-1.25,0.74c-0.14,0.55,0.19,1.11,0.73,1.26l5.83,1.51c0.08,0.02,0.18,0.03,0.26,0.03
	C1499.97,270.88,1500.26,270.75,1500.45,270.53z"/>
<path class="st21" d="M1661.93,553.53l8.21-31.89l8.65,32.06c0.13,0.49,0.62,0.84,1.12,0.76l15.57-1.9
	c0.27,3.31,1.69,13.29,9.5,25.83c8.62,13.84,27.04,33.51,65.83,48.59c3.17,1.24,5.17,2.83,5.95,4.73c0.48,1.22,0.35,2.28,0.2,2.85
	c-0.04,0.01-0.08,0.01-0.12,0.02c-4.47,0.81-30.69,4.73-63.3-7.7c-35.67-13.61-55.32-20.83-85.74-14.13c0,0-6.86-21.06,5.46-60.37
	C1633.24,552.4,1660.97,553.73,1661.93,553.53z"/>
<path class="st8" d="M1629.74,101.08l-7.06,101.35c7.73-0.48,13.3-2.72,17.33-5.55c0.07-0.08,0.15-0.15,0.24-0.22
	c0.08-0.07,0.16-0.11,0.26-0.15h0.01c1.69-1.25,3.09-2.6,4.24-3.95c0.54-0.63,1.03-1.27,1.47-1.88v-0.01
	c0.05-0.14,0.14-0.27,0.23-0.39c0.04-0.04,0.07-0.08,0.11-0.11c1.84-2.72,2.75-5.18,3.16-6.52c-3.13-1.51-5.43-4.18-6.88-7.96
	c-3.82-9.94-4.42-19.26-3.77-26.83c-1.37-0.79-3.46-2.33-4.31-4.82c-0.72-2.14-0.41-4.48,0.95-6.94c-0.61-1.85-2.04-7.29,0.38-11.74
	c1.39-2.58,3.81-4.35,7.17-5.26c-0.26-3.14-0.63-9.88,1.95-18.25L1629.74,101.08z"/>
<path class="st22" d="M1628.28,614.81l2.9,26.5c0,0,9.12,1.82,18.45,1.82c9.33,0,20.6-1.61,20.6-1.61l2.17-16.73
	c-0.02-0.32,0.1-0.62,0.34-0.82c0.24-0.22,0.55-0.3,0.86-0.25c9.77,1.62,17.37,4.04,25.01,6.7c0.03,0,0.06,0.01,0.08,0.02
	c1.16,0.4,2.34,0.81,3.52,1.23c9.28,3.25,18.87,6.62,32.91,9.27c25.18,4.76,38.63,1.09,41.58,0.11v-4.33
	c-2.35,0.41-7.89,1.2-15.83,1.2c-0.58,0-1.18,0-1.78-0.01c-10.66-0.15-27.34-1.86-46.29-9.08c-35.4-13.49-42.81-14.84-50.86-15.93
	c0,0-10.66-0.48-16.76-0.26C1639.06,612.86,1628.28,614.81,1628.28,614.81z"/>
<path class="st22" d="M1674.52,625.97l-1.76,14.27l16.36-10.79C1682.6,627.23,1682.65,627.4,1674.52,625.97z"/>
<path class="st8" d="M1690.81,181.23c0.88,3.47,2.11,7.1,3.81,10.31c0.03,0.07,0.07,0.14,0.1,0.2c0.78,1.44,1.63,2.79,2.6,3.99
	c1.25,1.55,2.57,2.83,3.88,3.88c0.01,0.01,0.03,0.01,0.04,0.03c0.07,0.04,0.14,0.1,0.2,0.16c4.84,3.77,9.66,4.46,11.79,4.57
	l8.24-98.66l-14.41-0.73c2.65,15.78-3.82,35.3-4.79,38.42c2.24,2.63,4.28,7.13,1.84,13.88c0.78,1.81,2.83,7.54,0.31,13.36
	C1702.38,175.42,1697.79,179,1690.81,181.23z"/>
<path class="st13" d="M1375.31,261.05c-7.63,45.49-2.8,81.47,13.24,98.71c7.69,8.27,18.37,12.09,30.45,11.26
	c-7.12-22.25-21.32-73.58-16.63-125.85c-0.29-1.92-4.26-31.1,12.3-50.45C1406.75,196.79,1384.31,207.39,1375.31,261.05z"/>
<path class="st13" d="M1404.42,245.85c-5.25,52.56,9.81,104.39,16.87,126c3.17,9.74,5.15,15.02,5.78,16.34
	c1.94,0.94,13.33,6.1,32.58,8.15c17.92,1.9,42.66,1.11,72.94-8.29c0.81-0.94,4.4-5.22,10-14.12c5.55-8.81,13.06-22.15,21.8-41.26
	c0.02-0.03,0.03-0.07,0.06-0.1c0.03-0.06,0.07-0.11,0.11-0.15c0.04-0.05,0.09-0.09,0.14-0.13c0.02-0.02,0.05-0.04,0.08-0.06
	c0.19-0.1,18.27-11.16,23.43-32.3c4.82-19.69-3.78-37.56-5.06-40.07c-0.01,0-0.01,0-0.01,0c-2.63-2.81-6.27-8.31-22.11-12.98
	c-1,20.42-7.1,48.8-7.16,48.94c-4.38,22.58-15.03,50.88-25.05,74.81c-0.09,0.31-0.36,0.98-1.35,1.21
	c-0.26,0.1-51.08,15.35-96.03-0.92c-0.31-0.11-0.56-0.36-0.66-0.68c-0.21-0.66-21.99-60.96-16.71-127.02
	C1410.07,243.88,1408,244.42,1404.42,245.85z"/>
<path class="st13" d="M1531.54,177.13c-0.09,0.86-0.14,1.8-0.14,2.88c0,1.7,0.45,3.55,1.11,5.48c7.87,2.21,15.72,4.93,23.56,8.15
	c-6.3-6.76-13.17-11.11-18.23-13.71C1535.04,178.5,1532.8,177.61,1531.54,177.13z"/>
<path class="st13" d="M1566.42,333.64c0.39,3.61,2.85,22.35,13.12,35.52c5.89,7.56,14.35,13.29,26.47,13.29
	c8.35,0,15.84-5.19,22.7-13.39c11.42-13.66,21.06-35.68,29.96-56c3.24-7.38,6.29-14.36,9.39-20.9c-1.71-8.43-5.49-14.35-11.23-17.61
	c-9.44-5.36-21.46-1.89-23.55-1.22l-10.89,16.59c0.6,24.94-2.55,50.74-6.14,71.39c-0.09,0.49-0.53,0.86-1.02,0.86
	c-0.05,0-0.11-0.01-0.18-0.02c-0.56-0.09-0.94-0.63-0.83-1.2c5.11-29.43,6.6-52.94,6.09-71.51c-0.54-19.72-3.32-33.9-6.39-43.73
	c-3.22-10.32-7.08-17.07-10.15-21.27c-2.24-3.05-4.05-4.74-4.89-5.44c-3.23,2.05-18.14,13.06-13.98,39.71
	c1.09,2.05,10.5,20.56,5.34,41.69C1585.33,320.51,1569.64,331.56,1566.42,333.64z"/>
<path class="st13" d="M1642.62,197.99c2.55,3.09,9.55,7.89,20.06,9.44c-0.07-1.38,0.06-2.43,0.42-3.56
	c-0.75-1.77-2.33-4.62-2.51-6.3c-6.28-1.32-10.87-3.78-12.74-4.98C1646.57,194.26,1644.58,196.4,1642.62,197.99z"/>
<path class="st13" d="M1673.06,198.29c0.8,2.49,3.11,6.09,3.68,8.9c9.43-1.54,15.54-3.84,21.96-6.59c-0.94-0.87-2.19-1.91-3.09-3.03
	c-0.86-1.06-1.78-2.62-2.49-3.86C1687.93,195.81,1680.83,197.99,1673.06,198.29z"/>
<path class="st23" d="M1704.28,104.84l-10.09-0.5c1.43,13.55-1.31,21.22-2.53,24.64c7.14,2.95,7.85,9.54,7.86,11.94
	c0.16,0.11,0.34,0.23,0.54,0.38C1701.71,135.69,1706.81,118.47,1704.28,104.84z"/>
<g>
	<path class="st24" d="M1418.12,193.98c-16.59,16.94-14.53,43.85-13.85,49.77c3.1-1.29,4.67-1.75,9.84-2.86
		c0.73-6.71,1.8-12.53,3.49-19.05c0.06-0.35,0.3-0.9,0.62-1.03c0.19-0.08,9.29-3.82,16.76-5.82c-0.66-1.9-1.01-4.05-1.04-6.41
		c-0.04-4.27,0.97-9.15,2.72-13.07c0.38-0.85,0.77-1.68,1.16-2.49c1.14-2.42,2.25-4.76,2.9-7.43
		C1427.14,189.11,1419.26,193.36,1418.12,193.98z"/>
	<path class="st24" d="M1533.39,187.89c0.28,0.71,0.57,1.42,0.87,2.15c1.66,4.09,3.38,8.33,3.64,12.9c0.25,4.4-0.77,7.03-2.58,10.74
		c7.17,2.05,17.03,5.59,23.99,8.51c0.36,0.15,0.93,0.46,0.95,0.86c0.01,0.23,1.38,7.21,0.63,21.73c10.3,2.58,17.94,8.24,21.59,11.14
		c-2.9-23.3,10.19-34.99,14.61-38.16c-12.57-8.22-25.33-15.13-38.16-20.67C1550.44,193.42,1541.92,190.34,1533.39,187.89z"/>
</g>
<path class="st24" d="M1622.15,204.87l-0.94,13.56l33.87,2.47c1.92-3.67,4.82-6.82,7.41-8.86c0.16-0.94-0.12-2-0.04-2.59
	c-8.7-1.41-17.52-5.29-21.6-10.31C1636.46,202.06,1630.13,204.43,1622.15,204.87z"/>
<path class="st25" d="M1648.02,102c-2.6,7.92-2.27,14.63-2.04,17.77c2.79-0.1,9.88-0.8,14.13-5.03c0.34-0.33,0.82-0.44,1.28-0.34
	c0.45,0.11,0.83,0.45,0.98,0.9c0.03,0.07,2.79,7.2,26.65,12.84c0.01,0,0.03,0,0.04,0.01c1.1-3.12,3.85-10.72,2.37-23.96L1648.02,102
	z"/>
<path class="st24" d="M1677.33,209.21c0.79,4.57,1.53,9.14,1.9,13.47l32.64,2.43l1.48-18.34c-2.49-0.15-7.81-0.97-12.94-4.75
	C1693.95,204.99,1684.93,208.14,1677.33,209.21z"/>
<path class="st17" d="M1438.55,196.35c-2.15,4.82-3.78,13-1.28,18.9c0.03,0.06,0.05,0.12,0.07,0.19c0.74,1.66,1.81,3.13,3.3,4.29
	c4.38,3.39,8.14,4.08,17.65,1.17c3.18-0.97,8.59-3.36,11.49-5.33c13.15-8.91,22.1-4.11,32.55,0.92c6.88,3.31,13.52,6.79,22.99,3.29
	c2.13-0.78,3.94-2,5.42-3.47c0-0.01,0-0.01,0.01-0.02c0.07-0.1,0.15-0.19,0.26-0.26c3.45-3.6,5.06-8.65,4.81-12.97
	c-0.24-4.23-1.89-8.3-3.49-12.24c-0.56-1.38-1.11-2.74-1.58-4.07c-0.02-0.04-0.04-0.08-0.05-0.13c-0.01-0.03-0.02-0.07-0.03-0.1
	c-0.79-2.25-1.35-4.41-1.35-6.5c0-1.78,0.12-3.28,0.34-4.56c0.44-2.73,1.28-4.55,2.09-6.32c0.13-0.29,0.27-0.59,0.41-0.89
	c0.03-0.09,0.06-0.18,0.1-0.25c1.22-2.79,2.29-6.15,1.92-13.64c-0.26-5.39-3.94-12.12-7.49-18.64c-4.98-9.1-10.12-18.51-6.17-24.98
	c1.58-2.59,3.59-4.11,5.97-4.53c4.08-0.7,7.68,2.2,7.82,2.32c0.28,0.22,0.41,0.56,0.38,0.91c-0.49,4.32-0.9,16.25,3.08,19.56
	c1.08,0.9,2.44,1.09,4.15,0.57c1.52-0.45,2.57-1.39,3.22-2.86c3.13-7.1-4.35-23.01-4.43-23.16c-0.13-0.29-0.13-0.61,0-0.89
	s0.39-0.48,0.69-0.56c10.07-2.48,8.39-17.81,8.37-17.97c-0.06-0.52,0.29-1.01,0.79-1.12c0.52-0.11,1.04,0.18,1.21,0.68
	c0.03,0.08,2.87,8.35,7.97,10.34c1.81,0.71,3.67,0.53,5.67-0.56c0.02-0.01,0.05-0.02,0.07-0.04c1.06-0.58,1.86-1.92,2.3-3.88
	c0.54-2.36,0.52-5.58-0.13-9.13c-0.89-4.83-2.94-10.3-6.34-15.06c-6.38-8.95-11.7-9.65-16.84-10.32c-2.46-0.33-5.02-0.67-7.57-1.91
	c-3.25-1.58-5.69-3.64-8.06-5.64c-3.13-2.65-5.84-4.94-9.73-5.43c-4.5-0.56-7.11,0.91-10.13,2.6c-2.55,1.43-5.17,2.91-9.12,3.31
	c-6.15,0.61-10.05-0.38-13.18-1.18c-2.96-0.75-5.1-1.3-8.05-0.35c-4.3,1.38-6.17,5.46-8,9.42c-1.01,2.2-1.96,4.28-3.31,5.91
	c-1.57,1.9-3.65,3.23-5.86,4.64c-3.23,2.06-6.56,4.2-8.67,8.36c-0.88,1.73-1.14,3.53-1.12,5.38c0.01,0.02,0.01,0.04,0.01,0.06
	c0,0.02,0,0.03,0,0.05c0.03,1.65,0.29,3.35,0.57,5.09c0.63,4.04,1.28,8.23-0.71,12.62c-1.51,3.33-3.08,5.57-4.46,7.55
	c-2.04,2.89-3.52,4.98-3.68,9.02c-0.19,4.62,1.19,7.36,2.63,10.26c1.32,2.64,2.68,5.37,2.73,9.44c0.08,6.42-2.3,10.19-4.6,13.82
	c-2.1,3.32-4.28,6.76-4.65,12.46c-0.37,5.64,0.8,8.58,1.95,11.41c1.09,2.72,2.23,5.54,1.88,10.37c-0.05,0.69-0.12,1.36-0.24,2
	c0,0.01,0,0.02-0.01,0.04c-0.58,3.61-1.95,6.5-3.39,9.54C1439.32,194.7,1438.93,195.51,1438.55,196.35z"/>
<path class="st17" d="M1486.54,299.75c2.4,11.42-0.55,20.12-2.29,23.94c-1.16-3.65-3.47-10.87-5.43-16.77
	c-0.76-2.29-2.35-3.97-4.03-4.33l2.5-3.11C1480.74,300.2,1483.83,300.29,1486.54,299.75z"/>
<path class="st17" d="M1460.4,304.47c-1.59,0.68-4.28,2.31-7.06,6.05c-1.43,1.93-2.77,4.46-4.06,6.91
	c-1.83,3.47-3.73,7.06-5.76,8.66c-1.89-3.86-8.39-18.11-7.81-29.35c0.33-6.46,1.97-11.04,3.79-14.19c1.98-3.41,4.15-5.15,5.11-5.8
	c0.15,0.11,0.31,0.23,0.45,0.33c0.34,0.98,1.47,4.29,2.9,8.61c0.03,0.08,0.07,0.16,0.11,0.25
	C1451.82,291.61,1458.23,301.23,1460.4,304.47z"/>
<g>
	<path class="st16" d="M1532.14,339.03c0.92,0.39,1.35,1.45,0.96,2.37c-0.39,0.92-1.45,1.35-2.41,0.94l-3.19-1.15
		c0.73-0.95,1.22-2.09,1.37-3.34L1532.14,339.03z"/>
	<path class="st16" d="M1526.84,336.51c0.01,0.15,0.02,0.32,0.02,0.48c0,1.48-0.67,2.81-1.73,3.71c-0.8,0.67-1.82,1.08-2.95,1.1
		c-0.15-0.04-0.32-0.04-0.47,0c-2.5-0.18-4.47-2.27-4.47-4.81c0-2.65,2.15-4.81,4.81-4.81
		C1524.54,332.18,1526.6,334.09,1526.84,336.51z"/>
	<path class="st16" d="M1526.04,355.76c0.19,0.44,0.19,0.94-0.01,1.38c-0.19,0.44-0.54,0.78-0.98,0.97
		c-0.44,0.19-0.94,0.18-1.43-0.03l-3.6-1.31c0.73-0.95,1.21-2.09,1.35-3.34l3.7,1.34C1525.51,354.97,1525.86,355.31,1526.04,355.76z
		"/>
	<path class="st16" d="M1518.56,349.97c0.51,0.76,0.8,1.68,0.8,2.66c0,2.35-1.69,4.3-3.92,4.73c-0.29,0.05-0.6,0.08-0.91,0.08
		c-2.65,0-4.81-2.15-4.81-4.81c0-2.65,2.16-4.81,4.81-4.81c1.62,0,3.05,0.8,3.92,2.02C1518.49,349.89,1518.52,349.93,1518.56,349.97
		z"/>
	<path class="st16" d="M1518.01,370.51c0.6,0.26,1.01,0.81,1.08,1.44c-2.02,0.4-4.04,0.74-6.05,1.03c0.94-0.98,1.58-2.23,1.79-3.62
		L1518.01,370.51z"/>
	<path class="st16" d="M1512.87,368.08c0.01,0.06,0.01,0.11,0.01,0.18c0,2.66-2.16,4.81-4.82,4.81c-2.65,0-4.81-2.15-4.81-4.81
		s2.16-4.81,4.81-4.81c1.66,0,3.13,0.85,4,2.12c0.03,0.04,0.05,0.07,0.07,0.11c0.41,0.64,0.67,1.39,0.73,2.2c0,0.07,0,0.13,0.01,0.2
		C1512.87,368.08,1512.87,368.08,1512.87,368.08z"/>
</g>
<path class="st16" d="M1533.38,170.55c-0.61,1.33-1.18,2.69-1.54,4.49c1.16,0.4,3.37,1.24,6.21,2.64l1.43-1.85
	C1536.56,174.17,1534.53,172,1533.38,170.55z"/>
<g>
	<path class="st26" d="M1522.29,111.81c-3.33,5.45,1.53,14.33,6.22,22.92c3.67,6.71,7.46,13.66,7.75,19.53
		c0.37,7.61-0.67,11.23-1.91,14.14c0.79,1.13,3.22,4.23,7.14,6.15c1.72,0.84,3.74,1.44,6.03,1.57c3.23,0.18,5.52-0.59,6.78-2.27
		c1.43-1.89,1.37-4.78,0.68-6.8c-0.87-2.57-0.91-4.69-0.1-6.31c0.61-1.23,1.66-2.09,3.11-2.58c0.96-0.32,1.58-1.05,1.65-1.96
		c0.09-1.03-0.53-2.02-1.63-2.66c-1.12-0.02-2.38-0.11-3.77-0.28c-0.57-0.07-0.97-0.58-0.9-1.14c0.06-0.57,0.58-0.98,1.14-0.91
		c1.52,0.18,2.78,0.26,3.83,0.27c3.54,0.06,4.72-0.65,5.12-1.15c0.6-0.77,0.09-2.1-0.32-3.16l-0.13-0.37
		c-1.62-4.42-0.74-6.41-0.63-6.62c0.14-0.3,0.43-0.52,0.76-0.56c4.27-0.66,6.77-1.75,7.67-3.35c1.09-1.94-0.13-4.87-1.55-8.27
		c-0.9-2.14-1.91-4.58-2.45-7.1c-1.73-8.01-1.54-13.63-1.39-18.15c0.09-2.66,0.16-4.86-0.16-6.92c-2.13,0.87-4.23,0.91-6.25,0.12
		c-3.21-1.25-5.57-4.37-7.09-7.07c-0.07,1.2-0.23,2.51-0.51,3.87c-1.15,5.7-4.02,9.48-8.32,11.01c1.71,3.88,6.99,16.92,3.96,23.79
		c-0.9,2.01-2.4,3.36-4.5,4c-2.39,0.72-4.43,0.4-6.07-0.97c-5.09-4.24-4.16-17.69-3.88-20.76c-0.95-0.63-3.31-1.98-5.75-1.56
		C1525.07,108.56,1523.54,109.76,1522.29,111.81z"/>
	<path class="st26" d="M1644.05,255.6l-9.17,15.13c4.64-1.16,14.56-2.74,22.97,2.02c5.48,3.11,9.32,8.39,11.42,15.7l8.1-25.62
		c0.07-0.22,0.22-0.41,0.41-0.54c0.03-0.03,3.71-2.56,7.34-8.34c3.27-5.21,7.49-14.83,7.35-28.32l-13.1-0.95
		c0.42,6.03,0.5,11.46,0.5,11.92c-0.01,0.57-0.46,1.02-1.03,1.02c-0.01,0-0.01,0-0.01,0c-0.57,0-1.03-0.46-1.02-1.04
		c0-0.12,0.02-5.54-0.52-12.33c-0.3-3.73-0.76-7.89-1.48-11.8c-0.01-0.01-0.01-0.03-0.01-0.04c0-0.01,0-0.02,0-0.03
		c-0.53-2.8-1.18-5.47-2-7.79c-0.03-0.06-0.06-0.13-0.08-0.21c-0.64-1.77-1.38-3.33-2.25-4.56c-2.18-3.1-3.92-4.87-5.27-5.86
		c-1.98-1.43-3.12-1.2-3.55-1.01c-0.15,0.07-0.34,0.2-0.46,0.57c-0.05,0.15-0.09,0.33-0.11,0.52c-0.21,1.82,0.94,5.35,2.98,9.11
		c0.11,0.22,0.15,0.45,0.09,0.69c0,0.02,0,0.05-0.01,0.08c0,0.03,0,0.07-0.01,0.1c-0.01,0.06-0.02,0.11-0.05,0.16
		c0.01,0.01,0,0.02,0,0.02c-0.24,1.09-0.92,4.74-0.52,8.09c0.02,0.07,0.03,0.14,0.02,0.23c0,0.04,0,0.07-0.01,0.12
		c0,0.01,0,0.03-0.01,0.04c-0.01,0.05-0.02,0.1-0.04,0.14c-0.03,0.11-0.09,0.22-0.18,0.31c-0.03,0.05-0.07,0.1-0.12,0.12
		c-0.03,0.05-0.07,0.08-0.11,0.1c-0.09,0.06-4.49,2.95-7.87,9.71c-3.03,6.06-5.22,15.23-2.72,28.24c0.1,0.57-0.27,1.1-0.82,1.21
		c-0.06,0.02-0.12,0.02-0.2,0.02c-0.48,0-0.92-0.34-1.01-0.84c-2.42-12.66-0.25-22.55,2.56-28.9l-13.52-0.98
		c-8.54,17.94,3.3,32.42,3.42,32.55C1644.25,254.74,1644.29,255.22,1644.05,255.6z"/>
</g>
<path class="st7" d="M1527.36,309.85c2.33,5.58,1.72,12.72-1.79,21.26c-1.03-0.63-2.23-0.98-3.52-0.98c-3.79,0-6.88,3.08-6.88,6.88
	c0,3.25,2.26,5.98,5.29,6.69l-1.48,3.69c-1.21-1.01-2.75-1.63-4.44-1.63c-3.79,0-6.88,3.08-6.88,6.88c0,3.64,2.85,6.63,6.43,6.86
	l-1.46,3.64c-1.22-1.08-2.82-1.74-4.58-1.74c-3.78,0-6.88,3.08-6.88,6.88c0,2.4,1.5,5.07,4.3,6.37c-5.87,0.67-15.18,2.07-21.22,1.86
	c4.03-7.53,23.11-43.2,28.56-55.12c2.32-5.05,2.75-9.13,1.31-12.11c-1.29-2.66-3.65-3.49-4.19-3.65l-7.07-3.09l-1.21-5.02
	c-0.07-0.31-0.29-0.56-0.58-0.69l-5.8-2.63c0.65-0.92,1.18-1.87,1.59-2.78l23.1,10.64C1520.01,302.04,1524.93,304.03,1527.36,309.85
	z"/>
<path class="st27" d="M1503.51,232.02c5.96,7.64,1.92,13.44,0.52,15.06c-3.24-1.07-5.5-1.06-7.09,0.01
	c-1.69,1.15-2.49,3.35-2.62,7.13c-0.11,3.37-1.55,4.56-3.53,6.2c-1.38,1.14-2.95,2.44-4.15,4.68c-0.45,0.84-0.76,1.75-1.09,2.72
	c-0.99,2.95-2.02,6.01-7.33,7.58c-6.08,1.8-11.92-2.47-11.98-2.52c-0.22-0.16-0.49-0.24-0.76-0.2c-0.27,0.04-0.52,0.19-0.68,0.41
	c-3.48,4.7-10.89,6.12-16.85,3.26c-1-0.48-1.93-1.05-2.76-1.72c-5.96-4.66-7.78-13.63-4.86-24.71
	c4.89-18.48,15.53-20.91,20.78-20.91c1.71,0,2.86,0.26,3.03,0.3c0.32,0.08,0.65,0,0.91-0.21c5.36-4.44,13-6.49,20.97-5.63
	C1493.42,224.29,1499.96,227.49,1503.51,232.02z"/>
<path class="st28" d="M1638.38,137.96c-1.18,1.96-1.54,3.7-1.03,5.2c0.39,1.17,1.27,2.05,2.08,2.68c0.42-3.13,1.03-5.89,1.66-8.18
	c1.22-4.39,2.5-7.07,2.65-7.37c0.3-0.6,0.99-0.88,1.63-0.69c0.05,0.03,5.97,1.82,8.45-2.07c0.27-0.42,0.75-0.65,1.24-0.63
	c0.5,0.04,0.94,0.34,1.14,0.8c0.03,0.03,1.75,3.78,5.82,5.22c3.01,1.07,6.57,0.6,10.56-1.4c0.38-0.18,0.82-0.19,1.2,0
	c0.38,0.18,0.65,0.52,0.75,0.93c0.01,0.07,1.8,7.4,12.68,7.21c0.46,0.01,0.97,0.27,1.21,0.71c0.23,0.44,0.22,0.98-0.05,1.4
	c-1.44,2.24-5.03,8.79-4.22,12.11c0.15,0.64,0.48,1.07,0.99,1.37c2.39,1.36,5.58-2.14,5.62-2.18c0.35-0.41,0.91-0.56,1.43-0.41
	c2.27,0.72,6.3,3.81,5.24,10.42c-0.9,5.52-5.31,7.86-8.41,8.54v0.01c0.23,1.89,0.61,4.31,1.2,6.94c6.05-2,10.01-5.02,11.73-8.99
	c2.46-5.7-0.48-11.58-0.5-11.63c-0.18-0.35-0.19-0.76-0.05-1.12c2.64-6.71,0.08-10.67-1.93-12.56c-0.97-0.91-1.81-1.35-1.9-1.4
	c-0.52-0.24-0.82-0.8-0.75-1.37c0.04-0.33,0.8-7.77-7.16-10.37c-0.38-0.14-0.8-0.24-1.24-0.35c-19.23-4.56-25.6-10.13-27.67-12.96
	c-5.92,4.65-14.51,4.71-15.86,4.69c-3.09,0.65-5.22,2.04-6.37,4.15c-2.29,4.2-0.04,10.03-0.01,10.09
	C1638.64,137.16,1638.59,137.6,1638.38,137.96z"/>
<g>
	<path class="st29" d="M1647.66,146.18l1.11,0.28l-0.48-1.04c-1.49-3.23-3.43-5.17-4.8-6.23l-0.68-0.52l-0.2,0.83
		c-0.53,2.22-0.93,4.3-1.22,6.36l-0.13,0.95l0.89-0.36C1643.79,145.77,1645.64,145.68,1647.66,146.18z"/>
	<path class="st29" d="M1693.46,192.27c-2.91-5.55-6.18-20.81-6.18-20.81l1.52-2.1c1.67-0.43,5.63-1.92,6.4-6.63
		c0.8-4.9-1.76-6.92-2.89-7.56l-0.31-0.17l-0.26,0.24c-1.27,1.18-4.55,3.75-7.72,1.96c-1.05-0.59-1.76-1.56-2.05-2.8
		c-0.88-3.55,1.7-8.95,3.31-11.85l0.36-0.65l-0.75-0.06c-7.68-0.63-10.83-4.93-12.02-7.44l-0.2-0.42l-0.43,0.18
		c-4.03,1.74-7.72,2.04-10.98,0.89c-3.01-1.07-4.97-3.16-6.09-4.74l-0.32-0.44l-0.4,0.37c-2.83,2.6-6.96,2.11-8.61,1.77l-0.39-0.08
		l-0.15,0.37c-0.41,1.01-1.04,2.68-1.69,4.86l-0.1,0.35l0.31,0.19c1.8,1.14,5.06,3.92,6.72,9.7c1.08,3.76,1.29,8.17,0.63,13.12
		l-0.07,0.55H1662c0.49,0,0.88,0.39,0.88,0.88c0,0.48-0.39,0.88-0.88,0.88h-11.42h-0.53c-0.26,0-0.5-0.11-0.67-0.32
		c-0.16-0.19-0.23-0.45-0.19-0.71c0.57-3.41,0.72-6.56,0.45-9.36l-0.06-0.67c0,0-0.13-2.56-0.13-4c0-0.57-1.85-0.44-1.51-0.9
		l-1.52,0.49l-0.9-0.06c-2.46-0.17-3.7,1.13-3.95,1.43l-0.18,0.09l-0.02,0.27c-0.62,6.97-0.01,13.83,1.78,20.39l-0.01,0l0.13,0.45
		c0,0.01,0,0.01,0,0.02l0.13,0.46l0.01,0c0.45,1.57,0.95,3.09,1.49,4.48c1.41,3.66,3.59,6,6.66,7.14l0.11,0.05l-3.9,8.63
		c0,0,5.06,4.74,13.07,5.27c0,0-0.82-3.17,1.36-3.96c2.18-0.79,8.08,4.67,8.08,4.67S1684.91,196.97,1693.46,192.27z M1648.54,173.44
		c0.17-0.24,0.44-0.36,0.71-0.36c0.18,0,0.35,0.05,0.51,0.16c0.2,0.14,5.06,3.49,12.94-0.09c0.44-0.2,0.97,0,1.17,0.44
		c0.1,0.21,0.1,0.45,0.02,0.67c-0.08,0.22-0.25,0.39-0.46,0.49c-2.63,1.2-5.24,1.81-7.74,1.81c-4.38,0-6.94-1.87-6.96-1.89
		C1648.33,174.38,1648.25,173.83,1648.54,173.44z M1667.98,148.38c-0.42-0.08-0.83-0.11-1.23-0.11c-2.98,0-5.06,1.93-5.06,1.93
		c-0.39,0.33-0.94,0.3-1.26-0.05c-0.16-0.17-0.25-0.39-0.24-0.63c0.01-0.23,0.11-0.44,0.28-0.6c1.76-1.64,6.3-3.93,11.09-0.99
		l0.25,0.16c0.01,0.01,0.02,0.01,0.03,0.02l0.05,0.03c0.8,0.47,1.3,1.32,1.3,2.24c0,1.44-1.17,2.62-2.62,2.62
		c-1.45,0-2.62-1.17-2.62-2.62c0-0.45,0.12-0.89,0.34-1.28l0.34-0.59L1667.98,148.38z M1657.23,144.36
		c0.01-0.24,0.11-0.45,0.29-0.62c0.08-0.08,8.72-7.96,19.27-0.05c0.39,0.29,0.47,0.83,0.17,1.23c-0.27,0.37-0.83,0.46-1.23,0.17
		c-3.18-2.38-6.14-3.18-8.68-3.18c-4.87,0-8.15,2.92-8.35,3.11l0,0c-0.35,0.33-0.91,0.3-1.24-0.04
		C1657.3,144.82,1657.22,144.6,1657.23,144.36z"/>
</g>
<g>
	<g>
		<path d="M1521.69,291.28c1.05,3.42,8.58-0.77,7.36-3.65S1520.64,287.86,1521.69,291.28z"/>
	</g>
	<g>
		<path d="M1534.27,286.79c1.05,3.42,8.58-0.77,7.36-3.65C1540.41,280.26,1533.22,283.37,1534.27,286.79z"/>
	</g>
	<polygon points="1537.18,271.8 1538.51,265.57 1526.19,269.2 1524.81,275.94 	"/>
</g>
<g>
	<path class="st1" d="M1519.23,244.69c0,0,14.41,2.88,13.11-2.93C1531.04,235.95,1519.23,244.69,1519.23,244.69"/>
	<path class="st1" d="M1515.39,252.88c0,0,10.84,9.92,12.73,4.28S1515.39,252.88,1515.39,252.88"/>
	<path class="st1" d="M1513.76,238.76c0,0,13.72-5.24,9.53-9.47C1519.1,225.07,1513.76,238.76,1513.76,238.76"/>
</g>
<path d="M1669.65,643.23c0,0,31.54,7.4,68.14-0.38c0,0-19.45-3.48-28.21-7.13c-8.75-3.65-19.45-6.81-19.45-6.81L1669.65,643.23z"/>
<path d="M1705.12,126.05c0,0-8.42-0.86-12.63-6.05l-2.7,8.96c0,0,8.21,2.59,8.53,12.53l2.27,1.94L1705.12,126.05z"/>
<circle class="st30" cx="1670.59" cy="150.38" r="1.73"/>
<circle class="st30" cx="1646.63" cy="149.63" r="1.73"/>
<path class="st2" d="M1535.23,154.31c-0.65-13.23-20.15-32.66-13.82-43.03c4.87-7.98,12.27-1.95,12.27-1.95s-2.8,24.67,8.57,21.22
	c10.9-3.31-0.58-27.45-0.58-27.45c11.1-2.73,9.15-19.08,9.15-19.08s5.3,15.76,15.19,10.32c5.19-2.86,4.23-18.29-3.83-29.58
	c-9.74-13.63-17.25-8.88-24.8-12.55c-7.48-3.63-10.92-10.26-18.11-11.17c-8.73-1.1-11.1,5.06-19.49,5.9
	c-11.68,1.17-14.85-3.6-21.45-1.48c-7.18,2.3-8.09,11.18-11.79,15.66s-10.95,5.89-14.65,13.19c-3.7,7.3,2.42,15.08-1.28,23.25
	c-3.7,8.18-7.94,9.75-8.23,16.95c-0.37,9.22,5.25,11.62,5.35,19.75c0.15,11.93-8.44,13.96-9.25,26.21
	c-0.74,11.31,4.52,12.21,3.83,21.78c-0.39,5.44-2.68,9.2-4.69,13.68c-2.92,6.53-4.9,18.95,2.41,24.61
	c5.73,4.44,11.51,3.54,18.81,1.31c8.38-2.56,17.18-10.3,25.19-10.2c14.99,0.19,24.73,15.36,41.67,9.1
	c7.56-2.79,11.56-10.85,11.17-17.74c-0.48-8.56-6.5-16.41-6.5-22.99C1530.36,168.13,1536.01,170.27,1535.23,154.31z"/>
<path class="st2" d="M1565.99,94.34c1.55,6.13-1.11,12.78,1.81,26.35c2.06,9.56,11.04,17.56-4.52,19.95c0,0-0.84,1.68,0.68,5.8
	c0.9,2.44,3.37,7.32-9.59,5.81"/>
<path class="st2" d="M1558.32,152.52c3.28,1.74,3.03,5.61,0,6.62s-3.62,3.87-2.35,7.58s0.93,10.94-8.5,10.44
	c-9.43-0.51-14.29-8.66-14.29-8.66"/>
<path class="st2" d="M1530.67,175.74c0,0,16.15,4.81,28.78,20.18"/>
<line class="st2" x1="1540.86" y1="175.74" x2="1538.33" y2="179.01"/>
<path class="st2" d="M1531.71,186.34c20.63,5.72,43.28,15.54,67.25,31.42c0,0-19.9,10.84-15.05,41.29c0,0,10.66,19.31,5.33,41.11
	s-23.9,32.94-23.9,32.94c-19.06,41.67-32.16,55.84-32.16,55.84c-67.2,20.96-106.88,0-106.88,0s-31.46-79.28-22.9-143.86
	c0,0-5.25-32.28,14.06-51.91"/>
<path class="st2" d="M1442.07,184.16c-16.01,3.98-24.61,9.02-24.61,9.02s-31.91,0.56-43.17,67.7s4.27,114.88,45.41,111"/>
<path class="st2" d="M1534.04,214.33c0,0,13.42,3.62,25.22,9c0,0,8.76,55.21-31.6,147.36c0,0-46.5,15.79-95.86-0.76
	c0,0-29.04-87.18-13.08-148.25c0,0,9.46-3.86,17.64-5.99"/>
<path class="st2" d="M1583.91,259.05c0,0-5.22-8.06-23.77-13.44"/>
<path class="st2" d="M1598.96,217.76c0,0,36.84,25.13,16.27,143.38"/>
<path class="st2" d="M1621.48,289.45l11.13-16.97c0,0,30.5-10.99,36.53,19.83c-17.38,36.57-35.11,91.18-63.13,91.18
	c-36.8,0-40.68-50.38-40.68-50.38"/>
<path class="st2" d="M1426.3,388.95c0,0-39.58,82.66,42.56,89.96c81.98,7.28,150.5-17.69,187.6-37.99"/>
<path class="st2" d="M1459.5,397.43c0,0-8.89,13.37-8.41,31.8c0.53,20.46,11.49,46.4,35.51,50.8"/>
<path class="st2" d="M1533.18,388.95c0,0-3.3,22.24,26.9,32.27c38.56,12.81,66.87-25.74,91.34-18.6
	c11.9,3.47,17.96,12.92,19.24,34.24c1.3,21.58-0.54,80.75-0.54,80.75"/>
<path class="st2" d="M1543.52,374.44c0,0,12.83-3.07,35.13-4.6"/>
<line class="st2" x1="1671.38" y1="642.31" x2="1691.21" y2="629.2"/>
<path class="st2" d="M1420.97,403.4c0,0,37.27,26.11,114.96,0"/>
<path class="st2" d="M1545.08,476.67c-10.64-14.52-14.07-46.34-14.07-46.34c-29.06,9.11-55.97,4.28-55.97,4.28
	s0.68,36.59,22.3,45.42"/>
<path class="st2" d="M1457.23,477.23c-23.37-14.52-19.17-44.69-19.17-44.69s-17.08,2.06-21.19-6.29"/>
<path class="st2" d="M1464.38,228.32c0,0-18.21-4.53-25.06,21.35c-7.76,29.33,18.2,34.97,26.3,24.04c0,0,6.22,4.66,12.89,2.68
	c7.62-2.26,7.3-7.6,9.03-10.8c2.78-5.13,7.59-4.92,7.8-11.33c0.21-6.41,2.46-8.34,8.98-5.99c0,0,7.59-7.16,0-16.89
	C1496.7,221.62,1476.42,218.35,1464.38,228.32z"/>
<path class="st2" d="M1504.32,248.28c0,0,3.21,6.95,2.03,13.68c-1.18,6.74-3.68,10.29-0.89,19.14c1.59,5.04-3.07,6.2-7.99,3.85
	c0,0-0.82,17.91-20.58,13.38l-3.64,4.53c0,0-2.13,2.45-0.51,8.54c1.09,4.1,6.66,23.29,3.74,35.29c-2.35,9.62-9.14,15.85-9.14,15.85"
	/>
<path class="st2" d="M1472.43,304.7c1.19-2.3,4.24-0.98,5.41,2.54c2.77,8.33,6.18,19.13,6.18,19.13s7.21-11.17,3.3-27.87"/>
<line class="st2" x1="1506.09" y1="263.29" x2="1500.31" y2="255.31"/>
<polyline class="st2" points="1497.11,263.29 1499.68,269.84 1493.85,268.34 "/>
<path class="st2" d="M1445.92,276.43c0,0,1.28,3.69,3.01,8.94c4.56,6.9,13.06,19.65,13.06,19.65s-2.71,16.02,0,30.07
	c2.71,14.05,6.38,23.02,5.83,41.75"/>
<path class="st2" d="M1462,305.01c0,0-3.77,0.65-7.84,6.12c-3.75,5.05-6.82,14.38-11.07,16.44c0,0-9.12-17.4-8.42-30.89
	c0.86-16.55,9.97-21.16,9.97-21.16"/>
<path class="st2" d="M1438.56,282.08c0,0-11.48,3.39-22.82,11.78"/>
<path class="st2" d="M1493.66,294.55l7,3.18l1.33,5.52l7.61,3.33c0,0,7.96,1.94,2.28,14.36c-6.18,13.5-29.26,56.33-29.26,56.33"/>
<circle class="st2" cx="1522.05" cy="337" r="5.85"/>
<path class="st2" d="M1508.69,352.63c0-3.23,2.62-5.85,5.85-5.85c3.23,0,5.85,2.62,5.85,5.85s-2.62,5.85-5.85,5.85
	C1511.31,358.48,1508.69,355.86,1508.69,352.63z"/>
<path class="st2" d="M1502.21,368.26c0-3.23,2.62-5.85,5.85-5.85c3.23,0,5.85,2.62,5.85,5.85s-2.62,5.85-5.85,5.85
	C1504.83,374.1,1502.21,371.49,1502.21,368.26z"/>
<line class="st2" x1="1515.62" y1="358.48" x2="1512.96" y2="365.07"/>
<line class="st2" x1="1521.87" y1="342.96" x2="1519.33" y2="349.28"/>
<path class="st2" d="M1496.32,290l24.02,11.06c0,0,16.45,6.37,5.9,31.1"/>
<path class="st2" d="M1528.02,336.44l4.52,1.65c1.44,0.61,2.12,2.27,1.51,3.72c-0.61,1.44-2.27,2.12-3.72,1.51l-4.52-1.65"/>
<path class="st2" d="M1520.96,352.18l4.52,1.65c1.44,0.61,2.12,2.27,1.51,3.72s-2.27,2.12-3.72,1.51l-4.52-1.65"/>
<path class="st2" d="M1513.89,367.92l4.52,1.65c1.26,0.53,1.94,1.87,1.68,3.17"/>
<path class="st2" d="M1632.61,272.48l10.56-17.4c0,0-12.26-14.18-3.67-33.4"/>
<path class="st2" d="M1669.14,292.3l9.22-29.15c0,0,15.14-10.19,15.14-37.69"/>
<path class="st2" d="M1678.84,236.6c0,0,0.17-27.81-6.52-37.37c-4.93-7.03-8.22-8.04-10.08-7.21c-2.55,1.13-0.66,6.89,1.92,11.63
	c0,0-1.14,4.61-0.6,8.87c0,0-16.52,10.45-11.05,39.01"/>
<polyline class="st2" points="1678.84,223.63 1712.81,226.15 1722.95,104.43 1628.47,99.65 1620.16,219.29 1655.66,221.92 "/>
<path class="st2" d="M1675.47,178.34c5.59-3.17,10.13-7.24,11.74-10.75c0,0,1.09,19.14,9.05,29s18.23,9.14,18.23,9.14"/>
<path class="st2" d="M1657.43,183.77c-6.15,0.15-10.86-2.17-13.32-8.56c-9.17-23.89,0.84-44.31,0.84-44.31s6.92,2.21,10-2.64
	c0,0,5.02,11.1,18.23,4.49c0,0,1.9,8.46,14.03,8.28c0,0-8.04,12.41-2.75,15.41c3.45,1.96,7.31-2.47,7.31-2.47s5.46,1.7,4.3,8.89
	c-1.15,7.09-8.59,7.63-8.59,7.63"/>
<path class="st2" d="M1642.46,137.94c0,0,10.8,4.66,7.61,24h11.94"/>
<path class="st2" d="M1658.1,144.39c0,0,8.07-7.57,18.16,0"/>
<path class="st2" d="M1649.66,147.63c-6.12-3.09-8.8,0.6-8.8,0.6s-8.41-3.19-3.65-10.97c0,0-5.37-13.5,7.53-16.1
	c0,0,10.47,0.35,16.33-5.45c0,0,2.25,7.75,27.63,13.76c10.56,2.5,9.43,12.2,9.43,12.2s8.91,4.41,4.5,15.66
	c0,0,8.57,16.62-13.45,22.99"/>
<path class="st2" d="M1661.08,149.56c0,0,4.82-4.48,10.48-0.6"/>
<path class="st2" d="M1647.81,169.08c0,0,2.49-1.79,6.39,0.75c0,0,3.91-2.65,10.27-0.05"/>
<path class="st2" d="M1649.24,173.96c0,0,5.28,3.87,13.82,0"/>
<path class="st2" d="M1651.34,182.87c0,0-4.03,20.2-30.12,20.98"/>
<path class="st2" d="M1671.34,197.28c7.77-0.06,17.21-2.2,22.12-5.01"/>
<path class="st2" d="M1676.56,208.32c6.71-0.89,17.27-3.98,23.94-7.53"/>
<path class="st2" d="M1641.04,197.76c0,0,5.67,8.3,21.81,10.68"/>
<path class="st2" d="M1700.87,143.33c0,0,8.17-23.17,4.53-39.78"/>
<path class="st2" d="M1689.9,129.79c0,0,4.99-9.42,2.76-26.9"/>
<path class="st2" d="M1644.75,121.16c0,0-1.48-10.04,2.32-20.57"/>
<path class="st2" d="M1632.53,551.42c0,0-12.98,36.05-5.59,62.68c0,0,18.12-4.29,33.96-2.21c8.36,1.1,15.84,2.07,52.26,15.96
	c36.43,13.89,64.57,7.62,64.57,7.62s2.79-5.8-6.55-9.43c-74.57-28.98-74.73-74.62-74.73-74.62"/>
<path class="st2" d="M1626.94,614.1l3.2,28.21c0,0,10.39,2.06,20.81,2.06s20.44-2.06,20.44-2.06l2.04-17.58
	c22.8,3.8,33.72,11.96,61.5,17.22c29.36,5.55,42.8-0.18,42.8-0.18v-6.29"/>
<circle class="st2" cx="1551.01" cy="139.63" r="0.77"/>
<path class="st2" d="M1415,241.89c-6.07,0.82-11.59,3.2-11.59,3.2"/>
<path class="st2" d="M1629.45,369.84c7.64,0.49,15.68,1.22,24.08,2.25c55.32,6.78,46.1,84.23,46.1,84.23l-3.19,95.1l-16.67,2.03
	l-9.67-35.84l-9.22,35.84l-28.36-2.03c0,0-8.89-72.19-4.25-97.09"/>
<g>
	<g>
		<g>
			<path class="st11" d="M1538.28,263.58c-2.17,0.78-4.35,1.55-6.52,2.33c-1.43,0.51-2.87,1.02-4.3,1.54
				c-0.63,0.23-1.75,0.42-2.25,0.91c-0.4,0.4-0.43,1.17-0.54,1.68c-0.24,1.15-0.48,2.3-0.72,3.45c-0.66,3.2-1.33,6.39-1.99,9.59
				c-0.44,2.13-0.88,4.25-1.32,6.38c-0.29,1.41,1.87,2.02,2.17,0.6c1.43-6.87,2.85-13.73,4.28-20.6c-0.26,0.26-0.52,0.52-0.79,0.79
				c4.19-1.5,8.39-2.99,12.58-4.49C1540.24,265.26,1539.65,263.09,1538.28,263.58L1538.28,263.58z"/>
		</g>
	</g>
	<g>
		<g>
			<path class="st11" d="M1520.6,291.58c0.3,0.93,0.95,1.63,1.89,1.94c0.81,0.27,1.73,0.18,2.55-0.03c1.77-0.46,3.47-1.59,4.54-3.08
				c0.46-0.64,0.8-1.48,0.73-2.28c-0.08-0.96-0.59-1.84-1.45-2.31c-1.65-0.91-3.79-0.33-5.34,0.52
				C1521.68,287.35,1519.95,289.34,1520.6,291.58c0.17,0.58,0.79,0.95,1.38,0.79c0.58-0.16,0.96-0.8,0.79-1.38
				c-0.02-0.08-0.04-0.17-0.06-0.25c-0.05-0.18,0.01,0.28,0,0.02c0-0.07-0.01-0.14,0-0.22c0-0.04,0.01-0.08,0.01-0.12
				c0-0.19-0.05,0.22-0.01,0.09c0.04-0.15,0.07-0.3,0.12-0.45c0.01-0.03,0.02-0.06,0.03-0.09c0.04-0.13-0.11,0.21-0.04,0.1
				c0.05-0.08,0.09-0.17,0.13-0.26c0.07-0.12,0.15-0.29,0.26-0.38c-0.24,0.22-0.02,0.03,0.04-0.03c0.06-0.07,0.12-0.14,0.19-0.2
				c0.12-0.13,0.26-0.25,0.39-0.36c0.11-0.09,0.2-0.14,0.03-0.03c0.09-0.06,0.18-0.13,0.27-0.19c0.32-0.21,0.65-0.4,1-0.56
				c0.04-0.02,0.09-0.04,0.13-0.06c0,0-0.22,0.08-0.1,0.04c0.08-0.03,0.16-0.06,0.24-0.09c0.18-0.07,0.36-0.12,0.55-0.17
				c0.17-0.04,0.34-0.08,0.51-0.11c0.04-0.01,0.09-0.01,0.13-0.02c0.13-0.03-0.14,0.03-0.13,0.02c0.06-0.04,0.22-0.02,0.29-0.02
				c0.16-0.01,0.32-0.01,0.47,0c0.05,0,0.3,0.03,0.09,0.01c-0.21-0.02,0.08,0.02,0.14,0.03c0.06,0.02,0.13,0.04,0.19,0.06
				c0.25,0.07-0.02,0.04-0.04-0.02c0.01,0.02,0.16,0.09,0.19,0.1c0.23,0.14-0.01,0.06-0.01-0.02c0,0.03,0.13,0.12,0.15,0.14
				c0.01,0.01,0.06,0.08,0.07,0.08c-0.02,0-0.12-0.21-0.1-0.12c0.02,0.05,0.08,0.14,0.11,0.19c0.13,0.19-0.05-0.23-0.01-0.02
				c0.01,0.06,0.03,0.14,0.05,0.2c0.07,0.21,0-0.25-0.01-0.07c0,0.06,0,0.12,0,0.18c0,0.3,0.05-0.16,0.01-0.01
				c-0.04,0.13-0.07,0.26-0.11,0.39c-0.07,0.22,0.11-0.19,0.01-0.03c-0.04,0.08-0.08,0.16-0.12,0.23c-0.08,0.13-0.17,0.26-0.25,0.38
				c-0.1,0.16,0.17-0.2,0,0c-0.06,0.07-0.11,0.13-0.17,0.2c-0.24,0.26-0.51,0.5-0.79,0.72c0.19-0.15,0.04-0.03-0.06,0.04
				c-0.07,0.05-0.14,0.1-0.21,0.14c-0.16,0.11-0.32,0.21-0.49,0.3c-0.16,0.09-0.31,0.17-0.48,0.25c-0.07,0.04-0.15,0.07-0.23,0.1
				c-0.11,0.06,0.11-0.05,0.11-0.04c-0.06,0.03-0.13,0.05-0.19,0.08c-0.35,0.13-0.72,0.23-1.09,0.3c-0.28,0.05,0.14-0.01-0.01,0
				c-0.09,0-0.18,0.01-0.27,0.02c-0.09,0-0.17,0-0.26,0c-0.03,0-0.06,0-0.08-0.01c-0.2-0.01,0.07-0.01,0.11,0.02
				c-0.04-0.03-0.42-0.13-0.46-0.12c0.1-0.02,0.26,0.13,0.04,0.01c-0.05-0.03-0.27-0.18-0.1-0.05c0.17,0.12-0.01-0.02-0.06-0.06
				c-0.02-0.02-0.04-0.05-0.07-0.08c-0.07-0.06,0.14,0.24,0.07,0.08c-0.03-0.06-0.07-0.13-0.11-0.19c-0.1-0.15,0.07,0.11,0.04,0.11
				c-0.01,0-0.06-0.16-0.06-0.17c-0.19-0.58-0.78-0.95-1.38-0.79C1520.82,290.35,1520.42,291,1520.6,291.58z"/>
		</g>
	</g>
	<g>
		<g>
			<path class="st11" d="M1537.5,264.36c-1.25,6.01-2.5,12.02-3.75,18.03c-0.18,0.86-0.36,1.71-0.53,2.57
				c-0.29,1.41,1.87,2.02,2.17,0.6c1.25-6.01,2.5-12.02,3.75-18.03c0.18-0.86,0.36-1.71,0.53-2.57
				C1539.96,263.55,1537.79,262.94,1537.5,264.36L1537.5,264.36z"/>
		</g>
	</g>
	<g>
		<g>
			<path class="st11" d="M1533.18,287.09c0.3,0.93,0.95,1.63,1.89,1.94c0.81,0.27,1.73,0.18,2.55-0.03
				c1.77-0.46,3.47-1.59,4.54-3.08c0.46-0.64,0.8-1.48,0.73-2.28c-0.08-0.96-0.59-1.84-1.45-2.31c-1.65-0.91-3.79-0.33-5.33,0.52
				C1534.26,282.86,1532.53,284.85,1533.18,287.09c0.17,0.58,0.79,0.95,1.38,0.79c0.58-0.16,0.96-0.8,0.79-1.38
				c-0.02-0.08-0.04-0.17-0.06-0.25c-0.05-0.18,0.01,0.28,0,0.02c0-0.07-0.01-0.14,0-0.22c0-0.04,0.01-0.08,0.01-0.12
				c0-0.19-0.05,0.22-0.01,0.09c0.04-0.15,0.07-0.3,0.12-0.45c0.01-0.03,0.02-0.06,0.03-0.09c0.04-0.13-0.11,0.21-0.04,0.1
				c0.05-0.08,0.09-0.17,0.13-0.26c0.07-0.12,0.15-0.29,0.26-0.38c-0.24,0.22-0.02,0.03,0.04-0.03c0.06-0.07,0.12-0.14,0.19-0.2
				c0.12-0.13,0.26-0.25,0.39-0.36c0.11-0.09,0.2-0.14,0.03-0.03c0.09-0.06,0.18-0.13,0.27-0.19c0.32-0.21,0.65-0.4,1-0.56
				c0.04-0.02,0.09-0.04,0.13-0.06c0,0-0.22,0.08-0.1,0.04c0.08-0.03,0.16-0.06,0.24-0.09c0.18-0.07,0.36-0.12,0.55-0.17
				c0.17-0.04,0.34-0.08,0.51-0.11c0.04-0.01,0.09-0.01,0.13-0.02c0.13-0.03-0.14,0.03-0.13,0.02c0.06-0.04,0.22-0.02,0.29-0.02
				c0.16-0.01,0.32-0.01,0.47,0c0.05,0,0.3,0.03,0.09,0.01c-0.21-0.02,0.08,0.02,0.14,0.03c0.06,0.02,0.13,0.04,0.19,0.06
				c0.25,0.07-0.02,0.04-0.04-0.02c0.01,0.02,0.16,0.09,0.19,0.1c0.23,0.14-0.01,0.06-0.01-0.02c0,0.02,0.13,0.12,0.15,0.14
				c0.01,0.01,0.06,0.08,0.07,0.08c-0.02,0-0.12-0.21-0.1-0.12c0.02,0.05,0.08,0.14,0.11,0.19c0.13,0.19-0.05-0.23-0.01-0.02
				c0.01,0.06,0.03,0.14,0.05,0.2c0.07,0.21,0-0.25-0.01-0.07c0,0.06,0,0.12,0,0.18c0,0.3,0.05-0.16,0.01-0.01
				c-0.04,0.13-0.07,0.26-0.11,0.39c-0.07,0.22,0.11-0.19,0.01-0.03c-0.04,0.08-0.08,0.16-0.12,0.23c-0.08,0.13-0.17,0.26-0.25,0.38
				c-0.1,0.16,0.17-0.2,0,0c-0.06,0.07-0.11,0.13-0.17,0.2c-0.24,0.26-0.51,0.5-0.79,0.72c0.19-0.15,0.04-0.03-0.06,0.04
				c-0.07,0.05-0.14,0.1-0.21,0.14c-0.16,0.11-0.32,0.21-0.49,0.3c-0.16,0.09-0.31,0.17-0.48,0.25c-0.07,0.04-0.15,0.07-0.23,0.1
				c-0.11,0.06,0.11-0.05,0.11-0.04c-0.06,0.03-0.13,0.05-0.19,0.08c-0.35,0.13-0.72,0.23-1.09,0.3c-0.28,0.05,0.14-0.01-0.01,0
				c-0.09,0-0.18,0.01-0.27,0.02c-0.09,0-0.17,0-0.26,0c-0.03,0-0.06,0-0.08-0.01c-0.2-0.01,0.07-0.01,0.11,0.02
				c-0.04-0.03-0.42-0.13-0.46-0.12c0.1-0.02,0.26,0.13,0.04,0.01c-0.05-0.03-0.27-0.18-0.1-0.05c0.17,0.12-0.01-0.02-0.06-0.06
				c-0.02-0.02-0.04-0.05-0.07-0.08c-0.07-0.06,0.14,0.24,0.07,0.08c-0.03-0.06-0.07-0.13-0.11-0.19c-0.1-0.15,0.07,0.11,0.04,0.11
				c0,0-0.06-0.16-0.06-0.17c-0.19-0.58-0.78-0.95-1.38-0.79C1533.4,285.86,1532.99,286.51,1533.18,287.09z"/>
		</g>
	</g>
	<g>
		<g>
			<path class="st11" d="M1536.62,270.31c-3.47,1.28-6.94,2.57-10.42,3.85c-0.5,0.18-1,0.37-1.5,0.55
				c-0.57,0.21-0.96,0.76-0.79,1.38c0.15,0.55,0.81,1,1.38,0.79c3.47-1.28,6.94-2.57,10.42-3.85c0.5-0.18,1-0.37,1.5-0.55
				c0.57-0.21,0.96-0.76,0.79-1.38C1537.86,270.55,1537.2,270.1,1536.62,270.31L1536.62,270.31z"/>
		</g>
	</g>
</g>
<path class="st2" d="M1661.17,196.62c-8.88-1.7-13.64-5.5-13.64-5.5"/>
<g>
	<path class="st2" d="M1519.23,244.69c0,0,14.41,2.88,13.11-2.93C1531.04,235.95,1519.23,244.69,1519.23,244.69"/>
	<path class="st2" d="M1515.39,252.88c0,0,10.84,9.92,12.73,4.28S1515.39,252.88,1515.39,252.88"/>
	<path class="st2" d="M1513.76,238.76c0,0,13.72-5.24,9.53-9.47C1519.1,225.07,1513.76,238.76,1513.76,238.76"/>
</g>
<polyline class="st2" points="1621.6,647.75 1606.42,642.31 1580.71,657.6 "/>
<path d="M1451.96,314.6c0,0,3.92,3.37,9.02,1.46l0.91-10.57C1461.9,305.49,1456.06,305.94,1451.96,314.6z"/>
<path d="M1479.03,311.41c0,0-1.09,3.56-5.47,3.37c0,0-4.01-10.76,0.09-11.39C1477.76,302.75,1479.03,311.41,1479.03,311.41z"/>
<path d="M1476.8,346.32c0,0-8.13,1.24-12.63-2.1l3.06,17.22C1467.24,361.44,1475.27,355.13,1476.8,346.32z"/>
<path d="M1499.16,291.44c0,0-0.38,3.32-1.99,4.65l-3.04-1.14l2.85-4.37L1499.16,291.44z"/>
<ellipse transform="matrix(0.1614 -0.9869 0.9869 0.1614 1009.1466 2096.1016)" class="st2" cx="1737.9" cy="454.28" rx="7.37" ry="18.59"/>
<ellipse transform="matrix(0.3937 -0.9192 0.9192 0.3937 631.6163 1923.641)" class="st2" cx="1774.14" cy="482.99" rx="7.09" ry="18.68"/>
<path class="st2" d="M1756.98,475.61c0,0,18.65-37.69,33.83-32.02c15.71,5.86,0.49,46.78,0.49,46.78"/>
<path class="st2" d="M1719.56,451.09c0,0,8.8-41.21,24.81-39.35c16.56,1.92,11.87,45.45,11.87,45.45"/>
</svg>
