<?xml version="1.0" encoding="utf-8"?>
<!-- Generator: Adobe Illustrator 27.5.0, SVG Export Plug-In . SVG Version: 6.00 Build 0)  -->
<svg version="1.1" id="mandolin" xmlns="http://www.w3.org/2000/svg" xmlns:xlink="http://www.w3.org/1999/xlink" x="0px" y="0px"
	 viewBox="0 0 1920 866" style="enable-background:new 0 0 1920 866;" xml:space="preserve">
<style type="text/css">
	.st0{fill:#FFDC96;}
	.st1{fill:#FFFFC8;}
	.st2{fill:#FFFF82;}
	.st3{fill:#966E46;}
	.st4{fill:none;stroke:#000000;stroke-width:2;stroke-linecap:round;stroke-linejoin:round;stroke-miterlimit:10;}
	.st5{fill:#FABE46;}
</style>
<g>
	<polygon class="st0" points="1138.3,427.96 1140.69,440.5 1109.74,467.18 1107.09,453.27 	"/>
	<path class="st0" d="M1107.09,453.27l2.66,13.92l-16.9-15.15c0,0,0.06-5.19-3.09-7.65s-6.56-0.76-6.56-0.76l-10.23-9.93
		c0,0,1.24-5.03-3.4-7.78c-3.32-1.86-6.44-0.59-6.44-0.59l-8.12-7.94l-1.61-11.48L1107.09,453.27z"/>
	<path class="st0" d="M1053.39,405.91l1.61,11.48c0,0-34.3-19.09-66.6-23.42c0,0-0.02-13.65-33.66-28.79l-1.77-9.29L1053.39,405.91z
		"/>
	<polygon class="st1" points="1077.16,385.37 1053.39,405.91 953.47,355.27 987.61,329.68 	"/>
	<polygon class="st1" points="1077.16,385.37 1053.23,405.26 1107.09,453.27 1137.86,427.17 	"/>
	<circle class="st2" cx="1094.95" cy="408.25" r="3.99"/>
	<circle class="st2" cx="1114.75" cy="423.74" r="3.8"/>
	<circle class="st2" cx="1102.25" cy="434.35" r="3.8"/>
	<circle class="st2" cx="1082.04" cy="419.23" r="3.9"/>
	<circle class="st2" cx="1065.88" cy="431.99" r="7.13"/>
	<circle class="st2" cx="1085.66" cy="450.39" r="7.23"/>
	<path class="st2" d="M1095.67,397.85l11.86,8.39c0,0,4.26-5.56-2.52-10.17C1099.69,392.53,1095.67,397.85,1095.67,397.85z"/>
	<path class="st2" d="M1115.51,411.49l11.97,8.46c0,0,3.2-5.06-2.24-9.74C1120.78,406.13,1115.51,411.49,1115.51,411.49z"/>
	<path class="st3" d="M971.35,373.63c0,0,13.67,8.39,17.05,20.34c0,0-42.31,36.43-97.49,7.56c-43.25-29.22-29.56-75.29-29.56-75.29
		s0.79,36.68,49.76,48.74C953.69,382.17,971.35,373.63,971.35,373.63z"/>
	<path class="st0" d="M971.35,373.63c0,0-11.72-6.73-16.61-8.45l-1.27-9.91l34.13-25.58l19.71,12.28c0,0,14.24-42.04-42.15-60.29
		c-54.84-15.31-88.99,15.58-88.99,15.58s-39,34.73,13.05,68.78C916.09,383.61,961.82,376.87,971.35,373.63z"/>
	<ellipse transform="matrix(0.9429 -0.3331 0.3331 0.9429 -53.8973 329.218)" cx="933.11" cy="321.78" rx="28.11" ry="19.66"/>
	<path d="M929.96,413.36c0,0,77.46,19.17,123.38,3.99c0,0-29.51-20.05-65.21-23.2C988.12,394.15,970.27,411.3,929.96,413.36z"/>
	<polygon class="st4" points="987.55,329.69 953.22,355.42 1052.98,405.28 1077.09,385.42 	"/>
	<line class="st4" x1="915.7" y1="289.39" x2="879.21" y2="314.49"/>
	<polyline class="st4" points="1138.29,427.38 1140.85,440.84 1109.76,467.55 1107.06,453.39 	"/>
	<path class="st4" d="M1055.39,417.9c0,0-34.92-20.81-66.9-23.86c0,0-3.08-11.9-16.95-20.31c-8.94-5.42-16.47-8.63-16.47-8.63
		l-1.85-9.68"/>
	<path class="st4" d="M1007.53,342.12c0,0,14.14-35.67-34.63-57.32c-23.45-10.41-66.17-10.42-90.9,7.89
		c-27.39,20.29-25.41,50.94,0.31,69.32c37.51,26.79,89.22,11.71,89.22,11.71"/>
	<path class="st4" d="M988.49,394.04c0,0-44.6,35.37-94.86,8.73c-35.73-18.94-40.37-65.7-28.99-88.38"/>
	<polyline class="st4" points="908.98,294.01 1071.56,389.27 1094.33,404.39 	"/>
	<polyline class="st4" points="902.66,299.39 1067.08,393.09 1111.96,426.87 	"/>
	<polyline class="st4" points="895.11,303.92 1063.1,396.95 1104.25,431.1 	"/>
	<polyline class="st4" points="887.72,309.15 1057.78,401.33 1078.15,418.61 	"/>
	<circle class="st4" cx="1065.9" cy="432.28" r="7.34"/>
	<circle class="st4" cx="1082.13" cy="419.47" r="4.07"/>
	<circle class="st4" cx="1095.09" cy="408.38" r="4.07"/>
	<circle class="st4" cx="1102.3" cy="434.67" r="4.07"/>
	<circle class="st4" cx="1114.72" cy="423.84" r="4.07"/>
	<circle class="st4" cx="1085.58" cy="450.64" r="7.34"/>
	<path class="st4" d="M1095.64,398.13c1.06-1.41,2.63-2.45,4.5-2.81c3.98-0.76,7.82,1.85,8.58,5.83c0.36,1.89-0.04,3.75-0.99,5.27"
		/>
	<path class="st4" d="M1115.51,411.76c1.06-1.36,2.59-2.36,4.42-2.71c3.98-0.76,7.82,1.85,8.58,5.83c0.35,1.85-0.02,3.66-0.92,5.15"
		/>
	<polyline class="st4" points="1063.65,425.3 1055.39,417.9 1052.98,405.28 1107.06,453.39 1138.29,427.38 1077.09,385.42 	"/>
	<line class="st4" x1="1083.64" y1="443.54" x2="1073.06" y2="433.89"/>
	<line class="st4" x1="1109.76" y1="467.55" x2="1092.8" y2="451.91"/>
	
		<ellipse transform="matrix(0.9429 -0.3331 0.3331 0.9429 -53.8973 329.218)" class="st4" cx="933.11" cy="321.78" rx="28.11" ry="19.66"/>
	<path class="st5" d="M918.94,350.2c0,0-9.44-0.76-13.2,11.09s-6.74,21.99-11.86,29.13s-15.86,14.89-18.49,25.58
		c-2.63,10.69,0.46,24.63,15.1,30.84c7.9,4.04,12.47,1.2,12.47,1.2s14.17,11.16,29.6-5.3c15.43-16.46,0.21-38.12-1.54-41.65
		c-1.76-3.53-4.7-11.68-2.97-23.03s2.38-24.01-5.46-26.76l-3.01,7.01L918.94,350.2z"/>
	<path class="st3" d="M922.27,332.73c0,0,2.45-2.79,5.91-1.34s1.9,5.19,1.71,5.46s-7.28,13.25-9.41,18.25c0,0-1.65-4.35-0.84-11.78
		C920.46,335.91,922.27,332.73,922.27,332.73z"/>
	<g>
		<path class="st4" d="M922.1,333.8c-4.23,13.18-2.7,25.34-2.7,25.34s4.18-12.73,10.61-22.9"/>
		
			<ellipse transform="matrix(0.3755 -0.9268 0.9268 0.3755 268.1914 1067.4098)" class="st4" cx="926.19" cy="334.69" rx="3.35" ry="4.12"/>
		<path class="st4" d="M901.66,448.01c0,0,9.57-1.5,11.57-11.94"/>
		<path class="st4" d="M922.96,351.41c8.99,4.27,6.02,18.92,4.58,29.54c-2.78,20.46,13.34,27.22,11.53,46.81
			c-1.57,17-20.81,31.24-37.41,20.24c-16.12,3.4-30.14-15.14-26.46-31.38c3.41-15.06,21.47-21.46,25.92-41.36
			c3.28-14.67,8.6-25.57,17.53-24.97"/>
	</g>
	<g>
		<path class="st5" d="M893.64,374.57c0,0,8.87,3.95,6.42,16.46s-4.74,23.09-3.64,32.03c1.1,8.94,6.95,21.19,4.06,32.09
			s-12.51,21.93-28.74,20.31c-9.09-0.25-11.8-5.05-11.8-5.05s-18.23,3.07-24.02-19.32s18.53-34.39,21.85-36.7
			c3.32-2.31,9.96-8.2,13.99-19.25c4.03-11.06,9.66-22.77,18.06-21.39l-0.74,7.78L893.64,374.57z"/>
		<path class="st3" d="M899.22,357.22c0,0-0.83-3.72-4.66-4.11c-3.83-0.39-4.26,3.73-4.22,4.07s0.04,15.49-0.5,21.04
			c0,0,3.62-3.11,6.54-10.18C899.3,360.97,899.22,357.22,899.22,357.22z"/>
		<g>
			<path class="st4" d="M898.85,358.26c-2.67,13.93-10.02,24.12-10.02,24.12s2.5-13.51,1.71-25.81"/>
			
				<ellipse transform="matrix(0.1149 -0.9934 0.9934 0.1149 437.2203 1204.8271)" class="st4" cx="894.74" cy="357.05" rx="3.43" ry="4.22"/>
			<path class="st4" d="M861.12,471.03c0,0-7.87-6.06-4.54-16.43"/>
			<path class="st4" d="M889.43,373.69c-10.18-0.58-14.71,14.06-18.63,24.32c-7.56,19.77-25.37,17.92-33.37,36.44
				c-6.94,16.06,3.37,38.32,23.7,36.59c12.83,10.98,34.54,1.19,39.22-15.22c4.33-15.22-8.77-29.85-2.99-49.93
				c4.26-14.8,4.83-27.22-3.5-31.08"/>
		</g>
	</g>
	<path d="M896.4,463.81c0,0,17.6,2.41,25.46-13.39c0,0-10.76,3.87-20.2-2.4C901.66,448.01,901.4,457.09,896.4,463.81z"/>
</g>
</svg>
