<?xml version="1.0" encoding="utf-8"?>
<!-- Generator: Adobe Illustrator 27.5.0, SVG Export Plug-In . SVG Version: 6.00 Build 0)  -->
<svg version="1.1" id="capitone" xmlns="http://www.w3.org/2000/svg" xmlns:xlink="http://www.w3.org/1999/xlink" x="0px" y="0px"
	 viewBox="0 0 1920 866" style="enable-background:new 0 0 1920 866;" xml:space="preserve">
<style type="text/css">
	.st0{fill:#9664B4;}
	.st1{fill:#F0645A;}
	.st2{fill:none;stroke:#000000;stroke-width:2;stroke-linecap:round;stroke-linejoin:round;stroke-miterlimit:10;}
</style>
<g>
	<path class="st0" d="M891.43,703.73c0,0-13.3,14.22-13.3,30.29c0,16.07,14.59,35.83,30.1,35.83c15.51,0,30.84-21.05,29.92-39.89
		c-0.92-15.7-11.63-24.19-11.63-24.19s-14.59-23.27-2.03-34.91c13.48-9.6,38.97,1.11,64.82-5.17c25.85-6.28,42.47-16.62,46.91-29.92
		c4.43-13.3-0.74-31.03-7.2-44.14c-6.46-13.11-16.81-32.5,10.16-51.53c26.96-19.02,57.06-19.58,57.06-19.58s-21.79-9.42-42.47-0.18
		c-20.68,9.23-38.25,16.91-47.85,39.26c0,0-0.9-7.05-1.08-12.04c0,0-11.83,11.37-9.98,27.63c1.85,16.25,16.07,34.35,15.7,41.18
		c-0.37,6.83-8.86,14.77-14.96,16.62c0,0,21.76-3.87,27.48-10.88c0,0,1.88,8.85-7.91,17.53c-9.79,8.68-33.98,12-56.14,12.37
		c-22.16,0.37-45.98,2.03-57.62,15.51c0,0-1.66-8.13,0-16.62C901.4,650.91,873.7,660.51,891.43,703.73z"/>
	<g>
		<path class="st1" d="M900.78,669.72c0,0-4.16-20.25,10.03-28.38c14.19-8.14,45.98-4.73,62.63-6.24
			c16.65-1.51,36.97,0.06,50.35-13.84c0,0-1.35,21.6-29.35,27.85s-53.36,0.57-70.57,5.68C906.65,659.88,900.78,669.72,900.78,669.72
			z"/>
		<path class="st1" d="M1005.98,560.73c0,0-12.9-38.14,54.51-42.5C1060.5,518.23,1015.25,530.07,1005.98,560.73z"/>
		<path class="st1" d="M934.08,716.46L967,703.4c0,0-4.35,13.25,2.27,21.19c0,0-9.27,8.7-8.51,18.54l-23.65-1.89
			C937.11,741.24,939.95,727.81,934.08,716.46z"/>
		<path class="st1" d="M882.05,716.08l-32.35-12.11c0,0,3.41,10.97-2.65,21.19c0,0,9.46,7.76,8.33,17.98l23.46-1.51
			C878.83,741.62,877.13,728.19,882.05,716.08z"/>
	</g>
	<path d="M874.15,713.52c0,0,2.57,7.61-3.85,13.85c0,0,4.95,5.23,3.21,13.94l5.13-0.09c0,0-1.74-14.49,3.67-24.94L874.15,713.52z"/>
	<path d="M941.65,713.52c0,0-2.57,7.61,3.85,13.85c0,0-4.95,5.23-3.21,13.94l-5.13-0.09c0,0,1.74-14.49-3.67-24.94L941.65,713.52z"
		/>
	<path class="st2" d="M897.9,751.03c0,0,3.05,6.88,10.01,3.43c6.96,3.45,10.01-3.43,10.01-3.43"/>
	<g>
		<g>
			<line class="st2" x1="911.75" y1="744.04" x2="914.54" y2="741.25"/>
		</g>
		<g>
			<line class="st2" x1="904.63" y1="744.04" x2="901.84" y2="741.25"/>
		</g>
	</g>
	<path class="st2" d="M934.24,716.21l33.47-12.75c0,0-5.78,10.06,2.11,21.72c0,0-9.83,5.54-8.91,18.08l-23.16-1.71"/>
	<line class="st2" x1="938.07" y1="728.32" x2="969.82" y2="725.18"/>
	<path class="st2" d="M902.39,650.72c-30.75,12.75-10.85,53.48-10.85,53.48s-13.23,10.78-13.23,29.75
		c0,16.74,13.54,35.71,29.88,35.71c15.74,0,29.88-18.98,29.88-35.71c0-13.76-6.25-23.24-11.03-28.48c0,0-14.69-22.17-2.91-33.2
		c10.21-9.56,34.38-3.33,55.05-5.29c20.67-1.96,39.69-8.91,49.33-19.38c15.41-16.74,9.86-39.73-0.92-57.57
		c-19.2-31.78,4.41-59.48,69.86-69.86c0,0-9.89-4.74-27.32-3.43"/>
	<path class="st2" d="M882.14,716.21l-33.47-12.75c0,0,5.78,10.06-2.11,21.72c0,0,9.83,5.54,8.91,18.08l23.16-1.71"/>
	<line class="st2" x1="878.31" y1="728.32" x2="846.56" y2="725.18"/>
	<path class="st2" d="M1070.14,516.75c-75.41,4.38-75.41,37.27-49.54,84.63c25.87,47.36-81.55,27.19-107.42,39.46
		s-5.26,48.67-5.26,48.67"/>
	<circle class="st2" cx="919.15" cy="728.13" r="0.84"/>
	<circle class="st2" cx="897.23" cy="728.13" r="0.84"/>
	<path class="st2" d="M901.22,669.69c0,0,3.1-17.23,53.75-17.67c30-0.26,70.47-0.88,69.61-37.82"/>
	<path class="st2" d="M1006.35,566.65c0,0-2.19-16.68,17.82-31.04c10.9-7.83,29.47-15.58,45.98-18.86"/>
	<path class="st2" d="M1005.99,546.26c0,0-14.85,12.16-10.48,32.45c6.2,28.81,29.89,38.9,0.63,54.32"/>
</g>
</svg>
