<?xml version="1.0" encoding="utf-8"?>
<!-- Generator: Adobe Illustrator 27.5.0, SVG Export Plug-In . SVG Version: 6.00 Build 0)  -->
<svg version="1.1" id="naked" xmlns="http://www.w3.org/2000/svg" xmlns:xlink="http://www.w3.org/1999/xlink" x="0px" y="0px"
	 viewBox="0 0 1920 866" style="enable-background:new 0 0 1920 866;" xml:space="preserve">
<style type="text/css">
	.st0{fill:#FF6E78;}
	.st1{fill:#9664B4;}
	.st2{fill:#FFFF82;}
	.st3{fill:none;stroke:#000000;stroke-width:2;stroke-linecap:round;stroke-linejoin:round;stroke-miterlimit:10;}
</style>
<g>
	<polygon class="st0" points="187.37,321.99 180.48,310.72 167.02,310.1 159.67,321.99 166.71,334.51 179.7,334.2 	"/>
	<polygon class="st0" points="146.99,310.25 132.75,310.1 125.71,321.99 132.28,334.04 145.9,333.89 152.94,322.46 	"/>
	<path class="st1" d="M127.9,317.14l4.85-7.04c0,0,1.72-9.39,4.54-13.77c0,0,21.29,8.92,36,0c0,0,4.38,6.73,4.23,13.3l2.97,1.1
		l3.91,5.95l21.13,1.41c0,0-1.41-20.97-17.06-19.56c0,0-5.16-26.61-32.08-20.35c0,0-23.32-7.98-31.77,19.72
		c0,0-14.56-1.72-17.84,20.35L127.9,317.14z"/>
	<path class="st1" d="M134.16,340.62l-37.41,13.46c0,0-9.39,4.38-7.98,14.09c1.41,9.7,20.5,5.01,25.51,14.87
		s-5.95,40.38,10.49,45.86c16.43,5.48,26.92-15.96,26.76-30.36c-0.16-14.4-16.9-30.21-18.62-37.25s2.35-9.86,4.54-11.43
		L134.16,340.62z"/>
	<path class="st1" d="M178.61,340.93l-4.38,10.49c0,0,8.61,5.79,3.6,16.75c-5.01,10.96-14.71,28.8-3.76,45.7
		c10.96,16.9,22.02,15.72,30.06,8.65c9.83-8.65-7.65-38.79-0.92-45.99s20.57-11.4,20.32-19.47c-0.22-7.04-11.74-10.17-18.47-11.27
		C198.33,344.69,178.61,340.93,178.61,340.93z"/>
	<g>
		<path class="st2" d="M185.34,316.98l2.03,5.01l-6.42,11.9l-1.25,0.31l-1.1,6.73l33.49,6.42c0,0,11.27,2.5,10.96,11.11
			c-0.31,8.61-20.5,12.36-21.44,21.13c-0.94,8.76,12.54,37.65,0.78,44.29c-15.44,8.72-26.29-2.03-32.4-20.66
			c-6.1-18.63,10.8-34.43,9.23-41.16c-1.57-6.73-2.03-10.02-5.01-10.64c0,0-7.2,9.08-16.9,9.08c-9.7,0-16.59-6.26-19.88-10.64
			c0,0-6.04,4-5.16,9.08c1.3,7.53,18,24.42,18.94,35.22c0.94,10.8-5.01,39.91-25.35,34.9s-4.7-41.01-12.68-47.58
			s-22.73-5.55-24.42-16.28c-1.92-12.25,27.31-17.65,44.86-25.23l-1.35-5.92l-6.57-12.05l2.19-4.85c0,0-36.62-0.63-57.28,7.98
			s-27.86,20.03-7.2,42.26s33.81,31.3,33.81,31.3s19.88,53.22,33.81,71.06c0,0-30.99,43.98,6.89,85.61c0,0-17.53,9.08-20.82,37.88
			c0,0-22.69,28.8-10.96,34.28c4.85,2.5,6.89-2.03,6.89-2.03s16.9,2.82,23.16-9.39s15.65-23.48,15.65-23.48l24.1,41.9
			c0,0-3.91,18.63,15.65,38.03c0,0,16.57,52.51,20.03,67.41c3.46,14.89-13.3,40.43-26.33,49.74s-25.53,14.89-3.99,28.46
			c0,0,1.06,18.35,23.67-1.06c23.4-23.94,46.81-20.48,48.14-35.91c0.8-10.11-12.5-26.86-12.5-26.86s18.35-79.26-15.96-108.79
			l-9.7-78.07c0,0,93.09-24.74,101.07-65.43c7.71-36.71-89.36-32.18-89.36-32.18s-9.06-8.88-22.59-10.33c0,0,5.97-17.46,5.82-24.45
			c0,0,17.75-18.63,5.53-36.24c0,0,45.4-36.24,45.98-55.16S226.79,319.91,185.34,316.98z"/>
		<path class="st2" d="M177.51,309.63c0,0-0.51-7.58-4.15-12.38c0,0-19.62,7.18-36.08-0.92c0,0-3.83,7.13-4.54,13.77l14.24,0.16
			l6.29,11.29l-7.39,12.34l-12.7,0.32c0,0,0,25.03,22.7,26.49c22.7,1.46,23.8-26.49,23.8-26.49l-12.99,0.31l-7.04-12.52l6.42-11.94
			L177.51,309.63z"/>
	</g>
	<path class="st0" d="M228.83,510.06c0,0,1.97-14.06-5.18-21.83c-7.15-7.77-17.76-11.71-26.14-8.14c0,0-26.02-7.28-40.69,14.8
		c-14.67,22.07-1.23,41.93,7.64,44.89c8.88,2.96,21.7-0.99,25.4-7.77c0,0-0.99,6.41,11.71,8.02c8.01,1.36,10.97,9.99,17.14,4.93
		s-0.86-23.18-3.95-29.35C214.78,515.61,221.93,511.66,228.83,510.06z"/>
	<path class="st1" d="M187.16,508.7c0-3,2.43-5.43,5.43-5.43s5.43,2.43,5.43,5.43c0,3-2.43,5.43-5.43,5.43
		S187.16,511.7,187.16,508.7z"/>
	<path class="st1" d="M212.93,507.22c0-2.66,2.15-4.81,4.81-4.81s4.81,2.15,4.81,4.81c0,2.66-2.15,4.81-4.81,4.81
		S212.93,509.88,212.93,507.22z"/>
	<path class="st3" d="M112.23,626.23c17.8,1.31,21.94-7.75,21.94-7.75s15.66-35.52,43.6-41.85
		c164.92-37.37,136.53-86.36,136.53-86.36c-11.39-22.78-87.81-20.41-87.81-20.41s-8.81-8.37-23-10.06c0,0,6.5-15.4,6.5-25.03
		c0,0,17.33-16.6,5.53-35.86c0,0,55.83-42.59,44.04-62.09c-11.79-19.49-74.12-19.49-74.12-19.49"/>
	<path class="st3" d="M127.55,317.33c0,0-62.32,0-74.12,19.49c-11.79,19.49,44.04,62.09,44.04,62.09s8.15,32.36,33.73,72
		c0,0-30.37,38.37,5.76,84.41"/>
	<polygon class="st3" points="180.63,309.93 166.6,309.93 159.59,322.07 166.6,334.22 180.63,334.22 187.64,322.07 	"/>
	<polygon class="st3" points="146.38,309.93 132.36,309.93 125.35,322.07 132.36,334.22 146.38,334.22 153.39,322.07 	"/>
	<line class="st3" x1="159.59" y1="322.07" x2="153.39" y2="322.07"/>
	<path class="st3" d="M152.46,592.44l23.97,42.48c0,0-3.79,23.37,15.16,37.27c0,0,16.68,53.4,20.23,70.06
		c3.55,16.66-15.14,40.9-35.77,54.89c-16.11,10.92,4.92,22.06,4.92,22.06"/>
	<path class="st3" d="M188.06,811.39c0,0-11.44,7.38-4.25,13.11c7.2,5.72,18.74-6.72,26.21-13.66
		c15.69-14.58,29.16-13.29,38.39-21.04c9.23-7.75,4.43-22.34-7.38-35.44c0,0,19.18-82.73-16.49-108.94c0,0-7.96-57.16-9.54-77.86"/>
	<path class="st3" d="M132.46,309.85c0,0,0.72-7.57,4.68-13.87c0,0,8.61,5.02,18.27,5.02s17.8-5.02,17.8-5.02
		c3.96,6.31,4.68,13.87,4.68,13.87"/>
	<path class="st3" d="M205.42,317.99c0,0,0-20.28-17.19-19.7c0,0-5.6-28.47-32.05-19.59"/>
	<path class="st3" d="M106.95,317.99c0,0,0-20.28,17.19-19.7c0,0,5.6-28.47,32.05-19.59"/>
	<path class="st3" d="M132.63,334.22c0,0,2.26,26.32,23.5,26.32c20.86,0,23.07-25.84,23.07-25.84"/>
	<line class="st3" x1="158.5" y1="338.15" x2="155.47" y2="338.15"/>
	<line class="st3" x1="164.98" y1="347.45" x2="148.88" y2="347.45"/>
	<path class="st3" d="M178.73,341.38l31.66,5.28c0,0,13.14,1.31,12.77,11.77c-0.36,10.24-22.19,10.49-21.51,24.66
		c0.68,14.16,14.6,37.17-3.43,43.12c-15.85,5.23-29.39-13.66-29.63-32.07s20.88-32.43,5.13-42.96"/>
	<path class="st3" d="M133.44,340.27l-34.12,12.66c0,0-12.85,3.99-10.35,14.35c2.45,10.14,24.27,5.96,26.48,20.23
		c2.21,14.27-7.01,40.06,12.19,42.33c16.88,2,26.55-19.61,23.04-38.03c-3.51-18.41-27.43-28.12-13.86-41.83"/>
	<circle class="st3" cx="182.2" cy="464.1" r="1.31"/>
	<path class="st3" d="M228.55,509.15c1.03-5.48,1.09-14.54-6.48-22.69c-10.21-10.97-24.22-6.25-24.22-6.25s-29.45-6.74-41.34,14.87
		c-11.89,21.61-3.75,44.35,15.81,45.75c9.59,0.69,21.54-7.58,17.7-19.21"/>
	<path class="st3" d="M209.27,504.06c0,0,8.8,12.1,10.68,28.52c0.87,7.59-0.28,12.76-3.21,13.49c-3.41,0.85-9.02-3.55-13.37-5.44
		c-3.66-1.59-8.75-0.82-11.25-2.84c-3.02-2.45-2.46-8.99,3.21-9.05"/>
	<circle class="st3" cx="204.69" cy="519.6" r="1.23"/>
	<circle class="st3" cx="192.26" cy="508.68" r="5.17"/>
	<circle class="st3" cx="217.35" cy="507.32" r="5.17"/>
	<path class="st3" d="M215.71,495.87c0,0-5.48-3.08-13.79,0.77c0,0-13.78-4.76-24.85,0.29"/>
	<path class="st3" d="M213.31,488.79c0,0-5.6-3.08-13.72,0.48c0,0-14.06-4.63-25.13,0.41"/>
	<path class="st3" d="M215.58,515.38c18.29-9.6,38.97-15.48,57.73-9.05"/>
	<path class="st3" d="M116.39,616.38c0,0-1.61,13.65-10.09,11.15c-8.07-2.37-0.12-20.89,10.8-33.82c0,0,3.2-53.1,46.81-38.87
		c0,0,7.1-7.24,16.42-15.22"/>
	<polygon points="218.56,512.92 213.91,512.2 214.96,515.02 218.49,513.71 	"/>
	<circle cx="204.69" cy="519.6" r="1.03"/>
</g>
</svg>
