<?xml version="1.0" encoding="utf-8"?>
<!-- Generator: Adobe Illustrator 27.5.0, SVG Export Plug-In . SVG Version: 6.00 Build 0)  -->
<svg version="1.1" id="column" xmlns="http://www.w3.org/2000/svg" xmlns:xlink="http://www.w3.org/1999/xlink" x="0px" y="0px"
	 viewBox="0 0 1920 866" style="enable-background:new 0 0 1920 866;" xml:space="preserve">
<style type="text/css">
	.st0{fill:#FFFF82;stroke:#FFFFC8;stroke-miterlimit:10;}
	.st1{fill:#FFFFC8;}
	.st2{fill:none;stroke:#000000;stroke-width:2;stroke-linecap:round;stroke-linejoin:round;stroke-miterlimit:10;}
	.st3{fill:#FFFFC8;stroke:#FFFFC8;stroke-miterlimit:10;}
	.st4{fill:#FFFF82;}
</style>
<path class="st0" d="M696.8,639.53c0.94-6.57,14.66-6.36,20.82-5.17s17.8,4.08,17.26,11c-0.63,5.13-17.47,4.2-20.6,3.76
	S696.07,644.67,696.8,639.53z"/>
<path class="st0" d="M735.26,666.08c1.24-4.98,15.1-4.13,21.44-1.44c6.33,2.69,16.94,8.52,15.24,13.84c-1.7,5.32-17.34,1.27-21-0.02
	C747.27,677.17,733.95,671.36,735.26,666.08z"/>
<path class="st1" d="M696.95,638.51c0,0,8.66-43.23,25.9-40.42c17.24,2.81,12.37,45.94,12.37,45.94s-5.19-7.63-17.56-8.99
	C702.04,632.65,696.95,638.51,696.95,638.51z"/>
<path class="st2" d="M716.93,634.77c0,0-7.46,35.71-5.55,73.4"/>
<path class="st1" d="M735.33,666.76c0,0,1.83-6.84,21.44-1.44c0,0,15.6,7.26,15.24,12.93c0,0,13-41.07-3.32-48.55
	S735.33,666.76,735.33,666.76z"/>
<path class="st2" d="M755.75,664.65c0,0-4.64,20.73-17.9,42.13"/>
<path class="st3" d="M574.64,590.16c0,0-6.79-0.96-6.14,45.07c0.12,8.29,2.74,49.89,8.96,50.8c0,0-14.12,4.42-11.99,21.54
	c2.13,17.12,32,16.46,46.34,9.44c14.34-7.01,45.2-23.27,60.96-54.17c13.9-36.47,4.92-72.89-13.66-87.44
	C640.52,560.86,600.68,550.7,574.64,590.16z"/>
<path class="st2" d="M574.31,590.19c14.9-24.86,46.88-35.71,75.08-21.09c33.19,17.21,35.22,62.42,23.29,93.13
	c-11.93,30.71-55.92,55.07-74.54,58.72c-20.87,4.1-32.44-4.08-32.99-16.39c-0.63-13.89,12.51-18.66,12.51-18.66"/>
<path class="st2" d="M574.31,590.19c4.5,0.38,8.44,21.01,8.78,47.39c0.32,24.55-1.13,47.88-5.43,48.32
	c-4.3,0.44-7.6-22.87-8.78-47.39C567.73,614.42,569.82,589.8,574.31,590.19z"/>
<path class="st2" d="M585.99,644.47c0,0,19.47,3.33,19.47,26.38c0,21.63-17.65,26.45-17.65,26.45"/>
<path class="st2" d="M614.54,653.3c-15.89-7.48-30.6-38.31-14.89-60.17c12.56-17.47,38.07-14.1,51.56,2.77
	c15.14,18.92,12.83,48.8,1.02,68.59s-33.37,31.21-56.92,29.21"/>
<path class="st2" d="M593.1,611.74c12.71,6.67,24.54,4.41,30.19-1.87c5.65-6.27,6.33-20.25,0.95-28.16"/>
<path class="st2" d="M596.12,631.09c13.38-6.78,32.55,0.69,34.27,18.74c1.23,12.91-6.29,29.5-26.79,32.42"/>
<path class="st3" d="M602.74,262.76c5.72,4.42,8.72,11.48,8.01,18.88c-0.59,6.11-3.63,11.13-8.15,13.41
	c-5.66,2.85-10.76,3.52-14.8,2.12c-2.87-1-5.21-3.06-6.81-6.12c-1.42-2.73-1.46-6.51-0.12-9.62c1.04-2.4,2.71-4.03,4.7-4.58
	c5.68-1.6,7.81,3.66,7.9,3.88c0.19,0.49,0.76,0.75,1.25,0.55c0.5-0.19,0.76-0.76,0.56-1.25c-0.95-2.47-4.32-6.71-10.24-5.06
	c-2.57,0.72-4.68,2.74-5.96,5.69c-1.59,3.69-1.52,8.01,0.18,11.28c1.65,3.18,4.03,5.41,6.92,6.67c-7.17,9.72-7.65,38.41-7.68,42.72
	c-3.83,2.82-8.01,5.17-12.58,7.06c-0.31-8.01-1.82-56.45,4.43-72.31c2.28-5.76,5.62-10.4,9.65-13.44c3.28-1.13,6.42-2.43,9.35-3.85
	C594.06,258.25,598.67,259.62,602.74,262.76z"/>
<path class="st3" d="M598.4,691.78c0.57,3.21-0.03,10.53-5.96,17.61c-0.33,0.4-0.68,0.8-1.05,1.19c-7.53,8.11-23.81,17.2-58.92,17.2
	c-36.84,0-52.94-10-59.97-18.4c-2.73-3.25-4.33-6.56-5.21-9.49c-1.03-3.45-1.07-6.38-0.76-8.12c1.42-7.89,7.6-11.93,10.15-13.29
	l-0.22,6.8c0,0.26,0.09,0.51,0.27,0.7c3.77,3.98,9.27,7.42,15.91,10.17c5.53,2.3,11.88,4.09,18.72,5.32
	c6.65,1.19,13.76,1.83,21.06,1.83c0.02,0,0.03,0,0.05,0c7.32,0,14.46-0.64,21.11-1.83c6.84-1.22,13.18-3.02,18.72-5.32
	c6.65-2.75,12.14-6.19,15.91-10.17c0.17-0.18,0.27-0.44,0.26-0.7l-0.22-6.8C590.79,679.83,596.99,683.87,598.4,691.78z"/>
<path class="st3" d="M595.07,240.91l-0.49,1.17c-3.63,3.74-26.59,8.26-62.11,8.26c-35.59,0-58.57-4.54-62.13-8.28l-0.47-1.14
	c0.61-3.86,24.31-9.11,62.6-9.11C570.7,231.82,594.39,237.06,595.07,240.91z"/>
<path class="st3" d="M593.32,245.15l-4.97,11.98c-2.84,1.38-5.9,2.63-9.1,3.72c-4.58,1.55-9.53,2.82-14.89,3.79
	c-5.1,0.93-10.6,1.6-16.51,2.01c-0.07-0.01-0.14-0.02-0.21-0.02c-0.12,0-0.23,0.02-0.33,0.06c-4.68,0.32-9.6,0.48-14.82,0.48
	c-5.22,0-10.15-0.16-14.82-0.48c-0.11-0.04-0.21-0.06-0.33-0.06c-0.08,0-0.15,0.01-0.21,0.02c-5.91-0.41-11.41-1.08-16.51-2.01
	c-5.37-0.97-10.31-2.24-14.89-3.79c-3.21-1.09-6.28-2.34-9.12-3.73l-4.96-11.97c4.67,2.34,12.47,3.6,15.74,4.12
	c12.06,1.94,28.08,3.01,45.11,3.01c17.04,0,33.05-1.07,45.11-3.01C580.86,248.75,588.65,247.49,593.32,245.15z"/>
<path class="st3" d="M586.28,677.06l0.25,7.89c-3.36,3.42-8.05,6.44-13.71,8.93l-6.3-322.74c4.34-1.78,8.34-3.97,12.05-6.57
	l7.06,292.97c-0.19,0.32-0.18,0.73,0.04,1.04L586.28,677.06z"/>
<path class="st3" d="M583.82,350.19c0.24,6.24-4.48,11.27-4.98,11.79c-0.02,0.01-0.04,0.03-0.06,0.05
	c-4.07,3.03-8.54,5.52-13.44,7.49c-0.13,0.02-0.25,0.07-0.35,0.14c-0.01,0.01-0.02,0.01-0.02,0.01c-4.58,1.8-9.53,3.16-14.88,4.06
	c-5.44,0.93-11.31,1.39-17.62,1.39s-12.18-0.46-17.63-1.39c-5.36-0.9-10.3-2.25-14.87-4.06c0,0-0.01,0-0.02-0.01
	c-0.1-0.07-0.22-0.12-0.35-0.14c-4.9-1.97-9.37-4.46-13.45-7.49c-0.02-0.02-0.04-0.04-0.06-0.05c-0.02-0.02-0.04-0.04-0.06-0.06
	c-0.72-0.77-5.14-5.67-4.91-11.73c0.16-4.25,3.08-6.48,4.26-7.22c4.27,3.12,8.95,5.69,14.08,7.68c4.5,1.77,9.34,3.1,14.56,4.01
	c0.15,0.12,0.33,0.19,0.53,0.2c0.02,0,0.04,0,0.06,0c0.11,0,0.2-0.02,0.3-0.05c5.44,0.89,11.28,1.34,17.55,1.34
	s12.11-0.45,17.55-1.34c0.09,0.03,0.19,0.05,0.29,0.05c0.02,0,0.05,0,0.07,0c0.19-0.01,0.38-0.08,0.52-0.19
	c5.22-0.91,10.07-2.24,14.57-4.01c5.12-2.01,9.81-4.56,14.08-7.69C580.74,343.71,583.66,345.94,583.82,350.19z"/>
<path class="st3" d="M575.58,264.03c-2.86,3.01-5.26,6.86-7.02,11.34c-6.69,16.97-4.79,67.96-4.55,73.77
	c-3.98,1.5-8.23,2.67-12.78,3.5c-0.43-8.94-2.43-65.28,13.95-86.18C568.84,265.79,572.3,264.98,575.58,264.03z"/>
<path class="st3" d="M564.6,371.88l6.3,322.79c-4.96,1.99-10.57,3.58-16.61,4.72l-2.99-323.9
	C556.03,374.64,560.46,373.45,564.6,371.88z"/>
<path class="st3" d="M548.58,268.54c4.89-0.35,9.5-0.88,13.84-1.6c-6.92,10.04-11.23,27.31-12.83,51.38
	c-1.09,16.37-0.49,30.83-0.29,34.65c-4.94,0.79-10.23,1.2-15.86,1.24v-68.88C541.48,284.78,548.14,277.4,548.58,268.54z"/>
<path class="st3" d="M549.36,375.81l2.99,323.92c-5.99,1.02-12.35,1.58-18.9,1.63V377.04C539.09,377,544.39,376.59,549.36,375.81z"
	/>
<path class="st3" d="M546.62,268.68c-0.51,8.11-6.79,14.76-14.15,14.76c-7.36,0-13.63-6.65-14.15-14.76
	c4.47,0.29,9.19,0.43,14.15,0.43S542.14,268.97,546.62,268.68z"/>
<path class="st3" d="M531.51,377.04v324.32c-6.55-0.05-12.91-0.61-18.9-1.63l2.98-323.93C520.55,376.59,525.86,377,531.51,377.04z"
	/>
<path class="st3" d="M531.51,285.34v68.88c-5.64-0.04-10.91-0.46-15.85-1.24c0.18-3.8,0.78-18.27-0.31-34.65
	c-1.59-24.07-5.9-41.34-12.82-51.38c4.35,0.72,8.95,1.25,13.84,1.6C516.82,277.4,523.47,284.78,531.51,285.34z"/>
<path class="st3" d="M499.77,266.47c16.37,20.89,14.38,77.23,13.95,86.18c-4.55-0.83-8.8-2-12.78-3.5c0.24-5.8,2.13-56.8-4.56-73.77
	c-1.77-4.48-4.15-8.32-7.01-11.34C492.65,264.98,496.12,265.79,499.77,266.47z"/>
<path class="st3" d="M513.65,375.48l-2.98,323.91c-6.04-1.14-11.65-2.73-16.61-4.72l6.3-322.79
	C504.5,373.45,508.91,374.64,513.65,375.48z"/>
<path class="st3" d="M494.58,276.08c6.27,15.86,4.75,64.31,4.44,72.31c-4.56-1.89-8.75-4.24-12.59-7.06
	c-0.02-4.31-0.5-33.02-7.68-42.73c2.89-1.24,5.27-3.47,6.93-6.66c1.71-3.27,1.78-7.6,0.17-11.28c-1.27-2.95-3.39-4.97-5.95-5.69
	c-5.92-1.66-9.28,2.58-10.24,5.06c-0.19,0.49,0.06,1.06,0.55,1.25c0.49,0.19,1.06-0.06,1.26-0.55c0.09-0.22,2.21-5.48,7.9-3.88
	c1.99,0.55,3.66,2.18,4.7,4.58c1.35,3.11,1.3,6.9-0.12,9.62c-1.61,3.08-3.94,5.13-6.82,6.12c-4.04,1.4-9.14,0.72-14.8-2.12
	c-4.51-2.28-7.56-7.3-8.14-13.41c-0.71-7.4,2.29-14.46,8-18.88c4.07-3.14,8.69-4.51,13.38-3.97c2.92,1.43,6.06,2.73,9.35,3.85
	C488.97,265.68,492.3,270.32,494.58,276.08z"/>
<path class="st3" d="M498.43,371.14l-6.3,322.74c-5.66-2.48-10.35-5.5-13.71-8.93l0.25-7.89l7.69-312.5
	C490.08,367.17,494.1,369.35,498.43,371.14z"/>
<path class="st3" d="M464.7,697.42l-19.13-0.21l0.08,33.49l27.99,42.41h149.43v-33.82l-27.39-31.35c0,0-10.17,21.73-63.2,21.73
	C467.11,729.67,464.7,697.42,464.7,697.42z"/>
<path class="st2" d="M532.48,268.13c16.99,0,33.15-1.62,47.09-6.36c3.31-1.13,6.5-2.43,9.55-3.93"/>
<rect x="473.64" y="739.29" class="st2" width="150.19" height="34.56"/>
<line class="st2" x1="445.11" y1="696.52" x2="473.64" y2="739.29"/>
<line class="st2" x1="596.27" y1="707.52" x2="623.83" y2="739.29"/>
<path class="st2" d="M532.48,702.34c24.45,0,45.51-6.98,55.03-17.01l-8.03-322.62"/>
<path class="st2" d="M532.48,376.07c21.36,0,36.25-5.32,47.01-13.36c0,0,5.58-5.48,5.31-12.55c-0.23-5.92-5.31-8.33-5.31-8.33
	c-10.75,8.04-25.65,13.36-47.01,13.36v-70.36"/>
<line class="st2" x1="565.53" y1="370.47" x2="571.88" y2="695.19"/>
<line class="st2" x1="550.32" y1="374.79" x2="553.32" y2="700.16"/>
<line class="st2" x1="532.48" y1="376.07" x2="532.48" y2="701.87"/>
<path class="st2" d="M587.51,677.05c0,0,9.94,3.93,11.85,14.56c1.42,7.9-3.57,37.15-66.88,37.15"/>
<path class="st2" d="M579.49,341.82c0,0,0-33.95,7.99-43.27"/>
<path class="st2" d="M547.63,267.6c0,8.99-6.78,16.81-15.15,16.81"/>
<path class="st2" d="M550.32,353.9c0,0-4.09-65.28,14.26-88.25"/>
<path class="st2" d="M532.48,230.85c35.12,0,63.59,4.58,63.59,10.23s-28.47,10.23-63.59,10.23"/>
<line class="st2" x1="596.06" y1="241.08" x2="589.11" y2="257.84"/>
<path class="st2" d="M589.11,257.84c4.86-0.6,9.83,0.77,14.22,4.16c12.25,9.46,10.43,28.51-0.29,33.92
	c-10.94,5.52-19.14,2.82-22.9-4.41c-2.9-5.57-0.38-14.03,5.17-15.59c6.63-1.86,9.07,4.47,9.07,4.47"/>
<path class="st2" d="M564.99,349.57c0,0-2.49-56.21,4.47-73.84c2.48-6.28,6.03-10.94,10.1-13.96"/>
<path class="st2" d="M532.48,268.13c-16.99,0-33.15-1.62-47.09-6.36c-3.31-1.13-6.5-2.43-9.55-3.93"/>
<path class="st2" d="M532.48,702.34c-24.45,0-45.51-6.98-55.03-17.01l8.03-322.62"/>
<path class="st2" d="M532.48,376.07c-21.36,0-36.25-5.32-47.01-13.36c0,0-5.58-5.48-5.31-12.55c0.23-5.92,5.31-8.33,5.31-8.33
	c10.75,8.04,25.65,13.36,47.01,13.36v-70.36"/>
<line class="st2" x1="499.42" y1="370.47" x2="493.07" y2="695.19"/>
<line class="st2" x1="514.63" y1="374.79" x2="511.63" y2="700.16"/>
<line class="st2" x1="532.48" y1="376.07" x2="532.48" y2="701.87"/>
<path class="st2" d="M477.44,677.05c0,0-9.94,3.93-11.85,14.56c-1.42,7.9,3.57,37.15,66.88,37.15"/>
<path class="st2" d="M485.47,341.82c0,0,0-33.95-7.99-43.27"/>
<path class="st2" d="M517.32,267.6c0,8.99,6.78,16.81,15.15,16.81"/>
<path class="st2" d="M514.63,353.9c0,0,4.09-65.28-14.26-88.25"/>
<path class="st2" d="M532.48,230.85c-35.12,0-63.59,4.58-63.59,10.23s28.47,10.23,63.59,10.23"/>
<line class="st2" x1="468.89" y1="241.08" x2="475.84" y2="257.84"/>
<path class="st2" d="M475.84,257.84c-4.86-0.6-9.83,0.77-14.22,4.16c-12.25,9.46-10.43,28.51,0.29,33.92
	c10.94,5.52,19.14,2.82,22.9-4.41c2.9-5.57,0.38-14.03-5.17-15.59c-6.63-1.86-9.07,4.47-9.07,4.47"/>
<path class="st2" d="M499.96,349.57c0,0,2.49-56.21-4.47-73.84c-2.48-6.28-6.03-10.94-10.1-13.96"/>
<polyline class="st2" points="464.43,696.52 445.11,696.52 445.11,730.94 473.64,773.85 "/>
<path class="st3" d="M571.77,751.03c0,0-2.68-34.86,6.49-34.44c9.17,0.42,14.8,26.3,16.32,36.52c1.53,10.22,2.75,35.66-5.71,37.93
	C580.42,793.3,571.76,756.53,571.77,751.03z"/>
<path class="st1" d="M606.34,718.96l-25.6-1.69c0,0,11.99,13.5,14.11,39.14c2.12,25.64-4.29,34.06-4.29,34.06l31.61-4.84
	c0,0,35,17.35,61.53,17.01s67.4-5.16,67.65-23.69c0,0,10.69-7.03,9.98-16.32c0,0,6.56-6.58,5.42-13.33c0,0,3.8-3.1,2.14-8.42
	c0,0-49.65,32.88-100.24-9.69c-35.02-29.47-33.54-63.84-33.54-63.84s-1.07-9.26-6.27-9.36s-3.03,7.85-5.7,16.5
	C619.06,692.51,607.77,707.55,606.34,718.96z"/>
<path class="st1" d="M645.12,636.6c0,0,34.77,24.44,53.58,29.93c0,0-5.29,9.56,7.08,19.97c10.08,8.48,17.63,4.97,20.48,3.22
	c0,0,24.23,38.07,38.17,47.96c0,0-25.42-8.53-65.75-42.47S645.12,636.6,645.12,636.6z"/>
<path class="st1" d="M639.89,639.54c0,0-20.15,50.47,28.77,91.64c48.92,41.16,94.86,11.94,94.86,11.94s-42.25,6.01-82.18-27.59
	C641.42,681.93,639.89,639.54,639.89,639.54z"/>
<path class="st4" d="M642.88,635.17c0,0,43.51,66.46,123.86,104.68c0,0-37.39,16.07-85.39-24.32
	C633.36,675.15,642.88,635.17,642.88,635.17z"/>
<path d="M651.88,647.95l-8.63,10.16c0,0-2.7-13.86-1.91-22.87l2.56,1.58C643.9,636.81,648.16,645.53,651.88,647.95z"/>
<path d="M752.28,732.79l15.13,7.39l-4.33,1.64c0,0-9.99,2.07-18.48,1.18L752.28,732.79z"/>
<path class="st2" d="M698.32,695.22c42.73,35.96,70.69,45.07,70.69,45.07c-24.72-19.28-42.88-50.87-42.88-50.87
	c-9.06,7.16-20.71-2.64-20.71-2.64s-11.65-9.8-6.14-19.95c0,0-34.22-12.49-57.45-33.55C641.83,633.28,655.59,659.26,698.32,695.22z"
	/>
<path class="st2" d="M769.01,740.29c0,0-35.71,1.68-79.21-34.93s-47.96-72.08-47.96-72.08"/>
<path class="st2" d="M769.01,740.29c0,0-40.49,14.97-87.74-24.79c-47.26-39.77-39.43-82.22-39.43-82.22"/>
<path class="st2" d="M641.83,633.28c0,0-25.85,53.92,26.31,97.81c52.16,43.89,100.87,9.2,100.87,9.2"/>
<line class="st2" x1="684.47" y1="683.58" x2="668.27" y2="702.84"/>
<line class="st2" x1="671.74" y1="671.09" x2="657.07" y2="688.53"/>
<line class="st2" x1="660.69" y1="658.81" x2="648.68" y2="673.09"/>
<line class="st2" x1="651.76" y1="648.27" x2="643.59" y2="657.97"/>
<line class="st2" x1="712.15" y1="706.88" x2="695.96" y2="726.13"/>
<line class="st2" x1="726.64" y1="717.29" x2="711.96" y2="734.73"/>
<line class="st2" x1="740.63" y1="726.07" x2="728.62" y2="740.35"/>
<line class="st2" x1="752.54" y1="733.07" x2="744.38" y2="742.78"/>
<line class="st2" x1="698.32" y1="695.22" x2="681.26" y2="715.5"/>
<path class="st2" d="M769.01,740.29c0,0,1.69,7.96-7.64,14.34c-10.3,7.04-32.43,14.22-70.53,12.04"/>
<path class="st2" d="M767.04,750.21c0,0,0.52,8.48-9.44,15.55c-10.8,7.67-35.13,13.98-66.95,12.49"/>
<path class="st2" d="M761.64,762.77c0,0,0.5,8.14-9.06,14.93c-10.37,7.36-31.97,13.37-62.54,11.94"/>
<path class="st2" d="M751.45,778.69c0,0,0.41,6.73-7.48,12.33c-8.57,6.08-61.97,25.51-121.74-5.36l-33.53,5.48"/>
<path class="st2" d="M635.28,665.18c-0.75-3-2.32-4.97-3.98-6.26c-2.21-1.71-4.96,0-5.39,2.76c-6.04,38.32-13.8,32.96-18.99,54.58
	c-2.57,10.68-0.36,23.18,5.81,29.26"/>
<ellipse transform="matrix(0.9892 -0.1469 0.1469 0.9892 -104.4312 93.8985)" class="st2" cx="583.59" cy="754.08" rx="10.96" ry="37.43"/>
<line class="st2" x1="579.18" y1="717.04" x2="606.04" y2="718.91"/>
<ellipse transform="matrix(0.1614 -0.9869 0.9869 0.1614 -33.2734 1245.0094)" class="st2" cx="715.92" cy="642.08" rx="7.9" ry="19.27"/>
<ellipse transform="matrix(0.3174 -0.9483 0.9483 0.3174 -122.1215 1173.3662)" class="st2" cx="753.99" cy="671.51" rx="7.37" ry="19.27"/>
<path class="st2" d="M735.71,665.39c0,0,15.73-40.75,31.82-36.23c16.64,4.67,4.73,48.47,4.73,48.47"/>
<path class="st2" d="M696.86,639.03c0,0,9.12-42.72,25.72-40.79c17.17,1.99,12.31,47.12,12.31,47.12"/>
</svg>
