<?xml version="1.0" encoding="utf-8"?>
<!-- Generator: Adobe Illustrator 27.5.0, SVG Export Plug-In . SVG Version: 6.00 Build 0)  -->
<svg version="1.1" id="seagull" xmlns="http://www.w3.org/2000/svg" xmlns:xlink="http://www.w3.org/1999/xlink" x="0px" y="0px"
	 viewBox="0 0 1920 866" style="enable-background:new 0 0 1920 866;" xml:space="preserve">
<style type="text/css">
	.st0{fill:#E6E6DC;}
	.st1{fill:#FFFFFF;}
	.st2{fill:#FABE46;}
	.st3{fill:none;stroke:#000000;stroke-width:2;stroke-linecap:round;stroke-linejoin:round;stroke-miterlimit:10;}
</style>
<g>
	<path class="st0" d="M1760.27,721.63c0,0-9.82-4.63-12.87,0.34c-3.05,4.97,9.03,11.51,15.46,14.11l-17.83,1.81
		c0,0,30.7,12.41,31.26,38.26c0,0,34.2,6.66,57.1,2.48c0,0-22.91-18.06-29.34-25.73C1797.63,745.22,1776.3,725.24,1760.27,721.63z"
		/>
	<g>
		<path class="st1" d="M1813.09,761.7c0,0,23.25,2.48,36.45,9.25c0,0-13.66,2.93-23.36,2.71L1813.09,761.7z"/>
		<path class="st1" d="M1776.3,776.14c0,0-22.89,9.49-44.53,2.28s-29.58-22.06-31.39-25.66c-1.8-3.61-3.71-19.83,1.17-30.43
			c0,0-3.29-25.77,0.42-38.49c0,0-5.3-6.15-18.24-8.27l16.22-2.97c0,0-4.77-4.67-17.49-3.92c0,0,9.65-5.83,14.1-9.12
			s13.04-7.85,26.08,0c12.72,10.29,0.32,27.36,12.83,41.99s20.78,17.6,20.78,17.6s-7.54-1.03-8.86,2.82
			c-1.32,3.86,1.28,8.56,15.46,14.11c0,0-10.4,0.72-17.83,1.81C1745.04,737.88,1774.82,751.59,1776.3,776.14z"/>
	</g>
	<path class="st2" d="M1699.96,672.59c0,0-1.41-4.66-18.85-3.73c-13.83,1.63-13.05,9.08-13.05,9.08l32.16-3.3L1699.96,672.59z"/>
	<path class="st2" d="M1757.68,781.26l-0.09,37.39c0,0,7.12,9.19-6.31,12.88c0,0-2.97-3.33-17.66-1.98c0,0,2.7-5.86-0.63-7.75
		c0,0,9.19-3.15,20.54-3.42l0.45-37.21L1757.68,781.26z"/>
	<path class="st2" d="M1729.85,777.19l-0.09,36.9c0,0,7.12,9.19-6.31,12.88c0,0-2.97-3.33-17.66-1.98c0,0,2.7-5.86-0.63-7.75
		c0,0,9.19-3.15,20.54-3.42l0.45-37.21L1729.85,777.19z"/>
	<path d="M1821.95,762.53c0,0,8.99,4.86,8.69,11.05l-4.79-0.16l-12.66-11.88L1821.95,762.53z"/>
	<path class="st3" d="M1701.91,683.71c0,0-3.54,20.93-0.64,38.63c0,0-16.11,36.17,24.79,53.76c27.68,11.91,49.9,0,49.9,0
		s0-24.14-31.55-38.31c0,0,16.1-1.93,24.14,0c0,0-22.86-6.44-21.57-14.49c1.29-8.05,16.1-0.64,16.1-0.64s-29.44-12.53-32.98-33.16
		c-1.91-11.13,2.82-33.42-19.81-34.12c-10.85-0.34-16.02,6.11-22.59,10.28c-3.41,2.1-8.16,3.75-8.16,3.75s7.36-0.61,11.04-0.32
		c6.95,0.54,9.69,3.42,9.69,3.42l-0.03,2.13l-17.85,1.76C1682.36,676.4,1695.24,676.79,1701.91,683.71z"/>
	<path class="st3" d="M1679.53,669.41c0,0-13.2,2.3-11.57,8.44l14.41-1.45"/>
	<circle class="st3" cx="1703.13" cy="665.9" r="0.39"/>
	<path class="st3" d="M1763.07,722.66c0,0,16.61,6.37,28.13,17.7c14.01,13.79,34.17,34.36,43.23,38.51c0,0-25.22,3.9-58.48-2.77"/>
	<path class="st3" d="M1813.29,761.5c0,0,21.52,1.89,37,9.63c0,0-12.08,3.02-24.16,2.08"/>
	<path class="st3" d="M1757.61,818.89c0,0,6.49,9.99-6.74,12.48c0,0-5.49-3.5-17.23-1.75c0,0,3.74-6.99-2-7.49
		C1731.65,822.13,1743.88,816.89,1757.61,818.89"/>
	<line class="st3" x1="1757.41" y1="782.08" x2="1757.41" y2="818.32"/>
	<line class="st3" x1="1753.91" y1="782.08" x2="1753.91" y2="817.79"/>
	<path class="st3" d="M1729.79,814.32c0,0,6.49,9.99-6.74,12.48c0,0-5.49-3.5-17.23-1.75c0,0,3.74-6.99-2-7.49
		C1703.82,817.57,1716.06,812.33,1729.79,814.32"/>
	<line class="st3" x1="1729.58" y1="777.52" x2="1729.58" y2="813.76"/>
	<line class="st3" x1="1726.08" y1="776.22" x2="1726.08" y2="813.23"/>
</g>
</svg>
